<svg width="28" height="30" viewBox="0 0 28 30" fill="none" xmlns="http://www.w3.org/2000/svg">
<path fill-rule="evenodd" clip-rule="evenodd" d="M2.258 1.758C0.5 3.5145 0.5 6.3435 0.5 12V18C0.5 23.6565 0.5 26.4855 2.258 28.242C4.016 29.9985 6.8435 30 12.5 30H15.5C21.1565 30 23.9855 30 25.742 28.242C27.4985 26.484 27.5 23.6565 27.5 18V12C27.5 6.3435 27.5 3.5145 25.742 1.758C23.984 0.00149989 21.1565 0 15.5 0H12.5C6.8435 0 4.0145 -1.78814e-07 2.258 1.758ZM8 10.875C7.70163 10.875 7.41548 10.9935 7.2045 11.2045C6.99353 11.4155 6.875 11.7016 6.875 12C6.875 12.2984 6.99353 12.5845 7.2045 12.7955C7.41548 13.0065 7.70163 13.125 8 13.125H20C20.2984 13.125 20.5845 13.0065 20.7955 12.7955C21.0065 12.5845 21.125 12.2984 21.125 12C21.125 11.7016 21.0065 11.4155 20.7955 11.2045C20.5845 10.9935 20.2984 10.875 20 10.875H8ZM8 16.875C7.70163 16.875 7.41548 16.9935 7.2045 17.2045C6.99353 17.4155 6.875 17.7016 6.875 18C6.875 18.2984 6.99353 18.5845 7.2045 18.7955C7.41548 19.0065 7.70163 19.125 8 19.125H15.5C15.7984 19.125 16.0845 19.0065 16.2955 18.7955C16.5065 18.5845 16.625 18.2984 16.625 18C16.625 17.7016 16.5065 17.4155 16.2955 17.2045C16.0845 16.9935 15.7984 16.875 15.5 16.875H8Z" fill="white"/>
</svg>
