<svg width="1596" height="711" viewBox="0 0 1596 711" fill="none" xmlns="http://www.w3.org/2000/svg">
<path d="M1590.5 146.499C1154.5 75.9987 812.002 276.993 726.001 350C586.572 468.363 382.505 473.081 178.005 305.501C64.5049 212.492 329.132 107.539 286.505 268.001C252.235 397.001 185.504 379.002 24.0038 580.504" stroke="#272727" stroke-width="60"/>
<path d="M22.6475 564.598L34.4403 574.175L27.3292 582.931L24.9073 580.964L29.5976 575.189L27.362 573.373L23.292 578.385L20.8701 576.418L24.9401 571.406L22.6486 569.545L17.9582 575.321L15.5363 573.354L22.6475 564.598Z" fill="white"/>
<path d="M31.224 554.195L42.9372 563.87L35.7538 572.567L33.3483 570.58L38.0862 564.843L35.8657 563.009L31.7544 567.987L29.3489 566L33.4602 561.022L31.1842 559.142L26.4462 564.879L24.0406 562.892L31.224 554.195Z" fill="white"/>
<path d="M34.9912 554.804L32.6774 552.857C33.0494 552.166 33.4418 551.513 33.8544 550.899C34.2671 550.284 34.7979 549.591 35.4469 548.82C36.2813 547.828 37.0727 547.062 37.8209 546.52C38.5589 545.991 39.3173 545.699 40.096 545.643C40.8767 545.61 41.7422 545.836 42.6925 546.322C43.6428 546.808 44.7423 547.576 45.991 548.627C47.1908 549.637 48.099 550.558 48.7158 551.39C49.3326 552.223 49.6791 553.017 49.7554 553.771C49.8336 554.548 49.669 555.34 49.2616 556.147C48.8561 556.977 48.2362 557.887 47.4018 558.879C46.7528 559.65 46.1607 560.292 45.6257 560.803C45.1028 561.325 44.5268 561.824 43.8977 562.298L41.5104 560.289L41.52 560.203C42.0751 559.792 42.578 559.368 43.0287 558.932C43.4917 558.506 44.0168 557.944 44.604 557.246C45.0778 556.683 45.4264 556.182 45.6498 555.743C45.8751 555.326 45.959 554.915 45.9015 554.511C45.844 554.108 45.6248 553.672 45.244 553.205C44.8528 552.751 44.2777 552.204 43.5187 551.565C42.7229 550.896 42.0493 550.392 41.4977 550.053C40.9482 549.737 40.4634 549.58 40.0434 549.582C39.6235 549.584 39.2212 549.727 38.8368 550.01C38.4421 550.305 38.0078 550.734 37.5339 551.297C36.957 551.983 36.4861 552.58 36.121 553.088C35.7579 553.619 35.4316 554.181 35.142 554.774L34.9912 554.804Z" fill="white"/>
<path d="M41.6203 541.834L44.1133 538.913L55.6683 548.776L53.1753 551.697L41.6203 541.834Z" fill="white"/>
<path d="M103.048 490.323C103.521 490.159 104.027 489.893 104.566 489.525C105.093 489.168 105.586 488.754 106.045 488.285C106.894 487.415 107.332 486.635 107.358 485.944C107.383 485.254 107.023 484.477 106.278 483.615L106.261 483.632C106.141 483.984 105.919 484.394 105.597 484.862C105.274 485.33 104.867 485.815 104.375 486.319C103.291 487.429 102.2 488.019 101.103 488.089C100.007 488.159 98.9319 487.679 97.8788 486.651C97.1233 485.913 96.5997 485.167 96.3079 484.412C96.0275 483.669 96.0351 482.871 96.3305 482.019C96.6261 481.189 97.277 480.259 98.2831 479.229C99.3787 478.107 100.428 477.422 101.433 477.172C102.425 476.934 103.44 477.075 104.475 477.594C105.511 478.114 106.63 478.961 107.832 480.134C109.091 481.364 109.937 482.548 110.369 483.685C110.801 484.846 110.876 485.937 110.594 486.958C110.324 487.991 109.752 488.954 108.88 489.847C108.143 490.602 107.454 491.182 106.813 491.585C106.173 491.989 105.611 492.29 105.127 492.488L103.015 490.425L103.048 490.323ZM100.378 481.275C99.7631 481.904 99.4525 482.429 99.4461 482.847C99.4397 483.266 99.6712 483.705 100.141 484.163C100.644 484.655 101.111 484.864 101.54 484.791C101.98 484.729 102.48 484.412 103.039 483.84C103.385 483.485 103.675 483.108 103.908 482.71C104.141 482.311 104.278 481.964 104.32 481.67C103.461 480.808 102.749 480.359 102.183 480.32C101.617 480.304 101.015 480.622 100.378 481.275Z" fill="white"/>
<path d="M118.514 474.046L120.738 476.268C120.592 476.913 120.275 477.637 119.789 478.441C119.303 479.244 118.681 480.025 117.924 480.784C116.714 481.995 115.509 482.725 114.31 482.975C113.1 483.236 111.928 482.801 110.796 481.67C109.902 480.777 109.393 479.849 109.268 478.888C109.143 477.949 109.402 476.761 110.046 475.323C110.668 473.932 111.035 472.907 111.148 472.251C111.261 471.618 111.187 471.171 110.927 470.911L105.397 476.446L103.241 474.292L111.281 466.244L113.182 468.143C113.76 468.72 114.156 469.308 114.371 469.908C114.575 470.518 114.604 471.237 114.457 472.063C114.31 472.889 113.989 473.913 113.491 475.135C113.119 476.052 112.876 476.815 112.763 477.426C112.65 478.06 112.78 478.552 113.154 478.903C113.595 479.321 114.059 479.457 114.546 479.309C115.032 479.184 115.558 478.839 116.123 478.273C116.666 477.73 117.124 477.079 117.497 476.321C117.881 475.574 118.169 474.867 118.361 474.199L118.514 474.046Z" fill="white"/>
<path d="M117.719 470.343C116.444 469.038 115.57 467.846 115.096 466.766C114.622 465.685 114.543 464.643 114.86 463.64C115.177 462.637 115.891 461.593 117.001 460.508C118.1 459.434 119.154 458.751 120.164 458.457C121.175 458.163 122.214 458.265 123.284 458.764C124.353 459.263 125.525 460.165 126.8 461.469C128.086 462.785 128.966 463.983 129.44 465.064C129.914 466.144 129.992 467.186 129.675 468.189C129.358 469.193 128.65 470.231 127.552 471.305C126.442 472.389 125.382 473.079 124.371 473.373C123.361 473.666 122.321 473.564 121.252 473.065C120.183 472.566 119.005 471.659 117.719 470.343ZM119.232 462.791C118.454 463.551 118.191 464.301 118.442 465.039C118.694 465.8 119.334 466.707 120.363 467.76C121.403 468.824 122.295 469.485 123.038 469.742C123.771 470.011 124.526 469.765 125.304 469.005C126.071 468.255 126.334 467.506 126.094 466.756C125.842 466.018 125.196 465.117 124.156 464.053C123.127 463 122.241 462.333 121.498 462.053C120.754 461.796 119.999 462.042 119.232 462.791Z" fill="white"/>
<path d="M137.828 455.347L139.998 457.622C139.836 458.263 139.502 458.979 138.997 459.771C138.492 460.562 137.851 461.328 137.076 462.068C135.837 463.25 134.615 463.951 133.41 464.171C132.194 464.403 131.033 463.94 129.929 462.782C129.057 461.868 128.569 460.928 128.468 459.964C128.366 459.022 128.654 457.841 129.332 456.419C129.987 455.043 130.379 454.028 130.508 453.375C130.636 452.744 130.573 452.295 130.319 452.029L124.657 457.429L122.553 455.224L130.785 447.372L132.64 449.317C133.204 449.907 133.586 450.505 133.786 451.109C133.975 451.725 133.987 452.444 133.82 453.266C133.654 454.088 133.307 455.104 132.781 456.314C132.386 457.221 132.125 457.979 131.997 458.587C131.869 459.218 131.988 459.713 132.353 460.072C132.784 460.501 133.244 460.648 133.734 460.512C134.223 460.399 134.758 460.067 135.336 459.515C135.892 458.985 136.366 458.345 136.757 457.596C137.159 456.859 137.464 456.159 137.672 455.496L137.828 455.347Z" fill="white"/>
<path d="M145.338 434.021L155.636 445.19L147.343 452.836L145.228 450.543L150.698 445.499L148.745 443.382L143.999 447.758L141.884 445.464L146.63 441.088L144.629 438.918L139.16 443.961L137.045 441.667L145.338 434.021Z" fill="white"/>
<path d="M155.439 424.876L165.622 436.15L157.251 443.711L155.16 441.396L160.681 436.409L158.751 434.272L153.96 438.599L151.869 436.284L156.66 431.956L154.681 429.766L149.16 434.753L147.068 432.437L155.439 424.876Z" fill="white"/>
<path d="M158.938 426.15L156.93 423.889C157.398 423.26 157.88 422.671 158.377 422.122C158.874 421.574 159.5 420.965 160.253 420.295C161.222 419.434 162.116 418.79 162.935 418.363C163.742 417.946 164.534 417.766 165.313 417.824C166.09 417.904 166.914 418.253 167.784 418.871C168.654 419.489 169.631 420.408 170.715 421.628C171.756 422.801 172.522 423.843 173.011 424.756C173.501 425.669 173.73 426.505 173.696 427.262C173.661 428.042 173.384 428.802 172.864 429.542C172.343 430.304 171.598 431.116 170.629 431.977C169.875 432.646 169.197 433.195 168.594 433.624C168.001 434.065 167.359 434.475 166.668 434.853L164.596 432.52L164.618 432.437C165.226 432.11 165.785 431.763 166.294 431.397C166.814 431.042 167.415 430.562 168.097 429.957C168.647 429.468 169.064 429.022 169.349 428.62C169.632 428.24 169.774 427.846 169.776 427.438C169.777 427.03 169.623 426.568 169.314 426.051C168.992 425.544 168.502 424.92 167.844 424.179C167.153 423.401 166.559 422.805 166.062 422.39C165.564 421.998 165.107 421.773 164.691 421.714C164.276 421.655 163.857 421.738 163.436 421.963C163.002 422.198 162.511 422.559 161.96 423.048C161.291 423.643 160.738 424.166 160.304 424.616C159.868 425.089 159.463 425.598 159.091 426.142L158.938 426.15Z" fill="white"/>
<path d="M167.317 414.318L170.2 411.781L180.237 423.185L177.354 425.722L167.317 414.318Z" fill="white"/>
<path d="M233.209 368.869C233.677 368.691 234.174 368.41 234.702 368.025C235.218 367.652 235.699 367.225 236.143 366.742C236.966 365.847 237.38 365.054 237.385 364.363C237.39 363.672 237.007 362.906 236.235 362.067L236.219 362.084C236.11 362.44 235.901 362.857 235.592 363.334C235.284 363.811 234.891 364.309 234.415 364.827C233.364 365.969 232.292 366.592 231.198 366.694C230.104 366.797 229.015 366.35 227.931 365.354C227.154 364.639 226.608 363.909 226.294 363.163C225.991 362.428 225.975 361.631 226.245 360.77C226.515 359.932 227.138 358.983 228.112 357.923C229.174 356.769 230.203 356.052 231.199 355.773C232.184 355.505 233.202 355.615 234.253 356.103C235.304 356.591 236.448 357.404 237.684 358.541C238.98 359.732 239.861 360.89 240.327 362.014C240.794 363.161 240.902 364.249 240.65 365.279C240.411 366.319 239.869 367.299 239.024 368.218C238.309 368.995 237.638 369.595 237.01 370.018C236.383 370.44 235.83 370.758 235.352 370.97L233.179 368.972L233.209 368.869ZM230.268 359.905C229.672 360.553 229.377 361.086 229.384 361.505C229.39 361.924 229.635 362.355 230.117 362.799C230.636 363.275 231.108 363.471 231.535 363.385C231.973 363.31 232.463 362.978 233.005 362.389C233.34 362.024 233.619 361.639 233.84 361.233C234.06 360.828 234.187 360.477 234.22 360.181C233.336 359.346 232.61 358.918 232.043 358.897C231.477 358.898 230.885 359.234 230.268 359.905Z" fill="white"/>
<path d="M247.918 351.342L250.342 353.344C250.257 354 250.01 354.751 249.602 355.597C249.194 356.443 248.649 357.279 247.966 358.105C246.876 359.425 245.746 360.266 244.576 360.628C243.395 361.002 242.188 360.68 240.955 359.661C239.98 358.856 239.385 357.981 239.17 357.035C238.957 356.112 239.103 354.905 239.609 353.413C240.096 351.969 240.365 350.915 240.415 350.251C240.467 349.609 240.352 349.171 240.068 348.937L235.086 354.97L232.736 353.029L239.98 344.257L242.052 345.969C242.682 346.489 243.132 347.037 243.402 347.613C243.663 348.202 243.76 348.915 243.692 349.751C243.624 350.587 243.4 351.637 243.02 352.9C242.736 353.848 242.566 354.631 242.511 355.25C242.459 355.892 242.635 356.369 243.04 356.683C243.519 357.058 243.994 357.149 244.464 356.956C244.937 356.786 245.428 356.393 245.937 355.776C246.426 355.184 246.82 354.493 247.12 353.703C247.432 352.923 247.652 352.191 247.78 351.509L247.918 351.342Z" fill="white"/>
<path d="M246.695 347.7C245.215 346.634 244.149 345.609 243.497 344.626C242.844 343.643 242.588 342.63 242.728 341.587C242.869 340.544 243.393 339.393 244.3 338.134C245.198 336.888 246.12 336.034 247.065 335.571C248.01 335.108 249.052 335.031 250.191 335.339C251.33 335.647 252.639 336.334 254.118 337.401C255.611 338.477 256.684 339.506 257.336 340.489C257.988 341.472 258.244 342.485 258.104 343.528C257.964 344.571 257.444 345.715 256.546 346.961C255.639 348.22 254.713 349.081 253.768 349.544C252.823 350.007 251.781 350.084 250.642 349.776C249.503 349.468 248.187 348.776 246.695 347.7ZM246.89 340.001C246.253 340.883 246.123 341.667 246.497 342.351C246.875 343.057 247.662 343.841 248.856 344.702C250.063 345.572 251.055 346.07 251.832 346.196C252.599 346.335 253.301 345.963 253.937 345.081C254.564 344.211 254.695 343.428 254.33 342.731C253.955 342.046 253.164 341.269 251.957 340.399C250.763 339.538 249.776 339.034 248.995 338.885C248.218 338.759 247.516 339.131 246.89 340.001Z" fill="white"/>
<path d="M263.082 329.104L265.754 330.76C265.758 331.422 265.615 332.199 265.325 333.092C265.035 333.985 264.607 334.888 264.043 335.799C263.141 337.254 262.134 338.24 261.024 338.756C259.905 339.286 258.665 339.129 257.305 338.286C256.231 337.621 255.523 336.834 255.182 335.926C254.847 335.04 254.829 333.824 255.128 332.278C255.416 330.781 255.54 329.7 255.5 329.035C255.466 328.393 255.292 327.975 254.979 327.781L250.857 334.431L248.266 332.825L254.26 323.156L256.544 324.572C257.238 325.002 257.758 325.484 258.104 326.019C258.442 326.567 258.634 327.26 258.679 328.098C258.725 328.935 258.645 330.006 258.439 331.309C258.285 332.287 258.223 333.086 258.252 333.706C258.287 334.349 258.526 334.798 258.97 335.054C259.495 335.361 259.977 335.387 260.417 335.133C260.863 334.901 261.296 334.445 261.717 333.765C262.122 333.112 262.42 332.374 262.61 331.55C262.814 330.736 262.933 329.981 262.968 329.288L263.082 329.104Z" fill="white"/>
<path d="M262.947 306.482L276.599 313.146L271.651 323.283L268.847 321.914L272.111 315.228L269.523 313.965L266.691 319.766L263.887 318.398L266.719 312.596L264.066 311.301L260.803 317.987L257.999 316.618L262.947 306.482Z" fill="white"/>
<path d="M267.787 295.021L281.815 300.852L277.486 311.268L274.605 310.071L277.461 303.201L274.801 302.095L272.323 308.057L269.442 306.859L271.92 300.898L269.194 299.765L266.339 306.635L263.458 305.438L267.787 295.021Z" fill="white"/>
<path d="M271.567 294.393L268.718 293.38C268.824 292.603 268.963 291.854 269.134 291.134C269.305 290.414 269.559 289.578 269.897 288.629C270.331 287.407 270.803 286.412 271.314 285.643C271.82 284.889 272.428 284.349 273.138 284.024C273.857 283.719 274.747 283.628 275.808 283.75C276.868 283.872 278.167 284.207 279.705 284.753C281.182 285.278 282.356 285.823 283.225 286.386C284.095 286.95 284.697 287.572 285.033 288.251C285.378 288.951 285.502 289.751 285.403 290.65C285.314 291.569 285.053 292.639 284.619 293.86C284.281 294.81 283.952 295.618 283.63 296.285C283.323 296.957 282.958 297.626 282.535 298.29L279.595 297.246L279.574 297.162C279.95 296.582 280.272 296.009 280.542 295.443C280.826 294.881 281.121 294.171 281.426 293.312C281.673 292.618 281.824 292.027 281.879 291.537C281.944 291.067 281.878 290.654 281.683 290.296C281.488 289.937 281.13 289.607 280.609 289.303C280.084 289.014 279.354 288.704 278.419 288.371C277.439 288.023 276.631 287.787 275.996 287.663C275.371 287.56 274.862 287.583 274.469 287.732C274.076 287.881 273.75 288.156 273.489 288.555C273.222 288.97 272.966 289.524 272.72 290.218C272.42 291.062 272.188 291.786 272.024 292.39C271.87 293.015 271.761 293.655 271.698 294.312L271.567 294.393Z" fill="white"/>
<path d="M273.052 280.271L274.211 276.61L288.695 281.196L287.536 284.857L273.052 280.271Z" fill="white"/>
<path d="M286.774 205.286C286.703 204.791 286.537 204.243 286.277 203.645C286.027 203.059 285.714 202.497 285.34 201.958C284.647 200.959 283.964 200.381 283.291 200.225C282.618 200.069 281.787 200.275 280.799 200.844L280.813 200.864C281.136 201.049 281.496 201.344 281.895 201.749C282.293 202.154 282.692 202.646 283.094 203.225C283.979 204.5 284.351 205.682 284.212 206.772C284.072 207.862 283.398 208.827 282.189 209.666C281.321 210.268 280.489 210.641 279.693 210.785C278.91 210.919 278.128 210.76 277.347 210.309C276.589 209.862 275.799 209.046 274.978 207.863C274.084 206.575 273.61 205.414 273.555 204.381C273.51 203.361 273.84 202.392 274.546 201.473C275.252 200.555 276.296 199.617 277.676 198.659C279.122 197.655 280.444 197.049 281.643 196.841C282.864 196.636 283.95 196.769 284.9 197.239C285.862 197.701 286.7 198.444 287.411 199.469C288.013 200.337 288.452 201.123 288.727 201.828C289.002 202.533 289.191 203.142 289.293 203.655L286.868 205.338L286.774 205.286ZM277.384 206.194C277.885 206.917 278.341 207.321 278.751 207.407C279.161 207.492 279.636 207.348 280.175 206.974C280.753 206.573 281.047 206.154 281.057 205.719C281.079 205.275 280.863 204.724 280.407 204.067C280.124 203.66 279.809 203.304 279.461 203C279.114 202.695 278.799 202.495 278.518 202.398C277.51 203.078 276.933 203.692 276.788 204.241C276.665 204.794 276.864 205.445 277.384 206.194Z" fill="white"/>
<path d="M270.438 188.768L272.35 186.272C273.009 186.333 273.768 186.553 274.628 186.93C275.488 187.307 276.344 187.821 277.195 188.473C278.554 189.515 279.435 190.614 279.839 191.77C280.255 192.936 279.977 194.154 279.004 195.424C278.235 196.427 277.382 197.053 276.445 197.303C275.53 197.549 274.318 197.447 272.809 196.996C271.348 196.561 270.285 196.331 269.62 196.305C268.977 196.276 268.543 196.407 268.319 196.699L274.529 201.459L272.675 203.878L263.646 196.958L265.281 194.824C265.778 194.177 266.309 193.707 266.875 193.415C267.454 193.133 268.163 193.011 269.001 193.049C269.839 193.086 270.896 193.272 272.173 193.605C273.13 193.855 273.919 193.996 274.54 194.028C275.183 194.057 275.653 193.864 275.952 193.448C276.309 192.956 276.383 192.478 276.174 192.015C275.986 191.549 275.575 191.073 274.941 190.586C274.331 190.119 273.626 189.75 272.826 189.479C272.035 189.195 271.296 189.002 270.609 188.899L270.438 188.768Z" fill="white"/>
<path d="M267.404 190.648C266.769 192.358 266.064 193.658 265.289 194.548C264.515 195.438 263.606 195.953 262.564 196.095C261.521 196.237 260.272 196.037 258.817 195.497C257.378 194.962 256.309 194.3 255.612 193.512C254.915 192.724 254.564 191.74 254.558 190.56C254.553 189.38 254.868 187.936 255.503 186.226C256.144 184.501 256.852 183.194 257.626 182.304C258.401 181.414 259.309 180.898 260.352 180.756C261.394 180.614 262.636 180.811 264.075 181.346C265.53 181.887 266.606 182.551 267.303 183.339C268.001 184.127 268.352 185.111 268.357 186.291C268.363 187.471 268.045 188.923 267.404 190.648ZM259.929 192.505C260.949 192.884 261.739 192.802 262.299 192.259C262.88 191.707 263.427 190.74 263.939 189.361C264.458 187.966 264.674 186.877 264.59 186.095C264.52 185.318 263.975 184.74 262.955 184.361C261.95 183.987 261.16 184.069 260.585 184.607C260.025 185.15 259.486 186.118 258.968 187.513C258.455 188.893 258.231 189.979 258.295 190.771C258.38 191.553 258.924 192.131 259.929 192.505Z" fill="white"/>
<path d="M243.714 181.445L244.087 178.324C244.685 178.041 245.45 177.842 246.382 177.728C247.315 177.614 248.313 177.62 249.377 177.747C251.077 177.95 252.396 178.446 253.333 179.235C254.286 180.026 254.667 181.215 254.477 182.804C254.327 184.059 253.913 185.033 253.234 185.725C252.573 186.403 251.478 186.933 249.95 187.315C248.472 187.686 247.44 188.03 246.854 188.347C246.286 188.649 245.98 188.983 245.937 189.349L253.705 190.277L253.344 193.304L242.048 191.954L242.367 189.285C242.464 188.475 242.681 187.8 243.02 187.26C243.374 186.722 243.921 186.256 244.661 185.861C245.401 185.466 246.406 185.086 247.674 184.722C248.625 184.449 249.375 184.168 249.926 183.88C250.494 183.577 250.8 183.17 250.845 182.66C250.901 182.054 250.721 181.606 250.305 181.314C249.906 181.009 249.31 180.809 248.515 180.714C247.753 180.623 246.958 180.665 246.131 180.84C245.307 180.999 244.573 181.21 243.929 181.471L243.714 181.445Z" fill="white"/>
<path d="M224.967 193.449L222.93 178.394L234.108 176.882L234.527 179.974L227.154 180.971L227.54 183.825L233.938 182.96L234.356 186.052L227.958 186.917L228.354 189.842L235.727 188.845L236.145 191.937L224.967 193.449Z" fill="white"/>
<path d="M213.33 196.489L209.353 181.827L220.239 178.874L221.056 181.885L213.876 183.833L214.63 186.613L220.86 184.922L221.677 187.934L215.446 189.624L216.219 192.473L223.4 190.525L224.217 193.536L213.33 196.489Z" fill="white"/>
<path d="M211.151 193.706L212.284 196.51C211.631 196.946 210.979 197.339 210.327 197.689C209.674 198.038 208.881 198.402 207.946 198.779C206.744 199.265 205.686 199.571 204.771 199.699C203.871 199.821 203.065 199.724 202.35 199.409C201.645 199.072 200.986 198.467 200.374 197.592C199.762 196.718 199.151 195.524 198.54 194.011C197.953 192.557 197.582 191.318 197.427 190.293C197.272 189.269 197.337 188.405 197.623 187.703C197.918 186.98 198.434 186.358 199.172 185.835C199.919 185.292 200.893 184.778 202.095 184.292C203.03 183.915 203.853 183.625 204.566 183.424C205.272 183.208 206.014 183.037 206.792 182.913L207.961 185.806L207.912 185.877C207.229 185.981 206.586 186.12 205.984 186.294C205.375 186.453 204.648 186.704 203.802 187.045C203.12 187.321 202.577 187.601 202.174 187.884C201.78 188.147 201.513 188.47 201.375 188.854C201.237 189.238 201.226 189.725 201.344 190.316C201.477 190.901 201.729 191.653 202.1 192.573C202.49 193.537 202.849 194.298 203.178 194.856C203.515 195.392 203.87 195.758 204.242 195.953C204.614 196.148 205.036 196.21 205.508 196.14C205.995 196.064 206.58 195.889 207.262 195.613C208.093 195.278 208.789 194.971 209.35 194.692C209.919 194.393 210.471 194.05 211.004 193.662L211.151 193.706Z" fill="white"/>
<path d="M199.96 201.871L196.539 203.615L189.64 190.08L193.062 188.336L199.96 201.871Z" fill="white"/>
<path d="M147.414 253.268C147.229 253.733 147.099 254.29 147.026 254.938C146.951 255.571 146.942 256.214 146.997 256.868C147.1 258.079 147.405 258.921 147.911 259.391C148.416 259.862 149.239 260.097 150.379 260.097L150.377 260.073C150.189 259.752 150.024 259.316 149.881 258.766C149.738 258.216 149.636 257.591 149.577 256.889C149.445 255.343 149.711 254.132 150.375 253.256C151.04 252.381 152.105 251.881 153.572 251.756C154.624 251.667 155.531 251.758 156.293 252.031C157.039 252.304 157.638 252.831 158.089 253.612C158.524 254.378 158.802 255.478 158.924 256.913C159.057 258.476 158.89 259.718 158.422 260.641C157.953 261.548 157.184 262.224 156.114 262.668C155.044 263.112 153.672 263.406 151.998 263.548C150.244 263.697 148.795 263.563 147.652 263.147C146.491 262.716 145.616 262.06 145.028 261.178C144.423 260.298 144.068 259.237 143.962 257.993C143.872 256.941 143.884 256.041 143.997 255.292C144.11 254.544 144.25 253.922 144.416 253.426L147.358 253.176L147.414 253.268ZM156.007 257.161C155.932 256.284 155.738 255.707 155.426 255.428C155.113 255.15 154.63 255.038 153.976 255.094C153.275 255.154 152.811 255.37 152.586 255.742C152.345 256.116 152.258 256.701 152.326 257.498C152.368 257.993 152.464 258.458 152.613 258.895C152.763 259.332 152.936 259.663 153.131 259.887C154.344 259.8 155.15 259.554 155.55 259.151C155.932 258.733 156.084 258.07 156.007 257.161Z" fill="white"/>
<path d="M152.732 275.694L149.775 276.76C149.254 276.353 148.733 275.758 148.213 274.976C147.693 274.194 147.251 273.299 146.887 272.291C146.307 270.68 146.159 269.279 146.443 268.088C146.723 266.882 147.615 266.007 149.12 265.464C150.309 265.036 151.365 264.97 152.289 265.266C153.191 265.553 154.156 266.293 155.182 267.488C156.177 268.643 156.947 269.411 157.493 269.793C158.018 270.165 158.454 270.288 158.8 270.163L156.146 262.803L159.013 261.769L162.872 272.471L160.344 273.383C159.576 273.66 158.875 273.768 158.241 273.707C157.602 273.632 156.939 273.352 156.254 272.867C155.569 272.383 154.78 271.656 153.886 270.685C153.215 269.958 152.627 269.413 152.123 269.051C151.597 268.679 151.097 268.587 150.62 268.776C150.054 268.997 149.734 269.359 149.66 269.862C149.566 270.355 149.654 270.978 149.926 271.731C150.186 272.453 150.58 273.145 151.107 273.805C151.619 274.471 152.137 275.033 152.659 275.49L152.732 275.694Z" fill="white"/>
<path d="M156.401 275.998C157.937 275.016 159.283 274.402 160.437 274.158C161.591 273.914 162.627 274.049 163.545 274.564C164.463 275.078 165.34 275.989 166.176 277.297C167.003 278.591 167.458 279.763 167.54 280.812C167.622 281.861 167.31 282.858 166.604 283.803C165.898 284.748 164.777 285.712 163.24 286.695C161.69 287.686 160.338 288.304 159.184 288.548C158.029 288.792 156.993 288.657 156.076 288.142C155.158 287.628 154.285 286.723 153.458 285.429C152.622 284.122 152.162 282.943 152.08 281.894C151.998 280.845 152.31 279.848 153.016 278.903C153.722 277.958 154.85 276.99 156.401 275.998ZM163.487 279.017C162.901 278.1 162.22 277.69 161.446 277.786C160.65 277.877 159.632 278.319 158.392 279.112C157.138 279.914 156.31 280.653 155.906 281.328C155.494 281.991 155.581 282.78 156.167 283.697C156.745 284.6 157.425 285.01 158.207 284.928C158.982 284.831 159.995 284.382 161.249 283.581C162.489 282.788 163.322 282.056 163.748 281.385C164.151 280.709 164.064 279.92 163.487 279.017Z" fill="white"/>
<path d="M168.813 297.737L166.488 299.854C165.851 299.677 165.143 299.326 164.363 298.803C163.583 298.279 162.833 297.621 162.111 296.828C160.959 295.562 160.286 294.324 160.094 293.115C159.891 291.893 160.381 290.744 161.564 289.667C162.498 288.816 163.449 288.351 164.415 288.272C165.359 288.191 166.534 288.507 167.939 289.219C169.3 289.905 170.305 290.321 170.955 290.464C171.583 290.607 172.033 290.555 172.305 290.307L167.038 284.521L169.292 282.469L176.95 290.882L174.962 292.691C174.359 293.241 173.753 293.609 173.144 293.795C172.524 293.97 171.805 293.964 170.987 293.779C170.169 293.593 169.161 293.223 167.964 292.669C167.066 292.253 166.314 291.974 165.709 291.832C165.082 291.69 164.584 291.796 164.216 292.153C163.778 292.574 163.62 293.031 163.744 293.524C163.846 294.016 164.166 294.557 164.704 295.149C165.221 295.717 165.85 296.205 166.589 296.614C167.317 297.033 168.01 297.354 168.668 297.578L168.813 297.737Z" fill="white"/>
<path d="M190.847 302.85L181.236 314.615L172.5 307.479L174.474 305.063L180.236 309.77L182.058 307.539L177.058 303.455L179.032 301.039L184.032 305.123L185.899 302.837L180.137 298.13L182.111 295.714L190.847 302.85Z" fill="white"/>
<path d="M201.238 311.048L191.852 322.993L182.982 316.023L184.91 313.57L190.76 318.167L192.54 315.903L187.463 311.914L189.391 309.46L194.467 313.449L196.291 311.128L190.441 306.531L192.369 304.078L201.238 311.048Z" fill="white"/>
<path d="M200.982 315.008L202.807 312.597C203.516 312.933 204.188 313.291 204.823 313.671C205.459 314.052 206.178 314.546 206.982 315.154C208.015 315.937 208.822 316.687 209.401 317.407C209.968 318.116 210.299 318.858 210.395 319.633C210.468 320.411 210.287 321.287 209.85 322.261C209.414 323.235 208.704 324.373 207.719 325.675C206.773 326.925 205.9 327.879 205.1 328.538C204.3 329.197 203.526 329.584 202.777 329.7C202.005 329.818 201.205 329.694 200.378 329.329C199.528 328.967 198.587 328.395 197.554 327.613C196.75 327.005 196.079 326.447 195.54 325.939C194.992 325.443 194.464 324.894 193.958 324.29L195.841 321.802L195.927 321.807C196.367 322.341 196.816 322.821 197.275 323.249C197.724 323.689 198.312 324.184 199.04 324.735C199.626 325.179 200.145 325.501 200.595 325.701C201.023 325.905 201.437 325.967 201.838 325.889C202.238 325.811 202.662 325.569 203.108 325.165C203.542 324.751 204.058 324.148 204.657 323.357C205.284 322.528 205.753 321.829 206.063 321.261C206.35 320.696 206.482 320.204 206.458 319.784C206.434 319.365 206.271 318.971 205.969 318.601C205.653 318.222 205.202 317.811 204.615 317.367C203.901 316.826 203.281 316.386 202.754 316.048C202.205 315.713 201.627 315.416 201.02 315.157L200.982 315.008Z" fill="white"/>
<path d="M213.575 320.405L216.668 322.68L207.665 334.917L204.572 332.641L213.575 320.405Z" fill="white"/>
<path d="M273.732 372.738C274.014 373.151 274.404 373.57 274.901 373.993C275.384 374.408 275.912 374.775 276.485 375.094C277.548 375.686 278.415 375.903 279.089 375.747C279.762 375.591 280.416 375.04 281.053 374.094L281.032 374.082C280.66 374.058 280.207 373.952 279.671 373.764C279.135 373.575 278.559 373.31 277.944 372.967C276.588 372.213 275.733 371.315 275.378 370.275C275.023 369.235 275.203 368.072 275.919 366.786C276.433 365.863 277.015 365.162 277.667 364.683C278.311 364.217 279.082 364.015 279.982 364.076C280.86 364.144 281.928 364.528 283.186 365.228C284.556 365.991 285.494 366.824 285.998 367.727C286.488 368.623 286.619 369.638 286.389 370.774C286.16 371.91 285.636 373.212 284.819 374.68C283.963 376.218 283.043 377.344 282.059 378.06C281.053 378.782 280.02 379.14 278.96 379.136C277.892 379.146 276.813 378.848 275.723 378.241C274.8 377.727 274.06 377.214 273.502 376.703C272.945 376.191 272.507 375.727 272.189 375.312L273.625 372.733L273.732 372.738ZM281.762 367.786C280.993 367.358 280.406 367.196 280 367.3C279.595 367.404 279.232 367.742 278.913 368.315C278.571 368.931 278.491 369.436 278.674 369.83C278.849 370.239 279.286 370.638 279.985 371.027C280.419 371.269 280.858 371.449 281.304 371.569C281.75 371.689 282.121 371.731 282.416 371.694C283.022 370.639 283.269 369.834 283.157 369.277C283.024 368.727 282.559 368.23 281.762 367.786Z" fill="white"/>
<path d="M293.6 383.031L292.131 385.811C291.471 385.86 290.686 385.771 289.775 385.543C288.864 385.315 287.935 384.951 286.987 384.45C285.473 383.65 284.42 382.714 283.829 381.642C283.223 380.562 283.294 379.314 284.042 377.9C284.632 376.782 285.369 376.022 286.251 375.62C287.111 375.224 288.323 375.122 289.886 375.315C291.4 375.499 292.486 375.548 293.147 375.463C293.785 375.384 294.191 375.182 294.363 374.857L287.445 371.202L288.869 368.507L298.927 373.821L297.671 376.198C297.29 376.919 296.845 377.471 296.335 377.853C295.812 378.228 295.133 378.467 294.301 378.57C293.468 378.673 292.395 378.667 291.081 378.551C290.095 378.465 289.293 378.458 288.676 378.53C288.037 378.608 287.606 378.878 287.381 379.338C287.111 379.883 287.118 380.366 287.402 380.788C287.664 381.216 288.149 381.617 288.856 381.991C289.535 382.349 290.292 382.595 291.126 382.729C291.953 382.876 292.714 382.943 293.409 382.93L293.6 383.031Z" fill="white"/>
<path d="M297.138 381.255C297.951 379.622 298.79 378.405 299.655 377.602C300.519 376.799 301.478 376.383 302.529 376.353C303.581 376.323 304.802 376.654 306.191 377.346C307.566 378.031 308.558 378.802 309.167 379.66C309.777 380.517 310.022 381.533 309.902 382.707C309.782 383.88 309.315 385.284 308.502 386.916C307.681 388.563 306.839 389.788 305.974 390.591C305.109 391.393 304.151 391.81 303.099 391.84C302.047 391.87 300.834 391.543 299.459 390.858C298.07 390.166 297.071 389.391 296.461 388.533C295.852 387.675 295.607 386.659 295.727 385.486C295.847 384.312 296.317 382.902 297.138 381.255ZM304.768 380.203C303.794 379.718 302.999 379.715 302.385 380.195C301.749 380.683 301.102 381.585 300.446 382.903C299.782 384.235 299.451 385.294 299.452 386.081C299.439 386.861 299.92 387.494 300.893 387.979C301.853 388.457 302.647 388.46 303.276 387.986C303.891 387.506 304.53 386.6 305.193 385.268C305.85 383.951 306.188 382.895 306.209 382.1C306.207 381.313 305.727 380.681 304.768 380.203Z" fill="white"/>
<path d="M317.674 394.754L316.342 397.602C315.686 397.684 314.897 397.633 313.976 397.449C313.055 397.265 312.109 396.946 311.138 396.492C309.587 395.767 308.491 394.883 307.848 393.84C307.191 392.791 307.201 391.541 307.879 390.092C308.415 388.947 309.113 388.152 309.975 387.708C310.816 387.271 312.021 387.11 313.592 387.227C315.112 387.338 316.2 387.334 316.855 387.217C317.49 387.107 317.885 386.886 318.041 386.553L310.954 383.237L312.246 380.476L322.55 385.297L321.41 387.732C321.065 388.471 320.646 389.044 320.156 389.45C319.651 389.85 318.985 390.121 318.159 390.265C317.332 390.408 316.26 390.454 314.941 390.402C313.952 390.363 313.152 390.395 312.539 390.497C311.905 390.606 311.486 390.896 311.284 391.367C311.041 391.924 311.071 392.407 311.375 392.814C311.658 393.229 312.162 393.606 312.886 393.945C313.582 394.27 314.35 394.479 315.189 394.572C316.023 394.679 316.786 394.71 317.479 394.663L317.674 394.754Z" fill="white"/>
<path d="M340.798 393.302L334.898 407.301L324.503 402.921L325.715 400.046L332.571 402.935L333.69 400.281L327.74 397.774L328.952 394.899L334.901 397.406L336.048 394.686L329.192 391.796L330.403 388.921L340.798 393.302Z" fill="white"/>
<path d="M352.295 397.833L346.764 411.983L336.258 407.876L337.394 404.97L344.323 407.679L345.372 404.996L339.359 402.646L340.495 399.74L346.508 402.091L347.583 399.341L340.653 396.632L341.789 393.727L352.295 397.833Z" fill="white"/>
<path d="M353.296 401.726L354.32 398.881C355.097 398.99 355.845 399.132 356.565 399.306C357.284 399.48 358.118 399.738 359.067 400.079C360.286 400.518 361.279 400.994 362.047 401.509C362.799 402.017 363.336 402.627 363.658 403.339C363.96 404.059 364.048 404.95 363.921 406.009C363.795 407.069 363.455 408.367 362.903 409.903C362.372 411.378 361.823 412.549 361.255 413.416C360.688 414.283 360.064 414.884 359.383 415.217C358.682 415.559 357.882 415.68 356.983 415.577C356.064 415.485 354.995 415.219 353.776 414.78C352.827 414.439 352.02 414.106 351.355 413.781C350.684 413.472 350.017 413.104 349.354 412.678L350.411 409.743L350.495 409.722C351.073 410.1 351.645 410.425 352.21 410.697C352.77 410.983 353.479 411.281 354.337 411.59C355.03 411.839 355.621 411.992 356.11 412.049C356.579 412.116 356.993 412.052 357.352 411.859C357.711 411.665 358.044 411.308 358.349 410.789C358.64 410.264 358.954 409.536 359.29 408.602C359.642 407.624 359.881 406.817 360.007 406.182C360.113 405.557 360.093 405.048 359.945 404.655C359.797 404.262 359.524 403.934 359.126 403.671C358.712 403.403 358.159 403.145 357.466 402.896C356.623 402.592 355.9 402.357 355.297 402.191C354.673 402.035 354.033 401.923 353.376 401.857L353.296 401.726Z" fill="white"/>
<path d="M367.82 403.423L371.461 404.643L366.631 419.047L362.99 417.826L367.82 403.423Z" fill="white"/>
<path d="M440.752 432.393C441.166 432.675 441.682 432.922 442.299 433.134C442.9 433.344 443.526 433.493 444.176 433.58C445.382 433.742 446.269 433.627 446.838 433.236C447.407 432.844 447.815 432.091 448.062 430.978L448.038 430.975C447.683 431.089 447.222 431.156 446.655 431.177C446.087 431.197 445.454 431.161 444.756 431.067C443.218 430.86 442.094 430.338 441.383 429.499C440.672 428.661 440.415 427.513 440.611 426.054C440.752 425.007 441.038 424.142 441.469 423.457C441.898 422.788 442.542 422.318 443.402 422.046C444.244 421.788 445.379 421.755 446.806 421.947C448.36 422.155 449.537 422.588 450.336 423.245C451.12 423.899 451.613 424.796 451.815 425.937C452.016 427.079 452.005 428.482 451.782 430.147C451.547 431.891 451.103 433.276 450.448 434.302C449.776 435.342 448.945 436.053 447.957 436.437C446.967 436.837 445.854 436.954 444.617 436.787C443.57 436.647 442.694 436.44 441.988 436.168C441.282 435.895 440.705 435.624 440.257 435.354L440.65 432.428L440.752 432.393ZM446.416 424.848C445.543 424.731 444.938 424.795 444.598 425.04C444.258 425.285 444.045 425.732 443.957 426.383C443.863 427.08 443.974 427.58 444.289 427.88C444.601 428.197 445.154 428.408 445.947 428.515C446.439 428.581 446.914 428.588 447.373 428.537C447.832 428.486 448.192 428.389 448.453 428.246C448.631 427.043 448.566 426.203 448.259 425.726C447.934 425.262 447.319 424.97 446.416 424.848Z" fill="white"/>
<path d="M463.898 434.674L463.583 437.802C462.991 438.096 462.23 438.309 461.3 438.44C460.37 438.572 459.372 438.584 458.305 438.477C456.602 438.305 455.274 437.834 454.323 437.063C453.355 436.29 452.952 435.108 453.112 433.516C453.238 432.258 453.635 431.277 454.3 430.572C454.949 429.882 456.033 429.331 457.554 428.922C459.025 428.523 460.051 428.16 460.631 427.832C461.193 427.519 461.492 427.179 461.529 426.813L453.744 426.03L454.05 422.997L465.368 424.136L465.099 426.81C465.018 427.622 464.813 428.301 464.484 428.847C464.14 429.391 463.602 429.868 462.869 430.277C462.136 430.685 461.14 431.083 459.878 431.471C458.933 431.762 458.187 432.057 457.643 432.356C457.08 432.669 456.782 433.081 456.746 433.592C456.701 434.199 456.89 434.644 457.312 434.928C457.716 435.225 458.316 435.415 459.112 435.495C459.876 435.571 460.67 435.515 461.493 435.324C462.314 435.149 463.045 434.925 463.683 434.652L463.898 434.674Z" fill="white"/>
<path d="M466.275 431.666C466.392 429.846 466.694 428.398 467.18 427.323C467.667 426.248 468.389 425.493 469.347 425.058C470.305 424.623 471.559 424.455 473.107 424.556C474.64 424.655 475.854 424.982 476.748 425.536C477.642 426.091 478.261 426.933 478.605 428.061C478.949 429.19 479.062 430.664 478.944 432.484C478.825 434.321 478.523 435.776 478.037 436.851C477.55 437.926 476.828 438.681 475.87 439.116C474.912 439.551 473.667 439.719 472.134 439.62C470.585 439.52 469.364 439.193 468.469 438.638C467.575 438.083 466.956 437.241 466.612 436.113C466.269 434.984 466.156 433.502 466.275 431.666ZM472.901 427.741C471.816 427.671 471.082 427.976 470.702 428.657C470.304 429.353 470.058 430.435 469.963 431.904C469.867 433.389 469.972 434.494 470.278 435.219C470.568 435.944 471.255 436.341 472.341 436.411C473.411 436.48 474.144 436.175 474.541 435.495C474.922 434.814 475.16 433.731 475.256 432.246C475.351 430.777 475.254 429.673 474.965 428.932C474.659 428.207 473.971 427.81 472.901 427.741Z" fill="white"/>
<path d="M491.275 436.055L491.187 439.197C490.617 439.533 489.873 439.801 488.955 439.999C488.037 440.197 487.043 440.281 485.971 440.251C484.26 440.203 482.902 439.828 481.897 439.128C480.876 438.427 480.389 437.277 480.434 435.677C480.469 434.414 480.794 433.406 481.407 432.655C482.004 431.92 483.046 431.293 484.533 430.775C485.972 430.271 486.969 429.835 487.523 429.466C488.061 429.113 488.336 428.753 488.346 428.385L480.525 428.165L480.611 425.118L491.983 425.438L491.907 428.125C491.884 428.941 491.728 429.633 491.44 430.201C491.136 430.769 490.633 431.283 489.932 431.743C489.231 432.204 488.265 432.673 487.035 433.15C486.113 433.508 485.391 433.856 484.869 434.194C484.331 434.546 484.063 434.979 484.064 435.491C484.063 436.1 484.283 436.53 484.724 436.782C485.149 437.051 485.761 437.196 486.561 437.218C487.328 437.24 488.116 437.126 488.923 436.877C489.73 436.643 490.442 436.367 491.059 436.049L491.275 436.055Z" fill="white"/>
<path d="M510.588 425.288L510.97 440.475L499.694 440.759L499.616 437.64L507.053 437.453L506.981 434.574L500.527 434.736L500.448 431.617L506.902 431.455L506.828 428.503L499.39 428.691L499.312 425.572L510.588 425.288Z" fill="white"/>
<path d="M522.921 424.577L523.852 439.74L512.594 440.432L512.402 437.318L519.828 436.861L519.652 433.987L513.208 434.383L513.016 431.269L519.46 430.873L519.279 427.926L511.853 428.382L511.662 425.268L522.921 424.577Z" fill="white"/>
<path d="M525.107 427.713L524.81 424.703C525.559 424.469 526.296 424.275 527.02 424.124C527.745 423.972 528.609 423.847 529.612 423.748C530.902 423.621 532.003 423.625 532.917 423.76C533.815 423.896 534.562 424.216 535.158 424.72C535.74 425.242 536.201 426.008 536.542 427.02C536.883 428.031 537.133 429.349 537.293 430.973C537.447 432.534 537.454 433.827 537.314 434.854C537.174 435.881 536.868 436.69 536.396 437.284C535.91 437.894 535.239 438.346 534.383 438.64C533.514 438.95 532.434 439.169 531.144 439.296C530.141 439.395 529.269 439.441 528.529 439.433C527.79 439.442 527.03 439.396 526.248 439.296L525.943 436.191L526.009 436.137C526.694 436.23 527.35 436.278 527.977 436.28C528.606 436.299 529.374 436.263 530.282 436.174C531.014 436.102 531.614 435.986 532.08 435.828C532.533 435.687 532.879 435.452 533.12 435.122C533.361 434.793 533.508 434.329 533.562 433.728C533.599 433.13 533.569 432.337 533.472 431.35C533.37 430.315 533.24 429.484 533.082 428.856C532.909 428.246 532.672 427.795 532.369 427.503C532.067 427.212 531.68 427.033 531.207 426.967C530.719 426.902 530.108 426.906 529.376 426.978C528.484 427.066 527.73 427.165 527.114 427.274C526.483 427.4 525.857 427.574 525.236 427.796L525.107 427.713Z" fill="white"/>
<path d="M538.731 423.026L542.54 422.539L544.466 437.609L540.656 438.095L538.731 423.026Z" fill="white"/>
<path d="M617.367 415.295C617.866 415.344 618.437 415.314 619.08 415.206C619.709 415.102 620.33 414.934 620.942 414.7C622.078 414.266 622.803 413.74 623.115 413.124C623.428 412.508 623.426 411.652 623.11 410.557L623.088 410.565C622.831 410.835 622.459 411.114 621.97 411.404C621.481 411.693 620.908 411.964 620.25 412.215C618.8 412.769 617.563 412.848 616.538 412.452C615.513 412.055 614.738 411.17 614.212 409.795C613.835 408.808 613.672 407.911 613.724 407.104C613.78 406.311 614.121 405.59 614.747 404.94C615.363 404.311 616.343 403.739 617.688 403.225C619.153 402.666 620.393 402.483 621.41 402.677C622.411 402.877 623.273 403.429 623.996 404.335C624.719 405.24 625.38 406.478 625.98 408.047C626.608 409.691 626.88 411.12 626.796 412.334C626.702 413.569 626.314 414.591 625.629 415.401C624.951 416.225 624.029 416.86 622.863 417.306C621.877 417.683 621.008 417.92 620.258 418.018C619.508 418.117 618.871 418.154 618.349 418.132L617.295 415.374L617.367 415.295ZM618.733 405.96C617.911 406.274 617.41 406.62 617.229 406.998C617.047 407.375 617.074 407.871 617.308 408.483C617.559 409.141 617.895 409.527 618.315 409.64C618.741 409.768 619.328 409.69 620.075 409.404C620.538 409.227 620.959 409.006 621.338 408.742C621.716 408.477 621.986 408.22 622.148 407.97C621.729 406.828 621.27 406.122 620.772 405.849C620.265 405.598 619.585 405.635 618.733 405.96Z" fill="white"/>
<path d="M638.511 406.302L639.74 409.195C639.363 409.738 638.798 410.291 638.046 410.854C637.294 411.417 636.425 411.908 635.438 412.327C633.863 412.996 632.472 413.222 631.267 413.004C630.047 412.792 629.124 411.95 628.499 410.478C628.004 409.314 627.879 408.263 628.124 407.325C628.36 406.408 629.046 405.404 630.182 404.312C631.28 403.255 632.004 402.443 632.354 401.877C632.696 401.332 632.795 400.89 632.651 400.551L625.451 403.611L624.259 400.805L634.729 396.357L635.78 398.831C636.099 399.582 636.246 400.276 636.221 400.912C636.181 401.555 635.938 402.232 635.493 402.942C635.047 403.653 634.365 404.482 633.446 405.429C632.757 406.139 632.246 406.756 631.912 407.28C631.57 407.825 631.506 408.33 631.721 408.795C631.974 409.349 632.353 409.648 632.859 409.694C633.357 409.761 633.974 409.637 634.71 409.325C635.417 409.024 636.086 408.593 636.716 408.029C637.352 407.481 637.884 406.933 638.312 406.386L638.511 406.302Z" fill="white"/>
<path d="M638.879 402.644C638.102 400.994 637.666 399.581 637.572 398.405C637.478 397.229 637.745 396.219 638.373 395.375C639.001 394.531 640.017 393.778 641.422 393.117C642.811 392.462 644.031 392.161 645.082 392.215C646.133 392.268 647.082 392.705 647.929 393.527C648.775 394.348 649.587 395.584 650.365 397.234C651.149 398.899 651.588 400.319 651.682 401.495C651.776 402.671 651.509 403.681 650.881 404.526C650.252 405.37 649.243 406.119 647.854 406.774C646.45 407.435 645.222 407.739 644.171 407.686C643.121 407.632 642.172 407.195 641.325 406.373C640.478 405.552 639.663 404.309 638.879 402.644ZM642.782 396.004C641.797 396.468 641.303 397.09 641.299 397.87C641.288 398.671 641.595 399.738 642.223 401.069C642.857 402.415 643.483 403.332 644.101 403.819C644.705 404.313 645.499 404.328 646.484 403.864C647.453 403.407 647.948 402.785 647.966 401.999C647.97 401.219 647.655 400.155 647.021 398.809C646.394 397.478 645.775 396.558 645.164 396.049C644.546 395.563 643.751 395.547 642.782 396.004Z" fill="white"/>
<path d="M662.69 394.476L664.137 397.267C663.801 397.837 663.281 398.432 662.574 399.05C661.867 399.669 661.038 400.225 660.086 400.718C658.567 401.506 657.197 401.837 655.979 401.712C654.746 401.594 653.762 400.825 653.026 399.404C652.444 398.282 652.239 397.244 652.411 396.289C652.577 395.357 653.184 394.303 654.233 393.129C655.247 391.99 655.907 391.125 656.213 390.534C656.513 389.964 656.578 389.516 656.408 389.19L649.462 392.79L648.059 390.084L658.159 384.849L659.396 387.235C659.772 387.96 659.971 388.64 659.995 389.277C660.004 389.921 659.814 390.614 659.424 391.357C659.034 392.1 658.417 392.978 657.573 393.992C656.94 394.753 656.477 395.407 656.185 395.955C655.886 396.525 655.861 397.034 656.111 397.481C656.405 398.013 656.806 398.283 657.314 398.29C657.815 398.318 658.421 398.148 659.131 397.78C659.813 397.427 660.447 396.945 661.032 396.336C661.624 395.74 662.113 395.153 662.498 394.575L662.69 394.476Z" fill="white"/>
<path d="M675.222 375.141L682.969 388.21L673.265 393.962L671.674 391.278L678.075 387.484L676.606 385.007L671.052 388.299L669.461 385.615L675.015 382.323L673.51 379.783L667.11 383.577L665.519 380.893L675.222 375.141Z" fill="white"/>
<path d="M685.938 368.299L694.162 381.072L684.678 387.178L682.989 384.555L689.244 380.528L687.685 378.106L682.257 381.601L680.568 378.977L685.997 375.483L684.399 373.001L678.143 377.028L676.454 374.405L685.938 368.299Z" fill="white"/>
<path d="M689.137 370.135L687.411 367.652C687.95 367.082 688.499 366.555 689.057 366.069C689.616 365.583 690.309 365.052 691.137 364.477C692.201 363.737 693.164 363.203 694.028 362.876C694.878 362.557 695.687 362.472 696.453 362.622C697.215 362.793 697.992 363.237 698.783 363.954C699.573 364.671 700.435 365.699 701.366 367.039C702.262 368.327 702.898 369.453 703.277 370.417C703.655 371.382 703.783 372.238 703.66 372.986C703.533 373.757 703.168 374.478 702.564 375.151C701.956 375.847 701.12 376.565 700.056 377.304C699.229 377.88 698.49 378.345 697.84 378.699C697.199 379.067 696.513 379.398 695.782 379.692L694.001 377.13L694.033 377.05C694.676 376.797 695.272 376.519 695.821 376.216C696.379 375.925 697.032 375.52 697.781 374.999C698.385 374.579 698.852 374.186 699.182 373.82C699.509 373.476 699.696 373.102 699.746 372.697C699.796 372.292 699.698 371.814 699.452 371.264C699.193 370.724 698.78 370.046 698.214 369.231C697.62 368.378 697.101 367.715 696.657 367.245C696.209 366.796 695.782 366.518 695.376 366.411C694.97 366.304 694.544 366.336 694.099 366.509C693.641 366.691 693.11 366.992 692.506 367.413C691.77 367.924 691.16 368.378 690.675 368.773C690.186 369.191 689.724 369.649 689.29 370.145L689.137 370.135Z" fill="white"/>
<path d="M698.657 359.47L701.751 357.195L710.752 369.433L707.659 371.708L698.657 359.47Z" fill="white"/>
<path d="M767.674 320.962C768.171 320.901 768.722 320.747 769.326 320.499C769.917 320.261 770.485 319.96 771.032 319.597C772.045 318.924 772.636 318.253 772.806 317.583C772.976 316.914 772.787 316.079 772.238 315.08L772.218 315.093C772.027 315.412 771.724 315.766 771.311 316.156C770.898 316.546 770.398 316.936 769.811 317.325C768.518 318.183 767.328 318.532 766.241 318.37C765.154 318.208 764.204 317.514 763.39 316.288C762.806 315.408 762.45 314.569 762.323 313.77C762.204 312.984 762.379 312.206 762.846 311.434C763.309 310.685 764.14 309.912 765.34 309.116C766.646 308.249 767.817 307.798 768.851 307.765C769.871 307.74 770.834 308.09 771.737 308.815C772.641 309.54 773.558 310.602 774.487 312.002C775.461 313.468 776.04 314.803 776.224 316.006C776.403 317.231 776.248 318.313 775.758 319.253C775.277 320.206 774.517 321.028 773.477 321.718C772.598 322.302 771.802 322.725 771.092 322.985C770.381 323.246 769.769 323.422 769.254 323.514L767.621 321.055L767.674 320.962ZM766.96 311.555C766.227 312.042 765.813 312.489 765.719 312.897C765.625 313.305 765.76 313.783 766.122 314.329C766.512 314.916 766.924 315.218 767.359 315.237C767.803 315.269 768.358 315.063 769.024 314.621C769.437 314.347 769.8 314.039 770.111 313.698C770.422 313.357 770.629 313.046 770.732 312.767C770.072 311.745 769.47 311.156 768.924 311C768.374 310.866 767.719 311.051 766.96 311.555Z" fill="white"/>
<path d="M787.195 307.743L788.887 310.393C788.604 310.991 788.139 311.63 787.491 312.309C786.842 312.989 786.067 313.617 785.163 314.194C783.72 315.115 782.386 315.568 781.161 315.553C779.923 315.546 778.874 314.869 778.013 313.52C777.332 312.455 777.035 311.439 777.121 310.473C777.202 309.529 777.712 308.425 778.651 307.161C779.559 305.936 780.138 305.016 780.39 304.399C780.637 303.805 780.662 303.353 780.464 303.043L773.869 307.253L772.229 304.684L781.817 298.562L783.264 300.828C783.703 301.516 783.963 302.175 784.043 302.807C784.111 303.448 783.984 304.155 783.662 304.93C783.34 305.705 782.805 306.635 782.055 307.721C781.493 308.536 781.091 309.229 780.849 309.801C780.602 310.395 780.623 310.904 780.912 311.327C781.253 311.831 781.677 312.063 782.183 312.025C782.685 312.008 783.273 311.784 783.948 311.354C784.595 310.941 785.182 310.404 785.71 309.744C786.247 309.098 786.681 308.47 787.013 307.859L787.195 307.743Z" fill="white"/>
<path d="M786.137 304.627C785.18 303.074 784.59 301.718 784.365 300.56C784.14 299.402 784.292 298.368 784.822 297.459C785.352 296.55 786.278 295.689 787.599 294.875C788.907 294.069 790.086 293.634 791.136 293.57C792.187 293.505 793.178 293.834 794.112 294.556C795.045 295.277 795.99 296.415 796.947 297.968C797.912 299.534 798.507 300.897 798.732 302.055C798.956 303.213 798.804 304.247 798.274 305.156C797.744 306.065 796.825 306.922 795.517 307.728C794.196 308.542 793.01 308.981 791.96 309.045C790.91 309.11 789.918 308.781 788.985 308.059C788.051 307.338 787.102 306.193 786.137 304.627ZM789.274 297.593C788.347 298.163 787.926 298.836 788.009 299.612C788.087 300.41 788.512 301.435 789.284 302.688C790.064 303.955 790.789 304.796 791.458 305.211C792.113 305.634 792.904 305.56 793.83 304.99C794.743 304.427 795.165 303.754 795.095 302.97C795.012 302.195 794.58 301.173 793.8 299.906C793.028 298.653 792.31 297.808 791.646 297.371C790.977 296.956 790.186 297.03 789.274 297.593Z" fill="white"/>
<path d="M809.185 294.375L810.795 297.076C810.494 297.665 810.009 298.289 809.34 298.948C808.672 299.608 807.877 300.212 806.956 300.76C805.485 301.637 804.138 302.049 802.915 301.996C801.677 301.951 800.649 301.241 799.83 299.867C799.183 298.781 798.917 297.757 799.032 296.794C799.142 295.853 799.686 294.765 800.663 293.531C801.608 292.334 802.216 291.432 802.487 290.824C802.752 290.237 802.79 289.786 802.602 289.47L795.881 293.476L794.32 290.857L804.092 285.033L805.469 287.342C805.886 288.043 806.126 288.711 806.187 289.345C806.235 289.987 806.086 290.69 805.74 291.455C805.395 292.219 804.831 293.133 804.049 294.195C803.462 294.992 803.039 295.673 802.779 296.237C802.514 296.824 802.52 297.333 802.795 297.764C803.12 298.278 803.537 298.524 804.045 298.5C804.547 298.499 805.141 298.294 805.829 297.884C806.488 297.491 807.092 296.973 807.64 296.33C808.196 295.7 808.649 295.085 809 294.486L809.185 294.375Z" fill="white"/>
<path d="M822.395 274.688L829.885 287.906L820.071 293.467L818.533 290.752L825.006 287.084L823.586 284.579L817.969 287.761L816.431 285.047L822.048 281.864L820.592 279.296L814.119 282.964L812.581 280.249L822.395 274.688Z" fill="white"/>
<path d="M833.625 268.501L840.935 281.819L831.047 287.246L829.546 284.511L836.068 280.931L834.682 278.407L829.022 281.513L827.521 278.778L833.181 275.672L831.76 273.084L825.238 276.664L823.737 273.929L833.625 268.501Z" fill="white"/>
<path d="M836.269 270.797L834.846 268.128C835.449 267.626 836.056 267.166 836.667 266.749C837.279 266.332 838.03 265.887 838.919 265.413C840.063 264.803 841.083 264.386 841.979 264.162C842.861 263.946 843.673 263.957 844.417 264.195C845.154 264.455 845.873 264.987 846.574 265.792C847.275 266.597 848.009 267.719 848.777 269.159C849.515 270.543 850.015 271.736 850.278 272.738C850.54 273.741 850.566 274.606 850.356 275.335C850.14 276.085 849.692 276.759 849.013 277.356C848.328 277.975 847.414 278.59 846.27 279.2C845.381 279.674 844.592 280.049 843.905 280.324C843.226 280.614 842.506 280.862 841.745 281.068L840.277 278.315L840.318 278.239C840.986 278.064 841.611 277.858 842.192 277.621C842.78 277.398 843.476 277.072 844.281 276.643C844.931 276.296 845.441 275.961 845.812 275.636C846.176 275.333 846.407 274.984 846.504 274.587C846.601 274.191 846.559 273.705 846.38 273.13C846.186 272.563 845.856 271.841 845.389 270.966C844.9 270.048 844.462 269.33 844.076 268.81C843.684 268.312 843.292 267.986 842.902 267.832C842.511 267.677 842.085 267.66 841.623 267.779C841.146 267.906 840.584 268.143 839.934 268.489C839.143 268.911 838.484 269.289 837.956 269.625C837.421 269.983 836.909 270.383 836.42 270.825L836.269 270.797Z" fill="white"/>
<path d="M848.479 260.591L851.884 258.817L858.902 272.291L855.496 274.065L848.479 260.591Z" fill="white"/>
<path d="M923.556 236.77C924.056 236.797 924.625 236.743 925.263 236.606C925.887 236.476 926.5 236.28 927.102 236.02C928.218 235.537 928.918 234.981 929.204 234.352C929.49 233.723 929.451 232.868 929.088 231.787L929.066 231.796C928.821 232.077 928.461 232.372 927.985 232.683C927.509 232.993 926.948 233.288 926.302 233.568C924.878 234.184 923.645 234.317 922.604 233.965C921.562 233.614 920.75 232.763 920.165 231.412C919.746 230.442 919.544 229.553 919.56 228.745C919.582 227.95 919.892 227.215 920.488 226.538C921.076 225.883 922.031 225.269 923.353 224.698C924.792 224.075 926.023 223.838 927.047 223.988C928.056 224.144 928.941 224.659 929.703 225.532C930.464 226.406 931.178 227.613 931.846 229.155C932.545 230.771 932.878 232.186 932.847 233.403C932.807 234.641 932.463 235.679 931.815 236.517C931.173 237.37 930.279 238.045 929.134 238.54C928.164 238.96 927.307 239.235 926.562 239.365C925.816 239.496 925.182 239.561 924.659 239.561L923.487 236.852L923.556 236.77ZM924.516 227.385C923.708 227.734 923.222 228.101 923.057 228.486C922.893 228.872 922.941 229.365 923.201 229.967C923.481 230.613 923.833 230.984 924.257 231.079C924.689 231.189 925.271 231.085 926.005 230.767C926.461 230.57 926.872 230.331 927.238 230.051C927.605 229.77 927.863 229.501 928.014 229.244C927.546 228.122 927.057 227.436 926.548 227.185C926.03 226.956 925.353 227.023 924.516 227.385Z" fill="white"/>
<path d="M945.006 227.157L946.224 230.056C945.844 230.597 945.277 231.148 944.523 231.707C943.769 232.267 942.898 232.755 941.909 233.17C940.331 233.833 938.939 234.053 937.735 233.83C936.516 233.613 935.597 232.767 934.977 231.292C934.487 230.127 934.367 229.075 934.615 228.138C934.855 227.222 935.545 226.22 936.685 225.134C937.787 224.081 938.515 223.272 938.868 222.707C939.212 222.163 939.313 221.722 939.17 221.383L931.957 224.413L930.777 221.603L941.265 217.197L942.306 219.675C942.622 220.427 942.766 221.122 942.738 221.758C942.696 222.401 942.45 223.077 942.002 223.786C941.554 224.495 940.868 225.321 939.945 226.264C939.253 226.971 938.739 227.586 938.403 228.109C938.059 228.652 937.994 229.157 938.207 229.623C938.457 230.177 938.835 230.478 939.341 230.526C939.838 230.595 940.456 230.474 941.193 230.165C941.901 229.867 942.572 229.438 943.204 228.877C943.842 228.332 944.377 227.786 944.807 227.241L945.006 227.157Z" fill="white"/>
<path d="M944.8 223.783C944.112 222.093 943.753 220.659 943.722 219.48C943.691 218.3 944.012 217.306 944.685 216.497C945.357 215.687 946.412 214.99 947.849 214.405C949.272 213.826 950.507 213.591 951.553 213.701C952.6 213.81 953.524 214.298 954.325 215.163C955.127 216.029 955.871 217.307 956.559 218.996C957.253 220.7 957.615 222.142 957.646 223.321C957.677 224.501 957.356 225.495 956.684 226.304C956.011 227.114 954.964 227.808 953.541 228.387C952.104 228.972 950.862 229.21 949.815 229.1C948.769 228.991 947.845 228.503 947.043 227.638C946.241 226.772 945.494 225.487 944.8 223.783ZM949.053 217.361C948.045 217.772 947.519 218.366 947.473 219.145C947.418 219.944 947.668 221.026 948.223 222.389C948.784 223.767 949.361 224.716 949.952 225.236C950.529 225.761 951.321 225.819 952.329 225.408C953.321 225.004 953.848 224.41 953.909 223.625C953.955 222.846 953.697 221.768 953.136 220.39C952.581 219.026 952.012 218.074 951.429 217.534C950.838 217.015 950.046 216.957 949.053 217.361Z" fill="white"/>
<path d="M969.503 217.313L970.657 220.237C970.265 220.77 969.686 221.308 968.92 221.851C968.153 222.394 967.272 222.862 966.274 223.255C964.682 223.884 963.286 224.073 962.087 223.823C960.873 223.58 959.972 222.714 959.385 221.225C958.921 220.05 958.824 218.996 959.093 218.064C959.353 217.153 960.065 216.167 961.229 215.106C962.354 214.078 963.099 213.285 963.464 212.728C963.82 212.192 963.931 211.753 963.796 211.411L956.518 214.281L955.399 211.446L965.982 207.272L966.968 209.773C967.268 210.532 967.396 211.229 967.355 211.865C967.298 212.506 967.038 213.177 966.574 213.876C966.11 214.574 965.406 215.385 964.463 216.308C963.756 216.999 963.228 217.603 962.881 218.118C962.525 218.654 962.448 219.158 962.651 219.628C962.889 220.188 963.26 220.497 963.765 220.556C964.261 220.636 964.881 220.529 965.625 220.235C966.339 219.953 967.019 219.539 967.663 218.993C968.314 218.461 968.86 217.927 969.302 217.392L969.503 217.313Z" fill="white"/>
<path d="M984.215 200.48L989.558 214.702L978.998 218.669L977.901 215.748L984.866 213.131L983.853 210.435L977.809 212.706L976.712 209.785L982.756 207.515L981.718 204.751L974.753 207.368L973.656 204.447L984.215 200.48Z" fill="white"/>
<path d="M996.884 195.862L1002.07 210.141L991.467 213.992L990.402 211.059L997.395 208.519L996.412 205.812L990.344 208.016L989.279 205.084L995.347 202.88L994.34 200.105L987.346 202.645L986.281 199.712L996.884 195.862Z" fill="white"/>
<path d="M1000.08 198.206L999.083 195.353C999.755 194.947 1000.42 194.585 1001.09 194.266C1001.76 193.947 1002.57 193.621 1003.52 193.287C1004.74 192.858 1005.82 192.601 1006.74 192.516C1007.64 192.436 1008.44 192.57 1009.14 192.918C1009.83 193.287 1010.46 193.922 1011.03 194.824C1011.6 195.726 1012.16 196.947 1012.7 198.487C1013.22 199.967 1013.53 201.222 1013.64 202.252C1013.74 203.283 1013.64 204.142 1013.32 204.83C1012.99 205.539 1012.45 206.137 1011.68 206.625C1010.91 207.133 1009.92 207.601 1008.69 208.03C1007.74 208.364 1006.91 208.615 1006.19 208.783C1005.47 208.966 1004.72 209.102 1003.94 209.19L1002.9 206.246L1002.96 206.177C1003.64 206.105 1004.29 205.996 1004.9 205.85C1005.52 205.719 1006.26 205.503 1007.12 205.201C1007.81 204.957 1008.37 204.703 1008.78 204.438C1009.19 204.194 1009.47 203.884 1009.62 203.507C1009.78 203.13 1009.81 202.644 1009.72 202.048C1009.62 201.457 1009.4 200.694 1009.07 199.758C1008.73 198.777 1008.41 198 1008.1 197.428C1007.79 196.876 1007.45 196.494 1007.09 196.282C1006.73 196.07 1006.31 195.988 1005.83 196.036C1005.34 196.09 1004.75 196.238 1004.06 196.482C1003.21 196.778 1002.5 197.053 1001.93 197.304C1001.35 197.577 1000.78 197.894 1000.23 198.257L1000.08 198.206Z" fill="white"/>
<path d="M1013.37 190.085L1017 188.845L1021.91 203.223L1018.27 204.463L1013.37 190.085Z" fill="white"/>
<path d="M1091.08 177.631C1091.57 177.731 1092.14 177.76 1092.79 177.717C1093.43 177.679 1094.06 177.575 1094.69 177.405C1095.87 177.089 1096.64 176.641 1097.02 176.06C1097.39 175.479 1097.48 174.628 1097.28 173.506L1097.25 173.512C1096.97 173.754 1096.57 173.994 1096.05 174.231C1095.54 174.469 1094.94 174.68 1094.26 174.862C1092.76 175.265 1091.52 175.217 1090.54 174.718C1089.56 174.218 1088.88 173.258 1088.5 171.836C1088.23 170.817 1088.16 169.908 1088.29 169.11C1088.43 168.327 1088.84 167.645 1089.53 167.062C1090.21 166.499 1091.24 166.031 1092.63 165.657C1094.15 165.251 1095.4 165.196 1096.39 165.493C1097.37 165.794 1098.17 166.432 1098.79 167.407C1099.42 168.382 1099.95 169.681 1100.39 171.303C1100.84 173.003 1100.97 174.453 1100.76 175.652C1100.54 176.87 1100.05 177.847 1099.28 178.582C1098.53 179.333 1097.54 179.87 1096.34 180.194C1095.32 180.468 1094.43 180.615 1093.67 180.636C1092.92 180.657 1092.28 180.629 1091.76 180.553L1091 177.702L1091.08 177.631ZM1093.39 168.485C1092.54 168.713 1092.01 169.006 1091.79 169.363C1091.57 169.72 1091.55 170.215 1091.72 170.849C1091.9 171.529 1092.19 171.947 1092.6 172.103C1093.01 172.274 1093.6 172.256 1094.37 172.048C1094.85 171.92 1095.29 171.743 1095.7 171.519C1096.1 171.295 1096.4 171.066 1096.58 170.834C1096.28 169.655 1095.9 168.905 1095.43 168.584C1094.95 168.281 1094.27 168.249 1093.39 168.485Z" fill="white"/>
<path d="M1113.43 171.306L1114.21 174.35C1113.76 174.831 1113.12 175.293 1112.29 175.738C1111.46 176.182 1110.53 176.538 1109.49 176.805C1107.83 177.232 1106.43 177.248 1105.27 176.853C1104.09 176.461 1103.31 175.491 1102.91 173.942C1102.59 172.717 1102.62 171.66 1103.01 170.768C1103.38 169.896 1104.2 169.006 1105.49 168.096C1106.73 167.214 1107.57 166.52 1108 166.012C1108.42 165.524 1108.58 165.102 1108.49 164.745L1100.92 166.697L1100.16 163.745L1111.17 160.908L1111.84 163.511C1112.05 164.301 1112.09 165.009 1111.97 165.635C1111.83 166.264 1111.49 166.897 1110.95 167.534C1110.4 168.17 1109.6 168.888 1108.55 169.687C1107.76 170.286 1107.17 170.82 1106.76 171.289C1106.34 171.777 1106.2 172.267 1106.34 172.759C1106.51 173.344 1106.84 173.696 1107.34 173.817C1107.82 173.957 1108.45 173.927 1109.22 173.728C1109.96 173.536 1110.69 173.209 1111.4 172.746C1112.11 172.299 1112.72 171.837 1113.22 171.36L1113.43 171.306Z" fill="white"/>
<path d="M1114.9 167.646C1114.46 165.875 1114.32 164.404 1114.46 163.232C1114.6 162.061 1115.06 161.124 1115.84 160.421C1116.63 159.718 1117.77 159.181 1119.28 158.811C1120.77 158.445 1122.03 158.392 1123.05 158.652C1124.07 158.913 1124.91 159.53 1125.58 160.502C1126.24 161.475 1126.79 162.848 1127.23 164.619C1127.67 166.406 1127.82 167.885 1127.68 169.056C1127.54 170.228 1127.07 171.165 1126.29 171.868C1125.51 172.571 1124.37 173.105 1122.88 173.472C1121.37 173.842 1120.11 173.897 1119.09 173.636C1118.07 173.376 1117.23 172.759 1116.56 171.786C1115.89 170.813 1115.34 169.433 1114.9 167.646ZM1120.04 161.911C1118.98 162.171 1118.38 162.682 1118.22 163.446C1118.05 164.229 1118.14 165.335 1118.49 166.765C1118.84 168.21 1119.28 169.232 1119.79 169.832C1120.28 170.436 1121.06 170.608 1122.11 170.348C1123.15 170.093 1123.76 169.581 1123.93 168.814C1124.09 168.05 1123.99 166.945 1123.64 165.5C1123.29 164.071 1122.86 163.046 1122.37 162.427C1121.86 161.828 1121.08 161.655 1120.04 161.911Z" fill="white"/>
<path d="M1139.14 165.1L1139.86 168.162C1139.39 168.632 1138.74 169.08 1137.9 169.506C1137.07 169.932 1136.13 170.267 1135.08 170.511C1133.41 170.902 1132.01 170.886 1130.86 170.465C1129.69 170.048 1128.93 169.06 1128.56 167.502C1128.27 166.272 1128.33 165.215 1128.73 164.332C1129.12 163.469 1129.97 162.597 1131.27 161.716C1132.54 160.862 1133.39 160.186 1133.83 159.688C1134.26 159.209 1134.43 158.791 1134.35 158.432L1126.73 160.215L1126.04 157.247L1137.11 154.655L1137.73 157.272C1137.91 158.067 1137.94 158.776 1137.81 159.398C1137.66 160.025 1137.3 160.65 1136.74 161.274C1136.18 161.899 1135.37 162.598 1134.3 163.374C1133.5 163.956 1132.89 164.476 1132.47 164.936C1132.04 165.414 1131.89 165.901 1132.02 166.396C1132.18 166.984 1132.5 167.344 1132.99 167.476C1133.47 167.627 1134.1 167.611 1134.88 167.429C1135.63 167.254 1136.36 166.943 1137.08 166.496C1137.8 166.064 1138.41 165.615 1138.93 165.15L1139.14 165.1Z" fill="white"/>
<path d="M1156.26 150.548L1159.48 165.395L1148.46 167.785L1147.79 164.736L1155.07 163.159L1154.46 160.345L1148.15 161.713L1147.48 158.664L1153.79 157.296L1153.17 154.411L1145.9 155.987L1145.24 152.938L1156.26 150.548Z" fill="white"/>
<path d="M1170.46 147.616L1173.51 162.498L1162.46 164.766L1161.84 161.71L1169.13 160.214L1168.55 157.393L1162.22 158.691L1161.59 155.635L1167.92 154.336L1167.33 151.445L1160.04 152.941L1159.41 149.885L1170.46 147.616Z" fill="white"/>
<path d="M1172.29 150.594L1171.72 147.625C1172.44 147.322 1173.16 147.061 1173.86 146.843C1174.57 146.624 1175.42 146.419 1176.41 146.227C1177.68 145.981 1178.78 145.882 1179.7 145.932C1180.61 145.984 1181.38 146.234 1182.02 146.68C1182.65 147.145 1183.18 147.866 1183.61 148.841C1184.05 149.816 1184.42 151.105 1184.73 152.707C1185.03 154.247 1185.15 155.534 1185.11 156.569C1185.07 157.604 1184.84 158.439 1184.42 159.074C1184 159.727 1183.37 160.239 1182.54 160.611C1181.71 161.001 1180.65 161.32 1179.38 161.566C1178.39 161.758 1177.53 161.884 1176.79 161.946C1176.05 162.023 1175.29 162.048 1174.51 162.022L1173.91 158.958L1173.97 158.898C1174.66 158.927 1175.32 158.914 1175.95 158.858C1176.57 158.818 1177.34 158.711 1178.23 158.537C1178.95 158.397 1179.54 158.227 1179.99 158.026C1180.43 157.843 1180.75 157.577 1180.96 157.227C1181.17 156.876 1181.27 156.4 1181.27 155.798C1181.25 155.198 1181.15 154.411 1180.96 153.438C1180.76 152.417 1180.55 151.601 1180.34 150.991C1180.11 150.4 1179.83 149.973 1179.5 149.71C1179.18 149.448 1178.77 149.306 1178.3 149.284C1177.8 149.265 1177.2 149.326 1176.47 149.466C1175.59 149.636 1174.85 149.805 1174.25 149.97C1173.63 150.155 1173.03 150.387 1172.43 150.665L1172.29 150.594Z" fill="white"/>
<path d="M1186.25 144.558L1190.03 143.859L1192.79 158.797L1189.02 159.496L1186.25 144.558Z" fill="white"/>
<path d="M1266.24 143.419C1266.71 143.59 1267.27 143.703 1267.92 143.757C1268.55 143.813 1269.2 143.803 1269.85 143.728C1271.06 143.589 1271.89 143.26 1272.34 142.741C1272.8 142.221 1273.01 141.392 1272.97 140.252L1272.95 140.255C1272.64 140.452 1272.21 140.631 1271.66 140.79C1271.11 140.949 1270.49 141.069 1269.79 141.15C1268.25 141.327 1267.03 141.097 1266.14 140.459C1265.24 139.821 1264.71 138.771 1264.54 137.308C1264.42 136.259 1264.49 135.35 1264.74 134.58C1264.99 133.827 1265.5 133.212 1266.26 132.738C1267.02 132.281 1268.11 131.97 1269.54 131.805C1271.1 131.626 1272.34 131.757 1273.28 132.197C1274.2 132.638 1274.9 133.388 1275.38 134.444C1275.85 135.501 1276.18 136.864 1276.38 138.533C1276.58 140.281 1276.49 141.733 1276.1 142.888C1275.71 144.061 1275.08 144.955 1274.21 145.57C1273.35 146.2 1272.3 146.587 1271.06 146.729C1270.01 146.85 1269.11 146.865 1268.36 146.774C1267.61 146.683 1266.98 146.562 1266.48 146.41L1266.15 143.477L1266.24 143.419ZM1269.87 134.714C1269 134.815 1268.43 135.026 1268.16 135.346C1267.89 135.667 1267.79 136.153 1267.87 136.805C1267.95 137.505 1268.18 137.961 1268.56 138.175C1268.94 138.405 1269.53 138.475 1270.32 138.383C1270.81 138.327 1271.28 138.217 1271.71 138.055C1272.14 137.892 1272.47 137.71 1272.68 137.508C1272.56 136.298 1272.29 135.499 1271.88 135.112C1271.45 134.743 1270.78 134.61 1269.87 134.714Z" fill="white"/>
<path d="M1287.82 140.613L1288.15 143.74C1287.63 144.148 1286.93 144.511 1286.04 144.828C1285.16 145.145 1284.18 145.36 1283.12 145.471C1281.41 145.648 1280.02 145.456 1278.93 144.893C1277.83 144.333 1277.19 143.257 1277.03 141.665C1276.9 140.408 1277.08 139.367 1277.59 138.542C1278.09 137.734 1279.04 136.975 1280.45 136.266C1281.81 135.577 1282.74 135.014 1283.24 134.576C1283.72 134.155 1283.95 133.761 1283.91 133.395L1276.13 134.206L1275.81 131.174L1287.13 129.996L1287.41 132.669C1287.49 133.481 1287.43 134.187 1287.22 134.788C1286.99 135.391 1286.56 135.967 1285.93 136.516C1285.29 137.064 1284.39 137.656 1283.24 138.291C1282.37 138.768 1281.7 139.208 1281.23 139.611C1280.74 140.032 1280.53 140.496 1280.6 141.003C1280.68 141.606 1280.95 142.004 1281.43 142.196C1281.88 142.406 1282.51 142.47 1283.3 142.387C1284.07 142.307 1284.83 142.091 1285.6 141.737C1286.37 141.4 1287.04 141.032 1287.61 140.635L1287.82 140.613Z" fill="white"/>
<path d="M1290.21 137.174C1290.04 135.358 1290.11 133.881 1290.42 132.744C1290.74 131.606 1291.33 130.747 1292.21 130.168C1293.09 129.588 1294.3 129.227 1295.85 129.083C1297.38 128.941 1298.62 129.074 1299.59 129.482C1300.56 129.891 1301.31 130.625 1301.82 131.686C1302.34 132.747 1302.68 134.185 1302.85 136.002C1303.02 137.834 1302.95 139.319 1302.64 140.456C1302.33 141.594 1301.73 142.453 1300.85 143.032C1299.97 143.612 1298.77 143.973 1297.24 144.115C1295.69 144.258 1294.44 144.126 1293.47 143.717C1292.5 143.309 1291.75 142.575 1291.24 141.514C1290.72 140.453 1290.38 139.007 1290.21 137.174ZM1296.14 132.261C1295.06 132.362 1294.38 132.778 1294.11 133.51C1293.83 134.26 1293.75 135.367 1293.89 136.833C1294.03 138.315 1294.3 139.39 1294.72 140.058C1295.12 140.728 1295.86 141.013 1296.94 140.912C1298.01 140.813 1298.69 140.397 1298.97 139.663C1299.24 138.931 1299.31 137.825 1299.17 136.343C1299.03 134.877 1298.77 133.801 1298.36 133.116C1297.95 132.447 1297.21 132.162 1296.14 132.261Z" fill="white"/>
<path d="M1314.26 138.266L1314.51 141.4C1313.98 141.796 1313.27 142.143 1312.38 142.44C1311.49 142.737 1310.51 142.929 1309.44 143.016C1307.73 143.155 1306.34 142.931 1305.27 142.345C1304.18 141.759 1303.57 140.669 1303.44 139.074C1303.34 137.815 1303.55 136.778 1304.08 135.964C1304.59 135.168 1305.56 134.431 1306.98 133.754C1308.35 133.096 1309.3 132.554 1309.81 132.127C1310.3 131.717 1310.54 131.329 1310.51 130.962L1302.71 131.597L1302.46 128.559L1313.8 127.636L1314.02 130.315C1314.08 131.129 1314.01 131.833 1313.78 132.43C1313.54 133.027 1313.1 133.593 1312.45 134.127C1311.8 134.661 1310.89 135.233 1309.72 135.842C1308.85 136.299 1308.17 136.723 1307.68 137.115C1307.19 137.525 1306.97 137.984 1307.03 138.493C1307.09 139.098 1307.36 139.502 1307.82 139.705C1308.27 139.925 1308.9 140.002 1309.7 139.938C1310.46 139.875 1311.23 139.676 1312.01 139.34C1312.78 139.02 1313.46 138.668 1314.04 138.284L1314.26 138.266Z" fill="white"/>
<path d="M1334.58 126.344L1335.55 141.505L1324.3 142.226L1324.1 139.112L1331.52 138.637L1331.34 135.763L1324.89 136.175L1324.7 133.062L1331.14 132.649L1330.95 129.703L1323.52 130.178L1323.33 127.065L1334.58 126.344Z" fill="white"/>
<path d="M1346.82 125.681L1347.62 140.852L1336.35 141.447L1336.19 138.332L1343.62 137.939L1343.47 135.063L1337.02 135.404L1336.86 132.288L1343.3 131.948L1343.15 129L1335.72 129.392L1335.55 126.276L1346.82 125.681Z" fill="white"/>
<path d="M1349.74 128.834L1349.62 125.812C1350.38 125.621 1351.13 125.47 1351.86 125.359C1352.59 125.249 1353.46 125.172 1354.47 125.131C1355.76 125.077 1356.86 125.143 1357.77 125.33C1358.65 125.517 1359.38 125.879 1359.95 126.416C1360.5 126.97 1360.92 127.761 1361.2 128.79C1361.48 129.819 1361.66 131.149 1361.73 132.78C1361.79 134.346 1361.73 135.638 1361.53 136.655C1361.33 137.673 1360.98 138.464 1360.47 139.029C1359.95 139.611 1359.26 140.025 1358.39 140.269C1357.5 140.53 1356.41 140.687 1355.12 140.741C1354.11 140.783 1353.24 140.779 1352.5 140.73C1351.76 140.696 1351 140.608 1350.23 140.464L1350.1 137.347L1350.17 137.296C1350.85 137.428 1351.5 137.513 1352.12 137.551C1352.75 137.605 1353.52 137.613 1354.43 137.575C1355.17 137.544 1355.77 137.463 1356.25 137.331C1356.71 137.216 1357.07 137.001 1357.33 136.686C1357.58 136.371 1357.76 135.915 1357.84 135.319C1357.92 134.724 1357.93 133.93 1357.89 132.939C1357.85 131.9 1357.76 131.063 1357.64 130.427C1357.5 129.809 1357.29 129.345 1357.01 129.037C1356.72 128.728 1356.35 128.528 1355.88 128.435C1355.39 128.343 1354.78 128.312 1354.05 128.343C1353.15 128.38 1352.39 128.435 1351.77 128.509C1351.14 128.6 1350.5 128.738 1349.87 128.925L1349.74 128.834Z" fill="white"/>
<path d="M1364.19 124.959L1368.03 124.834L1368.52 140.018L1364.69 140.143L1364.19 124.959Z" fill="white"/>
<path d="M1443.51 135.918C1443.94 136.159 1444.48 136.356 1445.12 136.508C1445.73 136.66 1446.37 136.749 1447.03 136.774C1448.24 136.821 1449.11 136.623 1449.64 136.179C1450.17 135.735 1450.51 134.947 1450.65 133.816L1450.62 133.815C1450.28 133.962 1449.83 134.072 1449.27 134.147C1448.7 134.221 1448.07 134.245 1447.37 134.217C1445.82 134.158 1444.65 133.744 1443.86 132.977C1443.07 132.21 1442.71 131.091 1442.76 129.62C1442.8 128.565 1443.01 127.676 1443.37 126.954C1443.74 126.247 1444.33 125.718 1445.16 125.366C1445.98 125.029 1447.1 124.888 1448.54 124.944C1450.11 125.004 1451.32 125.323 1452.18 125.901C1453.02 126.478 1453.6 127.325 1453.91 128.442C1454.22 129.558 1454.34 130.956 1454.27 132.635C1454.2 134.394 1453.89 135.815 1453.34 136.898C1452.77 137.997 1452.01 138.784 1451.06 139.26C1450.11 139.752 1449.02 139.973 1447.77 139.925C1446.71 139.885 1445.82 139.762 1445.09 139.558C1444.37 139.353 1443.77 139.138 1443.29 138.912L1443.41 135.962L1443.51 135.918ZM1448.43 127.87C1447.55 127.836 1446.95 127.957 1446.64 128.233C1446.32 128.509 1446.15 128.975 1446.13 129.63C1446.1 130.334 1446.26 130.82 1446.6 131.089C1446.94 131.375 1447.51 131.533 1448.31 131.564C1448.8 131.583 1449.28 131.545 1449.73 131.451C1450.18 131.356 1450.53 131.225 1450.78 131.059C1450.84 129.844 1450.7 129.014 1450.35 128.568C1449.98 128.138 1449.34 127.905 1448.43 127.87Z" fill="white"/>
<path d="M1466.7 136.515L1466.54 139.655C1465.97 139.979 1465.22 140.23 1464.3 140.408C1463.37 140.586 1462.38 140.648 1461.31 140.595C1459.6 140.509 1458.25 140.105 1457.26 139.383C1456.25 138.66 1455.79 137.499 1455.87 135.901C1455.93 134.639 1456.28 133.639 1456.91 132.901C1457.52 132.179 1458.58 131.575 1460.08 131.089C1461.53 130.617 1462.53 130.203 1463.09 129.846C1463.64 129.505 1463.92 129.151 1463.94 128.783L1456.13 128.392L1456.28 125.348L1467.64 125.917L1467.51 128.601C1467.46 129.416 1467.29 130.105 1466.99 130.666C1466.68 131.227 1466.16 131.73 1465.45 132.175C1464.74 132.62 1463.77 133.068 1462.53 133.519C1461.6 133.857 1460.87 134.189 1460.34 134.515C1459.79 134.856 1459.51 135.282 1459.5 135.794C1459.49 136.403 1459.7 136.838 1460.14 137.1C1460.55 137.377 1461.16 137.536 1461.96 137.576C1462.73 137.614 1463.52 137.517 1464.33 137.286C1465.14 137.07 1465.86 136.809 1466.49 136.504L1466.7 136.515Z" fill="white"/>
<path d="M1467.08 133.33C1467.2 131.509 1467.49 130.06 1467.98 128.984C1468.46 127.907 1469.18 127.15 1470.13 126.711C1471.09 126.273 1472.34 126.101 1473.89 126.196C1475.43 126.29 1476.64 126.612 1477.54 127.164C1478.43 127.716 1479.05 128.555 1479.4 129.683C1479.75 130.81 1479.87 132.284 1479.76 134.105C1479.64 135.941 1479.35 137.398 1478.86 138.474C1478.38 139.551 1477.66 140.308 1476.71 140.747C1475.75 141.185 1474.5 141.357 1472.97 141.264C1471.42 141.169 1470.2 140.846 1469.3 140.294C1468.41 139.742 1467.79 138.903 1467.44 137.775C1467.09 136.648 1466.97 135.166 1467.08 133.33ZM1473.7 129.382C1472.61 129.315 1471.88 129.623 1471.5 130.306C1471.11 131.003 1470.86 132.086 1470.77 133.555C1470.68 135.04 1470.79 136.145 1471.1 136.869C1471.39 137.592 1472.08 137.987 1473.17 138.054C1474.24 138.119 1474.97 137.811 1475.36 137.13C1475.74 136.448 1475.98 135.364 1476.07 133.879C1476.16 132.41 1476.06 131.305 1475.77 130.566C1475.46 129.842 1474.77 129.447 1473.7 129.382Z" fill="white"/>
<path d="M1492.15 138.192L1491.92 141.327C1491.34 141.638 1490.58 141.872 1489.66 142.03C1488.73 142.188 1487.73 142.228 1486.66 142.15C1484.96 142.027 1483.62 141.593 1482.64 140.849C1481.66 140.104 1481.22 138.933 1481.33 137.337C1481.43 136.077 1481.79 135.085 1482.44 134.361C1483.07 133.653 1484.14 133.072 1485.65 132.62C1487.11 132.18 1488.12 131.788 1488.69 131.445C1489.24 131.116 1489.53 130.768 1489.56 130.401L1481.76 129.836L1481.98 126.796L1493.32 127.617L1493.13 130.298C1493.07 131.112 1492.88 131.796 1492.57 132.351C1492.24 132.905 1491.72 133.396 1491 133.825C1490.28 134.254 1489.29 134.68 1488.04 135.103C1487.1 135.42 1486.37 135.736 1485.83 136.05C1485.28 136.379 1484.99 136.8 1484.97 137.311C1484.94 137.919 1485.14 138.359 1485.57 138.63C1485.98 138.917 1486.59 139.089 1487.39 139.147C1488.15 139.202 1488.95 139.123 1489.76 138.909C1490.58 138.712 1491.3 138.467 1491.93 138.176L1492.15 138.192Z" fill="white"/>
<path d="M1513.4 129.471L1512.03 144.601L1500.8 143.587L1501.08 140.479L1508.49 141.148L1508.75 138.28L1502.32 137.7L1502.6 134.592L1509.03 135.173L1509.3 132.233L1501.89 131.564L1502.17 128.456L1513.4 129.471Z" fill="white"/>
<path d="M1526.83 130.825L1525.29 145.938L1514.07 144.792L1514.38 141.689L1521.79 142.444L1522.08 139.579L1515.65 138.923L1515.97 135.819L1522.39 136.475L1522.69 133.538L1515.29 132.783L1515.61 129.679L1526.83 130.825Z" fill="white"/>
<path d="M1527.75 134.221L1528.09 131.216C1528.87 131.144 1529.63 131.109 1530.37 131.113C1531.11 131.116 1531.98 131.175 1532.98 131.289C1534.27 131.435 1535.35 131.67 1536.21 131.993C1537.06 132.315 1537.73 132.785 1538.2 133.403C1538.66 134.034 1538.95 134.881 1539.07 135.941C1539.2 137.001 1539.16 138.342 1538.98 139.964C1538.8 141.522 1538.54 142.788 1538.19 143.763C1537.83 144.737 1537.37 145.465 1536.78 145.946C1536.18 146.441 1535.43 146.742 1534.53 146.85C1533.61 146.971 1532.51 146.959 1531.22 146.813C1530.22 146.699 1529.36 146.561 1528.64 146.399C1527.91 146.252 1527.18 146.048 1526.44 145.786L1526.79 142.686L1526.86 142.647C1527.51 142.882 1528.15 143.066 1528.76 143.2C1529.37 143.35 1530.13 143.476 1531.03 143.579C1531.77 143.662 1532.38 143.675 1532.87 143.618C1533.34 143.575 1533.73 143.417 1534.03 143.146C1534.33 142.875 1534.58 142.451 1534.75 141.876C1534.92 141.298 1535.05 140.517 1535.17 139.531C1535.28 138.498 1535.33 137.658 1535.31 137.011C1535.27 136.378 1535.13 135.888 1534.89 135.539C1534.66 135.19 1534.32 134.934 1533.87 134.771C1533.41 134.605 1532.81 134.481 1532.08 134.398C1531.19 134.297 1530.43 134.235 1529.8 134.212C1529.16 134.204 1528.51 134.243 1527.86 134.33L1527.75 134.221Z" fill="white"/>
<path d="M1542.46 132.595L1546.27 133.06L1544.43 148.14L1540.62 147.675L1542.46 132.595Z" fill="white"/>
</svg>
