<svg width="1325" height="1331" viewBox="0 0 1325 1331" fill="none" xmlns="http://www.w3.org/2000/svg">
<path d="M31.8723 431.644C340.678 590.143 444.873 248.643 636.872 442.144C838.87 645.721 432.873 1013.64 403.872 820.643C374.872 627.643 1306.99 986.394 1189.87 770.645C1094.87 595.644 854.287 1277.14 916.873 1276.64" stroke="#1B65FA" stroke-width="60"/>
<path d="M913.1 1215.3C913.4 1214.9 913.671 1214.4 913.912 1213.79C914.15 1213.2 914.327 1212.58 914.445 1211.94C914.663 1210.74 914.59 1209.85 914.225 1209.26C913.86 1208.68 913.128 1208.23 912.028 1207.94L912.023 1207.96C912.12 1208.32 912.166 1208.78 912.16 1209.35C912.154 1209.92 912.088 1210.55 911.962 1211.24C911.683 1212.77 911.109 1213.87 910.239 1214.54C909.368 1215.21 908.209 1215.41 906.761 1215.15C905.722 1214.96 904.871 1214.63 904.207 1214.17C903.559 1213.71 903.119 1213.05 902.887 1212.17C902.669 1211.32 902.689 1210.19 902.947 1208.77C903.228 1207.23 903.715 1206.07 904.408 1205.3C905.098 1204.55 906.018 1204.1 907.167 1203.95C908.316 1203.8 909.717 1203.88 911.37 1204.18C913.102 1204.5 914.465 1205.01 915.459 1205.71C916.466 1206.43 917.138 1207.29 917.475 1208.29C917.829 1209.3 917.893 1210.42 917.669 1211.65C917.48 1212.69 917.233 1213.55 916.928 1214.25C916.622 1214.94 916.325 1215.5 916.034 1215.94L913.13 1215.41L913.1 1215.3ZM905.827 1209.29C905.67 1210.16 905.705 1210.77 905.934 1211.12C906.163 1211.47 906.6 1211.7 907.245 1211.82C907.938 1211.95 908.442 1211.86 908.757 1211.56C909.087 1211.26 909.324 1210.72 909.468 1209.93C909.557 1209.45 909.586 1208.97 909.557 1208.51C909.527 1208.05 909.447 1207.69 909.317 1207.42C908.123 1207.18 907.281 1207.21 906.79 1207.49C906.312 1207.8 905.991 1208.4 905.827 1209.29Z" fill="white"/>
<path d="M917.01 1192.99L920.089 1193.63C920.319 1194.25 920.451 1195.03 920.485 1195.97C920.518 1196.91 920.426 1197.9 920.207 1198.95C919.859 1200.63 919.251 1201.9 918.385 1202.76C917.515 1203.64 916.297 1203.92 914.73 1203.6C913.493 1203.34 912.558 1202.84 911.927 1202.11C911.308 1201.39 910.875 1200.25 910.626 1198.7C910.384 1197.19 910.13 1196.13 909.865 1195.52C909.612 1194.93 909.305 1194.6 908.945 1194.52L907.351 1202.18L904.367 1201.56L906.684 1190.43L909.316 1190.97C910.115 1191.14 910.769 1191.41 911.277 1191.8C911.782 1192.2 912.2 1192.78 912.53 1193.55C912.86 1194.32 913.151 1195.36 913.405 1196.65C913.595 1197.62 913.81 1198.4 914.051 1198.97C914.303 1199.56 914.682 1199.9 915.187 1199.99C915.785 1200.1 916.247 1199.96 916.574 1199.57C916.912 1199.2 917.163 1198.62 917.326 1197.84C917.482 1197.08 917.509 1196.29 917.406 1195.45C917.318 1194.62 917.172 1193.87 916.966 1193.2L917.01 1192.99Z" fill="white"/>
<path d="M914.273 1190.56C912.495 1190.15 911.115 1189.62 910.132 1188.97C909.149 1188.31 908.52 1187.48 908.244 1186.46C907.969 1185.45 908.004 1184.18 908.352 1182.67C908.696 1181.17 909.213 1180.03 909.904 1179.24C910.595 1178.44 911.525 1177.97 912.694 1177.81C913.864 1177.65 915.337 1177.77 917.115 1178.18C918.908 1178.59 920.296 1179.13 921.279 1179.78C922.262 1180.43 922.891 1181.27 923.167 1182.28C923.443 1183.3 923.409 1184.55 923.065 1186.05C922.718 1187.56 922.198 1188.72 921.507 1189.51C920.816 1190.3 919.886 1190.78 918.717 1190.94C917.548 1191.1 916.067 1190.97 914.273 1190.56ZM911.463 1183.39C911.219 1184.45 911.403 1185.22 912.014 1185.7C912.637 1186.21 913.666 1186.63 915.1 1186.95C916.551 1187.29 917.658 1187.36 918.423 1187.18C919.185 1187.01 919.687 1186.39 919.93 1185.33C920.17 1184.29 919.987 1183.51 919.379 1183.01C918.768 1182.53 917.738 1182.12 916.288 1181.79C914.853 1181.46 913.747 1181.37 912.97 1181.54C912.205 1181.73 911.703 1182.34 911.463 1183.39Z" fill="white"/>
<path d="M923.177 1166.94L926.229 1167.69C926.436 1168.32 926.538 1169.11 926.536 1170.04C926.534 1170.98 926.404 1171.97 926.146 1173.01C925.734 1174.68 925.078 1175.92 924.179 1176.75C923.277 1177.6 922.049 1177.83 920.496 1177.45C919.269 1177.14 918.354 1176.61 917.751 1175.85C917.16 1175.11 916.77 1173.96 916.581 1172.4C916.396 1170.88 916.182 1169.82 915.94 1169.2C915.71 1168.6 915.417 1168.25 915.06 1168.16L913.176 1175.76L910.218 1175.02L912.956 1163.98L915.565 1164.63C916.357 1164.83 917 1165.12 917.494 1165.53C917.983 1165.95 918.378 1166.55 918.679 1167.33C918.979 1168.11 919.231 1169.16 919.435 1170.46C919.588 1171.44 919.774 1172.22 919.993 1172.8C920.223 1173.4 920.588 1173.75 921.089 1173.86C921.683 1173.99 922.15 1173.87 922.491 1173.49C922.844 1173.13 923.116 1172.57 923.309 1171.79C923.494 1171.05 923.55 1170.25 923.479 1169.41C923.423 1168.57 923.305 1167.82 923.125 1167.15L923.177 1166.94Z" fill="white"/>
<path d="M918.195 1144.77L932.858 1148.75L929.906 1159.63L926.895 1158.82L928.842 1151.64L926.062 1150.88L924.373 1157.11L921.361 1156.3L923.051 1150.07L920.202 1149.29L918.255 1156.48L915.243 1155.66L918.195 1144.77Z" fill="white"/>
<path d="M921.688 1132.41L936.302 1136.57L933.218 1147.42L930.217 1146.56L932.251 1139.41L929.481 1138.62L927.716 1144.83L924.715 1143.98L926.479 1137.77L923.64 1136.96L921.606 1144.12L918.605 1143.26L921.688 1132.41Z" fill="white"/>
<path d="M925.493 1131.09L922.594 1130.23C922.659 1129.45 922.757 1128.69 922.889 1127.96C923.022 1127.23 923.231 1126.39 923.517 1125.42C923.885 1124.18 924.304 1123.16 924.773 1122.36C925.238 1121.58 925.816 1121.01 926.507 1120.65C927.21 1120.31 928.094 1120.17 929.159 1120.23C930.224 1120.3 931.539 1120.56 933.104 1121.03C934.607 1121.47 935.808 1121.95 936.707 1122.47C937.605 1122.98 938.24 1123.57 938.612 1124.23C938.994 1124.91 939.16 1125.71 939.11 1126.61C939.07 1127.53 938.866 1128.61 938.498 1129.86C938.212 1130.82 937.926 1131.65 937.64 1132.33C937.37 1133.02 937.041 1133.71 936.654 1134.39L933.663 1133.51L933.637 1133.42C933.981 1132.82 934.273 1132.23 934.511 1131.65C934.765 1131.08 935.022 1130.35 935.281 1129.48C935.49 1128.77 935.609 1128.17 935.638 1127.68C935.677 1127.21 935.59 1126.8 935.376 1126.45C935.162 1126.11 934.787 1125.8 934.251 1125.52C933.71 1125.26 932.965 1124.99 932.014 1124.71C931.016 1124.41 930.197 1124.22 929.556 1124.13C928.926 1124.06 928.419 1124.11 928.035 1124.28C927.651 1124.45 927.339 1124.74 927.1 1125.15C926.857 1125.58 926.63 1126.15 926.421 1126.86C926.167 1127.71 925.974 1128.45 925.843 1129.06C925.722 1129.69 925.648 1130.34 925.62 1131L925.493 1131.09Z" fill="white"/>
<path d="M926.394 1116.51L927.514 1112.84L942.046 1117.27L940.926 1120.94L926.394 1116.51Z" fill="white"/>
<path d="M961.792 1044.96C962.156 1044.62 962.508 1044.17 962.848 1043.61C963.183 1043.07 963.463 1042.49 963.688 1041.87C964.106 1040.73 964.184 1039.84 963.924 1039.2C963.664 1038.56 963.017 1038 961.983 1037.52L961.975 1037.54C962.01 1037.91 961.977 1038.38 961.874 1038.93C961.772 1039.49 961.6 1040.1 961.359 1040.76C960.826 1042.22 960.073 1043.21 959.102 1043.72C958.13 1044.23 956.953 1044.24 955.571 1043.73C954.579 1043.37 953.795 1042.91 953.219 1042.34C952.659 1041.77 952.338 1041.04 952.258 1040.15C952.187 1039.27 952.399 1038.15 952.893 1036.8C953.431 1035.33 954.107 1034.27 954.92 1033.63C955.728 1033.01 956.711 1032.72 957.868 1032.77C959.026 1032.82 960.394 1033.13 961.972 1033.71C963.625 1034.31 964.882 1035.04 965.743 1035.9C966.613 1036.78 967.13 1037.75 967.292 1038.79C967.469 1039.85 967.343 1040.96 966.915 1042.13C966.552 1043.12 966.162 1043.93 965.744 1044.57C965.326 1045.2 964.937 1045.7 964.577 1046.08L961.804 1045.07L961.792 1044.96ZM955.643 1037.81C955.341 1038.63 955.273 1039.24 955.439 1039.62C955.605 1040.01 955.996 1040.31 956.612 1040.54C957.273 1040.78 957.785 1040.78 958.146 1040.54C958.522 1040.3 958.848 1039.8 959.122 1039.05C959.293 1038.59 959.402 1038.12 959.451 1037.66C959.5 1037.21 959.482 1036.83 959.4 1036.55C958.263 1036.11 957.429 1036 956.897 1036.19C956.374 1036.41 955.956 1036.95 955.643 1037.81Z" fill="white"/>
<path d="M969.438 1023.06L972.382 1024.16C972.515 1024.81 972.527 1025.6 972.417 1026.53C972.307 1027.46 972.064 1028.43 971.688 1029.44C971.087 1031.04 970.293 1032.2 969.304 1032.93C968.31 1033.66 967.064 1033.75 965.566 1033.19C964.382 1032.75 963.534 1032.11 963.023 1031.29C962.521 1030.49 962.265 1029.3 962.257 1027.72C962.247 1026.2 962.158 1025.12 961.989 1024.47C961.83 1023.85 961.578 1023.47 961.233 1023.34L958.489 1030.67L955.634 1029.6L959.624 1018.95L962.142 1019.89C962.906 1020.18 963.51 1020.55 963.954 1021C964.392 1021.48 964.716 1022.12 964.924 1022.93C965.132 1023.74 965.263 1024.81 965.316 1026.13C965.355 1027.12 965.45 1027.91 965.6 1028.51C965.76 1029.14 966.082 1029.53 966.567 1029.7C967.142 1029.9 967.621 1029.83 968.002 1029.49C968.394 1029.18 968.73 1028.64 969.01 1027.9C969.28 1027.18 969.427 1026.39 969.453 1025.55C969.494 1024.71 969.464 1023.95 969.362 1023.26L969.438 1023.06Z" fill="white"/>
<path d="M967.162 1020.06C965.46 1019.4 964.167 1018.68 963.286 1017.9C962.405 1017.12 961.899 1016.2 961.768 1015.16C961.638 1014.11 961.851 1012.87 962.408 1011.42C962.958 1009.98 963.632 1008.92 964.427 1008.23C965.223 1007.55 966.211 1007.21 967.391 1007.21C968.57 1007.22 970.012 1007.55 971.714 1008.21C973.432 1008.86 974.732 1009.59 975.613 1010.37C976.494 1011.16 977 1012.07 977.131 1013.11C977.261 1014.16 977.051 1015.4 976.5 1016.83C975.943 1018.28 975.267 1019.35 974.472 1020.04C973.676 1020.72 972.688 1021.07 971.508 1021.06C970.329 1021.05 968.88 1020.72 967.162 1020.06ZM965.387 1012.56C964.997 1013.58 965.071 1014.37 965.607 1014.94C966.153 1015.52 967.113 1016.08 968.487 1016.61C969.876 1017.14 970.963 1017.37 971.746 1017.29C972.524 1017.23 973.108 1016.69 973.498 1015.68C973.882 1014.68 973.809 1013.89 973.278 1013.3C972.741 1012.74 971.778 1012.19 970.389 1011.66C969.015 1011.13 967.932 1010.89 967.139 1010.95C966.356 1011.02 965.772 1011.56 965.387 1012.56Z" fill="white"/>
<path d="M979.19 997.91L982.115 999.061C982.238 999.711 982.236 1000.5 982.111 1001.43C981.985 1002.36 981.726 1003.33 981.333 1004.32C980.706 1005.92 979.892 1007.07 978.892 1007.77C977.886 1008.5 976.638 1008.56 975.149 1007.98C973.973 1007.51 973.136 1006.87 972.638 1006.03C972.15 1005.22 971.914 1004.03 971.932 1002.46C971.948 1000.93 971.877 999.845 971.719 999.199C971.57 998.572 971.324 998.192 970.981 998.057L968.115 1005.34L965.279 1004.22L969.446 993.636L971.947 994.62C972.707 994.919 973.305 995.301 973.741 995.765C974.171 996.244 974.484 996.891 974.679 997.707C974.873 998.523 974.986 999.591 975.017 1000.91C975.04 1001.9 975.122 1002.7 975.262 1003.3C975.411 1003.93 975.727 1004.33 976.209 1004.5C976.78 1004.71 977.26 1004.65 977.647 1004.32C978.044 1004.01 978.389 1003.48 978.682 1002.74C978.963 1002.02 979.124 1001.25 979.163 1000.4C979.218 999.563 979.201 998.8 979.111 998.111L979.19 997.91Z" fill="white"/>
<path d="M976.663 976.124L990.73 981.863L986.469 992.307L983.58 991.129L986.39 984.24L983.724 983.152L981.285 989.13L978.396 987.951L980.835 981.974L978.102 980.858L975.291 987.747L972.402 986.569L976.663 976.124Z" fill="white"/>
<path d="M981.86 963.654L995.878 969.51L991.529 979.918L988.651 978.715L991.518 971.85L988.861 970.74L986.372 976.697L983.494 975.495L985.982 969.537L983.258 968.4L980.39 975.265L977.511 974.062L981.86 963.654Z" fill="white"/>
<path d="M985.844 962.668L983.065 961.477C983.22 960.708 983.406 959.97 983.622 959.262C983.838 958.554 984.145 957.737 984.542 956.81C985.052 955.619 985.587 954.655 986.146 953.92C986.698 953.199 987.339 952.699 988.068 952.42C988.805 952.161 989.699 952.126 990.75 952.315C991.8 952.504 993.075 952.92 994.575 953.563C996.017 954.18 997.153 954.798 997.986 955.415C998.818 956.033 999.38 956.691 999.672 957.391C999.972 958.112 1000.04 958.917 999.89 959.808C999.743 960.72 999.414 961.771 998.904 962.963C998.507 963.889 998.127 964.675 997.763 965.32C997.414 965.971 997.008 966.615 996.544 967.252L993.676 966.023L993.66 965.938C994.072 965.384 994.43 964.832 994.735 964.284C995.054 963.742 995.393 963.051 995.752 962.213C996.042 961.537 996.23 960.956 996.316 960.47C996.41 960.006 996.372 959.589 996.199 959.219C996.027 958.849 995.691 958.497 995.191 958.161C994.684 957.839 993.975 957.483 993.063 957.092C992.107 956.683 991.316 956.396 990.69 956.233C990.073 956.09 989.563 956.08 989.162 956.204C988.761 956.328 988.417 956.582 988.131 956.964C987.839 957.361 987.549 957.898 987.259 958.574C986.906 959.398 986.629 960.106 986.427 960.699C986.234 961.312 986.085 961.944 985.98 962.596L985.844 962.668Z" fill="white"/>
<path d="M988.467 948.224L990.004 944.705L1003.93 950.785L1002.39 954.304L988.467 948.224Z" fill="white"/>
<path d="M1031.8 881.953C1032.21 881.659 1032.61 881.258 1033.02 880.749C1033.42 880.255 1033.78 879.716 1034.08 879.134C1034.64 878.056 1034.83 877.182 1034.66 876.514C1034.48 875.845 1033.91 875.207 1032.95 874.597L1032.94 874.618C1032.93 874.99 1032.83 875.447 1032.66 875.988C1032.49 876.529 1032.24 877.112 1031.91 877.736C1031.19 879.113 1030.32 879.994 1029.29 880.378C1028.26 880.762 1027.1 880.614 1025.79 879.935C1024.85 879.447 1024.14 878.885 1023.64 878.247C1023.15 877.617 1022.93 876.851 1022.97 875.95C1023.01 875.07 1023.36 873.992 1024.03 872.714C1024.75 871.323 1025.56 870.363 1026.45 869.834C1027.33 869.318 1028.34 869.159 1029.48 869.356C1030.62 869.554 1031.94 870.04 1033.43 870.815C1034.99 871.628 1036.14 872.516 1036.89 873.48C1037.64 874.465 1038.02 875.487 1038.05 876.547C1038.09 877.614 1037.82 878.701 1037.25 879.808C1036.76 880.745 1036.27 881.499 1035.77 882.071C1035.27 882.642 1034.82 883.093 1034.42 883.423L1031.8 882.06L1031.8 881.953ZM1026.62 874.066C1026.22 874.846 1026.07 875.438 1026.19 875.841C1026.3 876.243 1026.65 876.596 1027.23 876.899C1027.86 877.224 1028.37 877.289 1028.75 877.095C1029.16 876.908 1029.55 876.46 1029.91 875.75C1030.14 875.31 1030.31 874.866 1030.42 874.417C1030.53 873.968 1030.56 873.596 1030.51 873.302C1029.44 872.726 1028.63 872.502 1028.08 872.629C1027.53 872.778 1027.05 873.257 1026.62 874.066Z" fill="white"/>
<path d="M1042.32 861.157L1045.08 862.646C1045.13 863.305 1045.03 864.09 1044.8 864.999C1044.57 865.909 1044.19 866.835 1043.69 867.78C1042.88 869.287 1041.93 870.333 1040.86 870.917C1039.77 871.515 1038.52 871.435 1037.11 870.677C1036 870.078 1035.25 869.336 1034.85 868.451C1034.46 867.588 1034.37 866.375 1034.57 864.814C1034.77 863.302 1034.82 862.215 1034.74 861.554C1034.67 860.915 1034.47 860.508 1034.15 860.334L1030.44 867.225L1027.76 865.781L1033.14 855.762L1035.51 857.035C1036.23 857.421 1036.78 857.871 1037.16 858.383C1037.53 858.91 1037.76 859.59 1037.86 860.423C1037.96 861.256 1037.94 862.329 1037.82 863.643C1037.72 864.628 1037.71 865.429 1037.78 866.047C1037.85 866.686 1038.12 867.12 1038.58 867.349C1039.12 867.622 1039.6 867.619 1040.03 867.338C1040.46 867.079 1040.86 866.597 1041.24 865.892C1041.6 865.216 1041.86 864.461 1042 863.627C1042.15 862.802 1042.22 862.041 1042.21 861.347L1042.32 861.157Z" fill="white"/>
<path d="M1040.39 858.026C1038.8 857.136 1037.62 856.24 1036.86 855.339C1036.1 854.437 1035.73 853.46 1035.75 852.408C1035.77 851.356 1036.16 850.153 1036.91 848.798C1037.66 847.457 1038.48 846.502 1039.37 845.934C1040.25 845.366 1041.28 845.17 1042.44 845.345C1043.61 845.52 1044.99 846.053 1046.58 846.942C1048.19 847.84 1049.37 848.74 1050.13 849.641C1050.89 850.543 1051.26 851.52 1051.25 852.572C1051.23 853.624 1050.84 854.82 1050.09 856.161C1049.33 857.516 1048.51 858.478 1047.63 859.046C1046.74 859.614 1045.72 859.81 1044.55 859.635C1043.38 859.46 1042 858.923 1040.39 858.026ZM1039.7 850.355C1039.17 851.305 1039.13 852.098 1039.58 852.735C1040.04 853.393 1040.91 854.081 1042.19 854.799C1043.49 855.525 1044.53 855.906 1045.32 855.942C1046.1 855.992 1046.75 855.542 1047.28 854.592C1047.81 853.657 1047.85 852.863 1047.4 852.213C1046.95 851.576 1046.08 850.895 1044.78 850.169C1043.49 849.451 1042.46 849.063 1041.66 849.005C1040.88 848.969 1040.22 849.419 1039.7 850.355Z" fill="white"/>
<path d="M1055.54 837.876L1058.25 839.459C1058.28 840.12 1058.16 840.901 1057.89 841.801C1057.63 842.702 1057.22 843.616 1056.68 844.542C1055.82 846.022 1054.84 847.035 1053.75 847.581C1052.64 848.142 1051.4 848.02 1050.02 847.215C1048.92 846.579 1048.2 845.812 1047.83 844.913C1047.47 844.037 1047.42 842.822 1047.67 841.268C1047.92 839.764 1048.02 838.68 1047.96 838.017C1047.91 837.376 1047.72 836.962 1047.4 836.777L1043.46 843.538L1040.83 842.004L1046.56 832.174L1048.88 833.526C1049.58 833.937 1050.12 834.405 1050.48 834.93C1050.83 835.468 1051.04 836.156 1051.11 836.992C1051.18 837.828 1051.13 838.9 1050.96 840.209C1050.83 841.19 1050.79 841.991 1050.84 842.61C1050.89 843.252 1051.14 843.694 1051.59 843.938C1052.13 844.23 1052.61 844.243 1053.04 843.977C1053.48 843.732 1053.9 843.264 1054.3 842.573C1054.69 841.909 1054.97 841.163 1055.13 840.335C1055.32 839.515 1055.41 838.758 1055.43 838.063L1055.54 837.876Z" fill="white"/>
<path d="M1057.11 815.245L1069.99 823.3L1064.01 832.864L1061.36 831.21L1065.3 824.901L1062.86 823.374L1059.44 828.848L1056.79 827.194L1060.22 821.72L1057.71 820.155L1053.77 826.463L1051.12 824.809L1057.11 815.245Z" fill="white"/>
<path d="M1064.62 803.791L1077.3 812.16L1071.08 821.574L1068.48 819.855L1072.58 813.646L1070.18 812.059L1066.62 817.447L1064.02 815.728L1067.57 810.341L1065.11 808.714L1061.01 814.923L1058.41 813.204L1064.62 803.791Z" fill="white"/>
<path d="M1068.6 803.767L1066.13 802.027C1066.44 801.307 1066.77 800.622 1067.13 799.974C1067.49 799.326 1067.96 798.59 1068.54 797.766C1069.28 796.706 1070.01 795.874 1070.7 795.27C1071.39 794.679 1072.12 794.322 1072.9 794.199C1073.67 794.099 1074.55 794.249 1075.54 794.651C1076.53 795.053 1077.69 795.724 1079.03 796.663C1080.31 797.565 1081.29 798.404 1081.98 799.18C1082.67 799.956 1083.08 800.717 1083.22 801.462C1083.37 802.229 1083.27 803.032 1082.93 803.872C1082.6 804.733 1082.06 805.694 1081.32 806.754C1080.74 807.579 1080.2 808.269 1079.71 808.825C1079.24 809.39 1078.71 809.936 1078.12 810.463L1075.57 808.668L1075.57 808.582C1076.09 808.124 1076.55 807.658 1076.97 807.185C1077.39 806.721 1077.86 806.115 1078.39 805.369C1078.81 804.767 1079.12 804.238 1079.3 803.781C1079.49 803.346 1079.54 802.93 1079.45 802.533C1079.35 802.135 1079.1 801.721 1078.68 801.288C1078.25 800.869 1077.63 800.374 1076.82 799.804C1075.97 799.205 1075.25 798.761 1074.67 798.472C1074.1 798.204 1073.6 798.09 1073.18 798.128C1072.76 798.166 1072.38 798.343 1072.02 798.658C1071.65 798.986 1071.25 799.452 1070.83 800.054C1070.32 800.786 1069.9 801.422 1069.58 801.96C1069.26 802.52 1068.99 803.108 1068.75 803.724L1068.6 803.767Z" fill="white"/>
<path d="M1074.4 789.889L1076.69 786.807L1088.88 795.868L1086.59 798.95L1074.4 789.889Z" fill="white"/>
<path d="M1139.52 745.037C1140.01 745.149 1140.58 745.192 1141.23 745.165C1141.87 745.142 1142.51 745.053 1143.14 744.898C1144.32 744.611 1145.11 744.182 1145.5 743.61C1145.89 743.039 1145.99 742.189 1145.82 741.063L1145.79 741.069C1145.51 741.303 1145.1 741.533 1144.58 741.759C1144.06 741.984 1143.45 742.18 1142.77 742.346C1141.26 742.713 1140.02 742.634 1139.06 742.112C1138.09 741.589 1137.43 740.613 1137.09 739.182C1136.84 738.156 1136.79 737.246 1136.94 736.451C1137.1 735.672 1137.53 735 1138.23 734.434C1138.92 733.888 1139.97 733.445 1141.37 733.105C1142.89 732.735 1144.14 732.71 1145.13 733.031C1146.09 733.356 1146.88 734.013 1147.48 735.003C1148.08 735.993 1148.58 737.304 1148.98 738.936C1149.4 740.647 1149.49 742.098 1149.25 743.292C1149 744.505 1148.48 745.47 1147.7 746.186C1146.93 746.919 1145.93 747.432 1144.72 747.726C1143.69 747.976 1142.8 748.102 1142.04 748.104C1141.29 748.107 1140.65 748.064 1140.14 747.975L1139.44 745.106L1139.52 745.037ZM1142.06 735.95C1141.2 736.158 1140.66 736.437 1140.43 736.789C1140.21 737.141 1140.17 737.635 1140.32 738.273C1140.49 738.957 1140.77 739.382 1141.18 739.547C1141.58 739.729 1142.17 739.725 1142.95 739.536C1143.43 739.419 1143.88 739.253 1144.29 739.039C1144.7 738.824 1145 738.603 1145.19 738.375C1144.92 737.19 1144.55 736.431 1144.09 736.098C1143.62 735.784 1142.94 735.735 1142.06 735.95Z" fill="white"/>
<path d="M1160.62 743.235L1160.24 746.356C1159.64 746.639 1158.87 746.836 1157.94 746.949C1157.01 747.062 1156.01 747.054 1154.95 746.926C1153.25 746.72 1151.93 746.222 1150.99 745.432C1150.04 744.64 1149.66 743.45 1149.85 741.862C1150.01 740.607 1150.42 739.634 1151.1 738.942C1151.76 738.265 1152.86 737.737 1154.39 737.357C1155.87 736.988 1156.9 736.645 1157.49 736.33C1158.05 736.028 1158.36 735.694 1158.4 735.329L1150.64 734.39L1151 731.364L1162.3 732.729L1161.97 735.397C1161.88 736.207 1161.66 736.882 1161.32 737.421C1160.96 737.959 1160.42 738.424 1159.67 738.818C1158.93 739.212 1157.93 739.59 1156.66 739.953C1155.71 740.225 1154.96 740.504 1154.41 740.792C1153.84 741.094 1153.53 741.501 1153.49 742.011C1153.43 742.616 1153.61 743.065 1154.03 743.357C1154.42 743.663 1155.02 743.864 1155.81 743.96C1156.58 744.052 1157.37 744.011 1158.2 743.837C1159.02 743.679 1159.76 743.47 1160.4 743.209L1160.62 743.235Z" fill="white"/>
<path d="M1163.3 740.801C1164.21 739.218 1165.12 738.052 1166.03 737.301C1166.94 736.55 1167.92 736.19 1168.97 736.221C1170.02 736.252 1171.22 736.654 1172.57 737.426C1173.9 738.189 1174.85 739.017 1175.4 739.909C1175.96 740.801 1176.15 741.829 1175.96 742.994C1175.77 744.159 1175.22 745.532 1174.32 747.115C1173.4 748.711 1172.49 749.884 1171.58 750.635C1170.67 751.386 1169.69 751.746 1168.64 751.715C1167.58 751.684 1166.39 751.286 1165.06 750.522C1163.71 749.751 1162.76 748.919 1162.2 748.027C1161.64 747.135 1161.46 746.107 1161.65 744.942C1161.84 743.778 1162.39 742.397 1163.3 740.801ZM1170.98 740.195C1170.04 739.654 1169.24 739.605 1168.6 740.049C1167.94 740.498 1167.24 741.362 1166.51 742.639C1165.77 743.93 1165.38 744.968 1165.33 745.754C1165.27 746.532 1165.72 747.191 1166.66 747.732C1167.59 748.265 1168.38 748.314 1169.04 747.878C1169.68 747.435 1170.37 746.567 1171.11 745.276C1171.84 743.999 1172.24 742.965 1172.31 742.173C1172.35 741.387 1171.91 740.728 1170.98 740.195Z" fill="white"/>
<path d="M1181.08 758.738L1178.76 760.862C1178.12 760.687 1177.41 760.339 1176.63 759.818C1175.85 759.297 1175.1 758.641 1174.37 757.851C1173.22 756.589 1172.54 755.353 1172.34 754.144C1172.14 752.924 1172.62 751.773 1173.8 750.692C1174.73 749.838 1175.68 749.369 1176.65 749.287C1177.59 749.204 1178.77 749.515 1180.18 750.222C1181.54 750.904 1182.55 751.316 1183.2 751.458C1183.83 751.598 1184.27 751.544 1184.55 751.296L1179.26 745.528L1181.51 743.468L1189.19 751.855L1187.21 753.671C1186.61 754.223 1186 754.592 1185.4 754.781C1184.78 754.958 1184.06 754.955 1183.24 754.772C1182.42 754.589 1181.41 754.222 1180.21 753.672C1179.31 753.259 1178.56 752.983 1177.96 752.843C1177.33 752.703 1176.83 752.811 1176.46 753.169C1176.03 753.591 1175.87 754.049 1176 754.541C1176.1 755.033 1176.42 755.573 1176.96 756.163C1177.48 756.729 1178.11 757.215 1178.85 757.621C1179.58 758.038 1180.27 758.357 1180.93 758.579L1181.08 758.738Z" fill="white"/>
<path d="M1199.97 769.764L1186.6 776.982L1181.24 767.057L1183.99 765.574L1187.52 772.121L1190.06 770.752L1186.99 765.072L1189.74 763.589L1192.8 769.27L1195.4 767.867L1191.87 761.321L1194.61 759.838L1199.97 769.764Z" fill="white"/>
<path d="M1205.46 783.244L1191.29 788.726L1187.22 778.206L1190.13 777.081L1192.81 784.019L1195.5 782.98L1193.17 776.959L1196.08 775.833L1198.41 781.854L1201.16 780.789L1198.48 773.85L1201.39 772.724L1205.46 783.244Z" fill="white"/>
<path d="M1203.27 787.229L1206.25 786.739C1206.53 787.471 1206.77 788.193 1206.97 788.907C1207.17 789.62 1207.35 790.474 1207.51 791.468C1207.73 792.747 1207.79 793.847 1207.72 794.767C1207.64 795.672 1207.37 796.438 1206.9 797.066C1206.42 797.68 1205.69 798.19 1204.7 798.596C1203.71 799.001 1202.41 799.337 1200.8 799.601C1199.25 799.856 1197.96 799.946 1196.93 799.873C1195.9 799.8 1195.07 799.547 1194.45 799.114C1193.81 798.668 1193.31 798.028 1192.96 797.193C1192.6 796.346 1192.31 795.282 1192.1 794.003C1191.93 793.009 1191.83 792.142 1191.79 791.403C1191.74 790.666 1191.73 789.904 1191.78 789.118L1194.86 788.612L1194.92 788.675C1194.87 789.364 1194.86 790.022 1194.9 790.648C1194.92 791.277 1195.01 792.041 1195.16 792.941C1195.28 793.667 1195.43 794.258 1195.62 794.713C1195.79 795.156 1196.05 795.486 1196.39 795.705C1196.74 795.924 1197.21 796.041 1197.81 796.056C1198.41 796.054 1199.2 795.973 1200.18 795.812C1201.2 795.644 1202.03 795.46 1202.64 795.261C1203.24 795.05 1203.67 794.784 1203.95 794.463C1204.22 794.143 1204.37 793.745 1204.41 793.269C1204.44 792.777 1204.4 792.168 1204.28 791.442C1204.13 790.557 1203.98 789.811 1203.83 789.203C1203.67 788.582 1203.45 787.969 1203.19 787.363L1203.27 787.229Z" fill="white"/>
<path d="M1208.49 803.462L1208.16 807.287L1193.02 805.961L1193.36 802.135L1208.49 803.462Z" fill="white"/>
<path d="M1139.05 837.487C1138.59 837.292 1138.04 837.151 1137.39 837.063C1136.76 836.975 1136.12 836.951 1135.46 836.993C1134.25 837.07 1133.4 837.356 1132.92 837.851C1132.44 838.346 1132.19 839.164 1132.16 840.304L1132.19 840.302C1132.51 840.121 1132.95 839.965 1133.5 839.834C1134.05 839.703 1134.68 839.615 1135.39 839.571C1136.93 839.473 1138.14 839.766 1139 840.449C1139.86 841.132 1140.34 842.208 1140.43 843.677C1140.5 844.731 1140.39 845.636 1140.1 846.391C1139.81 847.131 1139.27 847.718 1138.48 848.153C1137.7 848.571 1136.6 848.825 1135.16 848.916C1133.59 849.015 1132.35 848.821 1131.44 848.333C1130.55 847.845 1129.89 847.061 1129.47 845.981C1129.04 844.902 1128.78 843.523 1128.68 841.847C1128.56 840.09 1128.73 838.645 1129.17 837.511C1129.63 836.36 1130.3 835.499 1131.2 834.93C1132.09 834.344 1133.16 834.012 1134.4 833.934C1135.46 833.867 1136.36 833.898 1137.1 834.028C1137.85 834.157 1138.47 834.31 1138.96 834.487L1139.15 837.433L1139.05 837.487ZM1134.97 845.994C1135.85 845.938 1136.43 845.757 1136.72 845.45C1137 845.144 1137.13 844.663 1137.08 844.009C1137.04 843.306 1136.83 842.838 1136.47 842.605C1136.1 842.355 1135.51 842.256 1134.72 842.307C1134.22 842.338 1133.75 842.424 1133.31 842.564C1132.87 842.704 1132.54 842.869 1132.31 843.06C1132.37 844.274 1132.6 845.086 1132.99 845.494C1133.4 845.885 1134.06 846.051 1134.97 845.994Z" fill="white"/>
<path d="M1115.65 838.9L1115.58 835.756C1116.13 835.392 1116.86 835.088 1117.77 834.845C1118.68 834.601 1119.67 834.468 1120.74 834.445C1122.45 834.408 1123.82 834.714 1124.86 835.364C1125.92 836.013 1126.46 837.138 1126.5 838.737C1126.52 840.001 1126.25 841.023 1125.67 841.804C1125.11 842.568 1124.1 843.246 1122.65 843.838C1121.23 844.412 1120.26 844.897 1119.72 845.293C1119.2 845.672 1118.95 846.046 1118.96 846.414L1126.78 846.245L1126.84 849.292L1115.47 849.538L1115.41 846.85C1115.39 846.035 1115.52 845.336 1115.78 844.754C1116.05 844.172 1116.53 843.634 1117.2 843.139C1117.88 842.644 1118.82 842.128 1120.03 841.59C1120.93 841.186 1121.64 840.803 1122.14 840.44C1122.66 840.06 1122.91 839.615 1122.88 839.104C1122.85 838.496 1122.61 838.077 1122.16 837.847C1121.72 837.6 1121.1 837.486 1120.3 837.503C1119.53 837.519 1118.75 837.672 1117.96 837.961C1117.16 838.235 1116.47 838.546 1115.86 838.895L1115.65 838.9Z" fill="white"/>
<path d="M1113.3 842.094C1113.27 843.918 1113.05 845.379 1112.61 846.477C1112.18 847.575 1111.5 848.365 1110.56 848.848C1109.63 849.331 1108.39 849.562 1106.83 849.54C1105.3 849.519 1104.07 849.254 1103.15 848.745C1102.23 848.236 1101.57 847.427 1101.17 846.317C1100.77 845.207 1100.58 843.74 1100.6 841.917C1100.63 840.077 1100.86 838.608 1101.29 837.51C1101.72 836.412 1102.4 835.621 1103.34 835.138C1104.27 834.655 1105.51 834.424 1107.05 834.446C1108.6 834.467 1109.83 834.733 1110.75 835.242C1111.68 835.751 1112.34 836.56 1112.74 837.67C1113.14 838.779 1113.33 840.254 1113.3 842.094ZM1106.88 846.349C1107.97 846.364 1108.68 846.022 1109.03 845.323C1109.39 844.608 1109.58 843.514 1109.6 842.042C1109.62 840.554 1109.46 839.456 1109.12 838.747C1108.8 838.039 1108.09 837.677 1107 837.661C1105.93 837.646 1105.21 837.989 1104.85 838.688C1104.5 839.387 1104.32 840.48 1104.3 841.968C1104.28 843.44 1104.43 844.538 1104.76 845.263C1105.1 845.972 1105.81 846.334 1106.88 846.349Z" fill="white"/>
<path d="M1088.73 838.257L1088.86 835.116C1089.43 834.787 1090.18 834.529 1091.1 834.343C1092.02 834.157 1093.01 834.086 1094.09 834.13C1095.8 834.2 1097.15 834.592 1098.14 835.305C1099.16 836.019 1099.63 837.176 1099.56 838.774C1099.51 840.037 1099.17 841.04 1098.55 841.783C1097.94 842.511 1096.89 843.124 1095.4 843.624C1093.96 844.109 1092.95 844.532 1092.39 844.893C1091.85 845.239 1091.57 845.596 1091.56 845.964L1099.37 846.285L1099.25 849.33L1087.88 848.863L1087.99 846.178C1088.03 845.362 1088.19 844.672 1088.49 844.108C1088.8 843.544 1089.31 843.037 1090.01 842.585C1090.72 842.134 1091.69 841.678 1092.93 841.216C1093.86 840.87 1094.58 840.531 1095.11 840.201C1095.65 839.855 1095.93 839.426 1095.93 838.913C1095.94 838.305 1095.73 837.872 1095.29 837.614C1094.87 837.34 1094.26 837.187 1093.46 837.154C1092.69 837.123 1091.9 837.226 1091.09 837.465C1090.28 837.688 1089.56 837.955 1088.94 838.266L1088.73 838.257Z" fill="white"/>
<path d="M1069.12 847.529L1070.19 832.375L1081.44 833.17L1081.22 836.282L1073.8 835.758L1073.59 838.63L1080.03 839.085L1079.81 842.198L1073.37 841.743L1073.17 844.687L1080.59 845.212L1080.37 848.324L1069.12 847.529Z" fill="white"/>
<path d="M1055.47 846.366L1056.79 831.231L1068.03 832.21L1067.76 835.318L1060.34 834.672L1060.09 837.542L1066.53 838.102L1066.26 841.21L1059.82 840.65L1059.57 843.591L1066.98 844.236L1066.71 847.344L1055.47 846.366Z" fill="white"/>
<path d="M1053.89 842.922L1053.59 845.931C1052.81 846.013 1052.05 846.057 1051.31 846.062C1050.57 846.068 1049.7 846.02 1048.69 845.919C1047.4 845.788 1046.32 845.567 1045.46 845.254C1044.6 844.942 1043.93 844.481 1043.45 843.869C1042.98 843.243 1042.68 842.4 1042.55 841.341C1042.41 840.282 1042.43 838.941 1042.59 837.317C1042.75 835.757 1043 834.488 1043.34 833.509C1043.68 832.53 1044.14 831.797 1044.72 831.309C1045.32 830.806 1046.06 830.496 1046.96 830.377C1047.87 830.245 1048.97 830.243 1050.26 830.374C1051.27 830.475 1052.13 830.603 1052.85 830.756C1053.58 830.894 1054.32 831.089 1055.06 831.341L1054.75 834.445L1054.67 834.486C1054.02 834.259 1053.39 834.083 1052.77 833.956C1052.16 833.814 1051.4 833.697 1050.49 833.605C1049.76 833.531 1049.15 833.526 1048.66 833.589C1048.19 833.638 1047.8 833.8 1047.5 834.075C1047.2 834.35 1046.96 834.776 1046.79 835.354C1046.64 835.933 1046.51 836.717 1046.41 837.704C1046.31 838.738 1046.27 839.579 1046.3 840.225C1046.35 840.857 1046.49 841.346 1046.73 841.692C1046.97 842.038 1047.31 842.29 1047.77 842.448C1048.23 842.607 1048.83 842.724 1049.56 842.798C1050.45 842.888 1051.21 842.941 1051.84 842.956C1052.48 842.957 1053.13 842.909 1053.78 842.815L1053.89 842.922Z" fill="white"/>
<path d="M1038.93 844.697L1035.11 844.276L1036.78 829.176L1040.6 829.597L1038.93 844.697Z" fill="white"/>
<path d="M961.396 823.166C960.988 822.875 960.478 822.617 959.865 822.391C959.269 822.168 958.646 822.005 957.998 821.903C956.797 821.715 955.908 821.81 955.33 822.189C954.752 822.568 954.328 823.311 954.056 824.418L954.08 824.422C954.437 824.316 954.899 824.259 955.467 824.251C956.036 824.243 956.667 824.294 957.363 824.403C958.896 824.644 960.009 825.191 960.701 826.045C961.393 826.898 961.624 828.052 961.396 829.506C961.232 830.55 960.927 831.409 960.481 832.084C960.037 832.743 959.383 833.199 958.517 833.452C957.67 833.691 956.535 833.699 955.112 833.476C953.563 833.232 952.396 832.774 951.611 832.1C950.842 831.428 950.369 830.52 950.193 829.375C950.016 828.23 950.058 826.827 950.319 825.168C950.592 823.429 951.067 822.054 951.744 821.043C952.439 820.018 953.285 819.325 954.281 818.963C955.28 818.585 956.396 818.493 957.629 818.687C958.672 818.851 959.544 819.077 960.243 819.365C960.943 819.653 961.514 819.937 961.956 820.217L961.498 823.133L961.396 823.166ZM955.566 830.583C956.436 830.72 957.043 830.669 957.388 830.432C957.733 830.195 957.956 829.752 958.058 829.104C958.167 828.408 958.068 827.907 957.76 827.599C957.454 827.276 956.906 827.052 956.116 826.928C955.626 826.851 955.151 826.833 954.691 826.874C954.231 826.916 953.869 827.004 953.605 827.141C953.4 828.34 953.446 829.181 953.743 829.665C954.058 830.136 954.665 830.442 955.566 830.583Z" fill="white"/>
<path d="M938.842 820.014L939.343 816.91C939.951 816.652 940.724 816.485 941.66 816.409C942.596 816.333 943.593 816.38 944.651 816.551C946.342 816.823 947.639 817.373 948.543 818.199C949.462 819.028 949.795 820.233 949.54 821.812C949.339 823.06 948.885 824.016 948.179 824.68C947.49 825.331 946.375 825.815 944.832 826.134C943.34 826.444 942.295 826.746 941.696 827.038C941.117 827.318 940.797 827.639 940.739 828.002L948.463 829.248L947.978 832.257L936.747 830.446L937.175 827.792C937.305 826.987 937.55 826.321 937.91 825.796C938.286 825.273 938.852 824.829 939.607 824.465C940.363 824.101 941.382 823.762 942.664 823.451C943.625 823.217 944.387 822.967 944.948 822.701C945.528 822.421 945.851 822.028 945.917 821.52C945.998 820.917 945.836 820.461 945.432 820.153C945.046 819.832 944.459 819.607 943.669 819.48C942.911 819.358 942.115 819.367 941.282 819.508C940.451 819.634 939.709 819.814 939.055 820.049L938.842 820.014Z" fill="white"/>
<path d="M936.631 822.888C936.334 824.688 935.89 826.099 935.3 827.12C934.71 828.142 933.917 828.822 932.92 829.16C931.924 829.498 930.66 829.541 929.129 829.289C927.613 829.039 926.438 828.593 925.603 827.953C924.769 827.312 924.236 826.414 924.005 825.257C923.774 824.1 923.807 822.621 924.104 820.822C924.404 819.006 924.849 817.588 925.439 816.566C926.029 815.545 926.822 814.865 927.819 814.526C928.815 814.188 930.071 814.144 931.587 814.394C933.118 814.647 934.301 815.093 935.136 815.734C935.971 816.374 936.503 817.273 936.734 818.43C936.965 819.587 936.931 821.073 936.631 822.888ZM929.649 826.139C930.722 826.316 931.482 826.085 931.928 825.445C932.393 824.792 932.745 823.739 932.984 822.287C933.227 820.819 933.231 819.709 932.999 818.957C932.782 818.207 932.136 817.744 931.063 817.567C930.005 817.393 929.246 817.624 928.784 818.261C928.337 818.901 927.993 819.955 927.751 821.423C927.511 822.876 927.499 823.984 927.713 824.75C927.946 825.501 928.591 825.965 929.649 826.139Z" fill="white"/>
<path d="M912.933 815.709L913.455 812.608C914.066 812.354 914.839 812.192 915.776 812.122C916.712 812.053 917.709 812.107 918.766 812.285C920.454 812.569 921.748 813.127 922.646 813.959C923.56 814.795 923.885 816.001 923.619 817.579C923.41 818.825 922.949 819.778 922.238 820.437C921.545 821.083 920.427 821.561 918.882 821.869C917.388 822.169 916.34 822.463 915.74 822.752C915.158 823.027 914.837 823.346 914.776 823.709L922.492 825.007L921.986 828.013L910.768 826.126L911.214 823.475C911.349 822.67 911.598 822.006 911.962 821.483C912.342 820.963 912.911 820.523 913.669 820.164C914.427 819.805 915.448 819.474 916.732 819.171C917.695 818.943 918.458 818.698 919.021 818.436C919.603 818.161 919.929 817.769 919.998 817.262C920.083 816.66 919.924 816.203 919.522 815.892C919.139 815.568 918.553 815.339 917.764 815.207C917.006 815.079 916.211 815.083 915.377 815.219C914.545 815.339 913.802 815.514 913.146 815.744L912.933 815.709Z" fill="white"/>
<path d="M891.513 822.706L894.09 807.734L905.207 809.648L904.678 812.722L897.345 811.461L896.857 814.299L903.219 815.394L902.69 818.469L896.328 817.374L895.827 820.283L903.159 821.545L902.63 824.62L891.513 822.706Z" fill="white"/>
<path d="M879.014 820.534L881.619 805.567L892.731 807.501L892.196 810.575L884.867 809.299L884.373 812.136L890.733 813.243L890.198 816.317L883.838 815.21L883.332 818.118L890.662 819.394L890.127 822.468L879.014 820.534Z" fill="white"/>
<path d="M877.065 816.855L876.541 819.834C875.757 819.858 874.996 819.846 874.257 819.798C873.518 819.749 872.653 819.638 871.66 819.463C870.383 819.239 869.323 818.939 868.48 818.564C867.652 818.191 867.018 817.682 866.579 817.036C866.159 816.377 865.92 815.515 865.864 814.449C865.808 813.383 865.921 812.047 866.203 810.439C866.474 808.895 866.815 807.647 867.226 806.696C867.637 805.745 868.149 805.047 868.763 804.602C869.396 804.145 870.164 803.89 871.066 803.837C871.988 803.772 873.087 803.851 874.363 804.075C875.356 804.249 876.208 804.44 876.919 804.646C877.633 804.836 878.352 805.084 879.078 805.391L878.539 808.464L878.459 808.498C877.825 808.225 877.206 808.002 876.603 807.831C876.002 807.644 875.253 807.472 874.354 807.314C873.63 807.187 873.021 807.137 872.529 807.164C872.055 807.179 871.658 807.312 871.338 807.564C871.017 807.817 870.751 808.225 870.538 808.788C870.341 809.355 870.157 810.127 869.985 811.104C869.805 812.128 869.707 812.964 869.691 813.611C869.693 814.244 869.801 814.743 870.013 815.105C870.226 815.467 870.551 815.743 870.988 815.934C871.442 816.127 872.031 816.288 872.756 816.415C873.638 816.57 874.391 816.678 875.014 816.739C875.655 816.786 876.305 816.787 876.963 816.74L877.065 816.855Z" fill="white"/>
<path d="M862.31 817.6L858.529 816.932L861.172 801.972L864.953 802.64L862.31 817.6Z" fill="white"/>
<path d="M786.086 792.942C785.684 792.644 785.179 792.376 784.571 792.139C783.979 791.905 783.359 791.731 782.713 791.617C781.516 791.406 780.625 791.484 780.04 791.852C779.455 792.22 779.017 792.956 778.725 794.058L778.749 794.062C779.107 793.963 779.571 793.914 780.139 793.917C780.707 793.92 781.338 793.982 782.031 794.104C783.56 794.373 784.662 794.941 785.338 795.808C786.014 796.674 786.224 797.832 785.968 799.282C785.785 800.322 785.464 801.175 785.006 801.842C784.55 802.492 783.887 802.936 783.016 803.173C782.165 803.396 781.03 803.383 779.612 803.133C778.067 802.861 776.909 802.381 776.137 801.692C775.38 801.007 774.925 800.09 774.77 798.941C774.615 797.793 774.683 796.392 774.974 794.737C775.28 793.004 775.78 791.638 776.476 790.64C777.191 789.628 778.049 788.951 779.052 788.608C780.057 788.249 781.175 788.178 782.404 788.394C783.444 788.577 784.311 788.82 785.005 789.121C785.7 789.422 786.265 789.716 786.702 790.004L786.189 792.912L786.086 792.942ZM780.12 800.25C780.986 800.402 781.594 800.363 781.944 800.132C782.293 799.902 782.525 799.463 782.639 798.817C782.761 798.124 782.671 797.62 782.369 797.307C782.069 796.978 781.525 796.744 780.738 796.606C780.249 796.519 779.775 796.493 779.314 796.525C778.853 796.558 778.489 796.64 778.223 796.772C777.996 797.966 778.026 798.808 778.314 799.298C778.62 799.774 779.222 800.091 780.12 800.25Z" fill="white"/>
<path d="M764.291 789.553L764.833 786.456C765.445 786.206 766.22 786.049 767.157 785.986C768.094 785.922 769.09 785.983 770.146 786.168C771.832 786.463 773.122 787.029 774.015 787.868C774.924 788.709 775.24 789.918 774.964 791.494C774.746 792.739 774.28 793.689 773.564 794.343C772.867 794.985 771.746 795.454 770.199 795.752C768.703 796.043 767.653 796.33 767.051 796.615C766.468 796.886 766.144 797.203 766.081 797.566L773.788 798.914L773.263 801.916L762.057 799.956L762.52 797.308C762.661 796.504 762.915 795.842 763.282 795.322C763.665 794.804 764.236 794.368 764.997 794.014C765.757 793.659 766.78 793.335 768.067 793.04C769.031 792.819 769.796 792.579 770.361 792.321C770.944 792.049 771.272 791.66 771.345 791.153C771.434 790.551 771.278 790.094 770.878 789.78C770.497 789.453 769.912 789.221 769.124 789.083C768.368 788.951 767.572 788.95 766.737 789.08C765.905 789.194 765.161 789.364 764.504 789.591L764.291 789.553Z" fill="white"/>
<path d="M761.457 792.3C761.145 794.098 760.691 795.505 760.092 796.521C759.494 797.538 758.695 798.212 757.696 798.542C756.697 798.872 755.433 798.905 753.904 798.64C752.39 798.378 751.219 797.924 750.389 797.276C749.559 796.629 749.034 795.726 748.812 794.568C748.591 793.409 748.636 791.931 748.947 790.134C749.261 788.321 749.717 786.906 750.315 785.889C750.914 784.872 751.712 784.198 752.711 783.868C753.711 783.538 754.967 783.504 756.48 783.766C758.009 784.031 759.189 784.487 760.019 785.134C760.848 785.781 761.374 786.684 761.596 787.843C761.817 789.001 761.771 790.487 761.457 792.3ZM754.449 795.495C755.521 795.681 756.282 795.456 756.734 794.819C757.203 794.17 757.564 793.12 757.815 791.67C758.069 790.203 758.083 789.093 757.856 788.34C757.645 787.589 757.003 787.12 755.931 786.935C754.875 786.752 754.113 786.977 753.647 787.611C753.195 788.247 752.843 789.298 752.589 790.764C752.338 792.215 752.316 793.323 752.524 794.09C752.751 794.844 753.392 795.312 754.449 795.495Z" fill="white"/>
<path d="M737.287 784.9L737.817 781.801C738.429 781.548 739.203 781.388 740.139 781.321C741.076 781.254 742.073 781.311 743.129 781.492C744.817 781.78 746.109 782.342 747.005 783.177C747.917 784.014 748.238 785.222 747.968 786.799C747.755 788.045 747.292 788.996 746.579 789.654C745.885 790.298 744.765 790.772 743.219 791.076C741.724 791.372 740.676 791.664 740.075 791.95C739.492 792.224 739.17 792.542 739.108 792.905L746.82 794.224L746.307 797.228L735.093 795.311L735.546 792.661C735.684 791.857 735.935 791.194 736.3 790.672C736.681 790.153 737.251 789.714 738.01 789.357C738.77 789 739.792 788.672 741.076 788.372C742.04 788.147 742.804 787.904 743.368 787.644C743.95 787.37 744.277 786.979 744.347 786.472C744.434 785.87 744.277 785.413 743.876 785.101C743.493 784.776 742.907 784.546 742.119 784.411C741.362 784.282 740.566 784.283 739.732 784.417C738.9 784.534 738.156 784.707 737.5 784.936L737.287 784.9Z" fill="white"/>
<path d="M715.484 791.899L717.985 776.914L729.111 778.77L728.598 781.848L721.259 780.623L720.785 783.464L727.153 784.527L726.639 787.604L720.271 786.541L719.786 789.453L727.124 790.678L726.611 793.755L715.484 791.899Z" fill="white"/>
<path d="M702.06 789.698L704.512 774.705L715.644 776.526L715.14 779.605L707.798 778.404L707.333 781.246L713.704 782.288L713.201 785.368L706.829 784.326L706.353 787.239L713.695 788.44L713.192 791.519L702.06 789.698Z" fill="white"/>
<path d="M701.6 786.29L701.122 789.276C700.339 789.313 699.577 789.312 698.838 789.275C698.098 789.238 697.231 789.14 696.236 788.981C694.956 788.776 693.891 788.492 693.042 788.13C692.208 787.77 691.567 787.27 691.118 786.631C690.688 785.979 690.436 785.121 690.364 784.056C690.291 782.991 690.383 781.653 690.641 780.041C690.888 778.493 691.21 777.24 691.606 776.283C692.002 775.325 692.504 774.62 693.111 774.166C693.737 773.699 694.501 773.432 695.403 773.365C696.323 773.286 697.423 773.348 698.702 773.553C699.698 773.712 700.552 773.889 701.267 774.084C701.983 774.264 702.707 774.501 703.437 774.796L702.945 777.877L702.866 777.913C702.228 777.649 701.606 777.436 701 777.274C700.396 777.096 699.644 776.936 698.743 776.792C698.017 776.676 697.407 776.635 696.916 776.67C696.442 776.691 696.048 776.831 695.731 777.088C695.414 777.345 695.154 777.757 694.95 778.324C694.762 778.894 694.589 779.668 694.433 780.648C694.269 781.675 694.183 782.512 694.177 783.159C694.189 783.793 694.304 784.289 694.522 784.648C694.74 785.007 695.07 785.278 695.51 785.462C695.966 785.648 696.558 785.8 697.285 785.916C698.169 786.057 698.924 786.154 699.548 786.205C700.19 786.243 700.839 786.233 701.496 786.176L701.6 786.29Z" fill="white"/>
<path d="M686.801 787.259L683.008 786.664L685.362 771.655L689.155 772.25L686.801 787.259Z" fill="white"/>
<path d="M610.315 765.448C609.896 765.173 609.376 764.936 608.755 764.735C608.15 764.535 607.522 764.398 606.87 764.322C605.662 764.181 604.777 764.312 604.215 764.713C603.653 765.115 603.258 765.875 603.032 766.992L603.055 766.995C603.408 766.875 603.867 766.799 604.435 766.769C605.002 766.738 605.635 766.763 606.335 766.845C607.876 767.024 609.01 767.527 609.735 768.352C610.461 769.178 610.738 770.321 610.568 771.783C610.446 772.832 610.175 773.703 609.757 774.395C609.34 775.071 608.704 775.553 607.849 775.84C607.012 776.113 605.878 776.167 604.447 776C602.89 775.819 601.706 775.407 600.894 774.765C600.099 774.125 599.59 773.236 599.368 772.099C599.146 770.961 599.133 769.558 599.327 767.89C599.53 766.141 599.95 764.749 600.587 763.711C601.24 762.66 602.058 761.933 603.039 761.532C604.022 761.115 605.133 760.979 606.373 761.123C607.422 761.245 608.301 761.436 609.012 761.696C609.723 761.956 610.304 762.217 610.757 762.479L610.416 765.411L610.315 765.448ZM604.786 773.092C605.66 773.193 606.265 773.119 606.6 772.868C606.935 772.617 607.141 772.166 607.217 771.514C607.298 770.815 607.179 770.318 606.859 770.023C606.541 769.712 605.984 769.51 605.19 769.418C604.697 769.36 604.222 769.361 603.764 769.421C603.306 769.48 602.947 769.584 602.689 769.731C602.532 770.937 602.612 771.775 602.927 772.247C603.26 772.705 603.88 772.986 604.786 773.092Z" fill="white"/>
<path d="M586.742 763.26L587.075 760.134C587.669 759.843 588.431 759.635 589.362 759.508C590.292 759.382 591.291 759.376 592.357 759.489C594.059 759.67 595.384 760.149 596.331 760.925C597.294 761.704 597.691 762.888 597.522 764.479C597.388 765.736 596.986 766.715 596.317 767.416C595.664 768.103 594.577 768.647 593.054 769.048C591.58 769.439 590.553 769.796 589.971 770.12C589.407 770.43 589.106 770.768 589.067 771.134L596.847 771.962L596.524 774.993L585.212 773.79L585.497 771.117C585.583 770.305 585.792 769.628 586.123 769.084C586.47 768.541 587.011 768.068 587.746 767.663C588.481 767.259 589.48 766.866 590.744 766.486C591.691 766.2 592.438 765.91 592.984 765.614C593.548 765.304 593.85 764.893 593.888 764.382C593.936 763.776 593.75 763.33 593.33 763.044C592.928 762.744 592.329 762.551 591.533 762.467C590.769 762.385 589.975 762.438 589.151 762.624C588.329 762.794 587.597 763.013 586.957 763.283L586.742 763.26Z" fill="white"/>
<path d="M585.643 766.351C585.471 768.167 585.125 769.604 584.607 770.664C584.088 771.724 583.344 772.457 582.373 772.863C581.402 773.269 580.144 773.398 578.599 773.252C577.07 773.106 575.867 772.743 574.99 772.161C574.113 771.58 573.52 770.72 573.21 769.581C572.9 768.443 572.832 766.966 573.004 765.15C573.178 763.318 573.525 761.873 574.043 760.813C574.562 759.753 575.306 759.02 576.277 758.614C577.248 758.208 578.498 758.078 580.027 758.223C581.572 758.37 582.783 758.734 583.66 759.316C584.537 759.897 585.13 760.757 585.44 761.896C585.749 763.034 585.817 764.519 585.643 766.351ZM578.901 770.074C579.984 770.177 580.726 769.894 581.127 769.225C581.546 768.541 581.825 767.467 581.964 766.001C582.105 764.52 582.033 763.412 581.749 762.678C581.481 761.946 580.806 761.528 579.723 761.425C578.655 761.323 577.913 761.607 577.496 762.274C577.095 762.943 576.824 764.018 576.684 765.5C576.544 766.965 576.608 768.072 576.874 768.821C577.158 769.555 577.834 769.972 578.901 770.074Z" fill="white"/>
<path d="M560.911 760.941L561.169 757.808C561.756 757.503 562.513 757.276 563.44 757.128C564.368 756.979 565.365 756.949 566.434 757.037C568.14 757.178 569.476 757.625 570.441 758.378C571.423 759.134 571.848 760.308 571.716 761.903C571.613 763.163 571.234 764.151 570.581 764.868C569.945 765.57 568.871 766.14 567.358 766.577C565.894 767.002 564.875 767.384 564.302 767.722C563.745 768.046 563.452 768.391 563.422 768.757L571.219 769.4L570.969 772.437L559.632 771.504L559.852 768.825C559.919 768.011 560.112 767.329 560.43 766.777C560.765 766.227 561.294 765.741 562.019 765.319C562.744 764.897 563.734 764.481 564.988 764.07C565.928 763.762 566.668 763.454 567.207 763.145C567.764 762.822 568.055 762.404 568.081 761.893C568.115 761.285 567.918 760.844 567.492 760.568C567.082 760.277 566.479 760.099 565.681 760.033C564.916 759.97 564.123 760.042 563.304 760.247C562.486 760.437 561.76 760.674 561.126 760.959L560.911 760.941Z" fill="white"/>
<path d="M540.202 770.139L541.088 754.973L552.349 755.631L552.167 758.746L544.74 758.312L544.572 761.187L551.017 761.564L550.835 764.678L544.39 764.302L544.218 767.249L551.645 767.683L551.463 770.797L540.202 770.139Z" fill="white"/>
<path d="M526.976 769.59L527.577 754.41L538.848 754.856L538.725 757.974L531.291 757.679L531.177 760.557L537.628 760.813L537.504 763.93L531.053 763.675L530.936 766.624L538.37 766.919L538.247 770.036L526.976 769.59Z" fill="white"/>
<path d="M525.411 766.245L525.359 769.268C524.588 769.415 523.834 769.522 523.097 769.59C522.36 769.657 521.487 769.682 520.479 769.665C519.184 769.643 518.09 769.512 517.198 769.273C516.322 769.034 515.616 768.629 515.082 768.06C514.564 767.475 514.194 766.661 513.972 765.617C513.75 764.573 513.653 763.235 513.68 761.603C513.707 760.035 513.849 758.75 514.107 757.746C514.364 756.742 514.761 755.973 515.298 755.438C515.852 754.887 516.57 754.516 517.454 754.323C518.353 754.114 519.451 754.021 520.747 754.043C521.755 754.06 522.626 754.115 523.361 754.208C524.095 754.284 524.845 754.417 525.61 754.606L525.557 757.726L525.484 757.773C524.815 757.601 524.169 757.478 523.546 757.404C522.923 757.313 522.156 757.26 521.244 757.244C520.508 757.231 519.899 757.277 519.418 757.381C518.952 757.469 518.581 757.663 518.304 757.962C518.026 758.261 517.827 758.706 517.705 759.296C517.598 759.886 517.537 760.677 517.52 761.669C517.502 762.709 517.536 763.55 517.621 764.191C517.722 764.817 517.906 765.292 518.172 765.617C518.439 765.941 518.803 766.164 519.265 766.284C519.743 766.404 520.35 766.47 521.086 766.483C521.982 766.498 522.742 766.487 523.367 766.45C524.008 766.397 524.65 766.296 525.292 766.147L525.411 766.245Z" fill="white"/>
<path d="M511.195 769.319L507.355 769.329L507.316 754.137L511.156 754.127L511.195 769.319Z" fill="white"/>
<path d="M433.116 769.395C432.616 769.387 432.049 769.463 431.417 769.625C430.799 769.78 430.194 769.999 429.603 770.283C428.506 770.809 427.828 771.392 427.567 772.032C427.306 772.672 427.379 773.525 427.784 774.59L427.805 774.58C428.039 774.29 428.387 773.981 428.851 773.652C429.314 773.323 429.863 773.006 430.498 772.702C431.897 772.03 433.123 771.849 434.178 772.16C435.232 772.47 436.077 773.289 436.714 774.616C437.171 775.568 437.408 776.448 437.423 777.257C437.432 778.052 437.152 778.799 436.582 779.498C436.02 780.176 435.09 780.826 433.792 781.45C432.378 782.128 431.157 782.413 430.129 782.303C429.114 782.187 428.209 781.707 427.414 780.864C426.619 780.021 425.858 778.842 425.131 777.328C424.369 775.741 423.98 774.339 423.964 773.123C423.956 771.884 424.259 770.834 424.874 769.971C425.482 769.093 426.348 768.384 427.474 767.844C428.425 767.387 429.271 767.079 430.011 766.919C430.751 766.759 431.382 766.669 431.905 766.649L433.182 769.31L433.116 769.395ZM432.525 778.81C433.318 778.429 433.79 778.043 433.939 777.652C434.088 777.261 434.021 776.769 433.737 776.178C433.433 775.543 433.066 775.187 432.638 775.108C432.203 775.016 431.625 775.142 430.904 775.488C430.457 775.703 430.055 775.958 429.7 776.253C429.344 776.548 429.097 776.826 428.956 777.089C429.468 778.192 429.984 778.859 430.502 779.089C431.028 779.298 431.703 779.205 432.525 778.81Z" fill="white"/>
<path d="M413.893 781.715L411.969 779.229C412.197 778.608 412.602 777.929 413.187 777.194C413.771 776.459 414.487 775.764 415.335 775.108C416.689 774.06 417.977 773.489 419.198 773.394C420.432 773.289 421.538 773.87 422.517 775.135C423.291 776.135 423.678 777.12 423.68 778.089C423.684 779.037 423.276 780.182 422.454 781.526C421.66 782.827 421.166 783.796 420.971 784.433C420.778 785.047 420.795 785.499 421.02 785.791L427.208 781.003L429.073 783.414L420.075 790.375L418.43 788.249C417.931 787.603 417.613 786.969 417.476 786.347C417.351 785.716 417.414 784.999 417.664 784.199C417.915 783.398 418.364 782.423 419.013 781.274C419.499 780.413 419.837 779.686 420.027 779.094C420.22 778.48 420.153 777.975 419.827 777.58C419.442 777.109 418.999 776.916 418.498 777C418 777.062 417.434 777.337 416.801 777.827C416.194 778.297 415.657 778.884 415.191 779.589C414.715 780.281 414.339 780.946 414.063 781.583L413.893 781.715Z" fill="white"/>
<path d="M414.943 785.141C416.452 786.165 417.546 787.16 418.226 788.124C418.906 789.089 419.19 790.094 419.079 791.14C418.968 792.187 418.476 793.352 417.605 794.636C416.742 795.907 415.844 796.786 414.913 797.276C413.981 797.765 412.942 797.871 411.795 797.595C410.648 797.319 409.32 796.669 407.811 795.644C406.289 794.61 405.188 793.611 404.508 792.647C403.828 791.682 403.544 790.677 403.655 789.631C403.766 788.584 404.253 787.426 405.116 786.155C405.988 784.871 406.89 783.985 407.821 783.496C408.753 783.007 409.792 782.9 410.939 783.176C412.086 783.452 413.421 784.107 414.943 785.141ZM414.964 792.843C415.575 791.943 415.684 791.156 415.29 790.482C414.892 789.787 414.085 789.025 412.867 788.198C411.636 787.362 410.63 786.892 409.85 786.788C409.079 786.671 408.388 787.062 407.776 787.962C407.174 788.849 407.065 789.635 407.45 790.322C407.844 790.996 408.656 791.75 409.887 792.586C411.105 793.413 412.106 793.89 412.89 794.017C413.67 794.121 414.362 793.73 414.964 792.843Z" fill="white"/>
<path d="M401.802 806.125L398.745 805.391C398.534 804.764 398.425 803.981 398.421 803.042C398.416 802.103 398.539 801.113 398.789 800.07C399.189 798.406 399.835 797.154 400.728 796.315C401.624 795.461 402.85 795.221 404.406 795.594C405.635 795.889 406.554 796.415 407.162 797.17C407.759 797.905 408.157 799.054 408.358 800.616C408.554 802.128 408.776 803.193 409.022 803.812C409.257 804.411 409.553 804.754 409.911 804.84L411.738 797.232L414.702 797.944L412.045 809.005L409.431 808.378C408.638 808.187 407.993 807.892 407.496 807.493C407.003 807.079 406.604 806.481 406.298 805.7C405.992 804.919 405.732 803.877 405.518 802.575C405.358 801.599 405.166 800.82 404.943 800.24C404.709 799.641 404.341 799.289 403.839 799.185C403.244 799.059 402.778 799.185 402.44 799.565C402.09 799.925 401.822 800.494 401.635 801.272C401.456 802.019 401.405 802.813 401.482 803.654C401.544 804.492 401.668 805.246 401.853 805.915L401.802 806.125Z" fill="white"/>
<path d="M413.762 825.451L398.776 827.947L396.923 816.82L400.001 816.307L401.223 823.646L404.064 823.173L403.004 816.805L406.081 816.292L407.142 822.661L410.054 822.176L408.831 814.837L411.909 814.324L413.762 825.451Z" fill="white"/>
<path d="M417.381 837.53L402.868 842.022L399.533 831.246L402.514 830.323L404.713 837.431L407.464 836.579L405.556 830.412L408.536 829.49L410.445 835.657L413.265 834.784L411.065 827.677L414.046 826.754L417.381 837.53Z" fill="white"/>
<path d="M414.388 839.152L417.068 837.75C417.565 838.356 418.02 838.967 418.432 839.582C418.844 840.197 419.284 840.952 419.751 841.845C420.352 842.993 420.76 844.016 420.977 844.914C421.186 845.798 421.169 846.61 420.925 847.352C420.659 848.087 420.121 848.801 419.311 849.496C418.501 850.191 417.373 850.916 415.926 851.673C414.537 852.399 413.34 852.89 412.336 853.145C411.331 853.399 410.466 853.418 409.739 853.203C408.99 852.98 408.32 852.527 407.728 851.844C407.114 851.154 406.507 850.235 405.906 849.086C405.439 848.193 405.07 847.402 404.8 846.712C404.516 846.031 404.274 845.309 404.074 844.547L406.838 843.101L406.914 843.142C407.084 843.812 407.285 844.438 407.517 845.02C407.736 845.61 408.056 846.309 408.479 847.118C408.82 847.77 409.152 848.283 409.473 848.656C409.773 849.023 410.121 849.256 410.517 849.356C410.912 849.456 411.398 849.419 411.974 849.244C412.544 849.054 413.268 848.73 414.147 848.27C415.068 847.788 415.79 847.356 416.313 846.974C416.814 846.586 417.143 846.197 417.301 845.808C417.458 845.418 417.479 844.992 417.363 844.529C417.24 844.052 417.008 843.487 416.667 842.835C416.251 842.041 415.878 841.379 415.546 840.848C415.193 840.311 414.797 839.795 414.358 839.303L414.388 839.152Z" fill="white"/>
<path d="M423.056 848.522L425.381 851.579L413.289 860.776L410.964 857.719L423.056 848.522Z" fill="white"/>
<path d="M488.37 870.721C488.868 870.775 489.439 870.75 490.084 870.647C490.713 870.549 491.335 870.386 491.95 870.157C493.09 869.733 493.818 869.214 494.136 868.6C494.454 867.987 494.46 867.131 494.154 866.033L494.131 866.041C493.872 866.308 493.497 866.585 493.006 866.87C492.514 867.155 491.939 867.421 491.279 867.666C489.825 868.208 488.587 868.276 487.565 867.871C486.544 867.466 485.776 866.573 485.263 865.194C484.894 864.204 484.739 863.306 484.797 862.499C484.861 861.707 485.208 860.989 485.839 860.344C486.46 859.72 487.446 859.157 488.795 858.655C490.265 858.108 491.507 857.936 492.521 858.138C493.521 858.347 494.378 858.907 495.093 859.819C495.808 860.731 496.459 861.974 497.045 863.548C497.659 865.198 497.918 866.629 497.824 867.842C497.719 869.076 497.322 870.095 496.631 870.898C495.945 871.717 495.018 872.344 493.848 872.779C492.858 873.148 491.988 873.378 491.237 873.47C490.486 873.561 489.849 873.594 489.327 873.566L488.297 870.8L488.37 870.721ZM489.817 861.399C488.992 861.706 488.487 862.047 488.303 862.423C488.119 862.799 488.141 863.295 488.37 863.909C488.615 864.569 488.948 864.958 489.367 865.075C489.792 865.207 490.379 865.133 491.129 864.854C491.593 864.681 492.016 864.464 492.397 864.203C492.778 863.942 493.05 863.687 493.213 863.438C492.804 862.293 492.352 861.582 491.856 861.305C491.351 861.05 490.671 861.081 489.817 861.399Z" fill="white"/>
<path d="M509.893 861.242L511.219 864.093C510.859 864.649 510.313 865.22 509.581 865.808C508.848 866.395 507.996 866.915 507.024 867.367C505.471 868.089 504.089 868.361 502.877 868.183C501.651 868.012 500.7 867.201 500.026 865.75C499.493 864.604 499.333 863.558 499.546 862.612C499.752 861.687 500.404 860.661 501.502 859.532C502.564 858.439 503.261 857.603 503.592 857.026C503.916 856.469 504 856.024 503.845 855.691L496.75 858.989L495.466 856.225L505.781 851.429L506.914 853.867C507.258 854.607 507.429 855.295 507.425 855.932C507.406 856.576 507.186 857.26 506.765 857.986C506.343 858.711 505.689 859.562 504.802 860.539C504.137 861.272 503.647 861.906 503.331 862.441C503.007 862.997 502.96 863.504 503.191 863.961C503.462 864.506 503.851 864.793 504.358 864.821C504.858 864.871 505.47 864.728 506.196 864.391C506.892 864.067 507.546 863.613 508.157 863.029C508.774 862.46 509.288 861.895 509.697 861.334L509.893 861.242Z" fill="white"/>
<path d="M509.368 857.971C508.491 856.372 507.969 854.988 507.803 853.82C507.636 852.652 507.841 851.627 508.416 850.746C508.99 849.865 509.958 849.051 511.319 848.304C512.666 847.566 513.865 847.19 514.917 847.179C515.969 847.167 516.943 847.545 517.839 848.313C518.735 849.081 519.621 850.264 520.499 851.863C521.384 853.477 521.91 854.867 522.076 856.035C522.242 857.203 522.038 858.228 521.463 859.109C520.888 859.99 519.927 860.8 518.581 861.539C517.22 862.286 516.014 862.665 514.961 862.676C513.909 862.688 512.935 862.31 512.04 861.542C511.144 860.774 510.253 859.584 509.368 857.971ZM512.854 851.103C511.901 851.626 511.446 852.277 511.49 853.056C511.527 853.857 511.9 854.902 512.608 856.193C513.324 857.497 514.006 858.373 514.653 858.821C515.286 859.277 516.08 859.243 517.034 858.72C517.973 858.204 518.428 857.553 518.398 856.766C518.354 855.988 517.974 854.946 517.259 853.641C516.55 852.351 515.876 851.471 515.235 851.001C514.588 850.553 513.794 850.587 512.854 851.103Z" fill="white"/>
<path d="M533.577 847.487L535.247 850.151C534.959 850.747 534.488 851.382 533.835 852.056C533.181 852.73 532.4 853.352 531.492 853.921C530.041 854.831 528.703 855.272 527.479 855.247C526.241 855.23 525.197 854.544 524.347 853.188C523.676 852.117 523.387 851.099 523.481 850.134C523.569 849.191 524.088 848.091 525.038 846.835C525.956 845.617 526.543 844.702 526.8 844.087C527.052 843.495 527.08 843.043 526.885 842.731L520.256 846.887L518.637 844.304L528.276 838.262L529.703 840.54C530.137 841.231 530.391 841.893 530.466 842.526C530.528 843.167 530.395 843.873 530.067 844.645C529.739 845.417 529.196 846.343 528.438 847.423C527.869 848.233 527.461 848.923 527.214 849.493C526.962 850.085 526.979 850.594 527.265 851.019C527.601 851.526 528.023 851.762 528.53 851.727C529.032 851.715 529.622 851.496 530.3 851.071C530.95 850.663 531.543 850.132 532.076 849.476C532.618 848.834 533.057 848.21 533.394 847.602L533.577 847.487Z" fill="white"/>
<path d="M542.954 827.969L551.936 840.222L542.839 846.89L540.994 844.374L546.994 839.975L545.292 837.653L540.085 841.47L538.24 838.953L543.447 835.136L541.702 832.755L535.701 837.154L533.857 834.638L542.954 827.969Z" fill="white"/>
<path d="M553.429 819.673L562.908 831.545L554.092 838.583L552.146 836.145L557.96 831.503L556.163 829.252L551.118 833.28L549.171 830.842L554.216 826.814L552.375 824.507L546.56 829.149L544.614 826.71L553.429 819.673Z" fill="white"/>
<path d="M557.066 820.94L555.086 818.653C555.562 818.03 556.052 817.447 556.556 816.905C557.061 816.362 557.694 815.761 558.456 815.102C559.436 814.253 560.337 813.621 561.161 813.204C561.973 812.797 562.768 812.627 563.546 812.695C564.322 812.784 565.141 813.144 566.004 813.773C566.866 814.402 567.831 815.334 568.899 816.568C569.925 817.753 570.678 818.805 571.156 819.725C571.634 820.644 571.852 821.482 571.809 822.239C571.764 823.018 571.477 823.775 570.948 824.508C570.417 825.264 569.662 826.066 568.682 826.914C567.92 827.574 567.235 828.114 566.626 828.535C566.027 828.969 565.38 829.37 564.685 829.74L562.642 827.381L562.665 827.298C563.278 826.979 563.841 826.639 564.355 826.279C564.879 825.931 565.486 825.459 566.176 824.862C566.732 824.38 567.155 823.94 567.445 823.541C567.733 823.165 567.88 822.773 567.886 822.365C567.893 821.957 567.745 821.493 567.442 820.972C567.127 820.461 566.645 819.831 565.996 819.081C565.315 818.295 564.729 817.691 564.238 817.27C563.745 816.872 563.291 816.641 562.875 816.577C562.46 816.513 562.041 816.59 561.617 816.809C561.18 817.039 560.684 817.394 560.128 817.876C559.45 818.463 558.891 818.978 558.451 819.423C558.009 819.89 557.598 820.394 557.219 820.934L557.066 820.94Z" fill="white"/>
<path d="M564.69 809.98L567.525 807.391L577.77 818.608L574.935 821.198L564.69 809.98Z" fill="white"/>
<path d="M625.497 759.231C625.941 759.001 626.404 758.665 626.884 758.223C627.355 757.794 627.784 757.314 628.17 756.784C628.886 755.801 629.207 754.966 629.133 754.279C629.06 753.592 628.592 752.875 627.73 752.129L627.716 752.148C627.648 752.514 627.487 752.951 627.235 753.46C626.983 753.97 626.65 754.509 626.235 755.078C625.322 756.332 624.327 757.073 623.252 757.299C622.176 757.525 621.044 757.205 619.854 756.338C619 755.717 618.375 755.053 617.978 754.348C617.594 753.653 617.487 752.862 617.657 751.977C617.83 751.113 618.341 750.1 619.189 748.936C620.112 747.668 621.052 746.839 622.01 746.448C622.959 746.07 623.983 746.064 625.082 746.429C626.182 746.794 627.411 747.472 628.769 748.461C630.191 749.497 631.198 750.547 631.789 751.611C632.383 752.697 632.614 753.766 632.482 754.818C632.362 755.879 631.935 756.913 631.2 757.922C630.579 758.776 629.98 759.448 629.404 759.939C628.829 760.431 628.316 760.809 627.865 761.075L625.479 759.337L625.497 759.231ZM621.556 750.66C621.037 751.371 620.805 751.934 620.859 752.349C620.913 752.765 621.205 753.165 621.735 753.552C622.304 753.966 622.796 754.107 623.21 753.973C623.637 753.848 624.086 753.463 624.557 752.816C624.849 752.415 625.082 752.001 625.255 751.573C625.428 751.145 625.514 750.782 625.513 750.484C624.54 749.755 623.77 749.412 623.204 749.456C622.642 749.521 622.092 749.922 621.556 750.66Z" fill="white"/>
<path d="M638.653 739.806L641.251 741.578C641.226 742.239 641.049 743.009 640.72 743.889C640.391 744.768 639.925 745.651 639.321 746.537C638.356 747.951 637.308 748.892 636.176 749.359C635.035 749.839 633.803 749.629 632.481 748.727C631.437 748.015 630.764 747.198 630.464 746.276C630.167 745.377 630.202 744.161 630.569 742.629C630.922 741.147 631.093 740.072 631.082 739.406C631.076 738.763 630.92 738.337 630.616 738.13L626.208 744.594L623.69 742.876L630.1 733.478L632.32 734.993C632.995 735.453 633.493 735.957 633.816 736.506C634.129 737.069 634.29 737.769 634.299 738.608C634.308 739.447 634.181 740.513 633.919 741.806C633.723 742.776 633.625 743.572 633.628 744.193C633.634 744.836 633.853 745.296 634.285 745.571C634.797 745.901 635.278 745.948 635.728 745.713C636.183 745.5 636.636 745.064 637.087 744.403C637.52 743.768 637.849 743.044 638.075 742.23C638.314 741.425 638.467 740.676 638.532 739.985L638.653 739.806Z" fill="white"/>
<path d="M636.687 737.012C635.147 736.034 634.023 735.074 633.314 734.131C632.605 733.188 632.29 732.191 632.368 731.142C632.447 730.093 632.902 728.913 633.734 727.603C634.558 726.306 635.427 725.399 636.344 724.882C637.26 724.364 638.295 724.226 639.45 724.466C640.605 724.707 641.953 725.316 643.493 726.294C645.046 727.28 646.177 728.245 646.886 729.188C647.595 730.131 647.91 731.127 647.831 732.176C647.753 733.225 647.302 734.398 646.478 735.695C645.646 737.005 644.772 737.919 643.856 738.437C642.94 738.954 641.905 739.093 640.75 738.852C639.595 738.611 638.24 737.998 636.687 737.012ZM636.429 729.314C635.846 730.232 635.761 731.022 636.176 731.683C636.595 732.366 637.426 733.102 638.668 733.891C639.924 734.689 640.944 735.128 641.727 735.208C642.501 735.302 643.18 734.89 643.763 733.971C644.338 733.066 644.423 732.276 644.017 731.602C643.603 730.941 642.768 730.211 641.511 729.414C640.269 728.625 639.253 728.179 638.465 728.077C637.682 727.997 637.004 728.409 636.429 729.314Z" fill="white"/>
<path d="M652.593 717.186L655.302 718.782C655.321 719.443 655.196 720.224 654.926 721.123C654.656 722.023 654.249 722.934 653.705 723.858C652.836 725.333 651.852 726.341 650.754 726.882C649.647 727.437 648.404 727.309 647.026 726.497C645.936 725.855 645.211 725.084 644.85 724.185C644.494 723.307 644.449 722.091 644.714 720.539C644.968 719.036 645.067 717.952 645.012 717.289C644.963 716.647 644.78 716.233 644.463 716.046L640.492 722.787L637.866 721.24L643.64 711.439L645.956 712.803C646.659 713.217 647.19 713.687 647.548 714.214C647.898 714.755 648.105 715.443 648.17 716.279C648.234 717.116 648.178 718.188 648.002 719.496C647.87 720.476 647.826 721.276 647.869 721.896C647.918 722.538 648.167 722.982 648.617 723.228C649.149 723.523 649.632 723.538 650.066 723.274C650.506 723.032 650.929 722.566 651.335 721.877C651.725 721.215 652.005 720.47 652.177 719.643C652.362 718.824 652.465 718.067 652.484 717.372L652.593 717.186Z" fill="white"/>
<path d="M652.806 694.526L666.288 701.528L661.089 711.538L658.32 710.1L661.749 703.498L659.193 702.17L656.218 707.9L653.449 706.462L656.424 700.732L653.805 699.372L650.376 705.974L647.607 704.536L652.806 694.526Z" fill="white"/>
<path d="M658.353 682.924L672.083 689.428L667.254 699.622L664.434 698.286L667.619 691.563L665.016 690.33L662.253 696.164L659.433 694.829L662.197 688.994L659.529 687.73L656.344 694.454L653.524 693.118L658.353 682.924Z" fill="white"/>
<path d="M662.056 682.751L659.276 681.562C659.431 680.793 659.616 680.054 659.832 679.346C660.048 678.638 660.354 677.82 660.75 676.893C661.259 675.702 661.793 674.738 662.351 674.002C662.903 673.281 663.544 672.781 664.272 672.501C665.01 672.242 665.904 672.206 666.954 672.394C668.005 672.582 669.28 672.997 670.781 673.639C672.223 674.255 673.36 674.872 674.192 675.489C675.025 676.106 675.587 676.764 675.88 677.463C676.181 678.184 676.254 678.989 676.1 679.88C675.953 680.792 675.625 681.844 675.116 683.036C674.72 683.963 674.34 684.749 673.977 685.394C673.629 686.045 673.223 686.69 672.759 687.327L669.89 686.1L669.875 686.015C670.286 685.46 670.644 684.908 670.948 684.36C671.267 683.817 671.605 683.127 671.964 682.288C672.253 681.612 672.441 681.031 672.527 680.545C672.621 680.081 672.581 679.664 672.409 679.294C672.236 678.925 671.9 678.572 671.399 678.236C670.893 677.915 670.184 677.56 669.271 677.17C668.315 676.761 667.524 676.475 666.898 676.311C666.28 676.169 665.77 676.16 665.369 676.284C664.968 676.409 664.625 676.662 664.339 677.045C664.048 677.442 663.757 677.979 663.468 678.656C663.116 679.48 662.839 680.188 662.638 680.781C662.445 681.394 662.296 682.027 662.192 682.678L662.056 682.751Z" fill="white"/>
<path d="M664.455 668.681L665.858 665.106L680 670.655L678.598 674.23L664.455 668.681Z" fill="white"/>
<path d="M693.741 595.772C693.995 595.34 694.207 594.809 694.379 594.179C694.549 593.565 694.656 592.931 694.701 592.277C694.783 591.064 694.611 590.186 694.183 589.643C693.755 589.101 692.977 588.743 691.85 588.57L691.849 588.594C691.985 588.94 692.083 589.396 692.14 589.961C692.198 590.526 692.203 591.16 692.155 591.863C692.049 593.411 691.602 594.567 690.812 595.331C690.022 596.095 688.893 596.427 687.424 596.327C686.371 596.255 685.488 596.027 684.777 595.641C684.081 595.257 683.57 594.645 683.242 593.805C682.93 592.982 682.822 591.852 682.92 590.415C683.027 588.851 683.381 587.648 683.984 586.807C684.586 585.982 685.449 585.432 686.574 585.155C687.7 584.879 689.101 584.798 690.777 584.913C692.533 585.033 693.944 585.385 695.01 585.971C696.092 586.574 696.857 587.356 697.304 588.317C697.768 589.279 697.957 590.382 697.872 591.627C697.8 592.681 697.652 593.569 697.426 594.291C697.2 595.013 696.967 595.607 696.727 596.071L693.782 595.871L693.741 595.772ZM685.841 590.614C685.781 591.492 685.885 592.093 686.151 592.416C686.418 592.738 686.879 592.922 687.533 592.967C688.236 593.015 688.726 592.872 689.006 592.538C689.301 592.205 689.476 591.64 689.53 590.842C689.564 590.347 689.54 589.872 689.459 589.418C689.378 588.963 689.258 588.61 689.098 588.359C687.886 588.26 687.052 588.379 686.596 588.717C686.155 589.072 685.903 589.704 685.841 590.614Z" fill="white"/>
<path d="M694.208 572.86L697.352 572.891C697.698 573.455 697.979 574.194 698.193 575.108C698.408 576.022 698.51 577.015 698.5 578.087C698.482 579.799 698.133 581.164 697.451 582.181C696.768 583.214 695.627 583.723 694.027 583.707C692.763 583.694 691.75 583.388 690.988 582.788C690.242 582.205 689.596 581.174 689.051 579.696C688.521 578.267 688.067 577.279 687.689 576.731C687.326 576.199 686.961 575.931 686.593 575.928L686.514 583.751L683.466 583.721L683.58 572.345L686.268 572.372C687.084 572.38 687.779 572.523 688.352 572.801C688.925 573.095 689.448 573.588 689.921 574.281C690.394 574.974 690.881 575.931 691.381 577.152C691.755 578.068 692.116 578.783 692.463 579.299C692.826 579.83 693.263 580.091 693.775 580.08C694.384 580.07 694.81 579.842 695.054 579.397C695.315 578.967 695.449 578.353 695.457 577.553C695.464 576.785 695.336 575.999 695.072 575.197C694.824 574.394 694.535 573.687 694.206 573.076L694.208 572.86Z" fill="white"/>
<path d="M690.986 571.14C689.164 571.24 687.691 571.113 686.566 570.757C685.441 570.402 684.606 569.775 684.06 568.876C683.514 567.976 683.198 566.752 683.113 565.202C683.029 563.668 683.21 562.425 683.654 561.471C684.099 560.517 684.861 559.802 685.94 559.327C687.02 558.851 688.47 558.563 690.292 558.463C692.129 558.363 693.61 558.49 694.735 558.845C695.86 559.2 696.696 559.827 697.242 560.727C697.788 561.626 698.103 562.843 698.187 564.377C698.272 565.926 698.092 567.178 697.647 568.132C697.203 569.085 696.441 569.8 695.361 570.276C694.281 570.752 692.823 571.04 690.986 571.14ZM686.3 565.027C686.36 566.114 686.75 566.806 687.472 567.103C688.21 567.415 689.314 567.53 690.784 567.45C692.269 567.369 693.354 567.133 694.038 566.743C694.722 566.369 695.035 565.639 694.975 564.552C694.917 563.482 694.526 562.79 693.804 562.477C693.083 562.18 691.979 562.073 690.494 562.154C689.024 562.234 687.939 562.462 687.238 562.837C686.554 563.227 686.242 563.957 686.3 565.027Z" fill="white"/>
<path d="M692.019 545.966L695.139 545.581C695.557 546.093 695.933 546.789 696.267 547.666C696.602 548.544 696.834 549.515 696.966 550.579C697.175 552.278 697.009 553.677 696.468 554.775C695.929 555.89 694.865 556.545 693.277 556.741C692.022 556.896 690.978 556.727 690.143 556.233C689.326 555.754 688.55 554.818 687.813 553.426C687.099 552.079 686.518 551.159 686.07 550.666C685.64 550.187 685.243 549.971 684.877 550.016L685.836 557.781L682.811 558.154L681.417 546.864L684.085 546.534C684.895 546.435 685.602 546.484 686.207 546.684C686.814 546.899 687.398 547.318 687.959 547.942C688.519 548.566 689.128 549.451 689.785 550.595C690.278 551.453 690.731 552.114 691.143 552.579C691.573 553.058 692.041 553.258 692.547 553.18C693.148 553.089 693.541 552.807 693.724 552.333C693.925 551.873 693.977 551.246 693.879 550.452C693.785 549.69 693.554 548.928 693.186 548.168C692.834 547.405 692.454 546.743 692.046 546.18L692.019 545.966Z" fill="white"/>
<path d="M677.664 528.51L692.455 525.043L695.029 536.025L691.991 536.737L690.293 529.494L687.489 530.151L688.963 536.437L685.925 537.149L684.452 530.863L681.578 531.537L683.276 538.781L680.238 539.493L677.664 528.51Z" fill="white"/>
<path d="M673.938 516.351L688.434 511.807L691.808 522.57L688.831 523.504L686.606 516.404L683.858 517.266L685.789 523.426L682.812 524.359L680.881 518.199L678.064 519.082L680.289 526.181L677.312 527.115L673.938 516.351Z" fill="white"/>
<path d="M676.481 513.623L673.671 514.742C673.238 514.087 672.849 513.433 672.502 512.779C672.156 512.125 671.796 511.329 671.423 510.393C670.944 509.189 670.642 508.129 670.519 507.213C670.402 506.313 670.503 505.507 670.822 504.794C671.162 504.09 671.77 503.435 672.648 502.827C673.525 502.22 674.722 501.614 676.238 501.01C677.695 500.43 678.936 500.066 679.962 499.916C680.987 499.766 681.85 499.836 682.551 500.125C683.272 500.423 683.892 500.943 684.411 501.683C684.95 502.433 685.46 503.41 685.939 504.614C686.312 505.551 686.597 506.376 686.795 507.089C687.008 507.796 687.175 508.539 687.295 509.318L684.396 510.472L684.325 510.423C684.225 509.739 684.09 509.096 683.918 508.492C683.762 507.883 683.515 507.155 683.178 506.307C682.905 505.624 682.629 505.079 682.347 504.675C682.086 504.279 681.764 504.011 681.381 503.871C680.998 503.731 680.511 503.718 679.919 503.833C679.334 503.963 678.58 504.211 677.659 504.578C676.692 504.963 675.93 505.318 675.371 505.644C674.832 505.979 674.465 506.332 674.268 506.703C674.071 507.074 674.007 507.496 674.074 507.968C674.148 508.455 674.321 509.041 674.593 509.725C674.924 510.557 675.228 511.255 675.503 511.817C675.799 512.388 676.14 512.941 676.525 513.476L676.481 513.623Z" fill="white"/>
<path d="M668.243 502.02L666.623 498.539L680.395 492.127L682.016 495.609L668.243 502.02Z" fill="white"/>
<path d="M632.07 434.098C631.894 433.629 631.615 433.13 631.234 432.601C630.864 432.082 630.438 431.6 629.958 431.153C629.067 430.325 628.276 429.907 627.585 429.899C626.894 429.89 626.127 430.269 625.284 431.036L625.301 431.052C625.656 431.164 626.071 431.375 626.547 431.686C627.023 431.997 627.518 432.392 628.034 432.871C629.171 433.927 629.788 435.003 629.885 436.098C629.981 437.192 629.529 438.279 628.527 439.357C627.808 440.131 627.075 440.673 626.328 440.983C625.592 441.282 624.794 441.294 623.935 441.02C623.098 440.745 622.152 440.117 621.098 439.137C619.949 438.07 619.237 437.037 618.963 436.04C618.7 435.053 618.816 434.036 619.31 432.987C619.803 431.939 620.622 430.799 621.765 429.569C622.963 428.279 624.126 427.405 625.252 426.944C626.401 426.483 627.49 426.381 628.519 426.638C629.558 426.883 630.535 427.43 631.449 428.279C632.222 428.998 632.819 429.673 633.238 430.303C633.658 430.933 633.972 431.487 634.182 431.966L632.173 434.129L632.07 434.098ZM623.091 436.992C623.735 437.591 624.267 437.889 624.686 437.885C625.104 437.881 625.537 437.638 625.984 437.158C626.463 436.642 626.661 436.171 626.577 435.743C626.504 435.305 626.175 434.813 625.589 434.268C625.226 433.931 624.842 433.65 624.437 433.427C624.033 433.205 623.683 433.076 623.387 433.041C622.548 433.921 622.116 434.645 622.091 435.212C622.089 435.778 622.423 436.371 623.091 436.992Z" fill="white"/>
<path d="M614.501 419.053L616.538 416.658C617.193 416.753 617.94 417.011 618.78 417.432C619.62 417.852 620.448 418.41 621.264 419.105C622.568 420.214 623.391 421.357 623.736 422.532C624.092 423.718 623.752 424.92 622.715 426.139C621.895 427.101 621.011 427.683 620.063 427.884C619.137 428.084 617.932 427.919 616.448 427.392C615.011 426.883 613.961 426.598 613.298 426.538C612.657 426.476 612.217 426.585 611.979 426.866L617.937 431.937L615.961 434.258L607.299 426.884L609.041 424.837C609.57 424.216 610.124 423.774 610.705 423.512C611.298 423.26 612.011 423.174 612.846 423.255C613.681 423.335 614.728 423.574 615.986 423.973C616.929 424.271 617.71 424.453 618.328 424.516C618.968 424.578 619.449 424.409 619.768 424.009C620.15 423.536 620.248 423.063 620.063 422.589C619.9 422.114 619.514 421.618 618.904 421.099C618.32 420.601 617.634 420.197 616.849 419.885C616.074 419.562 615.346 419.331 614.665 419.193L614.501 419.053Z" fill="white"/>
<path d="M610.774 420.154C609.668 421.604 608.615 422.642 607.615 423.268C606.614 423.894 605.595 424.123 604.556 423.954C603.518 423.786 602.381 423.232 601.147 422.291C599.925 421.359 599.096 420.415 598.659 419.458C598.221 418.501 598.172 417.458 598.511 416.327C598.849 415.197 599.571 413.907 600.677 412.456C601.793 410.993 602.851 409.949 603.851 409.323C604.851 408.697 605.87 408.468 606.909 408.637C607.948 408.805 609.078 409.354 610.299 410.286C611.534 411.227 612.369 412.176 612.807 413.133C613.244 414.09 613.293 415.133 612.955 416.264C612.616 417.394 611.889 418.69 610.774 420.154ZM603.082 419.752C603.947 420.412 604.727 420.564 605.421 420.208C606.137 419.848 606.942 419.083 607.834 417.913C608.737 416.73 609.261 415.751 609.408 414.978C609.568 414.214 609.215 413.503 608.35 412.843C607.497 412.193 606.717 412.041 606.011 412.388C605.317 412.744 604.519 413.514 603.616 414.697C602.724 415.868 602.193 416.841 602.024 417.617C601.877 418.391 602.23 419.102 603.082 419.752Z" fill="white"/>
<path d="M592.071 402.805L593.818 400.192C594.48 400.21 595.252 400.38 596.134 400.7C597.017 401.021 597.904 401.479 598.795 402.075C600.218 403.026 601.169 404.065 601.647 405.193C602.138 406.33 601.939 407.563 601.05 408.893C600.348 409.944 599.537 410.624 598.618 410.934C597.721 411.239 596.506 411.216 594.971 410.863C593.484 410.524 592.408 410.363 591.743 410.38C591.099 410.393 590.675 410.552 590.471 410.858L596.976 415.205L595.282 417.74L585.824 411.418L587.318 409.183C587.771 408.505 588.271 408.002 588.817 407.674C589.377 407.355 590.076 407.187 590.915 407.171C591.753 407.154 592.82 407.271 594.116 407.521C595.087 407.708 595.884 407.798 596.505 407.79C597.149 407.777 597.606 407.554 597.877 407.119C598.202 406.605 598.244 406.123 598.005 405.675C597.788 405.222 597.347 404.773 596.682 404.329C596.044 403.902 595.316 403.579 594.5 403.361C593.693 403.129 592.943 402.984 592.251 402.925L592.071 402.805Z" fill="white"/>
<path d="M569.367 402.224L576.378 388.747L586.385 393.953L584.945 396.721L578.345 393.287L577.016 395.842L582.743 398.821L581.303 401.589L575.576 398.609L574.213 401.228L580.813 404.662L579.373 407.43L569.367 402.224Z" fill="white"/>
<path d="M557.983 397.348L563.865 383.34L574.265 387.707L573.057 390.584L566.197 387.704L565.082 390.359L571.035 392.859L569.827 395.735L563.874 393.236L562.731 395.958L569.591 398.838L568.383 401.715L557.983 397.348Z" fill="white"/>
<path d="M558.12 393.842L557.202 396.724C556.422 396.643 555.669 396.529 554.943 396.382C554.218 396.235 553.375 396.009 552.414 395.703C551.179 395.309 550.169 394.87 549.383 394.385C548.613 393.904 548.053 393.315 547.705 392.616C547.377 391.907 547.256 391.02 547.343 389.957C547.43 388.893 547.721 387.583 548.216 386.028C548.692 384.534 549.197 383.344 549.732 382.456C550.266 381.568 550.868 380.945 551.536 380.587C552.224 380.219 553.019 380.069 553.921 380.138C554.843 380.196 555.921 380.422 557.156 380.816C558.116 381.121 558.935 381.424 559.612 381.724C560.294 382.008 560.974 382.351 561.652 382.751L560.706 385.724L560.622 385.748C560.031 385.392 559.447 385.088 558.872 384.838C558.302 384.572 557.582 384.301 556.713 384.025C556.012 383.801 555.415 383.67 554.924 383.631C554.453 383.582 554.042 383.661 553.69 383.868C553.339 384.075 553.02 384.443 552.733 384.974C552.462 385.508 552.176 386.249 551.875 387.194C551.56 388.185 551.35 389 551.248 389.639C551.165 390.267 551.205 390.775 551.367 391.163C551.529 391.55 551.814 391.868 552.222 392.115C552.645 392.368 553.208 392.605 553.909 392.829C554.763 393.101 555.494 393.308 556.103 393.452C556.733 393.585 557.376 393.673 558.035 393.715L558.12 393.842Z" fill="white"/>
<path d="M544.381 392.983L540.649 392.078L544.23 377.314L547.962 378.22L544.381 392.983Z" fill="white"/>
<path d="M467.829 384.249C467.337 384.157 466.765 384.138 466.115 384.19C465.48 384.239 464.847 384.353 464.216 384.534C463.047 384.868 462.28 385.328 461.915 385.915C461.55 386.502 461.478 387.355 461.698 388.474L461.721 388.467C462 388.221 462.396 387.975 462.908 387.728C463.42 387.482 464.014 387.262 464.691 387.069C466.183 386.642 467.423 386.67 468.41 387.154C469.397 387.637 470.093 388.586 470.497 390.002C470.787 391.017 470.872 391.925 470.752 392.725C470.626 393.509 470.224 394.198 469.545 394.792C468.877 395.366 467.851 395.85 466.467 396.246C464.959 396.677 463.707 396.752 462.712 396.471C461.731 396.186 460.92 395.56 460.278 394.596C459.636 393.631 459.085 392.341 458.623 390.726C458.139 389.034 457.991 387.586 458.18 386.384C458.38 385.162 458.856 384.177 459.607 383.43C460.354 382.667 461.328 382.114 462.528 381.771C463.543 381.481 464.429 381.319 465.185 381.286C465.941 381.253 466.578 381.271 467.097 381.339L467.908 384.177L467.829 384.249ZM465.662 393.431C466.508 393.189 467.037 392.888 467.25 392.527C467.464 392.167 467.48 391.671 467.3 391.041C467.106 390.364 466.805 389.951 466.396 389.801C465.983 389.636 465.392 389.664 464.623 389.884C464.146 390.02 463.707 390.204 463.307 390.435C462.907 390.666 462.616 390.899 462.434 391.134C462.753 392.307 463.148 393.051 463.621 393.365C464.105 393.66 464.785 393.682 465.662 393.431Z" fill="white"/>
<path d="M445.675 391.625L444.666 388.647C445.084 388.134 445.688 387.625 446.48 387.12C447.272 386.616 448.176 386.191 449.191 385.847C450.812 385.298 452.216 385.177 453.401 385.485C454.602 385.788 455.459 386.697 455.972 388.213C456.378 389.41 456.424 390.467 456.109 391.384C455.805 392.281 455.046 393.231 453.831 394.234C452.657 395.206 451.874 395.961 451.482 396.5C451.1 397.017 450.968 397.451 451.086 397.799L458.496 395.289L459.474 398.176L448.7 401.826L447.837 399.28C447.575 398.507 447.481 397.804 447.554 397.171C447.642 396.533 447.935 395.877 448.432 395.201C448.93 394.526 449.672 393.751 450.66 392.876C451.4 392.219 451.957 391.642 452.329 391.145C452.711 390.627 452.812 390.128 452.632 389.648C452.422 389.077 452.066 388.75 451.565 388.667C451.074 388.563 450.449 388.639 449.692 388.896C448.964 389.142 448.265 389.523 447.595 390.037C446.919 390.536 446.347 391.042 445.879 391.556L445.675 391.625Z" fill="white"/>
<path d="M445.743 394.973C446.394 396.677 446.723 398.119 446.729 399.299C446.734 400.478 446.392 401.466 445.703 402.26C445.013 403.055 443.943 403.729 442.493 404.284C441.059 404.832 439.819 405.04 438.775 404.908C437.732 404.777 436.818 404.269 436.035 403.387C435.253 402.504 434.536 401.211 433.884 399.507C433.227 397.788 432.896 396.339 432.89 395.159C432.884 393.98 433.226 392.992 433.916 392.198C434.606 391.403 435.668 390.731 437.103 390.183C438.552 389.629 439.799 389.418 440.843 389.549C441.887 389.681 442.8 390.189 443.583 391.071C444.366 391.954 445.086 393.255 445.743 394.973ZM441.354 401.302C442.37 400.913 442.909 400.33 442.972 399.553C443.043 398.755 442.816 397.668 442.291 396.293C441.759 394.903 441.204 393.942 440.623 393.41C440.058 392.873 439.267 392.798 438.251 393.187C437.25 393.57 436.711 394.153 436.633 394.936C436.571 395.714 436.805 396.797 437.336 398.187C437.862 399.562 438.41 400.526 438.981 401.078C439.562 401.61 440.352 401.685 441.354 401.302Z" fill="white"/>
<path d="M420.965 401.404L419.756 398.502C420.137 397.961 420.706 397.413 421.462 396.855C422.218 396.298 423.09 395.813 424.08 395.401C425.66 394.742 427.052 394.527 428.256 394.753C429.474 394.974 430.391 395.823 431.006 397.3C431.492 398.466 431.61 399.518 431.359 400.455C431.116 401.37 430.423 402.37 429.279 403.453C428.174 404.502 427.444 405.309 427.089 405.873C426.744 406.415 426.641 406.856 426.783 407.196L434.005 404.188L435.177 407.002L424.676 411.376L423.642 408.894C423.329 408.141 423.186 407.446 423.216 406.81C423.261 406.167 423.508 405.492 423.959 404.785C424.409 404.077 425.097 403.253 426.023 402.313C426.717 401.608 427.233 400.994 427.57 400.473C427.916 399.93 427.983 399.425 427.772 398.959C427.523 398.404 427.146 398.101 426.64 398.052C426.143 397.982 425.525 398.101 424.787 398.408C424.078 398.703 423.406 399.13 422.772 399.689C422.132 400.233 421.596 400.777 421.164 401.321L420.965 401.404Z" fill="white"/>
<path d="M407.009 419.105L400.757 405.259L411.038 400.617L412.322 403.46L405.541 406.522L406.726 409.147L412.61 406.49L413.894 409.334L408.01 411.991L409.225 414.681L416.006 411.619L417.29 414.463L407.009 419.105Z" fill="white"/>
<path d="M395.45 424.449L389.06 410.666L399.294 405.921L400.606 408.752L393.856 411.881L395.068 414.494L400.925 411.779L402.237 414.609L396.38 417.325L397.622 420.003L404.371 416.874L405.684 419.704L395.45 424.449Z" fill="white"/>
<path d="M391.777 422.532L393.06 425.27C392.433 425.741 391.802 426.169 391.17 426.553C390.537 426.938 389.765 427.344 388.852 427.772C387.678 428.322 386.638 428.686 385.732 428.863C384.84 429.033 384.029 428.98 383.299 428.704C382.576 428.407 381.886 427.838 381.227 426.998C380.569 426.158 379.893 424.999 379.201 423.521C378.535 422.101 378.098 420.884 377.887 419.87C377.677 418.855 377.695 417.989 377.943 417.273C378.198 416.535 378.68 415.885 379.388 415.323C380.105 414.74 381.05 414.174 382.223 413.624C383.136 413.196 383.942 412.863 384.643 412.623C385.337 412.368 386.068 412.158 386.839 411.992L388.162 414.817L388.117 414.891C387.441 415.031 386.807 415.205 386.215 415.411C385.616 415.604 384.903 415.893 384.077 416.28C383.411 416.593 382.884 416.901 382.497 417.206C382.117 417.49 381.869 417.827 381.752 418.218C381.634 418.609 381.651 419.096 381.8 419.679C381.965 420.256 382.257 420.994 382.678 421.892C383.119 422.834 383.519 423.574 383.878 424.113C384.244 424.63 384.618 424.976 385 425.151C385.382 425.325 385.807 425.365 386.275 425.269C386.757 425.167 387.331 424.96 387.998 424.647C388.809 424.267 389.487 423.923 390.032 423.615C390.584 423.285 391.116 422.912 391.628 422.496L391.777 422.532Z" fill="white"/>
<path d="M380.061 431.651L376.583 433.278L370.147 419.517L373.625 417.89L380.061 431.651Z" fill="white"/>
<path d="M303.573 452.278C303.077 452.211 302.505 452.219 301.858 452.304C301.226 452.384 300.599 452.53 299.978 452.741C298.827 453.133 298.084 453.631 297.749 454.235C297.414 454.839 297.384 455.695 297.659 456.801L297.681 456.793C297.948 456.534 298.331 456.268 298.83 455.997C299.329 455.725 299.912 455.476 300.579 455.249C302.048 454.749 303.287 454.716 304.297 455.15C305.306 455.584 306.048 456.498 306.523 457.891C306.863 458.891 306.993 459.793 306.912 460.598C306.826 461.388 306.458 462.096 305.809 462.723C305.171 463.329 304.17 463.864 302.806 464.328C301.322 464.833 300.076 464.97 299.067 464.738C298.074 464.502 297.233 463.918 296.544 462.986C295.855 462.054 295.24 460.793 294.699 459.203C294.132 457.537 293.913 456.099 294.042 454.888C294.181 453.658 294.607 452.651 295.32 451.867C296.029 451.068 296.974 450.468 298.155 450.066C299.155 449.726 300.031 449.52 300.785 449.45C301.538 449.379 302.176 449.365 302.697 449.407L303.648 452.202L303.573 452.278ZM301.863 461.556C302.696 461.272 303.21 460.945 303.405 460.575C303.6 460.204 303.592 459.708 303.381 459.087C303.154 458.421 302.832 458.023 302.417 457.894C301.996 457.75 301.407 457.807 300.649 458.065C300.18 458.225 299.751 458.43 299.363 458.68C298.975 458.93 298.696 459.178 298.525 459.422C298.902 460.578 299.334 461.301 299.822 461.592C300.319 461.862 301 461.85 301.863 461.556Z" fill="white"/>
<path d="M281.555 459.85L280.633 456.845C281.065 456.344 281.684 455.853 282.49 455.371C283.296 454.889 284.212 454.491 285.236 454.176C286.873 453.674 288.279 453.594 289.456 453.936C290.647 454.273 291.477 455.206 291.947 456.736C292.318 457.944 292.333 459.002 291.992 459.91C291.662 460.798 290.876 461.726 289.633 462.693C288.431 463.631 287.627 464.363 287.22 464.89C286.823 465.397 286.678 465.826 286.786 466.178L294.266 463.882L295.16 466.796L284.285 470.134L283.496 467.564C283.257 466.784 283.183 466.079 283.274 465.448C283.38 464.813 283.692 464.165 284.208 463.505C284.725 462.844 285.49 462.09 286.502 461.244C287.261 460.609 287.834 460.049 288.22 459.562C288.617 459.055 288.732 458.559 288.567 458.075C288.373 457.498 288.027 457.161 287.528 457.063C287.04 456.945 286.414 457.003 285.649 457.238C284.915 457.463 284.205 457.823 283.52 458.318C282.831 458.798 282.244 459.287 281.762 459.787L281.555 459.85Z" fill="white"/>
<path d="M280.821 463.388C281.293 465.15 281.471 466.618 281.355 467.792C281.239 468.966 280.797 469.913 280.029 470.632C279.261 471.352 278.128 471.912 276.629 472.314C275.145 472.712 273.891 472.791 272.866 472.552C271.841 472.314 270.985 471.715 270.298 470.756C269.61 469.798 269.03 468.437 268.558 466.676C268.081 464.898 267.901 463.423 268.017 462.249C268.133 461.075 268.575 460.128 269.343 459.408C270.111 458.689 271.236 458.131 272.72 457.733C274.219 457.331 275.481 457.249 276.506 457.488C277.531 457.727 278.387 458.326 279.074 459.284C279.762 460.243 280.344 461.611 280.821 463.388ZM275.802 469.231C276.853 468.949 277.45 468.425 277.592 467.658C277.746 466.871 277.632 465.767 277.251 464.345C276.865 462.908 276.412 461.895 275.889 461.306C275.382 460.713 274.604 460.557 273.553 460.839C272.517 461.117 271.921 461.641 271.763 462.412C271.621 463.179 271.742 464.281 272.128 465.719C272.509 467.14 272.955 468.155 273.466 468.764C273.988 469.353 274.767 469.508 275.802 469.231Z" fill="white"/>
<path d="M256.027 466.29L255.328 463.225C255.796 462.757 256.45 462.313 257.289 461.892C258.129 461.471 259.071 461.141 260.116 460.903C261.786 460.523 263.194 460.547 264.342 460.974C265.505 461.399 266.264 462.391 266.62 463.951C266.901 465.183 266.838 466.24 266.431 467.12C266.036 467.981 265.184 468.848 263.873 469.721C262.605 470.568 261.749 471.239 261.304 471.734C260.871 472.21 260.695 472.628 260.777 472.986L268.405 471.249L269.082 474.22L257.991 476.747L257.394 474.126C257.212 473.331 257.19 472.622 257.328 472C257.48 471.374 257.839 470.751 258.403 470.13C258.967 469.51 259.785 468.814 260.857 468.045C261.661 467.468 262.274 466.951 262.695 466.494C263.128 466.018 263.28 465.532 263.15 465.037C263 464.447 262.679 464.086 262.189 463.951C261.711 463.797 261.082 463.809 260.302 463.987C259.553 464.158 258.819 464.464 258.099 464.907C257.376 465.335 256.756 465.78 256.237 466.242L256.027 466.29Z" fill="white"/>
<path d="M237.989 480.189L235.545 465.195L246.678 463.38L247.18 466.459L239.837 467.656L240.3 470.499L246.672 469.46L247.174 472.539L240.802 473.578L241.277 476.492L248.62 475.295L249.122 478.374L237.989 480.189Z" fill="white"/>
<path d="M224.576 481.859L222.777 466.774L233.977 465.438L234.347 468.536L226.959 469.417L227.3 472.277L233.711 471.512L234.081 474.61L227.67 475.375L228.02 478.306L235.407 477.425L235.777 480.523L224.576 481.859Z" fill="white"/>
<path d="M221.895 478.834L222.119 481.85C221.365 482.066 220.624 482.242 219.896 482.376C219.168 482.51 218.301 482.615 217.296 482.689C216.004 482.785 214.902 482.755 213.992 482.598C213.098 482.44 212.359 482.101 211.775 481.583C211.206 481.048 210.763 480.271 210.447 479.251C210.13 478.232 209.912 476.908 209.791 475.281C209.675 473.717 209.699 472.424 209.864 471.401C210.028 470.378 210.354 469.576 210.84 468.994C211.341 468.395 212.023 467.96 212.885 467.687C213.762 467.397 214.846 467.204 216.139 467.108C217.144 467.034 218.017 467.009 218.757 467.034C219.495 467.043 220.254 467.107 221.033 467.226L221.264 470.337L221.196 470.391C220.514 470.281 219.859 470.217 219.232 470.2C218.604 470.166 217.835 470.183 216.926 470.251C216.192 470.305 215.59 470.406 215.119 470.553C214.664 470.683 214.311 470.91 214.063 471.233C213.814 471.557 213.656 472.018 213.588 472.616C213.536 473.214 213.547 474.007 213.62 474.997C213.697 476.034 213.807 476.868 213.95 477.499C214.108 478.113 214.335 478.569 214.63 478.868C214.925 479.167 215.308 479.355 215.779 479.433C216.266 479.509 216.876 479.52 217.61 479.465C218.504 479.399 219.26 479.319 219.879 479.225C220.512 479.113 221.142 478.954 221.768 478.747L221.895 478.834Z" fill="white"/>
<path d="M208.005 483.12L204.168 483.276L203.554 468.096L207.391 467.941L208.005 483.12Z" fill="white"/>
<path d="M128.986 465.328C128.6 465.008 128.111 464.713 127.517 464.442C126.938 464.176 126.33 463.968 125.691 463.818C124.507 463.541 123.613 463.571 123.009 463.906C122.404 464.241 121.926 464.951 121.574 466.035L121.597 466.04C121.961 465.961 122.426 465.939 122.994 465.973C123.561 466.007 124.187 466.104 124.872 466.264C126.384 466.618 127.453 467.246 128.08 468.148C128.707 469.051 128.853 470.218 128.517 471.652C128.277 472.68 127.909 473.514 127.415 474.154C126.923 474.779 126.237 475.185 125.355 475.373C124.492 475.549 123.36 475.474 121.957 475.146C120.431 474.789 119.301 474.245 118.568 473.515C117.85 472.788 117.446 471.848 117.355 470.693C117.263 469.537 117.409 468.142 117.791 466.506C118.192 464.792 118.768 463.456 119.517 462.498C120.287 461.527 121.181 460.899 122.202 460.611C123.225 460.309 124.345 460.299 125.56 460.584C126.588 460.824 127.441 461.114 128.117 461.453C128.794 461.792 129.342 462.117 129.762 462.429L129.09 465.303L128.986 465.328ZM122.624 472.295C123.481 472.495 124.09 472.49 124.452 472.278C124.813 472.067 125.069 471.642 125.218 471.003C125.379 470.318 125.317 469.81 125.032 469.481C124.751 469.136 124.221 468.872 123.442 468.69C122.959 468.577 122.487 468.524 122.025 468.531C121.564 468.538 121.196 468.6 120.922 468.717C120.63 469.897 120.613 470.74 120.873 471.244C121.153 471.737 121.736 472.087 122.624 472.295Z" fill="white"/>
<path d="M107.047 460.217L107.877 457.184C108.51 456.992 109.296 456.909 110.235 456.933C111.173 456.958 112.16 457.112 113.194 457.394C114.845 457.846 116.076 458.531 116.887 459.45C117.712 460.372 117.914 461.605 117.492 463.148C117.159 464.368 116.605 465.269 115.831 465.854C115.077 466.427 113.917 466.79 112.349 466.942C110.832 467.091 109.76 467.279 109.134 467.506C108.528 467.721 108.176 468.007 108.079 468.362L115.626 470.426L114.822 473.366L103.849 470.364L104.558 467.772C104.773 466.985 105.088 466.349 105.502 465.865C105.932 465.386 106.542 465.005 107.332 464.724C108.123 464.442 109.172 464.215 110.48 464.042C111.461 463.912 112.245 463.745 112.831 463.541C113.438 463.325 113.801 462.968 113.92 462.47C114.065 461.879 113.954 461.409 113.585 461.059C113.236 460.699 112.675 460.413 111.904 460.201C111.163 459.999 110.371 459.923 109.527 459.974C108.688 460.01 107.931 460.11 107.256 460.274L107.047 460.217Z" fill="white"/>
<path d="M104.495 462.8C103.95 464.54 103.314 465.875 102.587 466.804C101.86 467.734 100.979 468.296 99.9455 468.492C98.9117 468.688 97.6542 468.554 96.1732 468.09C94.7074 467.631 93.6058 467.026 92.8685 466.276C92.1311 465.525 91.7289 464.561 91.6619 463.383C91.5949 462.205 91.8339 460.746 92.3791 459.005C92.929 457.249 93.5674 455.907 94.2944 454.977C95.0213 454.048 95.9017 453.486 96.9355 453.29C97.9694 453.094 99.2192 453.225 100.685 453.684C102.166 454.148 103.275 454.755 104.013 455.506C104.75 456.257 105.152 457.221 105.219 458.399C105.286 459.577 105.045 461.044 104.495 462.8ZM97.1272 465.044C98.1655 465.369 98.9501 465.246 99.4812 464.675C100.032 464.093 100.528 463.1 100.968 461.695C101.412 460.275 101.572 459.176 101.447 458.399C101.336 457.627 100.762 457.078 99.7238 456.753C98.7008 456.433 97.9161 456.556 97.3698 457.123C96.8388 457.694 96.3509 458.69 95.9062 460.11C95.4662 461.514 95.299 462.611 95.4044 463.398C95.5299 464.175 96.1042 464.724 97.1272 465.044Z" fill="white"/>
<path d="M82.007 452.004L83.0504 449.038C83.6955 448.892 84.4853 448.865 85.42 448.956C86.3546 449.047 87.3276 449.271 88.3388 449.627C89.9538 450.195 91.1328 450.966 91.8757 451.94C92.6337 452.919 92.7473 454.163 92.2163 455.672C91.7968 456.865 91.1804 457.725 90.367 458.253C89.5741 458.771 88.3904 459.05 86.816 459.09C85.2922 459.13 84.21 459.241 83.5694 459.423C82.9492 459.595 82.578 459.855 82.4559 460.202L89.8364 462.798L88.8249 465.674L78.0936 461.898L78.9857 459.362C79.2565 458.593 79.6158 457.981 80.0635 457.528C80.5264 457.08 81.1619 456.744 81.9702 456.52C82.7785 456.295 83.8412 456.143 85.1582 456.064C86.146 456.004 86.9397 455.894 87.5395 455.731C88.1597 455.56 88.5472 455.229 88.7021 454.741C88.8888 454.162 88.8106 453.685 88.4677 453.31C88.1451 452.925 87.6065 452.6 86.8518 452.335C86.1274 452.08 85.3427 451.948 84.4977 451.939C83.6581 451.915 82.8958 451.961 82.2107 452.076L82.007 452.004Z" fill="white"/>
<path d="M59.2677 454.326L65.0136 440.262L75.4557 444.528L74.2756 447.417L67.3883 444.603L66.299 447.269L72.2754 449.711L71.0954 452.599L65.119 450.157L64.0025 452.89L70.8898 455.704L69.7097 458.592L59.2677 454.326Z" fill="white"/>
<path d="M47.5455 449.184L53.6967 435.293L64.0107 439.861L62.7474 442.713L55.9446 439.701L54.7785 442.334L60.6816 444.948L59.4183 447.801L53.5152 445.187L52.3199 447.886L59.1228 450.899L57.8595 453.752L47.5455 449.184Z" fill="white"/>
<path d="M46.403 445.045L45.101 447.775C44.3389 447.588 43.6085 447.373 42.9098 447.128C42.2111 446.884 41.4068 446.544 40.497 446.11C39.3273 445.552 38.3863 444.979 37.6741 444.391C36.9762 443.81 36.5024 443.15 36.2525 442.41C36.024 441.663 36.0253 440.768 36.2564 439.726C36.4876 438.684 36.9545 437.427 37.6572 435.954C38.3323 434.539 38.9952 433.428 39.6458 432.622C40.2964 431.815 40.9771 431.28 41.6879 431.016C42.42 430.745 43.2279 430.705 44.1117 430.896C45.0169 431.08 46.0543 431.451 47.224 432.009C48.1338 432.443 48.9036 432.854 49.5335 433.243C50.1702 433.618 50.7973 434.05 51.4147 434.54L50.0713 437.356L49.9857 437.368C49.448 436.934 48.9114 436.554 48.3758 436.228C47.847 435.887 47.171 435.52 46.3479 435.127C45.6836 434.81 45.1108 434.599 44.6293 434.494C44.1692 434.38 43.7509 434.403 43.3745 434.56C42.9981 434.717 42.632 435.039 42.276 435.525C41.9345 436.018 41.5501 436.712 41.123 437.607C40.6752 438.546 40.3569 439.325 40.168 439.944C40.0004 440.555 39.9705 441.064 40.0782 441.47C40.1859 441.876 40.4251 442.229 40.7956 442.53C41.1806 442.838 41.7053 443.15 42.3696 443.467C43.1783 443.853 43.8746 444.158 44.4584 444.384C45.0636 444.601 45.6895 444.776 46.336 444.907L46.403 445.045Z" fill="white"/>
<path d="M31.9622 441.763L28.5318 440.037L35.3589 426.465L38.7893 428.191L31.9622 441.763Z" fill="white"/>
</svg>
