<svg width="1059" height="1048" viewBox="0 0 1059 1048" fill="none" xmlns="http://www.w3.org/2000/svg">
<path d="M349.415 1015.52C864.416 657.027 542.339 612.433 460.415 433.522C384.27 267.232 556.186 31.2069 717.415 249.522C821.915 391.022 565.556 408.273 657.915 232.023C717.915 117.524 912.83 307.026 975.416 306.528" stroke="#1B65FA" stroke-width="60"/>
<path d="M924.935 286.059C924.64 285.655 924.237 285.249 923.727 284.842C923.231 284.442 922.692 284.091 922.109 283.791C921.028 283.233 920.154 283.043 919.486 283.22C918.819 283.398 918.182 283.969 917.575 284.935L917.597 284.946C917.969 284.958 918.425 285.05 918.967 285.221C919.509 285.393 920.092 285.64 920.718 285.963C922.097 286.674 922.981 287.544 923.368 288.572C923.756 289.601 923.612 290.769 922.937 292.077C922.453 293.015 921.893 293.735 921.257 294.235C920.628 294.72 919.863 294.947 918.962 294.914C918.082 294.874 917.002 294.524 915.723 293.864C914.329 293.145 913.366 292.342 912.834 291.455C912.315 290.575 912.153 289.564 912.346 288.421C912.54 287.279 913.022 285.961 913.792 284.468C914.599 282.904 915.483 281.749 916.445 281.003C917.427 280.25 918.449 279.858 919.508 279.829C920.575 279.785 921.663 280.049 922.772 280.622C923.71 281.106 924.466 281.595 925.04 282.089C925.613 282.583 926.065 283.032 926.396 283.437L925.043 286.061L924.935 286.059ZM917.065 291.262C917.847 291.665 918.44 291.809 918.842 291.692C919.244 291.576 919.596 291.226 919.896 290.643C920.219 290.017 920.283 289.51 920.087 289.121C919.899 288.718 919.45 288.333 918.739 287.966C918.298 287.739 917.853 287.572 917.404 287.466C916.954 287.36 916.582 287.33 916.288 287.377C915.717 288.45 915.495 289.263 915.624 289.816C915.774 290.361 916.255 290.843 917.065 291.262Z" fill="white"/>
<path d="M904.495 275.633L906.015 272.881C906.675 272.843 907.459 272.947 908.365 273.192C909.272 273.437 910.194 273.818 911.133 274.336C912.632 275.164 913.667 276.119 914.238 277.203C914.824 278.294 914.73 279.54 913.956 280.94C913.345 282.047 912.595 282.793 911.706 283.179C910.838 283.559 909.624 283.638 908.065 283.417C906.555 283.205 905.47 283.135 904.808 283.208C904.168 283.275 903.759 283.47 903.581 283.792L910.43 287.574L908.956 290.242L898.998 284.743L900.297 282.39C900.692 281.676 901.147 281.132 901.664 280.759C902.195 280.394 902.877 280.168 903.711 280.08C904.546 279.993 905.619 280.019 906.931 280.159C907.915 280.263 908.716 280.285 909.334 280.225C909.974 280.158 910.411 279.896 910.645 279.44C910.925 278.9 910.926 278.417 910.65 277.99C910.396 277.558 909.919 277.148 909.218 276.761C908.546 276.39 907.794 276.13 906.962 275.981C906.138 275.818 905.379 275.737 904.684 275.737L904.495 275.633Z" fill="white"/>
<path d="M901.412 277.562C900.503 279.144 899.593 280.309 898.682 281.059C897.771 281.809 896.79 282.167 895.738 282.135C894.686 282.102 893.488 281.699 892.142 280.925C890.811 280.16 889.866 279.331 889.309 278.438C888.752 277.546 888.568 276.517 888.758 275.353C888.947 274.188 889.497 272.815 890.406 271.234C891.323 269.639 892.237 268.467 893.148 267.717C894.059 266.967 895.04 266.609 896.092 266.641C897.143 266.674 898.335 267.073 899.667 267.838C901.012 268.612 901.964 269.445 902.521 270.337C903.078 271.23 903.262 272.259 903.072 273.423C902.883 274.587 902.329 275.967 901.412 277.562ZM893.733 278.158C894.677 278.7 895.469 278.75 896.111 278.307C896.775 277.859 897.474 276.996 898.208 275.72C898.95 274.43 899.343 273.392 899.389 272.606C899.449 271.829 899.007 271.169 898.064 270.626C897.134 270.092 896.342 270.042 895.686 270.477C895.043 270.92 894.352 271.786 893.61 273.076C892.876 274.352 892.476 275.386 892.408 276.178C892.362 276.964 892.804 277.624 893.733 278.158Z" fill="white"/>
<path d="M881.796 262.485L883.388 259.774C884.049 259.754 884.83 259.879 885.73 260.147C886.63 260.416 887.542 260.822 888.466 261.365C889.942 262.232 890.952 263.214 891.495 264.312C892.051 265.418 891.924 266.661 891.114 268.041C890.474 269.131 889.704 269.857 888.805 270.22C887.927 270.576 886.712 270.623 885.159 270.361C883.656 270.109 882.572 270.011 881.909 270.066C881.267 270.116 880.853 270.3 880.667 270.617L887.413 274.579L885.87 277.208L876.06 271.447L877.421 269.129C877.835 268.425 878.304 267.894 878.831 267.535C879.371 267.184 880.059 266.976 880.895 266.91C881.732 266.845 882.804 266.899 884.111 267.074C885.092 267.204 885.893 267.248 886.512 267.203C887.154 267.153 887.598 266.904 887.843 266.454C888.137 265.922 888.152 265.439 887.887 265.005C887.644 264.565 887.178 264.143 886.488 263.738C885.826 263.349 885.081 263.069 884.253 262.899C883.434 262.714 882.677 262.613 881.982 262.595L881.796 262.485Z" fill="white"/>
<path d="M858.809 261.111L866.54 248.033L876.25 253.773L874.663 256.459L868.258 252.673L866.792 255.152L872.35 258.437L870.763 261.123L865.205 257.838L863.703 260.379L870.107 264.165L868.52 266.851L858.809 261.111Z" fill="white"/>
<path d="M847.947 254.742L855.625 241.633L865.358 247.334L863.781 250.026L857.361 246.266L855.906 248.751L861.477 252.014L859.9 254.706L854.329 251.443L852.837 253.991L859.257 257.751L857.68 260.443L847.947 254.742Z" fill="white"/>
<path d="M847.382 250.612L845.875 253.234C845.13 252.99 844.418 252.72 843.74 252.423C843.062 252.125 842.286 251.726 841.412 251.224C840.288 250.578 839.393 249.935 838.728 249.295C838.076 248.662 837.654 247.967 837.462 247.211C837.291 246.448 837.36 245.557 837.67 244.535C837.98 243.514 838.541 242.296 839.354 240.88C840.135 239.521 840.881 238.464 841.591 237.709C842.301 236.955 843.021 236.473 843.75 236.264C844.5 236.05 845.309 236.071 846.176 236.329C847.064 236.581 848.07 237.03 849.194 237.676C850.068 238.178 850.804 238.647 851.403 239.083C852.009 239.505 852.601 239.984 853.18 240.519L851.625 243.224L851.539 243.23C851.036 242.756 850.53 242.337 850.021 241.97C849.52 241.59 848.874 241.173 848.083 240.719C847.445 240.352 846.889 240.098 846.417 239.956C845.967 239.808 845.549 239.798 845.161 239.926C844.774 240.054 844.384 240.347 843.992 240.805C843.614 241.27 843.178 241.933 842.684 242.793C842.166 243.695 841.789 244.447 841.554 245.05C841.34 245.647 841.271 246.152 841.348 246.565C841.424 246.978 841.636 247.348 841.982 247.677C842.343 248.013 842.842 248.364 843.48 248.731C844.257 249.177 844.928 249.535 845.493 249.804C846.08 250.067 846.691 250.289 847.325 250.469L847.382 250.612Z" fill="white"/>
<path d="M833.548 246.472L830.201 244.59L837.645 231.347L840.992 233.228L833.548 246.472Z" fill="white"/>
<path d="M767.747 203.244C767.386 202.896 766.92 202.565 766.348 202.251C765.791 201.942 765.2 201.689 764.574 201.492C763.414 201.127 762.52 201.09 761.893 201.379C761.265 201.668 760.735 202.34 760.303 203.395L760.326 203.402C760.694 203.35 761.16 203.362 761.723 203.439C762.286 203.515 762.903 203.659 763.575 203.87C765.056 204.335 766.075 205.042 766.632 205.989C767.19 206.935 767.248 208.111 766.807 209.515C766.49 210.523 766.061 211.327 765.52 211.928C764.983 212.514 764.268 212.868 763.374 212.99C762.501 213.101 761.377 212.94 760.004 212.509C758.508 212.038 757.422 211.412 756.745 210.629C756.084 209.851 755.751 208.882 755.747 207.723C755.742 206.565 755.992 205.184 756.496 203.581C757.023 201.902 757.697 200.613 758.517 199.713C759.356 198.803 760.296 198.243 761.334 198.033C762.378 197.808 763.495 197.882 764.686 198.257C765.693 198.573 766.521 198.926 767.171 199.315C767.82 199.703 768.343 200.069 768.738 200.411L767.853 203.227L767.747 203.244ZM760.882 209.715C761.721 209.979 762.329 210.019 762.706 209.836C763.082 209.652 763.369 209.248 763.565 208.622C763.776 207.95 763.752 207.44 763.493 207.09C763.239 206.725 762.731 206.422 761.967 206.182C761.494 206.034 761.027 205.945 760.566 205.918C760.105 205.89 759.734 205.925 759.452 206.02C759.072 207.176 758.993 208.014 759.214 208.537C759.456 209.049 760.012 209.442 760.882 209.715Z" fill="white"/>
<path d="M745.094 197.46L745.821 194.401C746.447 194.188 747.23 194.078 748.169 194.071C749.108 194.064 750.099 194.184 751.142 194.432C752.808 194.828 754.061 195.471 754.902 196.361C755.758 197.256 756.002 198.481 755.632 200.038C755.339 201.267 754.817 202.187 754.063 202.798C753.329 203.396 752.181 203.798 750.619 204.002C749.108 204.202 748.044 204.426 747.426 204.674C746.827 204.91 746.485 205.207 746.4 205.565L754.012 207.374L753.307 210.339L742.239 207.71L742.861 205.094C743.049 204.301 743.343 203.655 743.74 203.157C744.154 202.664 744.751 202.263 745.531 201.955C746.311 201.647 747.352 201.384 748.654 201.167C749.63 201.004 750.407 200.811 750.987 200.587C751.586 200.351 751.936 199.982 752.039 199.48C752.164 198.885 752.037 198.419 751.656 198.082C751.295 197.733 750.725 197.466 749.947 197.281C749.2 197.103 748.406 197.054 747.564 197.134C746.727 197.198 745.973 197.324 745.304 197.51L745.094 197.46Z" fill="white"/>
<path d="M743.098 200.301C742.85 202.108 742.445 203.531 741.883 204.568C741.32 205.605 740.546 206.306 739.559 206.672C738.572 207.037 737.31 207.114 735.773 206.903C734.251 206.695 733.064 206.281 732.212 205.664C731.36 205.046 730.803 204.163 730.541 203.012C730.279 201.862 730.271 200.383 730.519 198.576C730.769 196.753 731.175 195.323 731.738 194.286C732.3 193.249 733.074 192.547 734.061 192.182C735.048 191.817 736.302 191.739 737.824 191.947C739.361 192.158 740.556 192.572 741.408 193.19C742.26 193.807 742.817 194.691 743.079 195.841C743.342 196.992 743.348 198.478 743.098 200.301ZM736.206 203.741C737.284 203.889 738.037 203.637 738.466 202.985C738.913 202.319 739.236 201.257 739.436 199.799C739.638 198.325 739.613 197.215 739.36 196.47C739.122 195.727 738.465 195.281 737.387 195.133C736.325 194.988 735.572 195.24 735.127 195.889C734.699 196.541 734.383 197.604 734.181 199.078C733.981 200.537 733.999 201.645 734.234 202.404C734.487 203.15 735.144 203.595 736.206 203.741Z" fill="white"/>
<path d="M718.187 195.172L718.217 192.029C718.78 191.682 719.519 191.401 720.433 191.186C721.347 190.97 722.34 190.868 723.412 190.878C725.124 190.894 726.489 191.243 727.506 191.925C728.54 192.607 729.049 193.748 729.034 195.347C729.022 196.611 728.716 197.625 728.117 198.387C727.534 199.133 726.503 199.78 725.026 200.326C723.597 200.856 722.609 201.311 722.061 201.69C721.53 202.053 721.262 202.418 721.259 202.786L729.082 202.86L729.053 205.908L717.678 205.8L717.703 203.112C717.711 202.296 717.854 201.602 718.131 201.028C718.425 200.455 718.918 199.932 719.61 199.458C720.303 198.985 721.259 198.498 722.48 197.997C723.396 197.622 724.111 197.261 724.627 196.914C725.158 196.551 725.418 196.113 725.407 195.601C725.397 194.993 725.169 194.567 724.723 194.323C724.294 194.062 723.679 193.929 722.879 193.921C722.111 193.914 721.326 194.042 720.523 194.307C719.721 194.555 719.014 194.844 718.403 195.175L718.187 195.172Z" fill="white"/>
<path d="M700.586 209.228L696.718 194.537L707.626 191.664L708.42 194.681L701.226 196.576L701.959 199.361L708.202 197.717L708.997 200.734L702.754 202.378L703.505 205.233L710.7 203.338L711.495 206.355L700.586 209.228Z" fill="white"/>
<path d="M690.701 214.137L683.814 200.596L693.868 195.482L695.283 198.263L688.651 201.636L689.957 204.203L695.711 201.276L697.126 204.057L691.371 206.984L692.709 209.615L699.341 206.242L700.755 209.023L690.701 214.137Z" fill="white"/>
<path d="M688.552 211.512L690.469 213.851C689.977 214.461 689.471 215.031 688.953 215.559C688.434 216.088 687.785 216.671 687.005 217.31C686.003 218.132 685.084 218.74 684.25 219.135C683.427 219.519 682.628 219.668 681.852 219.579C681.079 219.469 680.269 219.087 679.424 218.435C678.58 217.783 677.64 216.826 676.605 215.563C675.611 214.351 674.888 213.278 674.434 212.347C673.981 211.415 673.786 210.571 673.849 209.816C673.915 209.038 674.222 208.29 674.771 207.571C675.322 206.83 676.099 206.048 677.101 205.227C677.881 204.588 678.58 204.066 679.2 203.661C679.81 203.244 680.468 202.86 681.173 202.51L683.151 204.923L683.126 205.005C682.505 205.308 681.933 205.632 681.409 205.978C680.876 206.311 680.257 206.767 679.551 207.346C678.982 207.812 678.548 208.241 678.247 208.632C677.949 209 677.791 209.388 677.774 209.796C677.756 210.203 677.892 210.671 678.18 211.2C678.481 211.719 678.946 212.362 679.575 213.129C680.234 213.933 680.804 214.553 681.284 214.987C681.766 215.398 682.214 215.642 682.627 215.717C683.04 215.792 683.462 215.726 683.892 215.518C684.334 215.3 684.84 214.958 685.409 214.492C686.102 213.924 686.674 213.423 687.127 212.991C687.581 212.535 688.005 212.043 688.399 211.514L688.552 211.512Z" fill="white"/>
<path d="M680.743 222.319L678.175 225.174L666.882 215.011L669.451 212.157L680.743 222.319Z" fill="white"/>
<path d="M639.667 287.396C639.389 287.812 639.147 288.33 638.941 288.95C638.736 289.553 638.594 290.18 638.512 290.831C638.361 292.037 638.484 292.924 638.881 293.489C639.278 294.055 640.034 294.456 641.15 294.692L641.153 294.668C641.035 294.315 640.964 293.854 640.938 293.287C640.912 292.719 640.943 292.086 641.031 291.388C641.223 289.848 641.735 288.718 642.567 288C643.398 287.282 644.544 287.014 646.005 287.196C647.053 287.327 647.921 287.605 648.61 288.03C649.282 288.453 649.759 289.093 650.039 289.95C650.304 290.789 650.348 291.924 650.169 293.353C649.975 294.908 649.553 296.089 648.904 296.895C648.257 297.685 647.364 298.186 646.225 298.398C645.086 298.61 643.683 298.612 642.016 298.404C640.269 298.186 638.88 297.754 637.848 297.109C636.802 296.446 636.083 295.623 635.69 294.638C635.281 293.652 635.154 292.539 635.309 291.301C635.44 290.253 635.639 289.375 635.905 288.667C636.17 287.958 636.436 287.379 636.702 286.928L639.632 287.294L639.667 287.396ZM647.264 292.989C647.373 292.116 647.304 291.511 647.056 291.173C646.808 290.836 646.358 290.627 645.707 290.545C645.009 290.458 644.511 290.573 644.213 290.891C643.899 291.206 643.693 291.761 643.594 292.555C643.532 293.047 643.529 293.522 643.585 293.98C643.64 294.439 643.74 294.798 643.885 295.058C645.09 295.225 645.929 295.152 646.404 294.841C646.864 294.511 647.151 293.894 647.264 292.989Z" fill="white"/>
<path d="M638.787 310.243L635.643 310.278C635.285 309.722 634.988 308.99 634.754 308.08C634.519 307.171 634.396 306.18 634.384 305.108C634.365 303.396 634.685 302.025 635.345 300.993C636.005 299.946 637.135 299.413 638.735 299.394C639.999 299.38 641.019 299.664 641.793 300.248C642.552 300.815 643.219 301.832 643.796 303.297C644.356 304.715 644.831 305.693 645.222 306.233C645.595 306.757 645.966 307.017 646.334 307.012L646.245 299.189L649.293 299.154L649.423 310.53L646.735 310.56C645.919 310.569 645.221 310.441 644.642 310.176C644.063 309.894 643.53 309.413 643.042 308.73C642.554 308.048 642.047 307.101 641.521 305.891C641.127 304.984 640.751 304.276 640.393 303.768C640.019 303.244 639.576 302.993 639.064 303.015C638.457 303.038 638.035 303.275 637.8 303.725C637.549 304.16 637.428 304.778 637.438 305.578C637.446 306.346 637.591 307.128 637.872 307.925C638.137 308.722 638.441 309.422 638.784 310.027L638.787 310.243Z" fill="white"/>
<path d="M642.104 311.685C643.895 311.34 645.372 311.268 646.535 311.468C647.698 311.668 648.61 312.177 649.272 312.995C649.935 313.813 650.412 314.983 650.705 316.508C650.995 318.016 650.984 319.273 650.673 320.278C650.361 321.282 649.702 322.093 648.696 322.71C647.691 323.327 646.292 323.808 644.501 324.152C642.694 324.5 641.209 324.573 640.047 324.373C638.884 324.173 637.972 323.664 637.309 322.847C636.647 322.029 636.171 320.866 635.881 319.358C635.588 317.834 635.597 316.569 635.909 315.564C636.221 314.559 636.88 313.748 637.885 313.131C638.891 312.514 640.297 312.032 642.104 311.685ZM647.571 317.11C647.365 316.042 646.885 315.409 646.13 315.212C645.357 315.002 644.247 315.036 642.802 315.314C641.341 315.595 640.298 315.975 639.673 316.454C639.045 316.916 638.834 317.682 639.039 318.75C639.241 319.803 639.721 320.436 640.479 320.649C641.234 320.846 642.342 320.804 643.803 320.523C645.249 320.245 646.293 319.873 646.937 319.407C647.562 318.929 647.773 318.163 647.571 317.11Z" fill="white"/>
<path d="M646.267 336.54L643.386 337.799C642.839 337.426 642.281 336.867 641.71 336.121C641.14 335.375 640.64 334.511 640.211 333.529C639.526 331.96 639.286 330.572 639.492 329.364C639.691 328.142 640.524 327.211 641.99 326.57C643.148 326.064 644.198 325.929 645.139 326.164C646.058 326.391 647.07 327.066 648.172 328.191C649.241 329.278 650.06 329.994 650.629 330.339C651.178 330.675 651.621 330.77 651.958 330.623L648.826 323.453L651.619 322.233L656.173 332.657L653.71 333.733C652.962 334.06 652.27 334.214 651.633 334.195C650.99 334.162 650.311 333.926 649.596 333.488C648.88 333.05 648.045 332.376 647.089 331.467C646.372 330.785 645.75 330.28 645.222 329.951C644.673 329.615 644.168 329.556 643.705 329.776C643.154 330.034 642.859 330.416 642.818 330.923C642.756 331.421 642.886 332.037 643.206 332.77C643.513 333.474 643.952 334.138 644.521 334.762C645.076 335.393 645.629 335.919 646.181 336.342L646.267 336.54Z" fill="white"/>
<path d="M666.788 344.572L656.18 355.447L648.105 347.571L650.284 345.338L655.61 350.533L657.621 348.471L652.999 343.963L655.177 341.729L659.799 346.237L661.86 344.124L656.534 338.929L658.713 336.696L666.788 344.572Z" fill="white"/>
<path d="M676.073 349.945L668.561 363.15L658.756 357.572L660.299 354.86L666.766 358.539L668.19 356.036L662.579 352.843L664.121 350.131L669.733 353.324L671.193 350.758L664.726 347.079L666.269 344.367L676.073 349.945Z" fill="white"/>
<path d="M675.101 353.179L675.921 350.268C676.703 350.322 677.46 350.411 678.19 350.533C678.92 350.656 679.77 350.853 680.74 351.127C681.988 351.478 683.013 351.883 683.814 352.341C684.601 352.795 685.18 353.366 685.552 354.052C685.904 354.75 686.054 355.631 686.004 356.698C685.953 357.764 685.706 359.082 685.264 360.653C684.839 362.162 684.374 363.37 683.87 364.275C683.366 365.18 682.786 365.823 682.13 366.204C681.455 366.595 680.665 366.772 679.762 366.734C678.839 366.706 677.754 366.517 676.506 366.166C675.536 365.893 674.707 365.618 674.02 365.341C673.329 365.08 672.638 364.761 671.946 364.383L672.792 361.38L672.874 361.354C673.478 361.69 674.071 361.973 674.655 362.204C675.233 362.45 675.962 362.697 676.84 362.944C677.548 363.143 678.149 363.254 678.641 363.276C679.114 363.31 679.522 363.217 679.866 362.998C680.211 362.779 680.517 362.4 680.785 361.86C681.038 361.317 681.299 360.567 681.568 359.612C681.849 358.611 682.031 357.79 682.112 357.148C682.173 356.517 682.116 356.01 681.941 355.629C681.766 355.247 681.47 354.939 681.054 354.706C680.623 354.468 680.052 354.249 679.344 354.05C678.482 353.807 677.743 353.624 677.13 353.501C676.496 353.389 675.85 353.323 675.191 353.304L675.101 353.179Z" fill="white"/>
<path d="M688.524 353.358L692.346 353.726L690.889 368.848L687.067 368.48L688.524 353.358Z" fill="white"/>
<path d="M747.143 321.578C747.384 321.139 747.581 320.602 747.733 319.968C747.885 319.349 747.973 318.712 747.998 318.056C748.045 316.841 747.846 315.969 747.402 315.44C746.958 314.91 746.17 314.576 745.038 314.437L745.037 314.46C745.185 314.802 745.295 315.255 745.37 315.818C745.444 316.381 745.468 317.015 745.441 317.718C745.382 319.269 744.969 320.438 744.202 321.226C743.436 322.013 742.317 322.378 740.846 322.322C739.791 322.282 738.902 322.079 738.179 321.716C737.472 321.352 736.943 320.756 736.59 319.926C736.253 319.112 736.112 317.986 736.167 316.547C736.227 314.98 736.546 313.767 737.123 312.909C737.7 312.066 738.546 311.49 739.663 311.181C740.78 310.871 742.177 310.748 743.856 310.813C745.615 310.88 747.036 311.19 748.12 311.744C749.219 312.315 750.006 313.073 750.482 314.02C750.974 314.968 751.197 316.065 751.149 317.312C751.109 318.367 750.986 319.259 750.782 319.988C750.578 320.717 750.363 321.317 750.137 321.789L747.187 321.676L747.143 321.578ZM739.093 316.659C739.059 317.538 739.181 318.135 739.457 318.45C739.733 318.765 740.199 318.935 740.854 318.96C741.558 318.987 742.044 318.829 742.314 318.487C742.599 318.146 742.757 317.576 742.787 316.776C742.806 316.281 742.768 315.807 742.674 315.355C742.579 314.903 742.448 314.554 742.281 314.307C741.067 314.245 740.237 314.389 739.791 314.74C739.361 315.108 739.128 315.748 739.093 316.659Z" fill="white"/>
<path d="M745.285 298.51L748.387 298.001C748.825 298.497 749.229 299.176 749.597 300.04C749.966 300.904 750.237 301.865 750.41 302.923C750.687 304.612 750.577 306.016 750.08 307.136C749.585 308.271 748.548 308.968 746.969 309.226C745.722 309.431 744.671 309.303 743.818 308.843C742.982 308.397 742.169 307.492 741.378 306.13C740.611 304.813 739.994 303.917 739.527 303.442C739.078 302.981 738.673 302.78 738.309 302.84L739.576 310.56L736.568 311.054L734.727 299.828L737.379 299.393C738.185 299.261 738.894 299.282 739.506 299.457C740.121 299.648 740.721 300.044 741.306 300.646C741.891 301.247 742.534 302.106 743.237 303.223C743.763 304.061 744.241 304.704 744.672 305.153C745.12 305.614 745.596 305.795 746.098 305.697C746.696 305.583 747.077 305.285 747.241 304.804C747.424 304.336 747.45 303.708 747.321 302.918C747.197 302.161 746.936 301.409 746.538 300.663C746.156 299.915 745.75 299.269 745.32 298.723L745.285 298.51Z" fill="white"/>
<path d="M741.73 297.365C739.999 297.941 738.544 298.206 737.365 298.16C736.186 298.113 735.215 297.729 734.451 297.005C733.688 296.281 733.061 295.183 732.571 293.71C732.086 292.253 731.932 291.005 732.109 289.968C732.287 288.931 732.834 288.041 733.75 287.297C734.666 286.554 735.99 285.894 737.72 285.318C739.466 284.737 740.928 284.47 742.107 284.516C743.286 284.562 744.257 284.947 745.021 285.671C745.785 286.395 746.409 287.485 746.894 288.943C747.384 290.415 747.541 291.67 747.363 292.707C747.185 293.744 746.639 294.635 745.723 295.378C744.806 296.121 743.475 296.784 741.73 297.365ZM735.599 292.702C735.943 293.734 736.502 294.299 737.276 294.395C738.07 294.502 739.166 294.323 740.562 293.858C741.974 293.388 742.959 292.875 743.515 292.318C744.077 291.777 744.186 290.991 743.843 289.958C743.504 288.941 742.945 288.377 742.166 288.265C741.392 288.169 740.299 288.355 738.887 288.825C737.491 289.29 736.504 289.796 735.927 290.342C735.37 290.898 735.261 291.685 735.599 292.702Z" fill="white"/>
<path d="M735.467 272.903L738.308 271.556C738.866 271.911 739.441 272.453 740.034 273.181C740.627 273.909 741.154 274.758 741.613 275.726C742.346 277.273 742.629 278.653 742.461 279.866C742.299 281.094 741.495 282.05 740.05 282.736C738.907 283.278 737.863 283.445 736.915 283.24C735.989 283.041 734.957 282.397 733.821 281.307C732.719 280.253 731.878 279.563 731.298 279.236C730.739 278.917 730.294 278.836 729.961 278.993L733.313 286.063L730.559 287.369L725.685 277.09L728.114 275.938C728.851 275.589 729.539 275.413 730.176 275.412C730.819 275.426 731.506 275.64 732.234 276.056C732.962 276.472 733.819 277.12 734.802 277.999C735.54 278.659 736.177 279.145 736.715 279.456C737.274 279.776 737.781 279.819 738.237 279.585C738.779 279.31 739.063 278.919 739.088 278.411C739.134 277.911 738.986 277.3 738.643 276.577C738.314 275.883 737.855 275.233 737.267 274.626C736.693 274.013 736.123 273.504 735.559 273.098L735.467 272.903Z" fill="white"/>
<path d="M716.229 261.439L728.992 253.199L735.11 262.676L732.489 264.368L728.454 258.117L726.034 259.679L729.535 265.103L726.914 266.796L723.413 261.372L720.933 262.973L724.968 269.223L722.346 270.915L716.229 261.439Z" fill="white"/>
<path d="M708.686 251.033L720.938 242.05L727.608 251.147L725.091 252.992L720.692 246.992L718.37 248.695L722.187 253.901L719.671 255.746L715.854 250.539L713.473 252.285L717.872 258.285L715.356 260.13L708.686 251.033Z" fill="white"/>
<path d="M710.314 247.716L707.944 249.594C707.341 249.091 706.78 248.576 706.261 248.049C705.741 247.522 705.168 246.863 704.542 246.073C703.737 245.057 703.145 244.128 702.764 243.287C702.393 242.458 702.258 241.657 702.359 240.882C702.483 240.111 702.878 239.308 703.544 238.474C704.21 237.64 705.183 236.717 706.462 235.703C707.691 234.73 708.776 234.024 709.715 233.586C710.654 233.148 711.501 232.968 712.255 233.044C713.032 233.122 713.775 233.442 714.484 234.003C715.216 234.566 715.984 235.355 716.789 236.371C717.415 237.161 717.925 237.87 718.32 238.496C718.726 239.113 719.099 239.777 719.438 240.488L716.993 242.426L716.91 242.399C716.618 241.773 716.304 241.195 715.966 240.667C715.642 240.128 715.196 239.501 714.63 238.786C714.173 238.209 713.751 237.767 713.366 237.461C713.002 237.157 712.617 236.992 712.21 236.968C711.803 236.943 711.332 237.071 710.799 237.351C710.275 237.643 709.624 238.097 708.847 238.713C708.032 239.359 707.403 239.918 706.961 240.391C706.541 240.866 706.29 241.31 706.209 241.722C706.127 242.134 706.186 242.556 706.386 242.989C706.596 243.435 706.93 243.947 707.387 244.524C707.943 245.226 708.434 245.807 708.859 246.266C709.307 246.728 709.792 247.16 710.315 247.562L710.314 247.716Z" fill="white"/>
<path d="M699.164 238.988L696.692 236.049L708.319 226.271L710.791 229.21L699.164 238.988Z" fill="white"/>
<path d="M648.11 179.407C647.824 178.996 647.43 178.582 646.928 178.164C646.441 177.753 645.909 177.392 645.333 177.078C644.265 176.498 643.395 176.289 642.723 176.452C642.052 176.615 641.403 177.173 640.776 178.125L640.797 178.137C641.169 178.157 641.623 178.258 642.161 178.441C642.699 178.624 643.277 178.884 643.896 179.22C645.26 179.961 646.124 180.85 646.49 181.886C646.855 182.923 646.687 184.087 645.984 185.381C645.479 186.309 644.904 187.016 644.257 187.502C643.618 187.974 642.849 188.184 641.948 188.132C641.07 188.073 639.998 187.7 638.733 187.012C637.355 186.264 636.409 185.44 635.896 184.542C635.396 183.651 635.256 182.637 635.474 181.499C635.692 180.361 636.202 179.054 637.004 177.578C637.844 176.031 638.753 174.895 639.73 174.17C640.729 173.438 641.758 173.069 642.818 173.062C643.885 173.041 644.967 173.329 646.064 173.924C646.992 174.429 647.737 174.934 648.299 175.44C648.862 175.946 649.305 176.405 649.627 176.817L648.217 179.411L648.11 179.407ZM640.131 184.44C640.904 184.86 641.493 185.016 641.897 184.908C642.302 184.8 642.661 184.458 642.974 183.882C643.31 183.263 643.385 182.757 643.198 182.364C643.018 181.957 642.577 181.563 641.874 181.181C641.439 180.944 640.997 180.768 640.55 180.652C640.103 180.537 639.732 180.499 639.437 180.539C638.842 181.6 638.604 182.408 638.721 182.963C638.859 183.512 639.329 184.004 640.131 184.44Z" fill="white"/>
<path d="M626.886 169.548L628.139 166.664C628.793 166.565 629.583 166.594 630.508 166.752C631.434 166.91 632.388 167.203 633.372 167.63C634.942 168.312 636.063 169.166 636.734 170.19C637.42 171.221 637.444 172.47 636.806 173.938C636.302 175.097 635.626 175.911 634.777 176.379C633.949 176.839 632.748 177.033 631.175 176.96C629.652 176.891 628.565 176.924 627.913 177.06C627.282 177.187 626.893 177.419 626.747 177.756L633.922 180.875L632.707 183.67L622.274 179.136L623.345 176.671C623.671 175.923 624.073 175.338 624.552 174.919C625.045 174.505 625.704 174.215 626.526 174.049C627.348 173.883 628.419 173.808 629.738 173.823C630.728 173.834 631.527 173.781 632.137 173.662C632.768 173.535 633.178 173.233 633.368 172.757C633.595 172.193 633.552 171.712 633.236 171.313C632.942 170.906 632.428 170.543 631.695 170.224C630.99 169.918 630.217 169.731 629.375 169.661C628.539 169.577 627.775 169.568 627.084 169.634L626.886 169.548Z" fill="white"/>
<path d="M624.339 171.971C623.788 173.71 623.148 175.042 622.418 175.969C621.688 176.896 620.805 177.455 619.771 177.648C618.736 177.84 617.479 177.702 616 177.233C614.536 176.769 613.436 176.16 612.701 175.407C611.967 174.654 611.568 173.688 611.505 172.51C611.442 171.332 611.686 169.874 612.237 168.135C612.793 166.381 613.436 165.041 614.166 164.114C614.896 163.187 615.778 162.628 616.813 162.435C617.847 162.243 619.097 162.378 620.561 162.843C622.04 163.311 623.147 163.922 623.882 164.676C624.617 165.429 625.016 166.395 625.079 167.573C625.142 168.751 624.895 170.217 624.339 171.971ZM616.964 174.19C618.001 174.519 618.786 174.398 619.319 173.829C619.873 173.249 620.371 172.257 620.816 170.854C621.266 169.436 621.429 168.338 621.306 167.56C621.199 166.788 620.626 166.237 619.589 165.908C618.567 165.584 617.782 165.705 617.234 166.27C616.701 166.839 616.21 167.833 615.76 169.252C615.315 170.655 615.144 171.75 615.247 172.538C615.37 173.316 615.942 173.866 616.964 174.19Z" fill="white"/>
<path d="M601.462 162.641L602.078 159.558C602.696 159.323 603.475 159.185 604.413 159.144C605.351 159.103 606.346 159.187 607.397 159.398C609.076 159.733 610.351 160.331 611.224 161.19C612.112 162.053 612.399 163.269 612.085 164.838C611.838 166.078 611.348 167.016 610.617 167.653C609.905 168.277 608.772 168.72 607.219 168.981C605.716 169.235 604.66 169.497 604.051 169.767C603.462 170.024 603.131 170.333 603.058 170.694L610.731 172.228L610.133 175.217L598.978 172.987L599.505 170.351C599.665 169.551 599.935 168.895 600.314 168.384C600.709 167.875 601.291 167.453 602.06 167.117C602.829 166.781 603.86 166.482 605.152 166.218C606.122 166.02 606.892 165.799 607.463 165.554C608.053 165.297 608.391 164.915 608.475 164.41C608.579 163.811 608.434 163.35 608.042 163.026C607.669 162.691 607.09 162.444 606.305 162.288C605.552 162.137 604.757 162.117 603.919 162.227C603.084 162.321 602.336 162.473 601.674 162.683L601.462 162.641Z" fill="white"/>
<path d="M580.54 171.96L580.716 156.769L591.995 156.901L591.959 160.02L584.52 159.934L584.486 162.814L590.942 162.889L590.906 166.008L584.45 165.933L584.416 168.885L591.855 168.972L591.819 172.092L580.54 171.96Z" fill="white"/>
<path d="M569.117 173.147L567.401 158.052L578.609 156.778L578.961 159.878L571.569 160.719L571.894 163.58L578.309 162.851L578.661 165.951L572.246 166.68L572.58 169.613L579.972 168.773L580.325 171.873L569.117 173.147Z" fill="white"/>
<path d="M567.33 170.082L568.041 173.021C567.332 173.357 566.629 173.651 565.932 173.901C565.236 174.152 564.398 174.396 563.418 174.632C562.158 174.937 561.066 175.085 560.143 175.078C559.235 175.067 558.451 174.853 557.79 174.437C557.142 174.001 556.579 173.306 556.101 172.351C555.624 171.397 555.193 170.126 554.81 168.54C554.442 167.016 554.256 165.735 554.252 164.699C554.249 163.663 554.44 162.819 554.825 162.166C555.223 161.494 555.824 160.953 556.631 160.544C557.449 160.116 558.488 159.75 559.748 159.445C560.728 159.209 561.585 159.043 562.319 158.948C563.049 158.837 563.809 158.777 564.596 158.768L565.329 161.8L565.271 161.864C564.58 161.866 563.924 161.91 563.302 161.994C562.677 162.063 561.921 162.204 561.034 162.419C560.319 162.591 559.741 162.789 559.301 163.01C558.872 163.213 558.562 163.493 558.369 163.853C558.176 164.212 558.094 164.693 558.124 165.294C558.17 165.892 558.31 166.674 558.543 167.638C558.787 168.649 559.031 169.454 559.274 170.053C559.53 170.634 559.827 171.047 560.167 171.295C560.506 171.542 560.915 171.665 561.392 171.665C561.885 171.661 562.489 171.573 563.205 171.4C564.076 171.19 564.809 170.988 565.404 170.795C566.011 170.582 566.607 170.323 567.191 170.017L567.33 170.082Z" fill="white"/>
<path d="M555.109 176.518L551.477 177.764L546.545 163.395L550.177 162.149L555.109 176.518Z" fill="white"/>
<path d="M487.457 212.827C487.009 213.05 486.541 213.378 486.054 213.813C485.576 214.234 485.14 214.707 484.746 215.231C484.014 216.202 483.68 217.032 483.743 217.72C483.805 218.408 484.261 219.133 485.111 219.893L485.126 219.873C485.2 219.509 485.367 219.074 485.627 218.569C485.887 218.064 486.229 217.53 486.653 216.967C487.586 215.728 488.593 215.003 489.671 214.794C490.75 214.585 491.877 214.923 493.053 215.808C493.897 216.444 494.512 217.117 494.898 217.828C495.271 218.529 495.365 219.322 495.181 220.204C494.994 221.065 494.467 222.07 493.601 223.221C492.658 224.473 491.704 225.287 490.74 225.663C489.786 226.026 488.762 226.016 487.668 225.633C486.575 225.251 485.357 224.554 484.015 223.543C482.609 222.485 481.619 221.419 481.045 220.346C480.468 219.25 480.254 218.178 480.403 217.128C480.539 216.069 480.983 215.041 481.734 214.044C482.369 213.201 482.978 212.538 483.561 212.056C484.145 211.574 484.664 211.204 485.119 210.945L487.477 212.721L487.457 212.827ZM491.262 221.459C491.791 220.756 492.032 220.197 491.985 219.781C491.938 219.365 491.652 218.959 491.128 218.565C490.566 218.141 490.076 217.993 489.66 218.12C489.231 218.238 488.776 218.616 488.295 219.255C487.996 219.652 487.757 220.062 487.577 220.488C487.397 220.913 487.305 221.274 487.302 221.572C488.263 222.316 489.028 222.671 489.594 222.637C490.157 222.581 490.713 222.188 491.262 221.459Z" fill="white"/>
<path d="M474.618 231.902L471.982 230.188C471.993 229.526 472.153 228.752 472.462 227.866C472.772 226.979 473.219 226.086 473.804 225.188C474.737 223.753 475.765 222.789 476.887 222.298C478.017 221.792 479.253 221.976 480.594 222.849C481.654 223.538 482.344 224.34 482.665 225.255C482.981 226.148 482.972 227.364 482.639 228.903C482.318 230.394 482.171 231.472 482.196 232.137C482.216 232.78 482.381 233.202 482.689 233.403L486.956 226.845L489.511 228.507L483.307 238.042L481.054 236.576C480.37 236.131 479.861 235.638 479.526 235.096C479.2 234.54 479.024 233.843 478.997 233.005C478.97 232.166 479.073 231.098 479.307 229.799C479.483 228.826 479.562 228.028 479.547 227.407C479.526 226.764 479.297 226.309 478.859 226.043C478.341 225.725 477.859 225.688 477.413 225.933C476.963 226.155 476.52 226.602 476.084 227.273C475.665 227.916 475.351 228.648 475.143 229.467C474.921 230.277 474.785 231.028 474.735 231.721L474.618 231.902Z" fill="white"/>
<path d="M476.394 235.121C477.987 236.009 479.165 236.904 479.926 237.805C480.688 238.706 481.059 239.683 481.04 240.735C481.022 241.787 480.634 242.991 479.879 244.346C479.13 245.688 478.314 246.643 477.429 247.212C476.544 247.781 475.518 247.978 474.351 247.804C473.184 247.629 471.804 247.098 470.211 246.21C468.604 245.313 467.42 244.415 466.658 243.514C465.896 242.613 465.525 241.636 465.544 240.584C465.562 239.532 465.946 238.335 466.694 236.994C467.45 235.638 468.27 234.676 469.155 234.107C470.041 233.538 471.067 233.341 472.233 233.515C473.4 233.69 474.787 234.225 476.394 235.121ZM477.091 242.791C477.621 241.841 477.66 241.048 477.209 240.412C476.751 239.753 475.88 239.066 474.594 238.349C473.295 237.624 472.252 237.244 471.465 237.209C470.687 237.159 470.033 237.61 469.503 238.56C468.981 239.496 468.941 240.29 469.385 240.94C469.836 241.576 470.711 242.257 472.011 242.982C473.297 243.698 474.336 244.085 475.128 244.143C475.914 244.178 476.569 243.728 477.091 242.791Z" fill="white"/>
<path d="M462.044 255.837L459.204 254.488C459.127 253.831 459.182 253.042 459.372 252.123C459.561 251.203 459.885 250.259 460.346 249.291C461.081 247.744 461.971 246.653 463.018 246.017C464.071 245.366 465.32 245.384 466.765 246.071C467.907 246.613 468.698 247.317 469.137 248.181C469.569 249.024 469.722 250.231 469.596 251.801C469.476 253.32 469.473 254.408 469.586 255.064C469.691 255.699 469.911 256.095 470.243 256.253L473.602 249.187L476.354 250.496L471.471 260.77L469.043 259.616C468.306 259.266 467.736 258.844 467.333 258.351C466.936 257.844 466.669 257.176 466.53 256.349C466.392 255.522 466.353 254.449 466.413 253.131C466.457 252.142 466.43 251.341 466.332 250.728C466.227 250.093 465.939 249.673 465.47 249.467C464.914 249.221 464.431 249.248 464.022 249.55C463.606 249.83 463.226 250.332 462.882 251.054C462.552 251.748 462.339 252.514 462.241 253.354C462.129 254.186 462.094 254.949 462.136 255.642L462.044 255.837Z" fill="white"/>
<path d="M464.57 278.233L450.305 273.007L454.185 262.415L457.115 263.489L454.555 270.475L457.26 271.465L459.481 265.403L462.41 266.477L460.189 272.539L462.961 273.554L465.521 266.568L468.45 267.641L464.57 278.233Z" fill="white"/>
<path d="M460.841 290.388L446.293 286.013L449.542 275.211L452.53 276.109L450.387 283.234L453.145 284.064L455.004 277.881L457.992 278.78L456.132 284.962L458.959 285.813L461.102 278.688L464.09 279.587L460.841 290.388Z" fill="white"/>
<path d="M457.214 291.128L460.156 291.828C460.133 292.612 460.076 293.371 459.983 294.106C459.891 294.841 459.728 295.698 459.494 296.679C459.194 297.939 458.831 298.98 458.406 299.799C457.984 300.604 457.438 301.205 456.767 301.605C456.084 301.985 455.209 302.172 454.142 302.164C453.075 302.157 451.747 301.964 450.16 301.586C448.634 301.223 447.409 300.808 446.484 300.341C445.559 299.874 444.893 299.321 444.486 298.681C444.068 298.022 443.859 297.241 443.86 296.336C443.85 295.413 443.995 294.321 444.295 293.06C444.529 292.079 444.769 291.24 445.018 290.543C445.25 289.842 445.541 289.138 445.89 288.432L448.926 289.154L448.956 289.235C448.644 289.852 448.385 290.457 448.178 291.049C447.956 291.637 447.739 292.375 447.528 293.262C447.358 293.978 447.271 294.583 447.269 295.076C447.255 295.549 447.364 295.954 447.597 296.289C447.83 296.624 448.221 296.914 448.771 297.16C449.325 297.391 450.084 297.621 451.049 297.851C452.061 298.091 452.889 298.239 453.534 298.294C454.167 298.33 454.671 298.252 455.045 298.062C455.419 297.871 455.715 297.563 455.931 297.138C456.151 296.697 456.346 296.118 456.517 295.402C456.724 294.531 456.877 293.786 456.975 293.168C457.061 292.53 457.1 291.882 457.093 291.222L457.214 291.128Z" fill="white"/>
<path d="M457.261 305.364L456.537 309.135L441.618 306.268L442.343 302.497L457.261 305.364Z" fill="white"/>
<path d="M444.629 382.591C444.488 383.072 444.411 383.639 444.398 384.291C444.383 384.928 444.433 385.569 444.549 386.215C444.765 387.412 445.146 388.221 445.693 388.643C446.24 389.065 447.082 389.222 448.217 389.115L448.212 389.092C447.996 388.79 447.79 388.371 447.597 387.837C447.403 387.303 447.244 386.689 447.119 385.997C446.845 384.469 446.997 383.239 447.577 382.305C448.157 381.372 449.171 380.775 450.62 380.514C451.659 380.327 452.571 380.334 453.355 380.534C454.123 380.738 454.768 381.207 455.291 381.942C455.794 382.664 456.174 383.734 456.429 385.151C456.706 386.695 456.655 387.947 456.276 388.91C455.893 389.856 455.19 390.601 454.165 391.143C453.141 391.684 451.802 392.104 450.149 392.401C448.417 392.713 446.962 392.714 445.785 392.406C444.589 392.085 443.657 391.512 442.989 390.69C442.305 389.87 441.852 388.846 441.632 387.617C441.445 386.578 441.373 385.681 441.416 384.925C441.459 384.17 441.54 383.537 441.66 383.028L444.565 382.506L444.629 382.591ZM453.547 385.67C453.391 384.803 453.145 384.246 452.807 383.998C452.47 383.75 451.979 383.684 451.333 383.8C450.64 383.925 450.199 384.183 450.009 384.575C449.804 384.969 449.772 385.56 449.914 386.347C450.001 386.836 450.14 387.29 450.33 387.711C450.519 388.132 450.722 388.446 450.937 388.651C452.137 388.451 452.917 388.132 453.277 387.693C453.618 387.242 453.708 386.567 453.547 385.67Z" fill="white"/>
<path d="M449.814 405.019L446.759 405.763C446.285 405.302 445.831 404.655 445.397 403.822C444.964 402.989 444.62 402.052 444.366 401.01C443.961 399.347 443.964 397.938 444.374 396.784C444.781 395.615 445.761 394.841 447.316 394.462C448.544 394.163 449.601 394.21 450.487 394.603C451.354 394.985 452.234 395.824 453.127 397.122C453.992 398.376 454.676 399.223 455.178 399.66C455.661 400.086 456.081 400.255 456.438 400.168L454.586 392.567L457.547 391.845L460.24 402.898L457.629 403.534C456.836 403.727 456.128 403.76 455.504 403.632C454.876 403.489 454.247 403.14 453.618 402.585C452.989 402.03 452.282 401.222 451.496 400.162C450.907 399.367 450.381 398.762 449.918 398.348C449.435 397.922 448.947 397.778 448.454 397.915C447.867 398.074 447.51 398.4 447.383 398.892C447.236 399.372 447.258 400.001 447.447 400.778C447.629 401.525 447.947 402.254 448.4 402.967C448.838 403.684 449.293 404.297 449.763 404.809L449.814 405.019Z" fill="white"/>
<path d="M453.371 405.923C455.111 405.376 456.57 405.135 457.748 405.201C458.926 405.267 459.891 405.668 460.642 406.404C461.394 407.141 462.002 408.249 462.468 409.73C462.928 411.195 463.061 412.445 462.866 413.479C462.671 414.513 462.11 415.394 461.181 416.122C460.253 416.85 458.919 417.487 457.178 418.034C455.423 418.586 453.957 418.829 452.779 418.763C451.601 418.697 450.636 418.296 449.884 417.56C449.133 416.823 448.527 415.722 448.066 414.257C447.601 412.776 447.466 411.519 447.661 410.485C447.855 409.451 448.417 408.57 449.346 407.842C450.274 407.114 451.616 406.474 453.371 405.923ZM459.423 410.687C459.096 409.649 458.547 409.076 457.775 408.966C456.982 408.846 455.884 409.007 454.48 409.448C453.06 409.895 452.067 410.391 451.501 410.938C450.93 411.47 450.808 412.255 451.134 413.293C451.456 414.315 452.005 414.889 452.782 415.014C453.555 415.123 454.651 414.955 456.07 414.508C457.474 414.067 458.47 413.578 459.056 413.042C459.622 412.495 459.744 411.71 459.423 410.687Z" fill="white"/>
<path d="M458.561 430.53L455.631 431.67C455.1 431.276 454.565 430.695 454.025 429.926C453.485 429.157 453.021 428.274 452.632 427.275C452.011 425.679 451.828 424.283 452.083 423.084C452.332 421.872 453.202 420.975 454.693 420.394C455.871 419.936 456.925 419.843 457.855 420.116C458.765 420.38 459.748 421.096 460.804 422.265C461.827 423.395 462.616 424.143 463.172 424.511C463.706 424.869 464.145 424.982 464.488 424.848L461.649 417.557L464.49 416.452L468.617 427.053L466.112 428.028C465.351 428.324 464.653 428.45 464.018 428.405C463.377 428.346 462.708 428.082 462.011 427.615C461.314 427.148 460.506 426.441 459.588 425.494C458.899 424.783 458.298 424.253 457.784 423.904C457.25 423.545 456.747 423.466 456.276 423.667C455.715 423.903 455.404 424.273 455.343 424.777C455.261 425.273 455.365 425.893 455.655 426.638C455.934 427.354 456.345 428.035 456.889 428.682C457.418 429.335 457.949 429.884 458.483 430.328L458.561 430.53Z" fill="white"/>
<path d="M476.891 444.478L463.331 451.328L458.245 441.259L461.03 439.853L464.385 446.494L466.955 445.195L464.044 439.433L466.829 438.026L469.74 443.788L472.375 442.457L469.021 435.817L471.805 434.41L476.891 444.478Z" fill="white"/>
<path d="M482.753 454.78L469.591 462.366L463.958 452.593L466.661 451.035L470.376 457.481L472.871 456.043L469.647 450.45L472.35 448.891L475.574 454.485L478.132 453.011L474.417 446.565L477.12 445.007L482.753 454.78Z" fill="white"/>
<path d="M480.755 457.862L483.3 456.229C483.849 456.789 484.356 457.356 484.821 457.933C485.286 458.509 485.791 459.221 486.336 460.069C487.036 461.16 487.534 462.143 487.829 463.018C488.116 463.879 488.171 464.69 487.994 465.45C487.794 466.206 487.322 466.965 486.576 467.729C485.831 468.493 484.771 469.316 483.398 470.198C482.078 471.045 480.93 471.64 479.952 471.982C478.974 472.325 478.113 472.421 477.37 472.27C476.605 472.115 475.897 471.724 475.247 471.095C474.574 470.462 473.888 469.601 473.188 468.51C472.643 467.662 472.206 466.906 471.876 466.244C471.532 465.59 471.227 464.892 470.96 464.151L473.585 462.465L473.665 462.5C473.893 463.152 474.149 463.758 474.432 464.317C474.702 464.886 475.083 465.554 475.576 466.321C475.973 466.94 476.349 467.422 476.703 467.765C477.034 468.104 477.401 468.305 477.804 468.37C478.207 468.435 478.687 468.354 479.246 468.129C479.796 467.89 480.489 467.502 481.323 466.966C482.198 466.404 482.879 465.91 483.366 465.484C483.831 465.052 484.124 464.636 484.246 464.234C484.369 463.832 484.352 463.406 484.195 462.955C484.03 462.49 483.749 461.948 483.351 461.329C482.867 460.575 482.436 459.949 482.059 459.449C481.659 458.945 481.219 458.467 480.739 458.015L480.755 457.862Z" fill="white"/>
<path d="M491.048 467.732L493.23 470.892L480.728 479.524L478.547 476.364L491.048 467.732Z" fill="white"/>
<path d="M533.011 535.541C533.153 536.021 533.397 536.538 533.741 537.093C534.074 537.636 534.465 538.147 534.914 538.625C535.745 539.513 536.505 539.985 537.194 540.041C537.883 540.097 538.674 539.772 539.569 539.065L539.552 539.048C539.206 538.912 538.806 538.673 538.353 538.33C537.9 537.987 537.433 537.558 536.952 537.045C535.891 535.912 535.35 534.796 535.329 533.698C535.308 532.599 535.835 531.547 536.909 530.54C537.679 529.818 538.448 529.328 539.215 529.07C539.97 528.823 540.767 528.866 541.605 529.199C542.42 529.531 543.32 530.222 544.305 531.273C545.377 532.417 546.016 533.497 546.22 534.511C546.414 535.513 546.228 536.52 545.663 537.532C545.099 538.544 544.203 539.624 542.977 540.772C541.693 541.976 540.473 542.768 539.317 543.149C538.139 543.53 537.046 543.556 536.037 543.229C535.018 542.913 534.081 542.3 533.228 541.389C532.506 540.618 531.957 539.904 531.583 539.247C531.208 538.59 530.932 538.015 530.756 537.522L532.91 535.504L533.011 535.541ZM542.168 533.275C541.567 532.633 541.057 532.299 540.639 532.274C540.221 532.25 539.772 532.461 539.294 532.91C538.78 533.391 538.55 533.848 538.604 534.28C538.646 534.723 538.941 535.236 539.488 535.82C539.827 536.182 540.19 536.488 540.578 536.738C540.966 536.988 541.307 537.141 541.599 537.196C542.498 536.376 542.979 535.684 543.042 535.12C543.083 534.556 542.792 533.941 542.168 533.275Z" fill="white"/>
<path d="M548.963 551.876L546.676 554.033C546.036 553.868 545.321 553.53 544.533 553.02C543.744 552.511 542.981 551.866 542.246 551.087C541.071 549.842 540.376 548.616 540.162 547.41C539.937 546.192 540.406 545.035 541.57 543.936C542.489 543.069 543.431 542.587 544.396 542.49C545.339 542.393 546.518 542.688 547.936 543.374C549.309 544.036 550.322 544.433 550.974 544.565C551.604 544.697 552.053 544.636 552.321 544.384L546.951 538.693L549.168 536.602L556.976 544.875L555.021 546.72C554.427 547.28 553.828 547.659 553.222 547.856C552.605 548.042 551.886 548.05 551.065 547.879C550.244 547.708 549.23 547.356 548.023 546.823C547.118 546.423 546.361 546.158 545.754 546.027C545.124 545.896 544.628 546.011 544.267 546.374C543.836 546.803 543.686 547.263 543.819 547.754C543.93 548.244 544.259 548.779 544.808 549.361C545.335 549.92 545.972 550.397 546.719 550.792C547.455 551.198 548.153 551.507 548.815 551.718L548.963 551.876Z" fill="white"/>
<path d="M552.408 550.877C553.737 549.628 554.946 548.777 556.036 548.324C557.125 547.871 558.168 547.813 559.165 548.149C560.162 548.486 561.192 549.219 562.255 550.35C563.307 551.47 563.97 552.537 564.244 553.553C564.518 554.569 564.396 555.606 563.876 556.666C563.357 557.725 562.432 558.879 561.103 560.128C559.763 561.389 558.548 562.245 557.458 562.698C556.369 563.151 555.326 563.209 554.329 562.873C553.332 562.536 552.307 561.809 551.255 560.689C550.192 559.558 549.524 558.485 549.25 557.469C548.976 556.453 549.098 555.416 549.618 554.356C550.137 553.297 551.067 552.138 552.408 550.877ZM559.929 552.536C559.184 551.744 558.44 551.466 557.697 551.703C556.931 551.94 556.012 552.562 554.939 553.57C553.855 554.59 553.177 555.468 552.905 556.207C552.622 556.934 552.854 557.694 553.599 558.487C554.333 559.268 555.077 559.546 555.831 559.32C556.574 559.083 557.488 558.454 558.572 557.435C559.645 556.427 560.328 555.554 560.623 554.816C560.895 554.077 560.663 553.318 559.929 552.536Z" fill="white"/>
<path d="M566.925 571.11L564.617 573.246C563.978 573.074 563.267 572.729 562.483 572.212C561.7 571.694 560.944 571.042 560.216 570.255C559.053 568.999 558.371 567.767 558.168 566.559C557.955 565.339 558.436 564.186 559.61 563.099C560.538 562.241 561.485 561.768 562.451 561.681C563.394 561.593 564.571 561.899 565.982 562.599C567.348 563.275 568.357 563.682 569.008 563.821C569.637 563.958 570.086 563.902 570.356 563.652L565.043 557.909L567.28 555.839L575.006 564.189L573.033 566.015C572.434 566.569 571.831 566.942 571.223 567.133C570.605 567.313 569.886 567.314 569.066 567.135C568.247 566.956 567.236 566.594 566.034 566.049C565.133 565.64 564.38 565.367 563.773 565.231C563.145 565.093 562.648 565.204 562.283 565.563C561.848 565.988 561.694 566.446 561.822 566.938C561.927 567.429 562.252 567.968 562.795 568.555C563.317 569.119 563.949 569.602 564.692 570.005C565.423 570.418 566.119 570.734 566.778 570.952L566.925 571.11Z" fill="white"/>
<path d="M588.281 579.261L576.879 589.301L569.424 580.835L571.766 578.773L576.683 584.357L578.844 582.454L574.578 577.609L576.919 575.547L581.186 580.392L583.401 578.441L578.484 572.857L580.826 570.795L588.281 579.261Z" fill="white"/>
<path d="M597.229 589.922L585.563 599.654L578.337 590.992L580.733 588.993L585.499 594.707L587.71 592.862L583.575 587.904L585.971 585.906L590.106 590.863L592.373 588.972L587.607 583.259L590.003 581.261L597.229 589.922Z" fill="white"/>
<path d="M595.692 593.214L598.08 591.358C598.678 591.867 599.234 592.387 599.749 592.919C600.264 593.451 600.83 594.115 601.449 594.91C602.244 595.934 602.829 596.868 603.202 597.713C603.565 598.545 603.692 599.347 603.584 600.121C603.453 600.891 603.051 601.69 602.377 602.518C601.704 603.346 600.722 604.26 599.434 605.262C598.196 606.224 597.105 606.92 596.162 607.349C595.219 607.778 594.371 607.951 593.617 607.868C592.841 607.783 592.101 607.456 591.397 606.889C590.67 606.319 589.909 605.522 589.114 604.499C588.495 603.703 587.991 602.99 587.603 602.36C587.202 601.74 586.835 601.072 586.502 600.358L588.966 598.443L589.048 598.471C589.334 599.099 589.643 599.68 589.976 600.212C590.295 600.753 590.735 601.384 591.295 602.104C591.747 602.685 592.164 603.131 592.547 603.441C592.908 603.749 593.291 603.917 593.698 603.945C594.105 603.973 594.577 603.85 595.113 603.575C595.639 603.287 596.294 602.839 597.077 602.23C597.898 601.592 598.532 601.038 598.978 600.57C599.402 600.098 599.657 599.657 599.743 599.246C599.829 598.835 599.773 598.412 599.577 597.977C599.371 597.529 599.042 597.015 598.59 596.434C598.04 595.726 597.555 595.141 597.134 594.678C596.691 594.212 596.209 593.775 595.69 593.368L595.692 593.214Z" fill="white"/>
<path d="M606.897 602.329L609.16 605.432L596.886 614.384L594.623 611.282L606.897 602.329Z" fill="white"/>
<path d="M630.257 678.374C630.085 678.844 629.972 679.405 629.916 680.055C629.859 680.689 629.868 681.333 629.942 681.984C630.079 683.193 630.406 684.025 630.925 684.482C631.444 684.938 632.273 685.15 633.412 685.118L633.41 685.094C633.213 684.778 633.035 684.347 632.877 683.802C632.718 683.256 632.6 682.633 632.52 681.934C632.346 680.392 632.578 679.174 633.218 678.28C633.857 677.386 634.908 676.857 636.371 676.691C637.42 676.572 638.329 676.638 639.099 676.889C639.852 677.142 640.465 677.653 640.938 678.42C641.394 679.174 641.703 680.266 641.865 681.697C642.042 683.255 641.909 684.502 641.468 685.437C641.024 686.357 640.274 687.054 639.216 687.528C638.159 688.002 636.796 688.333 635.126 688.522C633.378 688.72 631.926 688.627 630.771 688.243C629.599 687.844 628.706 687.213 628.093 686.348C627.464 685.485 627.079 684.434 626.939 683.194C626.82 682.145 626.807 681.244 626.899 680.493C626.991 679.742 627.113 679.116 627.266 678.616L630.199 678.284L630.257 678.374ZM638.956 682.026C638.857 681.152 638.647 680.58 638.327 680.31C638.006 680.04 637.52 679.943 636.868 680.016C636.169 680.096 635.712 680.324 635.497 680.703C635.266 681.083 635.196 681.671 635.286 682.466C635.342 682.959 635.45 683.422 635.612 683.854C635.774 684.287 635.956 684.612 636.158 684.831C637.368 684.71 638.167 684.442 638.554 684.028C638.925 683.6 639.058 682.932 638.956 682.026Z" fill="white"/>
<path d="M632.024 701.037L628.88 701.053C628.525 700.495 628.234 699.76 628.005 698.849C627.777 697.939 627.66 696.947 627.654 695.875C627.646 694.163 627.975 692.794 628.642 691.766C629.309 690.723 630.442 690.197 632.042 690.189C633.306 690.183 634.324 690.474 635.095 691.062C635.849 691.634 636.511 692.655 637.078 694.124C637.629 695.545 638.098 696.527 638.485 697.069C638.855 697.595 639.224 697.857 639.592 697.856L639.553 690.032L642.601 690.017L642.658 701.392L639.97 701.406C639.154 701.41 638.458 701.277 637.88 701.008C637.303 700.723 636.772 700.238 636.289 699.552C635.805 698.867 635.305 697.917 634.787 696.704C634.398 695.794 634.027 695.083 633.672 694.573C633.301 694.047 632.86 693.793 632.348 693.812C631.74 693.831 631.317 694.065 631.08 694.514C630.826 694.947 630.701 695.564 630.705 696.364C630.709 697.132 630.849 697.915 631.125 698.714C631.385 699.513 631.684 700.215 632.023 700.821L632.024 701.037Z" fill="white"/>
<path d="M635.028 703.865C636.841 704.066 638.273 704.433 639.325 704.968C640.377 705.502 641.098 706.258 641.489 707.235C641.881 708.212 641.991 709.471 641.821 711.014C641.652 712.541 641.27 713.738 640.676 714.606C640.081 715.474 639.212 716.054 638.069 716.347C636.926 716.639 635.448 716.685 633.635 716.485C631.806 716.283 630.366 715.915 629.314 715.38C628.262 714.845 627.541 714.09 627.15 713.113C626.759 712.136 626.647 710.884 626.816 709.357C626.986 707.815 627.369 706.609 627.964 705.742C628.558 704.874 629.427 704.293 630.57 704.001C631.713 703.709 633.199 703.664 635.028 703.865ZM638.648 710.664C638.767 709.582 638.496 708.836 637.833 708.425C637.156 707.996 636.086 707.701 634.623 707.539C633.144 707.376 632.035 707.43 631.296 707.703C630.56 707.96 630.132 708.629 630.012 709.71C629.895 710.776 630.167 711.522 630.828 711.949C631.491 712.361 632.561 712.648 634.041 712.811C635.504 712.973 636.611 712.926 637.364 712.671C638.102 712.398 638.53 711.729 638.648 710.664Z" fill="white"/>
<path d="M628.077 727.463L625.005 726.794C624.78 726.172 624.655 725.392 624.63 724.453C624.605 723.514 624.706 722.521 624.934 721.474C625.298 719.801 625.918 718.536 626.792 717.678C627.67 716.805 628.89 716.538 630.454 716.878C631.689 717.147 632.619 717.652 633.243 718.394C633.856 719.117 634.279 720.257 634.513 721.814C634.742 723.321 634.986 724.382 635.245 724.995C635.493 725.589 635.796 725.925 636.156 726.004L637.82 718.358L640.798 719.007L638.379 730.122L635.752 729.551C634.955 729.377 634.304 729.096 633.799 728.708C633.297 728.304 632.885 727.715 632.562 726.941C632.24 726.166 631.957 725.131 631.716 723.834C631.534 722.861 631.326 722.087 631.091 721.512C630.844 720.918 630.468 720.574 629.965 720.481C629.367 720.367 628.903 720.504 628.574 720.89C628.232 721.258 627.976 721.833 627.806 722.614C627.642 723.365 627.608 724.16 627.704 724.999C627.784 725.835 627.924 726.586 628.123 727.252L628.077 727.463Z" fill="white"/>
<path d="M631.566 750.439L617.285 745.258L621.132 734.654L624.065 735.718L621.527 742.712L624.235 743.694L626.437 737.626L629.37 738.69L627.168 744.759L629.943 745.765L632.48 738.772L635.413 739.836L631.566 750.439Z" fill="white"/>
<path d="M626.037 763.043L612.184 756.806L616.815 746.521L619.66 747.801L616.605 754.586L619.232 755.768L621.882 749.881L624.727 751.162L622.076 757.049L624.768 758.261L627.823 751.477L630.668 752.757L626.037 763.043Z" fill="white"/>
<path d="M621.807 764.238L624.479 765.655C624.26 766.409 624.014 767.129 623.74 767.817C623.466 768.504 623.092 769.294 622.62 770.184C622.013 771.329 621.4 772.245 620.783 772.932C620.173 773.604 619.493 774.049 618.743 774.268C617.987 774.464 617.093 774.425 616.062 774.15C615.031 773.875 613.794 773.355 612.352 772.59C610.967 771.855 609.885 771.146 609.107 770.462C608.329 769.777 607.824 769.075 607.59 768.353C607.35 767.61 607.345 766.801 607.573 765.926C607.795 765.03 608.21 764.009 608.817 762.864C609.289 761.974 609.733 761.222 610.149 760.609C610.55 759.989 611.008 759.381 611.524 758.785L614.28 760.247L614.289 760.333C613.832 760.851 613.43 761.371 613.081 761.893C612.718 762.407 612.323 763.066 611.895 763.872C611.551 764.522 611.315 765.086 611.189 765.562C611.057 766.017 611.061 766.436 611.202 766.819C611.343 767.201 611.649 767.581 612.12 767.957C612.598 768.319 613.275 768.733 614.151 769.198C615.07 769.685 615.835 770.036 616.445 770.251C617.049 770.444 617.556 770.496 617.966 770.405C618.376 770.315 618.739 770.091 619.056 769.734C619.38 769.362 619.714 768.851 620.059 768.201C620.478 767.409 620.813 766.727 621.063 766.153C621.307 765.558 621.507 764.94 621.666 764.299L621.807 764.238Z" fill="white"/>
<path d="M618.042 778.249L616.1 781.561L602.993 773.88L604.935 770.567L618.042 778.249Z" fill="white"/>
<path d="M562.065 834.684C561.596 834.86 561.097 835.14 560.569 835.523C560.051 835.894 559.569 836.32 559.123 836.801C558.297 837.693 557.88 838.485 557.873 839.176C557.866 839.867 558.246 840.633 559.014 841.476L559.031 841.458C559.142 841.103 559.352 840.687 559.662 840.211C559.972 839.735 560.366 839.238 560.845 838.722C561.899 837.583 562.973 836.964 564.068 836.865C565.162 836.767 566.25 837.217 567.33 838.217C568.105 838.935 568.648 839.667 568.96 840.413C569.26 841.149 569.273 841.947 569.001 842.806C568.727 843.643 568.101 844.59 567.123 845.647C566.058 846.798 565.027 847.511 564.03 847.787C563.044 848.051 562.026 847.938 560.977 847.446C559.927 846.954 558.786 846.138 557.554 844.996C556.262 843.801 555.385 842.64 554.923 841.514C554.46 840.366 554.356 839.277 554.61 838.249C554.854 837.209 555.399 836.231 556.247 835.315C556.964 834.541 557.638 833.943 558.267 833.522C558.896 833.102 559.45 832.786 559.929 832.575L562.095 834.581L562.065 834.684ZM564.975 843.658C565.573 843.012 565.869 842.48 565.864 842.061C565.859 841.642 565.616 841.21 565.135 840.764C564.618 840.286 564.147 840.089 563.72 840.174C563.281 840.247 562.79 840.577 562.246 841.164C561.909 841.528 561.63 841.913 561.408 842.318C561.185 842.722 561.057 843.073 561.023 843.368C561.905 844.206 562.629 844.637 563.196 844.66C563.762 844.661 564.355 844.327 564.975 843.658Z" fill="white"/>
<path d="M546.08 852.182L543.821 849.995C543.958 849.348 544.263 848.619 544.736 847.808C545.21 846.997 545.819 846.206 546.565 845.436C547.756 844.206 548.949 843.457 550.144 843.189C551.35 842.909 552.528 843.326 553.677 844.439C554.586 845.318 555.11 846.237 555.25 847.197C555.389 848.134 555.148 849.326 554.527 850.773C553.927 852.174 553.576 853.204 553.473 853.862C553.37 854.497 553.451 854.943 553.715 855.199L559.158 849.578L561.348 851.698L553.434 859.871L551.503 858.001C550.917 857.434 550.512 856.852 550.287 856.256C550.074 855.648 550.034 854.93 550.167 854.102C550.301 853.274 550.607 852.245 551.085 851.015C551.443 850.093 551.674 849.325 551.778 848.713C551.881 848.077 551.742 847.587 551.364 847.243C550.916 846.831 550.45 846.703 549.966 846.858C549.481 846.99 548.961 847.344 548.404 847.918C547.87 848.47 547.422 849.128 547.061 849.892C546.689 850.645 546.412 851.357 546.23 852.027L546.08 852.182Z" fill="white"/>
<path d="M546.97 855.823C548.253 857.119 549.136 858.305 549.617 859.382C550.098 860.459 550.184 861.501 549.873 862.506C549.563 863.512 548.857 864.56 547.754 865.653C546.663 866.733 545.613 867.424 544.604 867.725C543.596 868.025 542.556 867.93 541.483 867.438C540.411 866.946 539.233 866.053 537.949 864.757C536.654 863.449 535.766 862.257 535.285 861.18C534.804 860.103 534.718 859.062 535.029 858.056C535.339 857.051 536.04 856.008 537.131 854.927C538.234 853.835 539.289 853.138 540.298 852.838C541.306 852.537 542.346 852.632 543.419 853.124C544.491 853.616 545.675 854.515 546.97 855.823ZM545.508 863.385C546.281 862.619 546.539 861.868 546.282 861.131C546.026 860.372 545.38 859.469 544.344 858.424C543.297 857.366 542.4 856.711 541.655 856.459C540.921 856.195 540.167 856.446 539.394 857.212C538.632 857.966 538.374 858.717 538.62 859.465C538.876 860.202 539.528 861.099 540.575 862.156C541.611 863.202 542.502 863.862 543.247 864.137C543.993 864.39 544.746 864.139 545.508 863.385Z" fill="white"/>
<path d="M526.904 870.911L524.733 868.637C524.895 867.995 525.228 867.279 525.733 866.487C526.238 865.695 526.878 864.929 527.654 864.189C528.892 863.007 530.113 862.305 531.318 862.084C532.534 861.852 533.695 862.314 534.8 863.471C535.673 864.386 536.16 865.325 536.262 866.289C536.365 867.231 536.077 868.413 535.4 869.834C534.745 871.211 534.354 872.226 534.226 872.879C534.098 873.51 534.161 873.959 534.415 874.225L540.074 868.822L542.179 871.026L533.951 878.882L532.095 876.938C531.531 876.348 531.149 875.751 530.948 875.146C530.759 874.531 530.747 873.812 530.913 872.99C531.079 872.167 531.425 871.151 531.951 869.941C532.346 869.033 532.606 868.276 532.734 867.667C532.861 867.037 532.743 866.542 532.378 866.182C531.946 865.754 531.486 865.607 530.996 865.743C530.507 865.856 529.973 866.189 529.394 866.741C528.838 867.272 528.365 867.912 527.975 868.661C527.573 869.398 527.268 870.099 527.06 870.762L526.904 870.911Z" fill="white"/>
<path d="M519.977 891.578L509.745 880.349L518.083 872.752L520.184 875.058L514.685 880.069L516.624 882.198L521.396 877.849L523.498 880.156L518.726 884.504L520.714 886.686L526.213 881.675L528.315 883.981L519.977 891.578Z" fill="white"/>
<path d="M509.375 900.99L499.307 889.614L507.753 882.138L509.821 884.475L504.25 889.406L506.159 891.562L510.993 887.283L513.061 889.62L508.227 893.899L510.183 896.109L515.754 891.178L517.822 893.514L509.375 900.99Z" fill="white"/>
<path d="M505.977 899.605L507.951 901.896C507.473 902.519 506.982 903.101 506.476 903.642C505.971 904.183 505.337 904.782 504.573 905.44C503.591 906.286 502.688 906.917 501.863 907.332C501.05 907.737 500.255 907.904 499.477 907.835C498.701 907.743 497.883 907.382 497.022 906.751C496.161 906.12 495.198 905.186 494.133 903.949C493.109 902.762 492.36 901.708 491.883 900.787C491.407 899.867 491.192 899.028 491.237 898.272C491.283 897.492 491.572 896.737 492.103 896.005C492.635 895.25 493.393 894.45 494.374 893.604C495.138 892.946 495.825 892.407 496.434 891.987C497.034 891.555 497.682 891.155 498.379 890.787L500.415 893.151L500.392 893.234C499.778 893.552 499.214 893.89 498.7 894.249C498.175 894.595 497.567 895.066 496.876 895.662C496.319 896.142 495.894 896.581 495.604 896.98C495.315 897.355 495.167 897.747 495.159 898.155C495.152 898.563 495.299 899.027 495.6 899.549C495.914 900.06 496.395 900.691 497.042 901.443C497.721 902.231 498.306 902.836 498.796 903.258C499.288 903.658 499.742 903.89 500.157 903.955C500.572 904.02 500.991 903.943 501.416 903.725C501.853 903.496 502.35 903.142 502.908 902.662C503.586 902.077 504.146 901.562 504.588 901.119C505.031 900.653 505.443 900.15 505.823 899.611L505.977 899.605Z" fill="white"/>
<path d="M497.251 911.445L494.32 913.925L484.507 902.327L487.439 899.847L497.251 911.445Z" fill="white"/>
<path d="M428.398 952.352C427.905 952.442 427.364 952.627 426.776 952.909C426.2 953.181 425.649 953.514 425.125 953.908C424.152 954.638 423.6 955.342 423.469 956.02C423.338 956.699 423.575 957.521 424.18 958.487L424.199 958.473C424.372 958.143 424.654 957.772 425.044 957.359C425.434 956.946 425.911 956.529 426.474 956.106C427.715 955.175 428.883 954.758 429.978 954.857C431.072 954.956 432.061 955.594 432.944 956.772C433.578 957.616 433.982 958.434 434.155 959.224C434.318 960.002 434.189 960.789 433.766 961.586C433.347 962.36 432.562 963.18 431.41 964.044C430.156 964.985 429.014 965.502 427.983 965.595C426.966 965.679 425.985 965.385 425.041 964.713C424.097 964.041 423.12 963.033 422.112 961.69C421.056 960.282 420.401 958.983 420.148 957.792C419.898 956.58 419.991 955.49 420.426 954.524C420.851 953.544 421.563 952.68 422.561 951.931C423.406 951.297 424.175 950.83 424.869 950.529C425.564 950.228 426.165 950.017 426.674 949.895L428.446 952.256L428.398 952.352ZM429.653 961.702C430.357 961.174 430.744 960.703 430.814 960.291C430.884 959.878 430.723 959.409 430.329 958.884C429.906 958.321 429.478 958.043 429.042 958.049C428.598 958.043 428.055 958.28 427.415 958.76C427.019 959.058 426.675 959.386 426.384 959.744C426.093 960.103 425.904 960.425 425.817 960.709C426.535 961.692 427.17 962.245 427.723 962.37C428.28 962.472 428.923 962.249 429.653 961.702Z" fill="white"/>
<path d="M411.056 965.815L409.186 963.287C409.427 962.671 409.848 962.002 410.448 961.279C411.048 960.557 411.779 959.877 412.64 959.24C414.017 958.222 415.316 957.678 416.539 957.609C417.775 957.531 418.869 958.135 419.82 959.422C420.572 960.438 420.938 961.431 420.919 962.4C420.903 963.347 420.47 964.484 419.619 965.809C418.798 967.093 418.283 968.052 418.074 968.684C417.868 969.294 417.875 969.747 418.094 970.042L424.384 965.39L426.196 967.84L417.051 974.605L415.452 972.444C414.967 971.788 414.662 971.148 414.538 970.523C414.427 969.888 414.506 969.174 414.773 968.379C415.041 967.584 415.511 966.619 416.185 965.484C416.689 964.633 417.043 963.914 417.245 963.326C417.451 962.716 417.395 962.21 417.078 961.808C416.703 961.329 416.265 961.126 415.762 961.2C415.262 961.251 414.691 961.514 414.048 961.99C413.43 962.447 412.881 963.022 412.399 963.716C411.909 964.398 411.519 965.055 411.23 965.686L411.056 965.815Z" fill="white"/>
<path d="M410.733 970.009C411.808 971.483 412.502 972.788 412.816 973.925C413.13 975.063 413.058 976.105 412.601 977.052C412.143 978 411.287 978.931 410.033 979.845C408.792 980.75 407.65 981.275 406.608 981.421C405.566 981.567 404.551 981.316 403.565 980.669C402.579 980.022 401.548 978.961 400.474 977.487C399.39 976 398.691 974.688 398.377 973.551C398.063 972.414 398.134 971.372 398.592 970.424C399.05 969.477 399.899 968.551 401.141 967.646C402.395 966.732 403.543 966.202 404.585 966.056C405.627 965.91 406.641 966.161 407.628 966.808C408.614 967.455 409.649 968.522 410.733 970.009ZM408.153 977.265C409.032 976.625 409.4 975.921 409.257 975.154C409.117 974.365 408.614 973.375 407.747 972.186C406.87 970.983 406.082 970.201 405.383 969.84C404.697 969.469 403.914 969.604 403.035 970.245C402.169 970.876 401.801 971.58 401.931 972.356C402.074 973.123 402.584 974.108 403.46 975.31C404.327 976.5 405.109 977.286 405.804 977.67C406.504 978.032 407.286 977.897 408.153 977.265Z" fill="white"/>
<path d="M388.53 982.145L386.696 979.592C386.945 978.979 387.375 978.316 387.985 977.602C388.595 976.888 389.335 976.218 390.206 975.593C391.596 974.594 392.903 974.068 394.127 974.016C395.363 973.955 396.448 974.574 397.382 975.874C398.12 976.9 398.472 977.898 398.439 978.867C398.41 979.814 397.962 980.944 397.093 982.258C396.254 983.531 395.726 984.482 395.508 985.111C395.294 985.718 395.294 986.171 395.509 986.47L401.863 981.904L403.641 984.38L394.403 991.018L392.834 988.835C392.358 988.172 392.062 987.527 391.947 986.901C391.845 986.265 391.933 985.552 392.212 984.76C392.491 983.969 392.974 983.011 393.663 981.885C394.18 981.041 394.543 980.327 394.754 979.742C394.968 979.136 394.919 978.629 394.607 978.222C394.239 977.738 393.803 977.529 393.3 977.595C392.799 977.64 392.224 977.895 391.575 978.362C390.951 978.81 390.394 979.378 389.903 980.066C389.402 980.74 389.003 981.392 388.706 982.019L388.53 982.145Z" fill="white"/>
<path d="M378.879 1001.86L370.123 989.444L379.342 982.943L381.14 985.493L375.06 989.781L376.72 992.134L381.996 988.414L383.794 990.963L378.518 994.684L380.219 997.097L386.299 992.809L388.097 995.358L378.879 1001.86Z" fill="white"/>
<path d="M367.05 1010.11L358.368 997.641L367.625 991.195L369.408 993.755L363.302 998.007L364.948 1000.37L370.246 996.681L372.029 999.241L366.731 1002.93L368.418 1005.35L374.523 1001.1L376.306 1003.66L367.05 1010.11Z" fill="white"/>
<path d="M363.569 1008.52L365.284 1011.01C364.742 1011.58 364.19 1012.11 363.629 1012.59C363.068 1013.07 362.373 1013.6 361.542 1014.17C360.475 1014.9 359.508 1015.43 358.643 1015.76C357.791 1016.07 356.982 1016.15 356.217 1016C355.455 1015.82 354.681 1015.38 353.894 1014.66C353.106 1013.93 352.25 1012.9 351.325 1011.56C350.436 1010.27 349.805 1009.14 349.431 1008.17C349.057 1007.2 348.934 1006.35 349.06 1005.6C349.191 1004.83 349.56 1004.11 350.167 1003.44C350.778 1002.75 351.617 1002.03 352.685 1001.3C353.515 1000.73 354.256 1000.27 354.908 999.915C355.551 999.55 356.238 999.223 356.971 998.933L358.739 1001.5L358.707 1001.58C358.063 1001.83 357.466 1002.11 356.915 1002.41C356.356 1002.7 355.701 1003.1 354.949 1003.62C354.343 1004.03 353.874 1004.42 353.542 1004.79C353.214 1005.13 353.024 1005.5 352.973 1005.91C352.921 1006.31 353.017 1006.79 353.26 1007.34C353.516 1007.88 353.926 1008.56 354.488 1009.38C355.078 1010.24 355.594 1010.9 356.035 1011.38C356.481 1011.83 356.907 1012.11 357.313 1012.22C357.718 1012.32 358.144 1012.29 358.59 1012.12C359.048 1011.94 359.581 1011.64 360.187 1011.23C360.925 1010.72 361.538 1010.27 362.025 1009.88C362.516 1009.46 362.979 1009.01 363.416 1008.51L363.569 1008.52Z" fill="white"/>
<path d="M354.195 1018.96L351.024 1021.12L342.458 1008.58L345.63 1006.41L354.195 1018.96Z" fill="white"/>
</svg>
