<svg width="774" height="698" viewBox="0 0 774 698" fill="none" xmlns="http://www.w3.org/2000/svg">
<path d="M761.62 59.3934C512.118 172.394 428.12 649.398 599.12 544.398C768.786 440.217 120.906 35.7815 60.6198 235.898C24.6197 355.398 335.521 319.699 78.6205 633.397" stroke="#1B65FA" stroke-width="60"/>
<path d="M73.2126 619.952L75.6094 621.987C75.5153 622.641 75.2585 623.389 74.839 624.229C74.4196 625.069 73.8629 625.898 73.1691 626.715C72.0611 628.02 70.9196 628.846 69.7446 629.191C68.5593 629.549 67.3567 629.211 66.137 628.175C65.1734 627.357 64.5905 626.474 64.3881 625.525C64.1877 624.6 64.3503 623.394 64.8761 621.91C65.3829 620.472 65.6661 619.422 65.7254 618.759C65.7866 618.118 65.6769 617.678 65.3964 617.44L60.3327 623.405L58.0092 621.432L65.3716 612.76L67.4208 614.5C68.0428 615.028 68.4854 615.582 68.7484 616.162C69.0012 616.754 69.0878 617.468 69.0085 618.303C68.9291 619.138 68.6911 620.185 68.2944 621.443C67.9969 622.387 67.8167 623.168 67.7536 623.786C67.6925 624.427 67.8622 624.907 68.2629 625.226C68.7367 625.607 69.2101 625.705 69.683 625.519C70.1577 625.355 70.654 624.968 71.1717 624.358C71.6688 623.773 72.0725 623.087 72.3829 622.301C72.7055 621.526 72.9355 620.797 73.0728 620.117L73.2126 619.952Z" fill="white"/>
<path d="M71.8364 616.633C70.4365 615.463 69.4462 614.365 68.8655 613.338C68.2849 612.311 68.1016 611.283 68.3158 610.253C68.53 609.222 69.1345 608.112 70.1294 606.921C71.1141 605.742 72.0942 604.955 73.0697 604.561C74.0453 604.166 75.0901 604.163 76.2041 604.552C77.3181 604.94 78.5751 605.719 79.975 606.888C81.3872 608.068 82.3837 609.171 82.9643 610.198C83.545 611.225 83.7282 612.254 83.514 613.284C83.2998 614.314 82.7004 615.419 81.7158 616.598C80.7209 617.789 79.7357 618.581 78.7601 618.976C77.7845 619.37 76.7398 619.373 75.6258 618.985C74.5118 618.596 73.2486 617.812 71.8364 616.633ZM72.5793 608.967C71.8819 609.802 71.6956 610.574 72.0206 611.283C72.3475 612.015 73.0759 612.852 74.2057 613.796C75.3477 614.75 76.3018 615.317 77.0677 615.498C77.8234 615.692 78.55 615.371 79.2475 614.536C79.9347 613.713 80.1209 612.941 79.8062 612.22C79.4813 611.51 78.7478 610.679 77.6057 609.725C76.476 608.782 75.5271 608.208 74.7591 608.004C73.9931 607.823 73.2665 608.144 72.5793 608.967Z" fill="white"/>
<path d="M89.9113 599.75L92.3502 601.734C92.2698 602.391 92.0287 603.143 91.6269 603.992C91.2251 604.841 90.6859 605.681 90.0094 606.513C88.929 607.841 87.805 608.69 86.6375 609.06C85.4599 609.443 84.2505 609.129 83.0094 608.119C82.0289 607.322 81.4276 606.451 81.2054 605.507C80.9856 604.586 81.123 603.377 81.6176 601.882C82.0943 600.434 82.3553 599.378 82.4008 598.714C82.4485 598.072 82.3297 597.635 82.0442 597.403L77.1065 603.472L74.7422 601.548L81.9215 592.724L84.0066 594.42C84.6396 594.935 85.0937 595.48 85.3688 596.054C85.6339 596.641 85.7355 597.353 85.6736 598.19C85.6118 599.026 85.3957 600.078 85.0255 601.344C84.7478 602.294 84.5839 603.078 84.5338 603.698C84.486 604.34 84.6658 604.816 85.0731 605.126C85.5548 605.498 86.0301 605.585 86.499 605.389C86.9702 605.216 87.4583 604.819 87.9631 604.198C88.4478 603.602 88.8371 602.908 89.131 602.116C89.4373 601.334 89.652 600.601 89.775 599.918L89.9113 599.75Z" fill="white"/>
<path d="M93.9744 577.58L105.965 586.908L99.0393 595.812L96.5767 593.896L101.145 588.023L98.8718 586.255L94.9077 591.351L92.4451 589.435L96.4092 584.339L94.0792 582.527L89.5109 588.399L87.0483 586.483L93.9744 577.58Z" fill="white"/>
<path d="M102.143 566.747L114.289 575.873L107.513 584.891L105.018 583.017L109.488 577.069L107.185 575.339L103.307 580.5L100.813 578.626L104.691 573.464L102.331 571.691L97.8616 577.639L95.3673 575.765L102.143 566.747Z" fill="white"/>
<path d="M105.938 567.152L103.487 565.381C103.807 564.665 104.15 563.985 104.517 563.341C104.883 562.698 105.361 561.968 105.952 561.151C106.711 560.1 107.443 559.278 108.15 558.683C108.846 558.1 109.581 557.753 110.354 557.64C111.13 557.549 112.01 557.711 112.993 558.126C113.977 558.54 115.13 559.226 116.453 560.181C117.724 561.1 118.697 561.951 119.374 562.736C120.05 563.521 120.454 564.287 120.586 565.033C120.721 565.802 120.616 566.604 120.269 567.44C119.926 568.297 119.375 569.251 118.615 570.301C118.025 571.118 117.482 571.802 116.986 572.351C116.503 572.911 115.965 573.45 115.373 573.969L112.844 572.142L112.847 572.055C113.371 571.604 113.841 571.145 114.258 570.677C114.689 570.218 115.171 569.619 115.705 568.879C116.136 568.283 116.447 567.757 116.637 567.303C116.831 566.87 116.884 566.455 116.797 566.056C116.71 565.658 116.46 565.24 116.045 564.802C115.622 564.378 115.008 563.875 114.204 563.294C113.361 562.685 112.652 562.232 112.077 561.935C111.505 561.66 111.01 561.539 110.592 561.572C110.173 561.605 109.782 561.777 109.42 562.088C109.048 562.411 108.647 562.871 108.215 563.468C107.691 564.194 107.265 564.824 106.939 565.358C106.616 565.914 106.331 566.499 106.086 567.111L105.938 567.152Z" fill="white"/>
<path d="M111.295 554.099L113.498 550.953L125.943 559.666L123.74 562.812L111.295 554.099Z" fill="white"/>
<path d="M160.525 492.397C160.91 492.076 161.289 491.648 161.663 491.113C162.031 490.593 162.346 490.032 162.609 489.431C163.096 488.317 163.23 487.433 163.01 486.778C162.791 486.123 162.179 485.524 161.177 484.98L161.168 485.002C161.18 485.374 161.117 485.836 160.981 486.387C160.844 486.939 160.635 487.537 160.352 488.182C159.73 489.604 158.918 490.541 157.917 490.994C156.916 491.446 155.741 491.377 154.392 490.787C153.425 490.364 152.671 489.851 152.132 489.248C151.607 488.651 151.332 487.902 151.307 487.001C151.291 486.12 151.571 485.021 152.149 483.701C152.777 482.265 153.517 481.253 154.368 480.664C155.213 480.091 156.212 479.864 157.364 479.984C158.517 480.105 159.862 480.501 161.402 481.175C163.014 481.881 164.223 482.689 165.029 483.601C165.844 484.533 166.299 485.528 166.396 486.583C166.508 487.645 166.314 488.747 165.814 489.891C165.39 490.858 164.95 491.644 164.494 492.247C164.038 492.851 163.618 493.331 163.235 493.688L160.531 492.504L160.525 492.397ZM154.831 484.875C154.478 485.681 154.373 486.281 154.515 486.675C154.657 487.069 155.028 487.398 155.629 487.661C156.274 487.943 156.784 487.974 157.16 487.754C157.55 487.541 157.906 487.068 158.227 486.335C158.425 485.881 158.563 485.426 158.64 484.97C158.717 484.515 158.723 484.142 158.658 483.852C157.551 483.35 156.725 483.18 156.182 483.344C155.647 483.529 155.197 484.04 154.831 484.875Z" fill="white"/>
<path d="M169.084 470.206L172.025 471.318C172.156 471.966 172.165 472.756 172.052 473.689C171.939 474.621 171.693 475.589 171.314 476.591C170.709 478.193 169.911 479.353 168.92 480.073C167.923 480.809 166.677 480.893 165.18 480.327C163.998 479.88 163.152 479.244 162.643 478.419C162.144 477.614 161.892 476.424 161.889 474.849C161.884 473.325 161.798 472.24 161.631 471.596C161.474 470.972 161.223 470.595 160.879 470.464L158.111 477.783L155.26 476.705L159.284 466.064L161.798 467.015C162.561 467.303 163.164 467.677 163.607 468.135C164.044 468.608 164.365 469.251 164.571 470.064C164.776 470.878 164.904 471.944 164.952 473.262C164.989 474.251 165.081 475.047 165.23 475.65C165.387 476.274 165.708 476.67 166.193 476.836C166.767 477.036 167.246 476.969 167.629 476.635C168.021 476.321 168.358 475.79 168.641 475.042C168.913 474.323 169.063 473.542 169.092 472.697C169.135 471.859 169.107 471.095 169.008 470.408L169.084 470.206Z" fill="white"/>
<path d="M166.63 467.55C164.886 467.018 163.546 466.391 162.612 465.671C161.677 464.951 161.109 464.074 160.905 463.042C160.702 462.01 160.827 460.751 161.28 459.267C161.728 457.798 162.325 456.692 163.07 455.949C163.816 455.206 164.777 454.797 165.954 454.722C167.132 454.646 168.593 454.875 170.337 455.407C172.097 455.945 173.444 456.573 174.379 457.293C175.313 458.014 175.882 458.89 176.085 459.922C176.289 460.955 176.166 462.205 175.718 463.675C175.265 465.159 174.665 466.272 173.92 467.015C173.175 467.758 172.213 468.167 171.036 468.243C169.859 468.318 168.39 468.087 166.63 467.55ZM164.333 460.199C164.015 461.239 164.144 462.023 164.719 462.55C165.305 463.097 166.302 463.585 167.709 464.015C169.133 464.45 170.232 464.601 171.008 464.47C171.78 464.354 172.324 463.776 172.642 462.736C172.955 461.71 172.826 460.926 172.256 460.384C171.68 459.857 170.681 459.377 169.258 458.942C167.85 458.512 166.753 458.353 165.966 458.464C165.19 458.595 164.646 459.174 164.333 460.199Z" fill="white"/>
<path d="M176.067 444.807L179.133 445.5C179.353 446.124 179.472 446.906 179.489 447.844C179.506 448.783 179.397 449.776 179.16 450.821C178.783 452.491 178.153 453.751 177.272 454.602C176.387 455.468 175.164 455.725 173.604 455.372C172.371 455.093 171.445 454.58 170.827 453.833C170.22 453.106 169.806 451.962 169.585 450.403C169.368 448.894 169.133 447.832 168.878 447.217C168.636 446.62 168.335 446.282 167.976 446.201L166.25 453.832L163.277 453.16L165.786 442.064L168.408 442.657C169.204 442.837 169.853 443.123 170.355 443.515C170.853 443.923 171.26 444.516 171.577 445.292C171.893 446.069 172.167 447.107 172.398 448.406C172.572 449.381 172.774 450.156 173.004 450.733C173.246 451.329 173.619 451.676 174.122 451.773C174.719 451.892 175.183 451.759 175.516 451.375C175.861 451.01 176.122 450.438 176.298 449.657C176.468 448.908 176.508 448.114 176.419 447.273C176.346 446.437 176.213 445.685 176.019 445.017L176.067 444.807Z" fill="white"/>
<path d="M167.97 423.957L183.112 425.19L182.196 436.433L179.087 436.179L179.69 428.764L176.82 428.53L176.296 434.965L173.186 434.712L173.71 428.277L170.768 428.037L170.164 435.453L167.054 435.2L167.97 423.957Z" fill="white"/>
<path d="M167.682 411.437L182.866 410.959L183.222 422.233L180.103 422.332L179.869 414.895L176.99 414.986L177.194 421.439L174.075 421.537L173.872 415.084L170.921 415.177L171.156 422.613L168.037 422.712L167.682 411.437Z" fill="white"/>
<path d="M170.818 409.576L167.835 410.072C167.551 409.34 167.309 408.618 167.11 407.905C166.91 407.192 166.728 406.338 166.562 405.344C166.35 404.066 166.281 402.966 166.355 402.046C166.431 401.141 166.701 400.374 167.165 399.746C167.646 399.13 168.38 398.619 169.367 398.212C170.354 397.805 171.652 397.467 173.262 397.2C174.809 396.943 176.099 396.85 177.133 396.921C178.166 396.993 178.995 397.244 179.618 397.676C180.26 398.121 180.755 398.76 181.104 399.594C181.472 400.442 181.763 401.504 181.975 402.783C182.14 403.777 182.244 404.644 182.285 405.383C182.343 406.12 182.348 406.881 182.3 407.668L179.222 408.179L179.163 408.116C179.211 407.427 179.215 406.769 179.176 406.143C179.153 405.514 179.066 404.75 178.917 403.851C178.796 403.125 178.641 402.534 178.452 402.079C178.281 401.637 178.024 401.307 177.679 401.088C177.335 400.87 176.861 400.754 176.259 400.74C175.659 400.743 174.87 400.825 173.891 400.988C172.865 401.158 172.045 401.343 171.429 401.543C170.832 401.756 170.398 402.022 170.127 402.343C169.856 402.664 169.703 403.062 169.668 403.538C169.637 404.03 169.681 404.639 169.802 405.365C169.949 406.249 170.097 406.995 170.246 407.603C170.415 408.224 170.63 408.837 170.893 409.442L170.818 409.576Z" fill="white"/>
<path d="M165.412 397.448L164.392 393.746L179.037 389.709L180.058 393.411L165.412 397.448Z" fill="white"/>
<path d="M131.232 329.499C131.035 329.038 130.735 328.552 130.33 328.04C129.937 327.538 129.491 327.075 128.99 326.65C128.064 325.863 127.255 325.481 126.564 325.503C125.874 325.525 125.124 325.938 124.316 326.742L124.334 326.757C124.694 326.853 125.118 327.045 125.607 327.335C126.096 327.624 126.609 327.997 127.145 328.452C128.328 329.457 128.992 330.504 129.138 331.593C129.283 332.682 128.88 333.788 127.927 334.91C127.243 335.715 126.535 336.289 125.803 336.632C125.08 336.964 124.284 337.012 123.413 336.776C122.565 336.539 121.593 335.954 120.495 335.022C119.3 334.007 118.543 333.007 118.225 332.023C117.918 331.049 117.988 330.027 118.435 328.958C118.881 327.888 119.648 326.714 120.735 325.433C121.875 324.092 122.997 323.166 124.102 322.656C125.229 322.144 126.312 321.993 127.351 322.204C128.4 322.402 129.4 322.905 130.352 323.713C131.157 324.397 131.783 325.044 132.23 325.654C132.677 326.265 133.016 326.805 133.247 327.274L131.336 329.524L131.232 329.499ZM122.391 332.79C123.061 333.36 123.606 333.633 124.024 333.61C124.442 333.588 124.863 333.326 125.288 332.826C125.744 332.29 125.92 331.81 125.818 331.387C125.726 330.952 125.375 330.475 124.765 329.957C124.387 329.636 123.991 329.373 123.577 329.169C123.163 328.964 122.807 328.851 122.511 328.83C121.711 329.746 121.312 330.488 121.313 331.056C121.336 331.622 121.695 332.2 122.391 332.79Z" fill="white"/>
<path d="M113.242 315.152L115.219 312.707C115.875 312.785 116.629 313.024 117.479 313.423C118.329 313.822 119.171 314.359 120.004 315.033C121.336 316.109 122.188 317.231 122.562 318.397C122.948 319.574 122.638 320.784 121.632 322.028C120.838 323.011 119.969 323.615 119.025 323.84C118.105 324.063 116.896 323.929 115.399 323.439C113.95 322.967 112.893 322.709 112.228 322.665C111.587 322.62 111.15 322.74 110.918 323.026L117.003 327.945L115.086 330.315L106.24 323.163L107.93 321.073C108.443 320.438 108.986 319.982 109.56 319.705C110.146 319.439 110.858 319.335 111.694 319.394C112.531 319.453 113.583 319.666 114.851 320.033C115.802 320.307 116.587 320.469 117.206 320.517C117.848 320.563 118.324 320.382 118.633 319.974C119.003 319.491 119.089 319.015 118.892 318.547C118.717 318.076 118.318 317.589 117.696 317.086C117.099 316.603 116.404 316.216 115.611 315.925C114.828 315.621 114.094 315.408 113.41 315.287L113.242 315.152Z" fill="white"/>
<path d="M110.063 316.689C108.923 318.113 107.846 319.126 106.831 319.728C105.817 320.33 104.792 320.534 103.758 320.341C102.723 320.149 101.6 319.567 100.389 318.597C99.1895 317.637 98.3828 316.674 97.9684 315.706C97.5539 314.739 97.5293 313.695 97.8946 312.573C98.2598 311.451 99.0124 310.178 100.152 308.754C101.302 307.318 102.385 306.299 103.399 305.697C104.414 305.095 105.439 304.891 106.473 305.084C107.508 305.276 108.624 305.853 109.823 306.813C111.035 307.783 111.848 308.751 112.262 309.719C112.677 310.686 112.701 311.73 112.336 312.852C111.971 313.974 111.213 315.253 110.063 316.689ZM102.384 316.105C103.233 316.785 104.009 316.956 104.711 316.616C105.436 316.274 106.258 315.528 107.178 314.379C108.108 313.218 108.656 312.252 108.821 311.483C108.999 310.723 108.663 310.003 107.813 309.323C106.977 308.653 106.201 308.483 105.486 308.813C104.784 309.152 103.968 309.903 103.038 311.064C102.118 312.213 101.564 313.174 101.376 313.946C101.211 314.716 101.547 315.435 102.384 316.105Z" fill="white"/>
<path d="M92.8276 298.546L94.8356 296.127C95.4913 296.214 96.2416 296.462 97.0864 296.872C97.9312 297.282 98.7661 297.83 99.5909 298.514C100.908 299.608 101.746 300.74 102.105 301.911C102.476 303.093 102.151 304.299 101.129 305.53C100.321 306.503 99.4448 307.095 98.4988 307.308C97.5753 307.519 96.3684 307.37 94.878 306.86C93.4349 306.369 92.3814 306.098 91.7175 306.046C91.0762 305.992 90.638 306.107 90.403 306.39L96.4233 311.387L94.4766 313.732L85.7231 306.466L87.4399 304.398C87.9611 303.77 88.5103 303.322 89.0874 303.052C89.6769 302.793 90.3896 302.698 91.2256 302.768C92.0616 302.838 93.1109 303.065 94.3736 303.447C95.3206 303.734 96.1035 303.906 96.7223 303.962C97.3636 304.016 97.8416 303.841 98.1563 303.437C98.5323 302.959 98.6246 302.484 98.4331 302.014C98.2642 301.541 97.872 301.049 97.2564 300.538C96.6655 300.047 95.9753 299.651 95.186 299.35C94.407 299.036 93.6762 298.814 92.9938 298.684L92.8276 298.546Z" fill="white"/>
<path d="M70.5121 291.974L81.2065 281.184L89.2181 289.125L87.0218 291.341L81.7375 286.103L79.7102 288.149L84.2955 292.694L82.0992 294.91L77.5139 290.365L75.4358 292.462L80.7201 297.699L78.5237 299.915L70.5121 291.974Z" fill="white"/>
<path d="M61.579 281.268L73.3889 271.712L80.4844 280.481L78.059 282.443L73.379 276.66L71.1401 278.471L75.2012 283.49L72.7757 285.453L68.7147 280.434L66.4199 282.291L71.0999 288.074L68.6745 290.037L61.579 281.268Z" fill="white"/>
<path d="M62.4025 276.766L59.7642 278.244C59.2493 277.653 58.7771 277.055 58.3476 276.452C57.9181 275.849 57.457 275.108 56.9643 274.229C56.3309 273.098 55.893 272.087 55.6505 271.196C55.4158 270.319 55.4099 269.506 55.6325 268.757C55.877 268.015 56.3943 267.285 57.1843 266.568C57.9743 265.85 59.0812 265.092 60.505 264.295C61.873 263.528 63.0553 263.004 64.0521 262.72C65.0488 262.437 65.9134 262.393 66.6461 262.588C67.4005 262.789 68.0835 263.222 68.6951 263.888C69.3284 264.56 69.9618 265.462 70.5952 266.592C71.0878 267.472 71.4791 268.252 71.769 268.933C72.0729 269.607 72.3358 270.321 72.5576 271.078L69.8356 272.602L69.7585 272.563C69.5697 271.899 69.3507 271.279 69.1015 270.703C68.8664 270.119 68.5259 269.43 68.0802 268.634C67.7205 267.992 67.3745 267.489 67.0422 267.125C66.7316 266.767 66.3773 266.544 65.9791 266.455C65.581 266.366 65.0963 266.418 64.5251 266.609C63.9617 266.815 63.2472 267.16 62.3818 267.645C61.4745 268.153 60.7651 268.606 60.2536 269.002C59.764 269.405 59.446 269.803 59.2998 270.197C59.1536 270.59 59.145 271.017 59.274 271.477C59.4109 271.95 59.6592 272.508 60.0189 273.15C60.4568 273.932 60.8492 274.583 61.1961 275.104C61.5647 275.631 61.9752 276.135 62.4276 276.615L62.4025 276.766Z" fill="white"/>
<path d="M52.257 264.697L50.9666 261.08L65.2751 255.975L66.5655 259.592L52.257 264.697Z" fill="white"/>
<path d="M81.9197 192.301C82.4125 192.211 82.9532 192.026 83.542 191.744C84.118 191.472 84.6684 191.139 85.1932 190.746C86.1659 190.016 86.7179 189.312 86.8491 188.633C86.9802 187.955 86.7434 187.133 86.1385 186.166L86.1193 186.181C85.9465 186.51 85.665 186.882 85.2746 187.294C84.8842 187.707 84.4074 188.125 83.8443 188.547C82.6027 189.478 81.4347 189.895 80.3403 189.795C79.2459 189.696 78.2571 189.058 77.3738 187.88C76.7402 187.036 76.3369 186.218 76.1641 185.428C76.0008 184.65 76.1304 183.863 76.5527 183.066C76.9719 182.292 77.7575 181.472 78.9094 180.608C80.1638 179.667 81.3061 179.151 82.3365 179.058C83.3541 178.974 84.3349 179.269 85.279 179.941C86.223 180.613 87.1991 181.621 88.2071 182.965C89.2632 184.373 89.9177 185.672 90.1706 186.862C90.4202 188.075 90.3275 189.164 89.8923 190.131C89.4668 191.11 88.7548 191.974 87.7565 192.723C86.9117 193.357 86.1421 193.824 85.4478 194.125C84.7534 194.426 84.1518 194.637 83.643 194.758L81.8717 192.397L81.9197 192.301ZM80.6663 182.951C79.9624 183.479 79.5752 183.949 79.5048 184.362C79.4344 184.775 79.5961 185.243 79.9897 185.768C80.4121 186.331 80.8409 186.61 81.2761 186.603C81.7209 186.61 82.2633 186.373 82.9033 185.893C83.3001 185.595 83.6441 185.267 83.9353 184.909C84.2264 184.55 84.4152 184.229 84.5016 183.944C83.7847 182.962 83.1495 182.408 82.5959 182.283C82.0391 182.181 81.3959 182.403 80.6663 182.951Z" fill="white"/>
<path d="M100.962 179.903L102.398 182.7C102.06 183.268 101.537 183.861 100.828 184.477C100.119 185.092 99.2876 185.645 98.3339 186.134C96.8108 186.916 95.4404 187.242 94.2225 187.112C92.9904 186.989 92.009 186.216 91.2783 184.792C90.7011 183.668 90.5005 182.629 90.6764 181.675C90.8455 180.743 91.4569 179.692 92.5107 178.522C93.5291 177.387 94.1926 176.525 94.5012 175.935C94.8029 175.367 94.8697 174.919 94.7017 174.591L87.7411 178.164L86.3492 175.453L96.4698 170.258L97.6973 172.649C98.0699 173.375 98.2668 174.056 98.2878 174.693C98.2946 175.337 98.1016 176.029 97.7087 176.771C97.3159 177.512 96.6954 178.388 95.8474 179.399C95.2115 180.157 94.7461 180.809 94.4513 181.356C94.1497 181.925 94.1228 182.433 94.3709 182.881C94.6628 183.415 95.0628 183.686 95.5709 183.695C96.0722 183.725 96.6786 183.558 97.3904 183.193C98.0736 182.842 98.709 182.363 99.2965 181.756C99.8913 181.163 100.382 180.578 100.77 180.001L100.962 179.903Z" fill="white"/>
<path d="M102.212 175.997C101.651 174.261 101.398 172.804 101.454 171.626C101.51 170.448 101.904 169.48 102.634 168.722C103.365 167.965 104.468 167.347 105.945 166.87C107.406 166.397 108.655 166.254 109.691 166.441C110.726 166.627 111.612 167.182 112.347 168.104C113.083 169.027 113.731 170.356 114.292 172.091C114.858 173.842 115.113 175.307 115.057 176.485C115.001 177.664 114.607 178.631 113.877 179.389C113.146 180.146 112.05 180.761 110.589 181.234C109.112 181.711 107.856 181.857 106.82 181.67C105.785 181.484 104.899 180.929 104.164 180.007C103.428 179.084 102.778 177.748 102.212 175.997ZM106.927 169.907C105.892 170.242 105.322 170.796 105.219 171.569C105.106 172.362 105.276 173.459 105.728 174.86C106.186 176.276 106.691 177.265 107.242 177.826C107.779 178.393 108.564 178.509 109.6 178.174C110.62 177.844 111.189 177.29 111.307 176.512C111.41 175.739 111.233 174.644 110.775 173.228C110.322 171.828 109.825 170.837 109.284 170.255C108.733 169.693 107.947 169.577 106.927 169.907Z" fill="white"/>
<path d="M125.918 173.017L126.504 176.106C126.019 176.556 125.35 176.976 124.495 177.366C123.641 177.756 122.687 178.051 121.634 178.251C119.952 178.57 118.545 178.495 117.414 178.025C116.267 177.559 115.545 176.539 115.246 174.967C115.011 173.726 115.112 172.672 115.551 171.807C115.977 170.961 116.861 170.126 118.202 169.301C119.5 168.502 120.38 167.862 120.843 167.384C121.294 166.924 121.484 166.513 121.416 166.151L113.729 167.609L113.161 164.615L124.338 162.495L124.838 165.136C124.99 165.938 124.987 166.647 124.827 167.263C124.651 167.883 124.27 168.493 123.683 169.092C123.097 169.692 122.254 170.357 121.155 171.087C120.33 171.634 119.699 172.128 119.262 172.569C118.812 173.029 118.642 173.509 118.753 174.009C118.882 174.604 119.189 174.977 119.674 175.129C120.146 175.3 120.775 175.311 121.561 175.162C122.316 175.019 123.061 174.739 123.796 174.323C124.534 173.922 125.171 173.5 125.706 173.057L125.918 173.017Z" fill="white"/>
<path d="M145.76 160.966L146.414 176.144L135.144 176.629L135.01 173.512L142.443 173.192L142.319 170.315L135.869 170.592L135.735 167.475L142.185 167.198L142.058 164.248L134.625 164.568L134.491 161.451L145.76 160.966Z" fill="white"/>
<path d="M159.428 161.244L158.978 176.429L147.703 176.094L147.795 172.976L155.232 173.196L155.317 170.318L148.864 170.126L148.957 167.007L155.41 167.199L155.498 164.248L148.061 164.027L148.153 160.909L159.428 161.244Z" fill="white"/>
<path d="M161.347 164.615L161.618 161.603C162.397 161.512 163.157 161.46 163.897 161.447C164.637 161.433 165.51 161.471 166.514 161.561C167.804 161.677 168.886 161.887 169.758 162.19C170.615 162.492 171.289 162.946 171.78 163.553C172.255 164.174 172.565 165.013 172.711 166.07C172.856 167.128 172.856 168.469 172.71 170.095C172.57 171.656 172.335 172.928 172.006 173.911C171.676 174.893 171.224 175.632 170.65 176.126C170.058 176.635 169.314 176.954 168.419 177.082C167.507 177.225 166.405 177.239 165.114 177.123C164.11 177.032 163.245 176.914 162.52 176.769C161.792 176.639 161.054 176.452 160.305 176.208L160.584 173.101L160.66 173.059C161.315 173.279 161.951 173.448 162.566 173.568C163.181 173.704 163.942 173.812 164.85 173.894C165.583 173.96 166.194 173.958 166.682 173.89C167.153 173.836 167.537 173.67 167.835 173.391C168.133 173.113 168.365 172.684 168.529 172.104C168.678 171.523 168.797 170.739 168.886 169.751C168.979 168.715 169.006 167.874 168.968 167.228C168.912 166.596 168.763 166.109 168.521 165.766C168.279 165.423 167.932 165.175 167.479 165.022C167.011 164.867 166.411 164.757 165.678 164.691C164.785 164.611 164.026 164.567 163.401 164.559C162.757 164.565 162.11 164.619 161.458 164.721L161.347 164.615Z" fill="white"/>
<path d="M176.943 162.815L180.75 163.315L178.773 178.378L174.966 177.878L176.943 162.815Z" fill="white"/>
<path d="M251.098 192.053C251.446 192.413 251.902 192.759 252.463 193.091C253.01 193.419 253.592 193.691 254.211 193.908C255.359 194.311 256.251 194.378 256.888 194.109C257.524 193.841 258.076 193.187 258.543 192.147L258.52 192.139C258.15 192.178 257.685 192.151 257.125 192.056C256.564 191.961 255.952 191.797 255.288 191.564C253.823 191.051 252.828 190.311 252.302 189.347C251.775 188.382 251.756 187.205 252.243 185.816C252.592 184.82 253.048 184.03 253.608 183.447C254.164 182.879 254.89 182.548 255.787 182.456C256.664 182.374 257.781 182.571 259.14 183.047C260.62 183.566 261.685 184.228 262.335 185.033C262.97 185.832 263.271 186.811 263.238 187.969C263.205 189.128 262.91 190.499 262.354 192.085C261.771 193.746 261.056 195.012 260.207 195.884C259.338 196.766 258.381 197.295 257.336 197.471C256.285 197.662 255.171 197.551 253.994 197.138C252.997 196.789 252.181 196.409 251.545 195.999C250.908 195.59 250.398 195.207 250.014 194.852L250.991 192.066L251.098 192.053ZM258.171 185.81C257.341 185.519 256.734 185.459 256.352 185.63C255.97 185.801 255.67 186.196 255.453 186.815C255.22 187.48 255.227 187.991 255.475 188.349C255.717 188.722 256.215 189.041 256.97 189.306C257.438 189.47 257.902 189.574 258.362 189.616C258.822 189.659 259.194 189.637 259.479 189.55C259.896 188.408 260.003 187.572 259.799 187.043C259.574 186.523 259.032 186.112 258.171 185.81Z" fill="white"/>
<path d="M272.306 199.28L271.203 202.224C270.555 202.357 269.765 202.368 268.832 202.258C267.9 202.148 266.931 201.905 265.928 201.529C264.324 200.928 263.161 200.134 262.438 199.145C261.7 198.151 261.612 196.905 262.173 195.406C262.616 194.223 263.25 193.375 264.074 192.864C264.877 192.361 266.066 192.106 267.641 192.098C269.165 192.089 270.25 191.999 270.894 191.831C271.517 191.671 271.894 191.419 272.023 191.075L264.696 188.33L265.765 185.475L276.418 189.466L275.475 191.984C275.189 192.748 274.817 193.352 274.361 193.796C273.889 194.234 273.247 194.557 272.434 194.765C271.621 194.974 270.556 195.104 269.237 195.157C268.249 195.197 267.453 195.291 266.85 195.441C266.226 195.601 265.832 195.923 265.668 196.408C265.469 196.983 265.538 197.461 265.873 197.843C266.188 198.235 266.72 198.571 267.469 198.851C268.188 199.121 268.97 199.268 269.815 199.294C270.654 199.335 271.417 199.305 272.104 199.204L272.306 199.28Z" fill="white"/>
<path d="M275.784 197.208C276.461 195.514 277.197 194.232 277.992 193.361C278.788 192.49 279.709 191.996 280.754 191.879C281.8 191.763 283.044 191.992 284.485 192.567C285.912 193.137 286.964 193.824 287.642 194.629C288.32 195.434 288.647 196.426 288.624 197.605C288.601 198.785 288.252 200.222 287.575 201.916C286.893 203.624 286.154 204.914 285.359 205.785C284.563 206.657 283.642 207.15 282.597 207.267C281.551 207.384 280.315 207.157 278.888 206.588C277.447 206.012 276.387 205.322 275.709 204.517C275.031 203.713 274.704 202.721 274.727 201.541C274.75 200.361 275.102 198.917 275.784 197.208ZM283.302 195.532C282.291 195.129 281.499 195.192 280.926 195.721C280.332 196.259 279.763 197.212 279.217 198.579C278.665 199.961 278.422 201.044 278.488 201.828C278.539 202.607 279.07 203.197 280.08 203.601C281.076 203.998 281.868 203.935 282.456 203.412C283.029 202.883 283.591 201.927 284.143 200.545C284.689 199.178 284.939 198.098 284.894 197.305C284.828 196.52 284.297 195.929 283.302 195.532Z" fill="white"/>
<path d="M298.052 209.797L296.826 212.692C296.173 212.798 295.383 212.777 294.456 212.627C293.529 212.478 292.572 212.195 291.585 211.777C290.008 211.109 288.879 210.267 288.198 209.249C287.502 208.224 287.466 206.976 288.09 205.502C288.583 204.338 289.251 203.518 290.096 203.041C290.919 202.573 292.118 202.368 293.692 202.427C295.215 202.481 296.302 202.437 296.953 202.295C297.583 202.162 297.969 201.926 298.113 201.587L290.908 198.538L292.096 195.731L302.572 200.165L301.524 202.64C301.206 203.392 300.809 203.98 300.334 204.404C299.845 204.822 299.189 205.118 298.369 205.292C297.548 205.466 296.478 205.552 295.159 205.549C294.169 205.547 293.37 205.609 292.761 205.733C292.132 205.866 291.724 206.172 291.54 206.65C291.317 207.216 291.366 207.697 291.685 208.092C291.983 208.496 292.5 208.854 293.237 209.166C293.944 209.466 294.719 209.646 295.562 209.707C296.398 209.783 297.162 209.785 297.853 209.713L298.052 209.797Z" fill="white"/>
<path d="M319.523 207.892L313.226 221.718L302.961 217.042L304.254 214.203L311.025 217.287L312.219 214.666L306.343 211.99L307.636 209.15L313.512 211.826L314.735 209.14L307.964 206.056L309.257 203.217L319.523 207.892Z" fill="white"/>
<path d="M331.866 213.73L325.346 227.452L315.158 222.61L316.497 219.792L323.217 222.986L324.453 220.384L318.622 217.613L319.961 214.795L325.792 217.566L327.059 214.9L320.339 211.707L321.678 208.889L331.866 213.73Z" fill="white"/>
<path d="M332.557 217.713L333.9 215.004C334.659 215.201 335.386 215.428 336.081 215.683C336.776 215.938 337.575 216.29 338.479 216.737C339.64 217.313 340.572 217.9 341.275 218.499C341.964 219.09 342.428 219.758 342.667 220.501C342.884 221.251 342.869 222.146 342.622 223.184C342.376 224.223 341.89 225.473 341.165 226.935C340.469 228.34 339.789 229.441 339.126 230.237C338.464 231.034 337.775 231.559 337.06 231.812C336.324 232.072 335.516 232.1 334.635 231.895C333.733 231.698 332.701 231.312 331.54 230.736C330.637 230.288 329.873 229.865 329.249 229.467C328.618 229.082 327.998 228.641 327.388 228.142L328.773 225.347L328.859 225.336C329.39 225.778 329.921 226.166 330.452 226.5C330.975 226.849 331.646 227.226 332.463 227.631C333.122 227.958 333.692 228.178 334.172 228.29C334.63 228.41 335.048 228.395 335.427 228.243C335.806 228.092 336.177 227.775 336.54 227.295C336.889 226.807 337.284 226.119 337.724 225.23C338.186 224.298 338.516 223.524 338.715 222.908C338.891 222.299 338.929 221.791 338.827 221.384C338.726 220.976 338.492 220.619 338.126 220.313C337.746 219.999 337.226 219.679 336.566 219.352C335.764 218.954 335.072 218.638 334.492 218.404C333.89 218.177 333.267 217.993 332.622 217.852L332.557 217.713Z" fill="white"/>
<path d="M346.891 221.169L350.311 222.916L343.4 236.445L339.981 234.699L346.891 221.169Z" fill="white"/>
<path d="M410.349 269.553C410.609 269.982 410.976 270.42 411.449 270.869C411.909 271.31 412.417 271.705 412.972 272.054C414.002 272.702 414.857 272.965 415.537 272.845C416.217 272.725 416.901 272.21 417.587 271.299L417.567 271.286C417.197 271.243 416.75 271.113 416.224 270.896C415.699 270.679 415.139 270.383 414.543 270.008C413.229 269.182 412.423 268.24 412.124 267.182C411.825 266.125 412.068 264.973 412.851 263.727C413.414 262.833 414.033 262.164 414.709 261.72C415.377 261.29 416.158 261.129 417.054 261.239C417.927 261.353 418.973 261.794 420.192 262.56C421.519 263.395 422.41 264.277 422.865 265.206C423.307 266.127 423.383 267.148 423.093 268.27C422.803 269.392 422.211 270.664 421.317 272.086C420.38 273.576 419.4 274.651 418.379 275.313C417.336 275.98 416.285 276.283 415.227 276.223C414.16 276.175 413.099 275.82 412.042 275.155C411.149 274.593 410.437 274.041 409.908 273.5C409.378 272.96 408.966 272.473 408.67 272.042L410.242 269.543L410.349 269.553ZM418.633 265.039C417.888 264.57 417.31 264.377 416.899 264.459C416.489 264.541 416.109 264.859 415.759 265.415C415.385 266.011 415.278 266.511 415.44 266.915C415.593 267.332 416.008 267.754 416.685 268.18C417.105 268.444 417.534 268.648 417.973 268.792C418.412 268.936 418.78 268.997 419.077 268.976C419.738 267.955 420.027 267.164 419.946 266.602C419.842 266.046 419.405 265.524 418.633 265.039Z" fill="white"/>
<path d="M429.952 281.558L428.242 284.197C427.581 284.187 426.806 284.029 425.919 283.721C425.032 283.413 424.139 282.967 423.239 282.384C421.802 281.453 420.837 280.427 420.343 279.306C419.836 278.177 420.018 276.941 420.888 275.598C421.575 274.537 422.376 273.846 423.291 273.523C424.183 273.205 425.399 273.212 426.939 273.542C428.43 273.86 429.508 274.006 430.173 273.98C430.816 273.958 431.238 273.793 431.438 273.484L424.873 269.229L426.53 266.671L436.077 272.858L434.615 275.114C434.171 275.798 433.678 276.309 433.137 276.644C432.582 276.971 431.885 277.148 431.047 277.177C430.208 277.206 429.14 277.104 427.841 276.872C426.867 276.699 426.069 276.62 425.448 276.637C424.805 276.659 424.351 276.889 424.085 277.327C423.768 277.846 423.732 278.328 423.978 278.773C424.201 279.223 424.648 279.665 425.32 280.1C425.964 280.518 426.696 280.83 427.515 281.037C428.326 281.257 429.078 281.392 429.771 281.441L429.952 281.558Z" fill="white"/>
<path d="M433.427 280.025C434.441 278.509 435.428 277.408 436.388 276.721C437.347 276.035 438.351 275.744 439.398 275.847C440.445 275.951 441.613 276.434 442.904 277.297C444.18 278.151 445.066 279.042 445.562 279.97C446.058 280.898 446.172 281.937 445.904 283.086C445.636 284.235 444.995 285.567 443.981 287.083C442.958 288.613 441.966 289.721 441.007 290.407C440.047 291.094 439.044 291.385 437.997 291.281C436.95 291.178 435.788 290.699 434.511 289.845C433.221 288.982 432.328 288.087 431.832 287.158C431.337 286.23 431.223 285.192 431.491 284.043C431.759 282.894 432.404 281.555 433.427 280.025ZM441.129 279.95C440.225 279.345 439.437 279.242 438.766 279.64C438.074 280.043 437.318 280.856 436.5 282.08C435.672 283.317 435.209 284.326 435.11 285.107C434.998 285.879 435.395 286.567 436.299 287.172C437.19 287.768 437.977 287.871 438.661 287.482C439.332 287.083 440.081 286.266 440.908 285.029C441.727 283.805 442.196 282.801 442.317 282.015C442.416 281.235 442.02 280.546 441.129 279.95Z" fill="white"/>
<path d="M452.553 296.865L450.766 299.452C450.105 299.424 449.336 299.243 448.458 298.909C447.581 298.575 446.701 298.104 445.818 297.495C444.41 296.522 443.475 295.468 443.014 294.333C442.54 293.19 442.757 291.959 443.666 290.643C444.385 289.602 445.205 288.934 446.129 288.639C447.03 288.347 448.246 288.389 449.775 288.765C451.256 289.126 452.329 289.303 452.995 289.296C453.639 289.294 454.065 289.141 454.274 288.838L447.836 284.393L449.567 281.884L458.929 288.348L457.402 290.56C456.938 291.231 456.431 291.727 455.88 292.046C455.315 292.357 454.614 292.514 453.775 292.518C452.936 292.522 451.871 292.389 450.579 292.12C449.611 291.918 448.816 291.816 448.194 291.815C447.551 291.818 447.09 292.034 446.812 292.465C446.48 292.974 446.43 293.455 446.662 293.907C446.872 294.363 447.307 294.818 447.965 295.273C448.597 295.709 449.319 296.043 450.132 296.273C450.936 296.517 451.684 296.674 452.375 296.742L452.553 296.865Z" fill="white"/>
<path d="M474.262 299.469L465.357 311.778L456.218 305.166L458.047 302.638L464.075 306.999L465.763 304.666L460.532 300.881L462.361 298.353L467.592 302.138L469.322 299.746L463.294 295.385L465.123 292.857L474.262 299.469Z" fill="white"/>
<path d="M485.427 307.774L476.34 319.949L467.3 313.202L469.166 310.701L475.129 315.152L476.851 312.844L471.677 308.982L473.544 306.482L478.717 310.343L480.483 307.977L474.521 303.527L476.387 301.027L485.427 307.774Z" fill="white"/>
<path d="M484.345 311.062L486.192 308.667C486.898 309.009 487.566 309.374 488.198 309.759C488.83 310.145 489.545 310.646 490.343 311.261C491.37 312.053 492.17 312.81 492.742 313.535C493.303 314.249 493.627 314.995 493.716 315.77C493.783 316.549 493.594 317.423 493.149 318.393C492.704 319.364 491.984 320.495 490.987 321.788C490.03 323.03 489.149 323.976 488.343 324.628C487.538 325.28 486.76 325.66 486.01 325.769C485.237 325.88 484.438 325.75 483.614 325.377C482.768 325.008 481.832 324.427 480.805 323.636C480.007 323.021 479.341 322.457 478.806 321.944C478.263 321.444 477.74 320.89 477.239 320.282L479.144 317.811L479.23 317.816C479.665 318.353 480.11 318.838 480.565 319.269C481.01 319.714 481.594 320.214 482.317 320.771C482.9 321.22 483.415 321.547 483.864 321.751C484.29 321.959 484.704 322.025 485.105 321.95C485.506 321.875 485.931 321.638 486.381 321.237C486.819 320.827 487.34 320.229 487.946 319.443C488.581 318.62 489.056 317.925 489.37 317.36C489.662 316.797 489.798 316.306 489.778 315.886C489.758 315.467 489.599 315.071 489.3 314.699C488.988 314.317 488.54 313.902 487.958 313.453C487.248 312.906 486.631 312.461 486.108 312.118C485.562 311.778 484.986 311.476 484.382 311.212L484.345 311.062Z" fill="white"/>
<path d="M498.015 317.476L501.028 319.856L491.61 331.777L488.597 329.397L498.015 317.476Z" fill="white"/>
<path d="M550.391 378.173C550.545 378.65 550.8 379.162 551.156 379.708C551.502 380.244 551.904 380.746 552.363 381.214C553.214 382.083 553.985 382.537 554.674 382.578C555.364 382.619 556.148 382.276 557.027 381.55L557.01 381.533C556.66 381.405 556.256 381.174 555.795 380.841C555.334 380.509 554.858 380.091 554.365 379.588C553.279 378.48 552.713 377.376 552.667 376.278C552.622 375.181 553.125 374.116 554.176 373.086C554.93 372.347 555.688 371.84 556.449 371.565C557.198 371.301 557.996 371.326 558.841 371.64C559.664 371.954 560.579 372.625 561.587 373.653C562.684 374.773 563.347 375.838 563.574 376.847C563.791 377.845 563.628 378.856 563.085 379.88C562.543 380.904 561.672 382.004 560.472 383.18C559.215 384.412 558.013 385.231 556.867 385.638C555.697 386.045 554.605 386.096 553.59 385.792C552.563 385.499 551.613 384.906 550.739 384.015C550 383.261 549.436 382.559 549.047 381.91C548.657 381.262 548.369 380.693 548.181 380.204L550.29 378.138L550.391 378.173ZM559.496 375.703C558.88 375.074 558.363 374.752 557.944 374.736C557.526 374.721 557.082 374.943 556.614 375.402C556.111 375.895 555.891 376.356 555.955 376.787C556.007 377.229 556.313 377.735 556.873 378.307C557.22 378.661 557.59 378.959 557.984 379.2C558.377 379.442 558.721 379.587 559.015 379.635C559.894 378.795 560.36 378.093 560.411 377.528C560.439 376.962 560.134 376.354 559.496 375.703Z" fill="white"/>
<path d="M566.75 394.711L564.445 396.85C563.806 396.678 563.095 396.335 562.31 395.818C561.526 395.302 560.769 394.651 560.04 393.865C558.875 392.61 558.191 391.379 557.988 390.171C557.773 388.951 558.252 387.798 559.425 386.71C560.352 385.85 561.298 385.376 562.264 385.288C563.207 385.198 564.384 385.503 565.796 386.201C567.163 386.875 568.172 387.281 568.824 387.419C569.453 387.556 569.902 387.499 570.172 387.249L564.851 381.513L567.085 379.44L574.822 387.78L572.851 389.608C572.253 390.163 571.651 390.536 571.043 390.729C570.425 390.909 569.706 390.911 568.886 390.733C568.067 390.555 567.055 390.194 565.853 389.651C564.951 389.243 564.197 388.972 563.591 388.836C562.962 388.699 562.465 388.811 562.101 389.17C561.666 389.596 561.513 390.054 561.642 390.546C561.748 391.037 562.073 391.575 562.617 392.162C563.139 392.725 563.772 393.207 564.516 393.609C565.248 394.021 565.943 394.336 566.603 394.553L566.75 394.711Z" fill="white"/>
<path d="M569.937 393.464C571.313 392.266 572.553 391.461 573.659 391.05C574.765 390.639 575.81 390.62 576.793 390.994C577.777 391.368 578.778 392.141 579.797 393.311C580.806 394.469 581.428 395.561 581.663 396.587C581.899 397.613 581.736 398.645 581.177 399.683C580.618 400.722 579.65 401.84 578.275 403.038C576.887 404.247 575.64 405.056 574.535 405.468C573.429 405.879 572.384 405.898 571.401 405.523C570.417 405.149 569.421 404.383 568.412 403.225C567.393 402.054 566.766 400.956 566.531 399.931C566.295 398.905 566.457 397.873 567.017 396.834C567.576 395.795 568.55 394.672 569.937 393.464ZM577.39 395.407C576.675 394.587 575.942 394.281 575.191 394.49C574.417 394.697 573.474 395.284 572.364 396.251C571.242 397.228 570.531 398.081 570.231 398.808C569.921 399.524 570.123 400.292 570.838 401.113C571.542 401.921 572.275 402.227 573.037 402.03C573.788 401.821 574.725 401.228 575.847 400.251C576.958 399.284 577.674 398.438 577.996 397.712C578.296 396.984 578.094 396.216 577.39 395.407Z" fill="white"/>
<path d="M584.185 415.383L581.74 417.359C581.114 417.144 580.427 416.753 579.68 416.184C578.933 415.616 578.222 414.914 577.548 414.08C576.473 412.749 575.874 411.473 575.753 410.255C575.623 409.023 576.179 407.905 577.424 406.899C578.407 406.105 579.384 405.697 580.353 405.675C581.3 405.65 582.454 406.035 583.814 406.828C585.132 407.593 586.112 408.067 586.752 408.249C587.37 408.429 587.823 408.403 588.109 408.171L583.192 402.085L585.563 400.17L592.712 409.019L590.621 410.708C589.986 411.221 589.359 411.553 588.74 411.703C588.111 411.841 587.394 411.793 586.588 411.56C585.783 411.326 584.798 410.897 583.636 410.273C582.764 409.805 582.03 409.482 581.435 409.305C580.817 409.126 580.314 409.203 579.926 409.537C579.463 409.932 579.279 410.379 579.373 410.878C579.446 411.375 579.733 411.935 580.236 412.557C580.719 413.154 581.317 413.679 582.031 414.13C582.733 414.592 583.406 414.953 584.049 415.215L584.185 415.383Z" fill="white"/>
<path d="M603.796 424.445L591.372 433.189L584.881 423.964L587.432 422.168L591.714 428.253L594.069 426.595L590.354 421.315L592.905 419.52L596.621 424.8L599.035 423.101L594.753 417.016L597.305 415.221L603.796 424.445Z" fill="white"/>
<path d="M611.418 436.45L598.542 444.512L592.556 434.951L595.201 433.295L599.149 439.601L601.59 438.073L598.164 432.601L600.808 430.945L604.234 436.417L606.736 434.851L602.788 428.545L605.433 426.889L611.418 436.45Z" fill="white"/>
<path d="M609.769 440.087L612.437 438.664C612.94 439.266 613.399 439.873 613.816 440.485C614.233 441.097 614.679 441.848 615.153 442.737C615.763 443.881 616.18 444.9 616.404 445.796C616.62 446.678 616.61 447.491 616.371 448.234C616.112 448.971 615.579 449.69 614.775 450.392C613.97 451.093 612.848 451.827 611.408 452.595C610.024 453.333 608.831 453.833 607.829 454.096C606.826 454.359 605.961 454.385 605.232 454.175C604.482 453.958 603.809 453.511 603.211 452.832C602.592 452.147 601.977 451.233 601.367 450.089C600.893 449.2 600.518 448.412 600.242 447.725C599.952 447.045 599.704 446.325 599.498 445.565L602.251 444.096L602.327 444.137C602.502 444.806 602.708 445.43 602.946 446.011C603.169 446.599 603.495 447.295 603.924 448.1C604.27 448.75 604.606 449.26 604.93 449.63C605.233 449.995 605.583 450.225 605.979 450.322C606.376 450.419 606.861 450.378 607.436 450.198C608.004 450.004 608.725 449.674 609.601 449.207C610.518 448.718 611.237 448.28 611.756 447.894C612.254 447.502 612.58 447.11 612.735 446.72C612.889 446.329 612.906 445.903 612.787 445.44C612.66 444.964 612.423 444.401 612.077 443.752C611.655 442.961 611.276 442.302 610.94 441.774C610.583 441.24 610.183 440.728 609.74 440.238L609.769 440.087Z" fill="white"/>
<path d="M619.349 451.234L620.945 454.726L607.128 461.042L605.532 457.549L619.349 451.234Z" fill="white"/>
<path d="M606.282 527.845C605.8 527.98 605.279 528.215 604.719 528.551C604.17 528.875 603.653 529.258 603.168 529.698C602.267 530.515 601.783 531.268 601.715 531.955C601.648 532.643 601.96 533.44 602.652 534.346L602.67 534.33C602.811 533.985 603.057 533.589 603.407 533.142C603.758 532.695 604.194 532.235 604.715 531.762C605.865 530.719 606.989 530.196 608.088 530.193C609.187 530.19 610.23 530.734 611.219 531.824C611.929 532.606 612.406 533.383 612.652 534.154C612.887 534.913 612.831 535.708 612.485 536.541C612.139 537.351 611.433 538.24 610.367 539.207C609.205 540.261 608.116 540.882 607.099 541.07C606.093 541.247 605.089 541.046 604.087 540.464C603.084 539.883 602.019 538.97 600.89 537.726C599.708 536.422 598.935 535.19 598.573 534.028C598.211 532.844 598.202 531.75 598.546 530.747C598.879 529.733 599.507 528.806 600.431 527.968C601.214 527.258 601.936 526.722 602.6 526.357C603.263 525.993 603.843 525.727 604.338 525.559L606.321 527.745L606.282 527.845ZM608.4 537.039C609.051 536.447 609.393 535.943 609.425 535.525C609.457 535.108 609.252 534.656 608.811 534.17C608.338 533.649 607.885 533.411 607.453 533.458C607.009 533.493 606.491 533.78 605.899 534.317C605.531 534.65 605.219 535.009 604.963 535.393C604.706 535.777 604.548 536.115 604.489 536.406C605.294 537.318 605.978 537.81 606.54 537.882C607.104 537.933 607.724 537.651 608.4 537.039Z" fill="white"/>
<path d="M589.165 541.438L587.493 538.775C587.78 538.179 588.25 537.544 588.903 536.869C589.556 536.195 590.337 535.572 591.244 535.002C592.694 534.091 594.031 533.648 595.256 533.673C596.494 533.688 597.539 534.374 598.39 535.729C599.062 536.799 599.352 537.817 599.259 538.782C599.171 539.725 598.653 540.825 597.704 542.083C596.788 543.301 596.201 544.217 595.945 544.832C595.693 545.424 595.666 545.876 595.861 546.188L602.487 542.026L604.108 544.607L594.475 550.658L593.045 548.382C592.611 547.691 592.356 547.029 592.28 546.397C592.217 545.756 592.35 545.049 592.677 544.277C593.004 543.504 593.547 542.578 594.304 541.497C594.872 540.687 595.279 539.997 595.526 539.426C595.777 538.834 595.76 538.325 595.474 537.9C595.137 537.394 594.715 537.158 594.208 537.193C593.706 537.206 593.116 537.426 592.439 537.851C591.789 538.26 591.197 538.792 590.664 539.448C590.123 540.09 589.684 540.715 589.348 541.323L589.165 541.438Z" fill="white"/>
<path d="M589.643 544.866C590.447 546.503 590.906 547.909 591.02 549.083C591.133 550.257 590.883 551.272 590.269 552.126C589.655 552.98 588.651 553.75 587.258 554.434C585.88 555.112 584.665 555.432 583.613 555.397C582.561 555.361 581.606 554.939 580.745 554.132C579.885 553.324 579.053 552.102 578.248 550.465C577.437 548.814 576.974 547.401 576.861 546.227C576.747 545.052 576.998 544.038 577.612 543.183C578.226 542.329 579.222 541.563 580.601 540.886C581.994 540.201 583.216 539.877 584.268 539.913C585.319 539.949 586.275 540.37 587.135 541.178C587.996 541.985 588.831 543.214 589.643 544.866ZM585.851 551.57C586.827 551.09 587.311 550.46 587.302 549.68C587.3 548.878 586.975 547.817 586.326 546.496C585.67 545.16 585.028 544.254 584.402 543.778C583.79 543.294 582.996 543.292 582.019 543.772C581.057 544.245 580.573 544.875 580.568 545.662C580.577 546.442 580.909 547.5 581.565 548.835C582.215 550.156 582.849 551.066 583.468 551.564C584.094 552.04 584.888 552.042 585.851 551.57Z" fill="white"/>
<path d="M564.717 551.841L563.7 548.866C564.116 548.351 564.72 547.841 565.51 547.334C566.301 546.827 567.203 546.4 568.218 546.054C569.838 545.5 571.241 545.376 572.427 545.681C573.629 545.98 574.488 546.887 575.005 548.401C575.414 549.597 575.463 550.654 575.151 551.573C574.849 552.47 574.092 553.422 572.88 554.428C571.709 555.403 570.927 556.161 570.537 556.7C570.156 557.219 570.025 557.652 570.144 558.001L577.548 555.471L578.534 558.355L567.769 562.033L566.9 559.49C566.636 558.718 566.539 558.015 566.611 557.382C566.697 556.744 566.988 556.087 567.484 555.41C567.98 554.733 568.72 553.956 569.705 553.078C570.444 552.42 570.999 551.842 571.369 551.343C571.75 550.824 571.85 550.325 571.669 549.845C571.458 549.275 571.101 548.949 570.599 548.867C570.108 548.764 569.484 548.842 568.726 549.101C568 549.349 567.302 549.732 566.633 550.248C565.959 550.749 565.388 551.256 564.921 551.771L564.717 551.841Z" fill="white"/>
<path d="M546.053 564.106L545.806 548.916L557.085 548.732L557.135 551.852L549.696 551.973L549.743 554.853L556.198 554.748L556.249 557.867L549.794 557.972L549.842 560.924L557.281 560.803L557.332 563.922L546.053 564.106Z" fill="white"/>
<path d="M530.051 559.856L534.791 545.423L545.508 548.942L544.534 551.907L537.466 549.585L536.567 552.321L542.701 554.336L541.727 557.3L535.594 555.286L534.673 558.09L541.741 560.412L540.768 563.376L530.051 559.856Z" fill="white"/>
<path d="M527.927 555.302L526.007 557.639C525.312 557.275 524.655 556.89 524.036 556.485C523.416 556.08 522.717 555.557 521.938 554.917C520.936 554.095 520.161 553.313 519.61 552.571C519.072 551.839 518.771 551.084 518.706 550.306C518.664 549.526 518.88 548.658 519.354 547.702C519.829 546.746 520.584 545.637 521.62 544.376C522.615 543.165 523.525 542.245 524.351 541.619C525.176 540.992 525.965 540.636 526.718 540.551C527.494 540.463 528.288 540.619 529.1 541.016C529.935 541.412 530.853 542.021 531.854 542.844C532.633 543.483 533.282 544.068 533.8 544.597C534.328 545.113 534.833 545.683 535.315 546.307L533.334 548.718L533.248 548.709C532.83 548.159 532.401 547.661 531.959 547.216C531.528 546.758 530.96 546.24 530.255 545.661C529.686 545.194 529.181 544.851 528.739 544.633C528.319 544.413 527.908 544.333 527.505 544.396C527.102 544.458 526.669 544.682 526.207 545.069C525.757 545.465 525.217 546.047 524.587 546.813C523.927 547.617 523.431 548.297 523.099 548.852C522.79 549.406 522.639 549.892 522.646 550.312C522.653 550.732 522.8 551.132 523.087 551.514C523.387 551.905 523.822 552.334 524.39 552.801C525.083 553.37 525.685 553.834 526.198 554.192C526.733 554.549 527.299 554.869 527.895 555.151L527.927 555.302Z" fill="white"/>
<path d="M513.478 546.831L511.174 543.759L523.327 534.643L525.631 537.715L513.478 546.831Z" fill="white"/>
<path d="M506.534 466.283C506.785 465.849 506.994 465.317 507.161 464.686C507.327 464.071 507.43 463.436 507.47 462.781C507.544 461.567 507.365 460.691 506.933 460.152C506.501 459.612 505.721 459.26 504.593 459.095L504.591 459.119C504.731 459.464 504.831 459.919 504.893 460.484C504.954 461.049 504.964 461.682 504.921 462.385C504.826 463.934 504.387 465.094 503.602 465.863C502.818 466.633 501.691 466.973 500.222 466.883C499.168 466.819 498.284 466.596 497.57 466.216C496.872 465.837 496.356 465.228 496.022 464.391C495.704 463.57 495.588 462.44 495.676 461.003C495.772 459.438 496.118 458.233 496.714 457.388C497.31 456.558 498.169 456.002 499.293 455.718C500.416 455.434 501.816 455.343 503.493 455.445C505.25 455.552 506.664 455.895 507.734 456.474C508.82 457.069 509.59 457.845 510.045 458.803C510.515 459.761 510.712 460.863 510.636 462.109C510.572 463.163 510.43 464.052 510.209 464.776C509.989 465.5 509.76 466.095 509.523 466.561L506.576 466.381L506.534 466.283ZM498.599 461.182C498.545 462.06 498.653 462.66 498.921 462.981C499.19 463.302 499.652 463.482 500.307 463.522C501.01 463.565 501.5 463.419 501.777 463.083C502.069 462.748 502.24 462.181 502.289 461.383C502.319 460.888 502.292 460.413 502.208 459.959C502.123 459.505 502 459.153 501.839 458.903C500.627 458.813 499.793 458.938 499.34 459.279C498.901 459.637 498.654 460.271 498.599 461.182Z" fill="white"/>
<path d="M508.021 443.147L511.148 443.474C511.44 444.067 511.65 444.829 511.778 445.76C511.906 446.69 511.915 447.688 511.803 448.754C511.626 450.457 511.149 451.783 510.375 452.732C509.598 453.696 508.414 454.095 506.823 453.929C505.566 453.798 504.586 453.398 503.884 452.729C503.196 452.078 502.65 450.992 502.245 449.47C501.852 447.997 501.493 446.97 501.168 446.389C500.856 445.826 500.518 445.525 500.152 445.487L499.339 453.268L496.308 452.952L497.489 441.637L500.163 441.917C500.974 442.001 501.652 442.209 502.197 442.539C502.74 442.885 503.214 443.426 503.62 444.16C504.026 444.894 504.421 445.892 504.804 447.155C505.091 448.102 505.383 448.848 505.68 449.394C505.991 449.957 506.402 450.258 506.913 450.295C507.519 450.342 507.965 450.155 508.25 449.735C508.55 449.332 508.741 448.732 508.824 447.937C508.904 447.173 508.85 446.379 508.663 445.555C508.491 444.733 508.27 444.002 507.999 443.362L508.021 443.147Z" fill="white"/>
<path d="M504.957 441.763C503.152 441.505 501.732 441.092 500.698 440.524C499.664 439.956 498.967 439.177 498.607 438.188C498.247 437.199 498.177 435.937 498.397 434.4C498.614 432.88 499.034 431.695 499.656 430.847C500.279 429.998 501.166 429.446 502.318 429.191C503.469 428.935 504.948 428.936 506.754 429.194C508.575 429.455 510.003 429.869 511.037 430.437C512.071 431.005 512.768 431.783 513.128 432.772C513.487 433.761 513.558 435.016 513.341 436.536C513.122 438.073 512.701 439.265 512.078 440.114C511.456 440.962 510.569 441.514 509.417 441.77C508.265 442.025 506.779 442.023 504.957 441.763ZM501.557 434.852C501.403 435.929 501.651 436.684 502.3 437.116C502.963 437.566 504.023 437.896 505.48 438.104C506.953 438.314 508.063 438.295 508.81 438.046C509.554 437.813 510.004 437.158 510.157 436.081C510.309 435.02 510.061 434.265 509.414 433.817C508.765 433.385 507.704 433.064 506.231 432.853C504.774 432.645 503.665 432.656 502.904 432.887C502.158 433.136 501.709 433.791 501.557 434.852Z" fill="white"/>
<path d="M512.057 417.408L515.153 417.957C515.402 418.57 515.557 419.345 515.618 420.282C515.679 421.219 515.616 422.215 515.429 423.271C515.13 424.957 514.56 426.245 513.719 427.136C512.876 428.042 511.667 428.356 510.091 428.076C508.847 427.855 507.898 427.387 507.245 426.669C506.605 425.971 506.138 424.848 505.844 423.301C505.557 421.804 505.272 420.754 504.989 420.151C504.719 419.567 504.403 419.243 504.041 419.178L502.674 426.882L499.673 426.35L501.66 415.149L504.307 415.618C505.11 415.761 505.772 416.016 506.291 416.385C506.808 416.769 507.243 417.342 507.595 418.103C507.948 418.864 508.27 419.888 508.561 421.175C508.78 422.14 509.018 422.905 509.275 423.471C509.545 424.055 509.934 424.384 510.441 424.458C511.042 424.548 511.5 424.394 511.815 423.995C512.142 423.614 512.376 423.03 512.516 422.242C512.65 421.486 512.653 420.69 512.525 419.855C512.413 419.023 512.244 418.278 512.02 417.62L512.057 417.408Z" fill="white"/>
<path d="M506.083 395.173L520.899 398.533L518.405 409.534L515.362 408.844L517.007 401.588L514.199 400.951L512.771 407.247L509.728 406.557L511.156 400.261L508.277 399.608L506.632 406.864L503.589 406.174L506.083 395.173Z" fill="white"/>
<path d="M509.311 382.345L524.032 386.098L521.246 397.029L518.222 396.258L520.06 389.048L517.269 388.337L515.675 394.593L512.651 393.822L514.246 387.566L511.386 386.837L509.548 394.046L506.524 393.276L509.311 382.345Z" fill="white"/>
<path d="M512.875 381.678L509.964 380.858C510.018 380.075 510.107 379.319 510.229 378.589C510.352 377.858 510.55 377.008 510.823 376.038C511.175 374.791 511.58 373.766 512.038 372.964C512.492 372.178 513.063 371.599 513.749 371.227C514.447 370.875 515.329 370.725 516.395 370.776C517.461 370.827 518.779 371.074 520.35 371.516C521.86 371.941 523.067 372.406 523.972 372.91C524.877 373.415 525.52 373.995 525.9 374.65C526.292 375.326 526.468 376.115 526.43 377.019C526.403 377.942 526.213 379.027 525.862 380.275C525.588 381.245 525.313 382.073 525.037 382.76C524.776 383.451 524.456 384.143 524.079 384.834L521.075 383.988L521.049 383.906C521.385 383.302 521.669 382.709 521.899 382.126C522.146 381.547 522.392 380.818 522.64 379.94C522.839 379.232 522.95 378.632 522.973 378.139C523.006 377.667 522.913 377.258 522.694 376.914C522.476 376.57 522.096 376.263 521.557 375.995C521.013 375.742 520.264 375.481 519.309 375.212C518.308 374.93 517.486 374.749 516.844 374.667C516.213 374.606 515.707 374.663 515.325 374.838C514.943 375.013 514.636 375.309 514.402 375.725C514.164 376.156 513.945 376.726 513.746 377.435C513.503 378.297 513.32 379.035 513.197 379.649C513.085 380.282 513.019 380.929 513 381.588L512.875 381.678Z" fill="white"/>
<path d="M513.834 366.3L514.944 362.624L529.487 367.016L528.377 370.692L513.834 366.3Z" fill="white"/>
<path d="M552.033 295.554C552.424 295.241 552.811 294.821 553.195 294.293C553.573 293.78 553.899 293.226 554.173 292.63C554.682 291.525 554.833 290.644 554.626 289.984C554.418 289.325 553.819 288.714 552.828 288.152L552.817 288.173C552.822 288.546 552.751 289.006 552.604 289.555C552.457 290.104 552.236 290.698 551.941 291.337C551.292 292.747 550.462 293.668 549.452 294.101C548.442 294.534 547.269 294.443 545.932 293.827C544.973 293.385 544.229 292.857 543.701 292.244C543.188 291.638 542.928 290.884 542.92 289.982C542.921 289.101 543.223 288.007 543.825 286.699C544.481 285.275 545.241 284.277 546.103 283.706C546.959 283.149 547.961 282.941 549.111 283.083C550.261 283.226 551.599 283.648 553.125 284.351C554.724 285.088 555.917 285.92 556.705 286.847C557.502 287.795 557.938 288.798 558.015 289.855C558.106 290.919 557.891 292.017 557.368 293.151C556.926 294.11 556.471 294.887 556.004 295.481C555.536 296.076 555.107 296.548 554.717 296.897L552.036 295.662L552.033 295.554ZM546.485 287.924C546.116 288.724 545.999 289.322 546.134 289.718C546.268 290.115 546.633 290.45 547.229 290.725C547.868 291.02 548.378 291.061 548.758 290.848C549.152 290.642 549.517 290.176 549.851 289.449C550.059 288.999 550.206 288.547 550.291 288.093C550.377 287.639 550.39 287.267 550.331 286.975C549.233 286.451 548.411 286.266 547.865 286.42C547.326 286.595 546.866 287.096 546.485 287.924Z" fill="white"/>
<path d="M561.191 275.18L564.019 276.554C564.091 277.211 564.028 277.999 563.831 278.917C563.634 279.836 563.301 280.777 562.833 281.741C562.084 283.281 561.184 284.364 560.132 284.992C559.073 285.633 557.824 285.605 556.385 284.905C555.248 284.353 554.464 283.643 554.032 282.775C553.607 281.928 553.465 280.72 553.604 279.151C553.737 277.633 553.75 276.545 553.643 275.888C553.542 275.252 553.327 274.854 552.996 274.693L549.576 281.73L546.835 280.398L551.807 270.166L554.224 271.341C554.958 271.698 555.525 272.124 555.924 272.62C556.316 273.131 556.578 273.801 556.709 274.629C556.84 275.458 556.87 276.531 556.799 277.849C556.746 278.837 556.766 279.638 556.859 280.252C556.959 280.888 557.243 281.311 557.71 281.52C558.264 281.771 558.747 281.748 559.158 281.45C559.577 281.173 559.962 280.675 560.311 279.956C560.647 279.265 560.867 278.5 560.972 277.662C561.092 276.83 561.133 276.068 561.097 275.374L561.191 275.18Z" fill="white"/>
<path d="M558.914 272.577C557.291 271.746 556.082 270.894 555.289 270.02C554.496 269.147 554.09 268.184 554.072 267.132C554.053 266.08 554.397 264.863 555.105 263.482C555.805 262.114 556.587 261.131 557.451 260.531C558.316 259.931 559.334 259.697 560.506 259.83C561.678 259.963 563.076 260.445 564.7 261.276C566.338 262.115 567.553 262.97 568.346 263.844C569.14 264.717 569.545 265.68 569.564 266.732C569.583 267.784 569.242 268.994 568.542 270.361C567.835 271.743 567.049 272.733 566.184 273.333C565.32 273.933 564.302 274.167 563.129 274.034C561.957 273.901 560.552 273.416 558.914 272.577ZM557.946 264.936C557.45 265.905 557.439 266.699 557.912 267.319C558.393 267.96 559.288 268.616 560.599 269.287C561.923 269.965 562.979 270.308 563.766 270.316C564.546 270.337 565.184 269.864 565.679 268.895C566.168 267.941 566.179 267.147 565.713 266.513C565.239 265.893 564.34 265.244 563.016 264.566C561.705 263.895 560.653 263.545 559.859 263.516C559.072 263.509 558.434 263.982 557.946 264.936Z" fill="white"/>
<path d="M573.693 251.304L576.46 252.798C576.503 253.458 576.407 254.242 576.171 255.151C575.934 256.06 575.561 256.986 575.052 257.929C574.238 259.435 573.292 260.479 572.214 261.061C571.129 261.657 569.882 261.574 568.475 260.814C567.362 260.213 566.609 259.47 566.215 258.584C565.827 257.72 565.736 256.507 565.943 254.946C566.141 253.434 566.201 252.348 566.121 251.687C566.049 251.048 565.85 250.64 565.526 250.465L561.808 257.349L559.126 255.901L564.533 245.892L566.898 247.169C567.616 247.557 568.164 248.007 568.541 248.52C568.911 249.048 569.144 249.728 569.239 250.561C569.334 251.395 569.318 252.468 569.191 253.781C569.095 254.766 569.081 255.568 569.147 256.185C569.22 256.825 569.485 257.259 569.943 257.489C570.486 257.763 570.969 257.761 571.393 257.481C571.824 257.222 572.229 256.741 572.61 256.037C572.975 255.361 573.227 254.607 573.368 253.774C573.523 252.948 573.597 252.188 573.591 251.494L573.693 251.304Z" fill="white"/>
<path d="M574.256 229.198L587.371 236.865L581.679 246.603L578.985 245.028L582.74 238.605L580.253 237.152L576.995 242.725L574.302 241.151L577.56 235.577L575.011 234.087L571.257 240.511L568.563 238.936L574.256 229.198Z" fill="white"/>
<path d="M581.462 217.407L594.405 225.361L588.499 234.971L585.841 233.338L589.737 226.999L587.283 225.491L583.903 230.992L581.244 229.358L584.625 223.858L582.11 222.312L578.214 228.651L575.556 227.017L581.462 217.407Z" fill="white"/>
<path d="M585.576 217.037L583.037 215.393C583.321 214.661 583.629 213.965 583.962 213.304C584.295 212.642 584.735 211.889 585.283 211.043C585.988 209.955 586.678 209.096 587.353 208.466C588.019 207.849 588.735 207.464 589.501 207.312C590.272 207.182 591.158 207.299 592.162 207.663C593.165 208.027 594.352 208.653 595.721 209.54C597.038 210.393 598.053 211.193 598.769 211.943C599.484 212.692 599.927 213.436 600.096 214.175C600.271 214.936 600.206 215.743 599.902 216.594C599.603 217.468 599.101 218.449 598.397 219.537C597.849 220.383 597.341 221.093 596.874 221.667C596.42 222.25 595.91 222.816 595.345 223.365L592.726 221.669L592.725 221.582C593.225 221.105 593.671 220.622 594.064 220.133C594.471 219.653 594.922 219.03 595.417 218.265C595.818 217.647 596.101 217.106 596.268 216.642C596.44 216.201 596.472 215.783 596.365 215.39C596.257 214.996 595.986 214.591 595.55 214.176C595.105 213.773 594.466 213.302 593.634 212.763C592.761 212.198 592.03 211.781 591.441 211.514C590.856 211.269 590.355 211.173 589.939 211.228C589.522 211.282 589.141 211.473 588.795 211.802C588.44 212.144 588.062 212.624 587.662 213.241C587.175 213.993 586.782 214.644 586.483 215.194C586.189 215.766 585.935 216.364 585.721 216.988L585.576 217.037Z" fill="white"/>
<path d="M590.709 203.118L592.855 199.934L605.453 208.424L603.307 211.608L590.709 203.118Z" fill="white"/>
<path d="M648.038 147.674C648.509 147.502 649.01 147.227 649.542 146.85C650.064 146.484 650.55 146.062 651 145.585C651.834 144.701 652.259 143.913 652.273 143.222C652.287 142.531 651.913 141.761 651.153 140.912L651.137 140.929C651.022 141.283 650.808 141.697 650.494 142.17C650.179 142.643 649.78 143.136 649.297 143.648C648.232 144.777 647.151 145.385 646.056 145.474C644.961 145.562 643.878 145.101 642.807 144.091C642.039 143.366 641.503 142.629 641.198 141.879C640.905 141.141 640.899 140.343 641.18 139.486C641.461 138.651 642.096 137.711 643.085 136.663C644.161 135.523 645.199 134.819 646.198 134.553C647.187 134.298 648.204 134.421 649.248 134.923C650.293 135.425 651.426 136.252 652.648 137.405C653.928 138.613 654.793 139.782 655.245 140.912C655.697 142.065 655.791 143.154 655.526 144.181C655.273 145.218 654.719 146.19 653.862 147.098C653.137 147.866 652.458 148.457 651.825 148.872C651.192 149.286 650.635 149.597 650.154 149.803L648.007 147.777L648.038 147.674ZM645.214 138.673C644.61 139.313 644.309 139.842 644.309 140.261C644.31 140.68 644.549 141.114 645.026 141.565C645.538 142.048 646.008 142.249 646.436 142.169C646.875 142.1 647.369 141.774 647.919 141.192C648.259 140.831 648.542 140.45 648.768 140.047C648.994 139.644 649.126 139.295 649.162 139C648.289 138.154 647.569 137.716 647.002 137.687C646.436 137.681 645.84 138.01 645.214 138.673Z" fill="white"/>
<path d="M663.57 131.063L665.794 133.286C665.646 133.931 665.33 134.655 664.843 135.458C664.357 136.261 663.735 137.042 662.977 137.8C661.766 139.011 660.561 139.74 659.362 139.989C658.151 140.249 656.98 139.814 655.849 138.683C654.955 137.789 654.446 136.861 654.321 135.899C654.197 134.96 654.457 133.772 655.102 132.336C655.724 130.944 656.092 129.92 656.205 129.264C656.318 128.63 656.245 128.183 655.984 127.923L650.452 133.456L648.297 131.301L656.341 123.256L658.241 125.157C658.818 125.734 659.214 126.322 659.429 126.922C659.633 127.533 659.661 128.251 659.514 129.077C659.367 129.903 659.045 130.927 658.547 132.149C658.174 133.065 657.931 133.829 657.817 134.44C657.704 135.073 657.834 135.566 658.208 135.916C658.649 136.335 659.113 136.471 659.599 136.324C660.086 136.199 660.612 135.854 661.178 135.288C661.721 134.745 662.179 134.095 662.552 133.337C662.937 132.59 663.225 131.883 663.418 131.215L663.57 131.063Z" fill="white"/>
<path d="M662.576 127.576C661.328 126.246 660.477 125.036 660.025 123.946C659.573 122.856 659.516 121.813 659.853 120.816C660.19 119.82 660.925 118.79 662.057 117.728C663.177 116.677 664.245 116.015 665.261 115.742C666.277 115.468 667.314 115.592 668.373 116.112C669.432 116.633 670.586 117.558 671.834 118.888C673.093 120.23 673.948 121.445 674.401 122.535C674.853 123.625 674.91 124.668 674.573 125.665C674.236 126.661 673.507 127.685 672.387 128.736C671.255 129.798 670.181 130.466 669.165 130.739C668.149 131.013 667.111 130.889 666.053 130.369C664.994 129.849 663.835 128.917 662.576 127.576ZM664.241 120.056C663.448 120.8 663.169 121.544 663.406 122.288C663.642 123.054 664.264 123.973 665.271 125.047C666.289 126.132 667.167 126.81 667.906 127.083C668.633 127.366 669.393 127.136 670.186 126.391C670.968 125.658 671.246 124.914 671.021 124.16C670.784 123.416 670.157 122.502 669.139 121.417C668.131 120.344 667.259 119.659 666.521 119.364C665.783 119.092 665.023 119.322 664.241 120.056Z" fill="white"/>
<path d="M683.12 113.19L685.194 115.553C685.005 116.187 684.642 116.889 684.105 117.659C683.567 118.429 682.895 119.168 682.09 119.875C680.803 121.004 679.553 121.654 678.34 121.825C677.115 122.006 675.975 121.495 674.92 120.292C674.086 119.342 673.638 118.384 673.576 117.416C673.513 116.471 673.85 115.302 674.587 113.91C675.298 112.562 675.732 111.564 675.887 110.917C676.041 110.292 675.997 109.841 675.754 109.565L669.874 114.726L667.863 112.435L676.413 104.931L678.186 106.951C678.724 107.564 679.081 108.177 679.257 108.789C679.42 109.412 679.402 110.131 679.201 110.945C679.001 111.76 678.613 112.761 678.037 113.948C677.605 114.838 677.312 115.584 677.16 116.187C677.006 116.811 677.104 117.311 677.453 117.685C677.866 118.132 678.32 118.297 678.816 118.182C679.309 118.089 679.856 117.779 680.458 117.252C681.035 116.745 681.534 116.125 681.956 115.393C682.388 114.673 682.722 113.986 682.958 113.333L683.12 113.19Z" fill="white"/>
<path d="M692.591 92.0377L701.985 103.977L693.121 110.952L691.191 108.5L697.038 103.899L695.257 101.636L690.184 105.628L688.254 103.176L693.328 99.1842L691.503 96.8642L685.656 101.465L683.726 99.0129L692.591 92.0377Z" fill="white"/>
<path d="M703.362 84.1277L712.299 96.4134L703.177 103.049L701.342 100.526L707.358 96.1491L705.664 93.82L700.443 97.6177L698.608 95.0946L703.829 91.2969L702.092 88.9097L696.076 93.2861L694.24 90.763L703.362 84.1277Z" fill="white"/>
<path d="M707.024 85.5576L705.341 83.0453C705.89 82.4849 706.448 81.9667 707.015 81.4905C707.582 81.0144 708.284 80.4958 709.121 79.9348C710.198 79.2134 711.171 78.6964 712.04 78.3838C712.896 78.0801 713.705 78.0095 714.469 78.1719C715.228 78.3565 715.997 78.8141 716.775 79.5445C717.554 80.2749 718.397 81.3181 719.305 82.6739C720.178 83.9766 720.795 85.1134 721.157 86.0844C721.519 87.0554 721.631 87.9138 721.496 88.6597C721.355 89.4277 720.978 90.143 720.362 90.8056C719.743 91.4904 718.894 92.1935 717.818 92.9149C716.98 93.4759 716.234 93.9281 715.578 94.2713C714.93 94.6277 714.239 94.9466 713.503 95.2279L711.766 92.6358L711.799 92.5559C712.447 92.3148 713.047 92.0471 713.602 91.753C714.164 91.4721 714.825 91.0779 715.582 90.5703C716.194 90.1606 716.668 89.7757 717.004 89.4155C717.336 89.0774 717.531 88.7065 717.587 88.3025C717.644 87.8985 717.554 87.4195 717.318 86.8653C717.068 86.3201 716.667 85.6354 716.115 84.8112C715.536 83.9472 715.029 83.2761 714.593 82.7978C714.152 82.3418 713.73 82.0565 713.326 81.9421C712.922 81.8276 712.496 81.853 712.048 82.0182C711.587 82.1923 711.051 82.4842 710.439 82.8939C709.695 83.3926 709.077 83.8355 708.585 84.2227C708.089 84.6321 707.62 85.0814 707.177 85.5706L707.024 85.5576Z" fill="white"/>
<path d="M716.492 75.2806L719.743 73.2368L727.829 86.0983L724.578 88.1421L716.492 75.2806Z" fill="white"/>
</svg>
