<svg width="1406" height="814" viewBox="0 0 1406 814" fill="none" xmlns="http://www.w3.org/2000/svg">
<path d="M1201.57 100.92C1410.56 113.926 1443.67 330.38 1235.06 432.425C842.564 624.427 507.917 -2.08932 201.566 474.918C-56.9334 877.417 533.064 666.42 14.065 516.421" stroke="#272727" stroke-width="60"/>
<path d="M42.5568 533.394C42.9169 533.742 43.3831 534.073 43.9552 534.388C44.512 534.697 45.1033 534.95 45.7291 535.147C46.8891 535.512 47.7829 535.55 48.4105 535.261C49.0381 534.972 49.5682 534.3 50.0006 533.245L49.9777 533.238C49.6092 533.289 49.1434 533.277 48.5804 533.201C48.0174 533.124 47.4001 532.98 46.7285 532.769C45.2481 532.303 44.229 531.597 43.6714 530.65C43.1139 529.703 43.0559 528.528 43.4976 527.124C43.8144 526.116 44.2435 525.312 44.7849 524.711C45.3214 524.125 46.0365 523.771 46.9301 523.649C47.8037 523.538 48.9273 523.699 50.3009 524.131C51.7967 524.601 52.8827 525.228 53.5589 526.011C54.2199 526.789 54.5526 527.758 54.5572 528.916C54.5617 530.075 54.3119 531.456 53.8079 533.058C53.2798 534.737 52.6059 536.027 51.7863 536.926C50.9466 537.836 50.0073 538.396 48.9684 538.606C47.9247 538.831 46.8077 538.757 45.6172 538.382C44.6098 538.065 43.7815 537.713 43.1322 537.324C42.4829 536.935 41.9606 536.57 41.5651 536.227L42.4508 533.411L42.5568 533.394ZM49.4224 526.924C48.583 526.66 47.975 526.62 47.5986 526.803C47.2222 526.987 46.9356 527.391 46.7388 528.017C46.5275 528.689 46.5514 529.199 46.8104 529.549C47.0646 529.914 47.5732 530.217 48.3364 530.457C48.8095 530.606 49.2766 530.694 49.7375 530.722C50.1985 530.749 50.5698 530.715 50.8516 530.619C51.2317 529.464 51.311 528.625 51.0896 528.103C50.8481 527.591 50.2924 527.198 49.4224 526.924Z" fill="white"/>
<path d="M64.2108 539.906L63.2282 542.892C62.5862 543.052 61.7971 543.095 60.8608 543.023C59.9245 542.951 58.9471 542.747 57.9289 542.412C56.3026 541.877 55.1082 541.13 54.3455 540.172C53.5676 539.208 53.4287 537.967 53.9288 536.447C54.3238 535.246 54.9225 534.374 55.7249 533.829C56.5071 533.295 57.6848 532.992 59.2581 532.92C60.7808 532.848 61.8605 532.715 62.4973 532.52C63.1138 532.336 63.4796 532.069 63.5946 531.719L56.1626 529.274L57.1152 526.378L67.9213 529.934L67.0812 532.487C66.8262 533.262 66.4795 533.881 66.0411 534.343C65.5875 534.8 64.9589 535.149 64.1553 535.39C63.3518 535.631 62.2925 535.805 60.9774 535.911C59.991 535.991 59.1997 536.118 58.6033 536.292C57.9867 536.477 57.6061 536.815 57.4612 537.306C57.2864 537.889 57.3743 538.364 57.7248 538.732C58.0552 539.11 58.6003 539.424 59.3602 539.674C60.0898 539.914 60.877 540.03 61.7219 540.022C62.5619 540.029 63.3231 539.967 64.0057 539.838L64.2108 539.906Z" fill="white"/>
<path d="M66.7022 537.374C67.2982 535.65 67.9732 534.334 68.7271 533.427C69.481 532.519 70.3775 531.983 71.4166 531.817C72.4557 531.652 73.7087 531.823 75.1755 532.33C76.6272 532.832 77.7105 533.469 78.4255 534.241C79.1405 535.013 79.5142 535.988 79.5467 537.168C79.5791 538.347 79.2973 539.799 78.7013 541.522C78.1001 543.261 77.4225 544.585 76.6686 545.492C75.9147 546.4 75.0182 546.936 73.979 547.102C72.9399 547.267 71.6945 547.099 70.2428 546.597C68.776 546.09 67.6851 545.45 66.9701 544.678C66.2551 543.906 65.8814 542.931 65.849 541.751C65.8166 540.572 66.101 539.113 66.7022 537.374ZM74.1325 535.347C73.1042 534.991 72.3163 535.091 71.7687 535.647C71.2008 536.212 70.6763 537.19 70.1953 538.582C69.7091 539.988 69.5173 541.081 69.62 541.862C69.7075 542.637 70.2654 543.202 71.2936 543.558C72.3068 543.908 73.0947 543.808 73.6575 543.258C74.205 542.702 74.722 541.721 75.2082 540.315C75.6892 538.924 75.8885 537.833 75.8062 537.043C75.7036 536.262 75.1457 535.697 74.1325 535.347Z" fill="white"/>
<path d="M89.886 548.986L88.8082 551.939C88.1615 552.078 87.3714 552.096 86.4378 551.994C85.5043 551.892 84.534 551.657 83.527 551.29C81.9187 550.703 80.7488 549.918 80.0172 548.936C79.2706 547.948 79.1715 546.703 79.7199 545.2C80.1532 544.012 80.7796 543.159 81.599 542.641C82.3979 542.132 83.5847 541.867 85.1595 541.845C86.6837 541.822 87.7671 541.724 88.4098 541.549C89.0319 541.385 89.4061 541.129 89.5322 540.784L82.1823 538.102L83.2271 535.238L93.9139 539.138L92.9924 541.663C92.7127 542.43 92.3464 543.037 91.8934 543.485C91.4254 543.927 90.786 544.256 89.9751 544.471C89.1643 544.686 88.0999 544.826 86.7821 544.89C85.7937 544.938 84.9987 545.04 84.397 545.195C83.7749 545.359 83.3836 545.685 83.2231 546.171C83.0297 546.748 83.1023 547.226 83.4409 547.605C83.759 547.994 84.2938 548.325 85.0453 548.599C85.7668 548.862 86.5499 549.003 87.3946 549.022C88.2339 549.056 88.9967 549.019 89.6831 548.912L89.886 548.986Z" fill="white"/>
<path d="M111.945 546.299L106.335 560.417L95.852 556.252L97.0041 553.352L103.918 556.1L104.982 553.423L98.9821 551.039L100.134 548.14L106.134 550.524L107.224 547.78L100.31 545.033L101.462 542.133L111.945 546.299Z" fill="white"/>
<path d="M124.872 551.724L118.961 565.718L108.57 561.329L109.784 558.455L116.637 561.35L117.758 558.697L111.811 556.185L113.025 553.311L118.972 555.823L120.121 553.104L113.267 550.209L114.481 547.334L124.872 551.724Z" fill="white"/>
<path d="M124.927 555.315L126.169 552.558C126.935 552.727 127.67 552.927 128.374 553.156C129.077 553.386 129.889 553.707 130.808 554.121C131.989 554.654 132.943 555.206 133.668 555.779C134.378 556.344 134.866 556.994 135.132 557.728C135.377 558.47 135.395 559.365 135.186 560.412C134.978 561.458 134.538 562.726 133.868 564.214C133.224 565.643 132.585 566.768 131.952 567.589C131.319 568.409 130.65 568.959 129.945 569.238C129.219 569.525 128.413 569.582 127.525 569.411C126.616 569.247 125.571 568.899 124.389 568.366C123.47 567.952 122.691 567.557 122.053 567.182C121.409 566.821 120.772 566.403 120.144 565.927L121.426 563.082L121.512 563.068C122.059 563.49 122.603 563.858 123.146 564.173C123.682 564.502 124.366 564.854 125.197 565.229C125.868 565.531 126.446 565.73 126.929 565.825C127.392 565.928 127.809 565.897 128.182 565.732C128.555 565.566 128.914 565.237 129.259 564.743C129.59 564.243 129.959 563.54 130.367 562.636C130.794 561.688 131.096 560.902 131.271 560.279C131.425 559.664 131.444 559.155 131.328 558.752C131.211 558.348 130.964 558 130.587 557.707C130.196 557.408 129.664 557.107 128.993 556.805C128.176 556.437 127.474 556.146 126.885 555.934C126.275 555.729 125.646 555.568 124.996 555.451L124.927 555.315Z" fill="white"/>
<path d="M139.474 558.298L142.944 559.943L136.437 573.671L132.967 572.026L139.474 558.298Z" fill="white"/>
<path d="M201.622 609.117C201.805 609.584 202.092 610.078 202.482 610.602C202.86 611.114 203.293 611.59 203.78 612.029C204.684 612.843 205.481 613.249 206.172 613.247C206.863 613.244 207.624 612.853 208.456 612.074L208.438 612.057C208.081 611.951 207.663 611.747 207.182 611.443C206.702 611.14 206.2 610.753 205.677 610.282C204.524 609.243 203.89 608.177 203.776 607.084C203.662 605.991 204.098 604.898 205.083 603.804C205.79 603.019 206.514 602.466 207.256 602.144C207.988 601.834 208.785 601.809 209.649 602.07C210.489 602.332 211.445 602.944 212.515 603.908C213.68 604.957 214.407 605.979 214.697 606.972C214.975 607.954 214.876 608.973 214.399 610.029C213.921 611.085 213.121 612.237 211.996 613.486C210.819 614.793 209.67 615.686 208.551 616.164C207.409 616.643 206.322 616.762 205.29 616.522C204.247 616.293 203.262 615.761 202.334 614.926C201.55 614.219 200.943 613.554 200.514 612.931C200.084 612.308 199.761 611.758 199.544 611.282L201.519 609.089L201.622 609.117ZM210.555 606.084C209.901 605.495 209.365 605.206 208.947 605.216C208.528 605.227 208.099 605.476 207.66 605.963C207.189 606.487 206.999 606.961 207.089 607.387C207.168 607.824 207.505 608.311 208.1 608.846C208.468 609.178 208.857 609.452 209.265 609.669C209.672 609.886 210.024 610.009 210.321 610.039C211.146 609.146 211.567 608.416 211.582 607.848C211.575 607.282 211.233 606.694 210.555 606.084Z" fill="white"/>
<path d="M218.24 624.885L215.936 627.024C215.297 626.853 214.585 626.51 213.8 625.994C213.016 625.479 212.258 624.828 211.529 624.043C210.364 622.788 209.679 621.557 209.474 620.35C209.259 619.13 209.738 617.976 210.91 616.887C211.836 616.027 212.782 615.552 213.747 615.464C214.69 615.374 215.868 615.678 217.28 616.375C218.648 617.048 219.657 617.453 220.309 617.591C220.938 617.727 221.387 617.67 221.657 617.42L216.332 611.687L218.565 609.613L226.307 617.948L224.338 619.777C223.74 620.332 223.138 620.707 222.53 620.899C221.912 621.08 221.193 621.082 220.373 620.905C219.554 620.727 218.542 620.367 217.34 619.825C216.438 619.418 215.683 619.146 215.077 619.011C214.448 618.874 213.951 618.986 213.587 619.347C213.153 619.772 213 620.231 213.129 620.722C213.235 621.213 213.561 621.751 214.105 622.337C214.628 622.9 215.261 623.382 216.005 623.783C216.737 624.195 217.433 624.509 218.093 624.726L218.24 624.885Z" fill="white"/>
<path d="M221.7 624.032C223.176 622.961 224.483 622.27 225.621 621.958C226.759 621.646 227.801 621.72 228.747 622.18C229.694 622.64 230.623 623.498 231.534 624.754C232.436 625.997 232.959 627.14 233.103 628.183C233.246 629.225 232.993 630.239 232.344 631.224C231.695 632.209 230.632 633.237 229.156 634.308C227.666 635.389 226.353 636.085 225.215 636.396C224.077 636.708 223.035 636.634 222.088 636.174C221.142 635.714 220.218 634.863 219.316 633.62C218.404 632.363 217.877 631.214 217.733 630.172C217.59 629.129 217.842 628.116 218.492 627.131C219.141 626.146 220.21 625.113 221.7 624.032ZM228.951 626.629C228.312 625.748 227.609 625.379 226.841 625.52C226.052 625.658 225.062 626.159 223.87 627.024C222.666 627.897 221.882 628.684 221.519 629.382C221.146 630.067 221.28 630.85 221.919 631.731C222.548 632.599 223.251 632.968 224.028 632.84C224.795 632.698 225.781 632.19 226.985 631.317C228.176 630.452 228.965 629.673 229.35 628.978C229.713 628.279 229.58 627.496 228.951 626.629Z" fill="white"/>
<path d="M232.026 646.71L229.221 648.13C228.654 647.789 228.064 647.263 227.452 646.55C226.841 645.838 226.293 645.003 225.809 644.047C225.035 642.519 224.717 641.147 224.855 639.93C224.984 638.699 225.763 637.722 227.191 636.999C228.318 636.428 229.359 636.233 230.311 636.415C231.242 636.589 232.29 637.206 233.454 638.267C234.583 639.292 235.441 639.96 236.03 640.272C236.596 640.577 237.044 640.646 237.372 640.48L233.839 633.499L236.558 632.123L241.696 642.273L239.298 643.487C238.57 643.855 237.887 644.048 237.25 644.065C236.606 644.069 235.915 643.872 235.176 643.475C234.437 643.078 233.565 642.452 232.559 641.599C231.804 640.958 231.154 640.489 230.609 640.191C230.042 639.887 229.534 639.857 229.084 640.102C228.549 640.391 228.276 640.79 228.264 641.298C228.23 641.799 228.394 642.406 228.756 643.12C229.103 643.805 229.578 644.443 230.182 645.034C230.772 645.632 231.354 646.127 231.928 646.517L232.026 646.71Z" fill="white"/>
<path d="M246.389 664.478L231.303 666.269L229.973 655.068L233.071 654.7L233.949 662.088L236.809 661.749L236.047 655.338L239.146 654.97L239.907 661.381L242.838 661.033L241.961 653.644L245.059 653.277L246.389 664.478Z" fill="white"/>
<path d="M244.505 679.469L229.554 676.776L231.554 665.674L234.624 666.228L233.305 673.55L236.14 674.06L237.284 667.707L240.355 668.26L239.21 674.614L242.115 675.137L243.434 667.815L246.505 668.368L244.505 679.469Z" fill="white"/>
<path d="M240.216 682.366L242.888 683.782C242.669 684.536 242.423 685.256 242.149 685.944C241.875 686.632 241.502 687.421 241.029 688.311C240.422 689.456 239.81 690.372 239.192 691.059C238.582 691.731 237.902 692.177 237.153 692.395C236.396 692.592 235.503 692.552 234.471 692.277C233.44 692.002 232.204 691.482 230.762 690.718C229.376 689.983 228.295 689.274 227.517 688.59C226.738 687.905 226.233 687.203 225.999 686.481C225.759 685.738 225.754 684.93 225.982 684.055C226.204 683.158 226.619 682.137 227.226 680.992C227.698 680.102 228.142 679.35 228.557 678.737C228.958 678.117 229.417 677.509 229.932 676.913L232.688 678.374L232.697 678.46C232.241 678.979 231.839 679.499 231.49 680.021C231.127 680.534 230.732 681.194 230.304 682C229.96 682.65 229.724 683.214 229.598 683.69C229.466 684.145 229.47 684.564 229.611 684.947C229.752 685.329 230.058 685.709 230.529 686.085C231.007 686.447 231.684 686.861 232.561 687.325C233.479 687.812 234.244 688.164 234.854 688.379C235.458 688.572 235.965 688.623 236.375 688.533C236.785 688.443 237.149 688.219 237.465 687.861C237.789 687.49 238.123 686.979 238.468 686.328C238.888 685.537 239.222 684.854 239.472 684.28C239.715 683.685 239.916 683.067 240.075 682.427L240.216 682.366Z" fill="white"/>
<path d="M235.131 697.853L232.626 700.764L221.111 690.855L223.616 687.944L235.131 697.853Z" fill="white"/>
<path d="M158.539 702.337C158.347 701.875 158.05 701.386 157.65 700.87C157.262 700.365 156.82 699.898 156.323 699.469C155.404 698.674 154.598 698.284 153.908 698.3C153.217 698.316 152.464 698.722 151.648 699.519L151.666 699.535C152.025 699.633 152.447 699.83 152.934 700.123C153.42 700.417 153.93 700.794 154.462 701.255C155.636 702.27 156.291 703.323 156.427 704.413C156.562 705.504 156.149 706.605 155.186 707.719C154.495 708.518 153.782 709.085 153.046 709.422C152.321 709.747 151.525 709.788 150.656 709.545C149.81 709.3 148.843 708.706 147.754 707.764C146.568 706.739 145.82 705.732 145.51 704.745C145.212 703.768 145.291 702.747 145.747 701.682C146.203 700.617 146.981 699.449 148.08 698.178C149.231 696.847 150.361 695.931 151.471 695.431C152.603 694.929 153.687 694.788 154.724 695.008C155.771 695.216 156.767 695.728 157.711 696.544C158.51 697.235 159.13 697.888 159.571 698.502C160.013 699.117 160.347 699.66 160.574 700.131L158.643 702.364L158.539 702.337ZM149.669 705.55C150.335 706.125 150.876 706.403 151.295 706.385C151.713 706.366 152.137 706.108 152.566 705.612C153.026 705.079 153.207 704.601 153.109 704.177C153.02 703.741 152.674 703.262 152.068 702.738C151.693 702.414 151.3 702.147 150.888 701.939C150.475 701.731 150.121 701.615 149.824 701.591C149.017 702.5 148.611 703.238 148.607 703.806C148.625 704.372 148.979 704.953 149.669 705.55Z" fill="white"/>
<path d="M143.857 686.454L146.474 684.711C147.078 684.982 147.725 685.435 148.417 686.07C149.109 686.705 149.752 687.469 150.346 688.361C151.295 689.786 151.774 691.111 151.782 692.336C151.799 693.574 151.142 694.636 149.81 695.523C148.758 696.224 147.748 696.54 146.781 696.473C145.836 696.411 144.722 695.922 143.44 695.007C142.198 694.123 141.266 693.561 140.645 693.321C140.046 693.086 139.594 693.07 139.287 693.274L143.624 699.786L141.087 701.476L134.782 692.007L137.019 690.517C137.698 690.065 138.353 689.792 138.983 689.699C139.622 689.62 140.332 689.734 141.113 690.04C141.894 690.347 142.834 690.864 143.934 691.593C144.76 692.139 145.46 692.528 146.037 692.759C146.636 692.994 147.144 692.963 147.562 692.666C148.059 692.316 148.283 691.888 148.235 691.382C148.208 690.88 147.973 690.297 147.53 689.631C147.104 688.992 146.557 688.414 145.887 687.899C145.23 687.375 144.594 686.953 143.977 686.634L143.857 686.454Z" fill="white"/>
<path d="M140.127 686.095C138.414 686.721 136.968 687.029 135.788 687.017C134.608 687.006 133.626 686.65 132.842 685.948C132.057 685.247 131.398 684.168 130.865 682.71C130.338 681.268 130.147 680.025 130.295 678.984C130.442 677.942 130.962 677.036 131.856 676.266C132.75 675.496 134.054 674.798 135.767 674.171C137.495 673.539 138.949 673.229 140.128 673.241C141.308 673.252 142.29 673.609 143.075 674.31C143.859 675.011 144.515 676.083 145.043 677.525C145.576 678.983 145.769 680.233 145.622 681.275C145.475 682.317 144.954 683.222 144.06 683.992C143.166 684.762 141.855 685.463 140.127 686.095ZM133.863 681.614C134.237 682.636 134.812 683.184 135.588 683.257C136.386 683.341 137.475 683.129 138.858 682.624C140.255 682.113 141.224 681.571 141.764 680.999C142.31 680.441 142.396 679.652 142.023 678.63C141.654 677.623 141.079 677.075 140.297 676.987C139.521 676.913 138.434 677.131 137.036 677.643C135.654 678.148 134.682 678.682 134.121 679.245C133.581 679.818 133.495 680.607 133.863 681.614Z" fill="white"/>
<path d="M136.692 661.079L139.796 660.576C140.233 661.073 140.635 661.753 141.002 662.618C141.369 663.482 141.638 664.443 141.809 665.502C142.083 667.192 141.97 668.596 141.47 669.714C140.973 670.848 139.935 671.543 138.356 671.799C137.108 672.001 136.058 671.871 135.205 671.409C134.37 670.961 133.559 670.055 132.771 668.692C132.006 667.373 131.391 666.476 130.925 666C130.477 665.538 130.072 665.336 129.709 665.395L130.959 673.118L127.951 673.605L126.132 662.376L128.785 661.946C129.591 661.816 130.3 661.839 130.912 662.015C131.526 662.207 132.126 662.604 132.709 663.207C133.293 663.809 133.935 664.67 134.635 665.788C135.16 666.627 135.637 667.271 136.066 667.72C136.514 668.183 136.989 668.365 137.492 668.267C138.09 668.154 138.471 667.858 138.636 667.377C138.82 666.91 138.848 666.281 138.72 665.491C138.597 664.733 138.338 663.981 137.941 663.235C137.561 662.486 137.156 661.839 136.727 661.292L136.692 661.079Z" fill="white"/>
<path d="M126.075 641.439L141.256 642.014L140.83 653.286L137.712 653.168L137.993 645.733L135.115 645.624L134.871 652.075L131.753 651.957L131.997 645.506L129.048 645.394L128.766 652.829L125.648 652.711L126.075 641.439Z" fill="white"/>
<path d="M127.653 627.786L142.723 629.71L141.295 640.899L138.2 640.504L139.142 633.124L136.285 632.759L135.468 639.163L132.373 638.768L133.19 632.364L130.262 631.99L129.32 639.37L126.225 638.975L127.653 627.786Z" fill="white"/>
<path d="M131.5 624.747L128.538 624.135C128.537 623.351 128.571 622.59 128.642 621.853C128.713 621.116 128.85 620.254 129.054 619.267C129.316 617.997 129.647 616.947 130.048 616.115C130.445 615.298 130.973 614.68 131.632 614.261C132.303 613.86 133.172 613.647 134.239 613.623C135.306 613.598 136.638 613.751 138.237 614.081C139.772 614.398 141.009 614.776 141.948 615.215C142.886 615.654 143.569 616.187 143.995 616.814C144.433 617.46 144.665 618.235 144.691 619.139C144.729 620.062 144.617 621.158 144.355 622.427C144.151 623.414 143.935 624.26 143.708 624.965C143.496 625.673 143.227 626.385 142.899 627.101L139.844 626.47L139.811 626.39C140.104 625.764 140.344 625.152 140.533 624.554C140.738 623.959 140.933 623.215 141.117 622.322C141.266 621.601 141.334 620.995 141.321 620.502C141.321 620.028 141.2 619.627 140.957 619.299C140.715 618.971 140.315 618.693 139.758 618.463C139.197 618.25 138.431 618.042 137.46 617.842C136.441 617.631 135.609 617.508 134.963 617.473C134.329 617.456 133.828 617.549 133.46 617.751C133.091 617.952 132.805 618.269 132.602 618.701C132.395 619.148 132.217 619.732 132.068 620.453C131.887 621.33 131.757 622.08 131.677 622.7C131.611 623.34 131.591 623.99 131.618 624.649L131.5 624.747Z" fill="white"/>
<path d="M131.097 610.624L132.052 606.905L146.767 610.681L145.812 614.4L131.097 610.624Z" fill="white"/>
<path d="M170.092 540.098C170.496 539.802 170.9 539.398 171.306 538.886C171.705 538.389 172.053 537.849 172.352 537.265C172.907 536.183 173.094 535.308 172.915 534.641C172.735 533.974 172.162 533.338 171.195 532.735L171.184 532.756C171.173 533.128 171.082 533.585 170.913 534.128C170.743 534.67 170.497 535.254 170.176 535.881C169.469 537.262 168.601 538.148 167.574 538.539C166.547 538.929 165.379 538.789 164.068 538.118C163.129 537.637 162.408 537.078 161.906 536.444C161.418 535.817 161.19 535.052 161.22 534.151C161.257 533.271 161.604 532.19 162.261 530.909C162.975 529.513 163.776 528.548 164.661 528.013C165.539 527.492 166.55 527.326 167.693 527.516C168.836 527.706 170.155 528.185 171.65 528.95C173.217 529.753 174.374 530.634 175.123 531.593C175.88 532.573 176.274 533.593 176.306 534.653C176.353 535.719 176.092 536.808 175.523 537.919C175.042 538.859 174.555 539.616 174.063 540.191C173.57 540.766 173.122 541.219 172.718 541.551L170.091 540.206L170.092 540.098ZM164.866 532.244C164.465 533.027 164.324 533.62 164.441 534.021C164.559 534.423 164.91 534.774 165.494 535.073C166.12 535.394 166.628 535.456 167.016 535.259C167.419 535.07 167.802 534.62 168.167 533.908C168.393 533.466 168.558 533.02 168.663 532.571C168.768 532.121 168.796 531.749 168.749 531.455C167.674 530.887 166.86 530.668 166.308 530.798C165.763 530.95 165.282 531.432 164.866 532.244Z" fill="white"/>
<path d="M180.323 519.72L183.089 521.214C183.133 521.874 183.037 522.659 182.8 523.568C182.564 524.476 182.191 525.402 181.682 526.346C180.869 527.852 179.923 528.896 178.845 529.478C177.76 530.074 176.513 529.991 175.105 529.231C173.993 528.631 173.24 527.887 172.845 527.002C172.457 526.137 172.366 524.925 172.573 523.363C172.771 521.852 172.83 520.766 172.751 520.105C172.678 519.465 172.48 519.058 172.156 518.883L168.438 525.767L165.756 524.319L171.162 514.309L173.527 515.587C174.245 515.974 174.793 516.425 175.17 516.938C175.54 517.465 175.773 518.145 175.868 518.979C175.964 519.812 175.948 520.885 175.821 522.199C175.725 523.184 175.711 523.985 175.777 524.603C175.85 525.242 176.116 525.676 176.574 525.906C177.116 526.18 177.6 526.178 178.024 525.898C178.454 525.639 178.859 525.158 179.24 524.454C179.604 523.778 179.857 523.024 179.998 522.191C180.153 521.365 180.227 520.605 180.22 519.91L180.323 519.72Z" fill="white"/>
<path d="M178.188 516.972C176.601 516.074 175.429 515.172 174.673 514.266C173.917 513.36 173.552 512.381 173.577 511.329C173.602 510.277 173.997 509.076 174.762 507.725C175.518 506.389 176.341 505.438 177.229 504.875C178.118 504.312 179.145 504.121 180.311 504.302C181.477 504.484 182.853 505.024 184.441 505.922C186.042 506.828 187.221 507.734 187.977 508.64C188.733 509.546 189.098 510.525 189.073 511.576C189.047 512.628 188.657 513.823 187.9 515.16C187.136 516.51 186.309 517.467 185.421 518.031C184.532 518.594 183.505 518.785 182.339 518.604C181.173 518.422 179.79 517.878 178.188 516.972ZM177.54 509.297C177.004 510.244 176.96 511.037 177.407 511.676C177.86 512.337 178.727 513.03 180.008 513.755C181.304 514.488 182.344 514.874 183.13 514.915C183.908 514.969 184.565 514.523 185.101 513.576C185.629 512.643 185.673 511.85 185.234 511.197C184.787 510.558 183.916 509.872 182.621 509.139C181.339 508.414 180.303 508.02 179.511 507.958C178.725 507.918 178.068 508.364 177.54 509.297Z" fill="white"/>
<path d="M193.522 496.782L196.23 498.38C196.248 499.041 196.122 499.821 195.852 500.721C195.581 501.62 195.173 502.531 194.629 503.455C193.759 504.929 192.774 505.936 191.675 506.477C190.568 507.031 189.325 506.902 187.947 506.089C186.858 505.446 186.134 504.675 185.773 503.775C185.418 502.897 185.374 501.681 185.639 500.129C185.895 498.626 185.995 497.543 185.941 496.879C185.892 496.237 185.709 495.823 185.392 495.636L181.416 502.374L178.791 500.825L184.572 491.028L186.887 492.394C187.59 492.809 188.121 493.279 188.478 493.806C188.828 494.347 189.035 495.036 189.099 495.872C189.162 496.709 189.106 497.781 188.929 499.088C188.796 500.069 188.751 500.869 188.794 501.489C188.843 502.131 189.092 502.575 189.541 502.821C190.072 503.116 190.555 503.132 190.99 502.868C191.43 502.626 191.853 502.161 192.26 501.472C192.65 500.81 192.931 500.066 193.104 499.239C193.29 498.419 193.392 497.663 193.412 496.968L193.522 496.782Z" fill="white"/>
<path d="M194.906 474.486L207.794 482.528L201.823 492.098L199.176 490.446L203.115 484.134L200.671 482.61L197.254 488.087L194.607 486.435L198.024 480.958L195.52 479.395L191.581 485.708L188.934 484.056L194.906 474.486Z" fill="white"/>
<path d="M202.201 463.16L214.958 471.41L208.833 480.882L206.213 479.188L210.253 472.94L207.834 471.376L204.329 476.797L201.709 475.103L205.215 469.682L202.736 468.079L198.696 474.326L196.076 472.632L202.201 463.16Z" fill="white"/>
<path d="M206.15 463.131L203.642 461.442C203.938 460.716 204.258 460.025 204.603 459.37C204.948 458.715 205.402 457.969 205.965 457.133C206.689 456.058 207.394 455.211 208.08 454.593C208.757 453.988 209.48 453.617 210.248 453.478C211.021 453.362 211.906 453.495 212.902 453.877C213.899 454.258 215.074 454.905 216.428 455.816C217.729 456.692 218.73 457.511 219.432 458.273C220.134 459.035 220.563 459.787 220.72 460.529C220.881 461.293 220.801 462.098 220.482 462.944C220.168 463.812 219.649 464.784 218.925 465.859C218.362 466.695 217.842 467.396 217.364 467.962C216.9 468.537 216.381 469.094 215.806 469.632L213.218 467.89L213.218 467.803C213.726 467.335 214.181 466.86 214.582 466.378C214.997 465.905 215.459 465.291 215.969 464.534C216.38 463.924 216.673 463.388 216.848 462.927C217.028 462.489 217.067 462.072 216.967 461.677C216.867 461.281 216.602 460.872 216.174 460.448C215.736 460.038 215.106 459.556 214.283 459.002C213.421 458.421 212.697 457.991 212.113 457.714C211.532 457.458 211.034 457.354 210.616 457.401C210.199 457.448 209.814 457.632 209.462 457.954C209.101 458.29 208.715 458.763 208.304 459.374C207.804 460.117 207.399 460.761 207.09 461.305C206.786 461.872 206.522 462.465 206.297 463.085L206.15 463.131Z" fill="white"/>
<path d="M211.537 449.289L213.728 446.136L226.203 454.806L224.011 457.959L211.537 449.289Z" fill="white"/>
<path d="M270.212 393.281C270.684 393.112 271.187 392.84 271.722 392.466C272.245 392.103 272.733 391.684 273.186 391.21C274.026 390.33 274.455 389.545 274.473 388.855C274.491 388.164 274.123 387.392 273.368 386.537L273.351 386.555C273.235 386.908 273.018 387.321 272.701 387.792C272.383 388.263 271.981 388.753 271.495 389.263C270.423 390.385 269.339 390.987 268.243 391.069C267.148 391.151 266.067 390.683 265.003 389.666C264.239 388.937 263.707 388.197 263.407 387.445C263.119 386.705 263.117 385.907 263.403 385.052C263.69 384.219 264.33 383.282 265.325 382.241C266.408 381.107 267.45 380.41 268.451 380.149C269.441 379.9 270.457 380.029 271.498 380.537C272.54 381.045 273.668 381.879 274.883 383.04C276.156 384.255 277.014 385.43 277.459 386.562C277.904 387.718 277.992 388.808 277.721 389.832C277.462 390.868 276.901 391.837 276.039 392.74C275.31 393.504 274.628 394.091 273.992 394.501C273.356 394.912 272.798 395.219 272.316 395.423L270.181 393.384L270.212 393.281ZM267.442 384.263C266.834 384.9 266.529 385.427 266.528 385.846C266.526 386.265 266.762 386.701 267.237 387.154C267.746 387.64 268.215 387.844 268.643 387.766C269.083 387.7 269.579 387.377 270.131 386.799C270.474 386.44 270.759 386.06 270.988 385.659C271.216 385.257 271.35 384.909 271.388 384.614C270.52 383.762 269.803 383.321 269.236 383.288C268.67 383.279 268.072 383.604 267.442 384.263Z" fill="white"/>
<path d="M284.97 377.641L287.178 379.879C287.026 380.523 286.704 381.245 286.212 382.045C285.72 382.845 285.092 383.621 284.329 384.374C283.11 385.576 281.9 386.297 280.699 386.538C279.487 386.789 278.319 386.346 277.195 385.206C276.308 384.306 275.805 383.375 275.687 382.413C275.57 381.473 275.838 380.287 276.493 378.854C277.125 377.467 277.5 376.446 277.618 375.79C277.735 375.158 277.665 374.71 277.406 374.448L271.835 379.942L269.695 377.772L277.795 369.784L279.683 371.698C280.256 372.279 280.647 372.87 280.858 373.471C281.058 374.083 281.081 374.802 280.928 375.627C280.775 376.452 280.446 377.473 279.939 378.692C279.559 379.606 279.311 380.367 279.194 380.978C279.076 381.61 279.203 382.103 279.573 382.457C280.012 382.878 280.475 383.017 280.962 382.874C281.45 382.753 281.978 382.411 282.548 381.85C283.095 381.31 283.557 380.663 283.936 379.908C284.326 379.164 284.619 378.459 284.816 377.792L284.97 377.641Z" fill="white"/>
<path d="M284.912 373.309C283.676 371.967 282.837 370.75 282.395 369.656C281.953 368.562 281.905 367.518 282.252 366.525C282.598 365.531 283.342 364.509 284.483 363.457C285.613 362.416 286.687 361.764 287.706 361.5C288.724 361.236 289.761 361.369 290.815 361.899C291.869 362.429 293.014 363.365 294.249 364.707C295.496 366.06 296.34 367.284 296.783 368.377C297.225 369.471 297.272 370.515 296.926 371.508C296.579 372.502 295.841 373.519 294.712 374.56C293.57 375.611 292.49 376.269 291.472 376.533C290.453 376.797 289.417 376.664 288.363 376.134C287.309 375.604 286.158 374.662 284.912 373.309ZM286.646 365.805C285.846 366.542 285.561 367.283 285.791 368.029C286.02 368.797 286.633 369.722 287.63 370.805C288.638 371.899 289.51 372.586 290.246 372.865C290.97 373.155 291.733 372.932 292.533 372.195C293.321 371.468 293.606 370.727 293.388 369.971C293.158 369.225 292.539 368.305 291.531 367.211C290.534 366.128 289.668 365.436 288.933 365.134C288.197 364.855 287.435 365.078 286.646 365.805Z" fill="white"/>
<path d="M304.68 359.936L306.725 362.324C306.529 362.956 306.157 363.653 305.61 364.417C305.063 365.18 304.382 365.91 303.568 366.607C302.267 367.721 301.01 368.356 299.795 368.511C298.568 368.677 297.434 368.152 296.393 366.937C295.571 365.977 295.135 365.013 295.085 364.044C295.034 363.099 295.385 361.934 296.139 360.551C296.867 359.212 297.312 358.22 297.476 357.574C297.637 356.951 297.599 356.5 297.359 356.22L291.416 361.309L289.434 358.994L298.075 351.595L299.823 353.637C300.354 354.256 300.703 354.874 300.871 355.488C301.027 356.113 301 356.831 300.789 357.643C300.579 358.455 300.179 359.451 299.588 360.631C299.145 361.516 298.844 362.259 298.684 362.859C298.522 363.482 298.614 363.983 298.959 364.361C299.366 364.813 299.818 364.984 300.315 364.875C300.809 364.788 301.361 364.485 301.968 363.964C302.552 363.465 303.059 362.852 303.489 362.125C303.931 361.41 304.273 360.727 304.516 360.077L304.68 359.936Z" fill="white"/>
<path d="M315.112 338.467L324.278 350.582L315.283 357.389L313.4 354.9L319.333 350.411L317.596 348.115L312.447 352.01L310.565 349.522L315.713 345.627L313.932 343.272L307.999 347.762L306.116 345.274L315.112 338.467Z" fill="white"/>
<path d="M325.234 331.371L333.887 343.858L324.615 350.283L322.838 347.718L328.953 343.481L327.313 341.114L322.006 344.791L320.229 342.226L325.536 338.549L323.855 336.123L317.739 340.36L315.962 337.795L325.234 331.371Z" fill="white"/>
<path d="M329.638 332.399L328.027 329.84C328.592 329.295 329.165 328.793 329.745 328.334C330.325 327.874 331.042 327.376 331.895 326.839C332.992 326.148 333.979 325.66 334.857 325.372C335.721 325.093 336.532 325.045 337.291 325.23C338.045 325.436 338.8 325.915 339.557 326.668C340.314 327.42 341.127 328.487 341.997 329.868C342.832 331.195 343.416 332.349 343.75 333.33C344.084 334.311 344.172 335.172 344.015 335.914C343.853 336.678 343.454 337.382 342.82 338.027C342.181 338.694 341.313 339.372 340.216 340.062C339.363 340.599 338.604 341.03 337.938 341.354C337.281 341.692 336.581 341.991 335.837 342.251L334.176 339.61L334.211 339.531C334.865 339.309 335.473 339.058 336.035 338.78C336.606 338.516 337.277 338.14 338.049 337.655C338.672 337.263 339.157 336.892 339.504 336.541C339.845 336.213 340.05 335.847 340.118 335.445C340.187 335.043 340.111 334.562 339.89 334.001C339.656 333.449 339.275 332.753 338.746 331.913C338.193 331.033 337.705 330.348 337.282 329.857C336.855 329.389 336.441 329.091 336.041 328.965C335.64 328.84 335.214 328.853 334.761 329.005C334.295 329.166 333.751 329.442 333.128 329.834C332.37 330.312 331.739 330.737 331.237 331.11C330.729 331.505 330.247 331.94 329.791 332.417L329.638 332.399Z" fill="white"/>
<path d="M340.502 321.764L343.826 319.842L351.43 332.994L348.106 334.916L340.502 321.764Z" fill="white"/>
<path d="M418.493 302.408C418.976 302.539 419.545 302.603 420.197 302.6C420.834 302.601 421.474 302.537 422.117 302.406C423.309 302.163 424.109 301.764 424.518 301.207C424.927 300.65 425.066 299.806 424.933 298.673L424.91 298.678C424.612 298.902 424.199 299.117 423.669 299.322C423.14 299.528 422.53 299.701 421.84 299.841C420.319 300.151 419.086 300.026 418.139 299.468C417.193 298.909 416.573 297.909 416.279 296.466C416.069 295.432 416.055 294.52 416.237 293.732C416.423 292.959 416.877 292.304 417.601 291.765C418.311 291.244 419.372 290.841 420.783 290.554C422.319 290.241 423.573 290.264 424.544 290.621C425.499 290.982 426.259 291.668 426.824 292.68C427.389 293.691 427.839 295.02 428.174 296.667C428.525 298.391 428.56 299.846 428.278 301.03C427.984 302.232 427.434 303.177 426.626 303.864C425.822 304.566 424.809 305.042 423.586 305.291C422.551 305.501 421.655 305.594 420.899 305.568C420.143 305.542 419.509 305.475 418.997 305.367L418.408 302.475L418.493 302.408ZM421.367 293.423C420.504 293.598 419.953 293.858 419.713 294.2C419.472 294.543 419.417 295.036 419.548 295.679C419.688 296.369 419.957 296.804 420.353 296.985C420.752 297.181 421.343 297.199 422.127 297.04C422.613 296.941 423.065 296.792 423.481 296.593C423.898 296.394 424.206 296.184 424.406 295.964C424.18 294.769 423.843 293.997 423.396 293.647C422.937 293.316 422.26 293.241 421.367 293.423Z" fill="white"/>
<path d="M440.847 298.005L441.318 301.114C440.817 301.546 440.132 301.941 439.264 302.299C438.396 302.657 437.432 302.916 436.372 303.076C434.679 303.333 433.276 303.205 432.163 302.694C431.034 302.185 430.35 301.14 430.111 299.558C429.922 298.308 430.062 297.259 430.533 296.411C430.99 295.581 431.904 294.78 433.275 294.006C434.602 293.255 435.505 292.649 435.986 292.187C436.453 291.745 436.659 291.341 436.604 290.977L428.868 292.148L428.412 289.135L439.66 287.432L440.062 290.09C440.184 290.897 440.154 291.605 439.971 292.215C439.772 292.828 439.369 293.423 438.76 294.001C438.152 294.578 437.285 295.211 436.159 295.899C435.315 296.415 434.666 296.886 434.213 297.31C433.746 297.753 433.558 298.227 433.651 298.731C433.758 299.329 434.05 299.714 434.529 299.884C434.995 300.073 435.623 300.107 436.414 299.987C437.173 299.872 437.928 299.62 438.678 299.232C439.431 298.859 440.083 298.461 440.634 298.038L440.847 298.005Z" fill="white"/>
<path d="M440.559 294.779C440.374 292.965 440.432 291.487 440.733 290.347C441.035 289.206 441.622 288.342 442.495 287.754C443.368 287.166 444.576 286.793 446.12 286.636C447.648 286.479 448.899 286.601 449.872 287C450.846 287.399 451.596 288.127 452.122 289.183C452.648 290.238 453.004 291.674 453.189 293.488C453.377 295.319 453.319 296.804 453.018 297.945C452.716 299.085 452.129 299.95 451.256 300.537C450.383 301.125 449.183 301.497 447.655 301.653C446.111 301.811 444.852 301.691 443.879 301.292C442.905 300.892 442.155 300.165 441.629 299.109C441.103 298.053 440.746 296.61 440.559 294.779ZM446.445 289.811C445.362 289.922 444.69 290.344 444.427 291.079C444.15 291.831 444.086 292.939 444.236 294.403C444.387 295.884 444.674 296.956 445.096 297.621C445.502 298.287 446.246 298.565 447.328 298.454C448.394 298.345 449.067 297.922 449.346 297.186C449.608 296.452 449.664 295.344 449.513 293.864C449.363 292.4 449.084 291.327 448.677 290.644C448.255 289.98 447.511 289.702 446.445 289.811Z" fill="white"/>
<path d="M465.791 295.95L465.964 299.09C465.424 299.472 464.705 299.8 463.807 300.074C462.908 300.348 461.924 300.514 460.854 300.573C459.144 300.667 457.76 300.407 456.701 299.792C455.625 299.178 455.044 298.072 454.956 296.475C454.886 295.213 455.126 294.182 455.675 293.383C456.209 292.6 457.195 291.889 458.634 291.249C460.026 290.627 460.983 290.11 461.505 289.697C462.012 289.3 462.255 288.918 462.235 288.551L454.423 288.981L454.255 285.937L465.614 285.312L465.762 287.996C465.807 288.811 465.709 289.513 465.469 290.103C465.213 290.694 464.755 291.248 464.095 291.765C463.434 292.282 462.511 292.83 461.325 293.408C460.435 293.842 459.744 294.248 459.253 294.628C458.746 295.024 458.514 295.478 458.558 295.988C458.608 296.594 458.863 297.005 459.323 297.22C459.769 297.452 460.391 297.546 461.189 297.502C461.956 297.46 462.732 297.281 463.515 296.965C464.3 296.666 464.987 296.331 465.575 295.962L465.791 295.95Z" fill="white"/>
<path d="M485.918 285.429L485.681 300.619L474.403 300.444L474.451 297.324L481.89 297.44L481.935 294.56L475.48 294.46L475.528 291.34L481.984 291.441L482.03 288.489L474.59 288.373L474.639 285.254L485.918 285.429Z" fill="white"/>
<path d="M499.551 286.159L498.661 301.324L487.4 300.664L487.583 297.549L495.01 297.985L495.179 295.11L488.734 294.731L488.917 291.617L495.362 291.995L495.535 289.048L488.107 288.612L488.29 285.498L499.551 286.159Z" fill="white"/>
<path d="M503.258 289.771L503.564 286.762C504.344 286.681 505.104 286.638 505.844 286.632C506.585 286.627 507.456 286.676 508.459 286.778C509.748 286.909 510.827 287.131 511.696 287.445C512.549 287.756 513.218 288.219 513.702 288.831C514.169 289.457 514.47 290.3 514.603 291.359C514.737 292.418 514.721 293.759 514.556 295.383C514.397 296.943 514.148 298.212 513.807 299.19C513.466 300.169 513.006 300.902 512.425 301.39C511.827 301.892 511.08 302.202 510.184 302.32C509.27 302.452 508.168 302.453 506.879 302.322C505.876 302.22 505.012 302.092 504.288 301.938C503.562 301.799 502.826 301.604 502.08 301.351L502.396 298.247L502.472 298.207C503.125 298.434 503.758 298.611 504.372 298.738C504.985 298.88 505.745 298.998 506.652 299.09C507.385 299.165 507.995 299.17 508.484 299.108C508.955 299.059 509.342 298.897 509.643 298.622C509.944 298.347 510.181 297.921 510.352 297.343C510.507 296.764 510.635 295.981 510.736 294.994C510.841 293.96 510.878 293.119 510.847 292.473C510.799 291.84 510.656 291.351 510.417 291.006C510.179 290.66 509.835 290.408 509.385 290.249C508.918 290.089 508.319 289.972 507.587 289.898C506.696 289.807 505.937 289.754 505.311 289.739C504.668 289.737 504.02 289.784 503.367 289.879L503.258 289.771Z" fill="white"/>
<path d="M517.859 287.995L521.665 288.5L519.668 303.56L515.861 303.055L517.859 287.995Z" fill="white"/>
<path d="M592.061 315.575C592.423 315.921 592.89 316.251 593.463 316.563C594.021 316.87 594.613 317.121 595.24 317.315C596.401 317.676 597.295 317.711 597.922 317.419C598.548 317.128 599.076 316.454 599.504 315.398L599.481 315.391C599.113 315.444 598.647 315.433 598.084 315.359C597.521 315.284 596.903 315.143 596.231 314.934C594.748 314.474 593.727 313.771 593.166 312.826C592.605 311.882 592.542 310.706 592.979 309.3C593.292 308.292 593.718 307.486 594.257 306.883C594.792 306.295 595.505 305.938 596.399 305.814C597.272 305.699 598.396 305.856 599.771 306.283C601.269 306.748 602.357 307.371 603.036 308.151C603.7 308.927 604.036 309.894 604.045 311.053C604.054 312.211 603.809 313.593 603.311 315.197C602.789 316.878 602.12 318.17 601.304 319.073C600.467 319.986 599.53 320.549 598.492 320.763C597.449 320.992 596.332 320.921 595.14 320.551C594.131 320.238 593.302 319.888 592.651 319.502C592 319.116 591.477 318.752 591.08 318.411L591.955 315.592L592.061 315.575ZM598.903 309.079C598.063 308.818 597.454 308.78 597.079 308.965C596.703 309.15 596.418 309.556 596.223 310.182C596.015 310.855 596.04 311.365 596.301 311.714C596.556 312.078 597.066 312.379 597.83 312.616C598.304 312.763 598.771 312.85 599.232 312.876C599.693 312.901 600.064 312.866 600.346 312.769C600.722 311.612 600.798 310.773 600.574 310.252C600.331 309.74 599.774 309.35 598.903 309.079Z" fill="white"/>
<path d="M613.947 322.135L612.96 325.121C612.317 325.279 611.528 325.321 610.592 325.248C609.656 325.174 608.679 324.969 607.661 324.632C606.035 324.095 604.842 323.347 604.081 322.387C603.304 321.423 603.167 320.181 603.67 318.662C604.066 317.462 604.666 316.59 605.47 316.046C606.252 315.513 607.431 315.212 609.004 315.142C610.527 315.073 611.607 314.941 612.244 314.747C612.861 314.564 613.227 314.297 613.342 313.948L605.914 311.492L606.871 308.598L617.672 312.169L616.828 314.721C616.572 315.496 616.224 316.114 615.785 316.576C615.331 317.032 614.702 317.38 613.898 317.62C613.094 317.86 612.034 318.032 610.719 318.136C609.732 318.214 608.941 318.34 608.344 318.514C607.727 318.697 607.346 319.035 607.201 319.526C607.025 320.108 607.112 320.584 607.462 320.952C607.792 321.331 608.337 321.646 609.096 321.897C609.825 322.138 610.613 322.255 611.457 322.248C612.297 322.256 613.059 322.196 613.741 322.068L613.947 322.135Z" fill="white"/>
<path d="M616.7 319.698C617.302 317.976 617.982 316.663 618.739 315.758C619.496 314.854 620.394 314.32 621.434 314.159C622.474 313.997 623.726 314.172 625.191 314.684C626.641 315.192 627.722 315.832 628.434 316.607C629.146 317.382 629.517 318.359 629.545 319.538C629.573 320.717 629.286 322.168 628.684 323.89C628.076 325.627 627.394 326.947 626.637 327.852C625.88 328.757 624.981 329.29 623.942 329.452C622.902 329.614 621.657 329.441 620.207 328.934C618.742 328.422 617.654 327.778 616.941 327.004C616.229 326.229 615.859 325.252 615.831 324.073C615.803 322.893 616.092 321.435 616.7 319.698ZM624.137 317.698C623.11 317.338 622.322 317.435 621.772 317.989C621.202 318.553 620.674 319.529 620.188 320.918C619.697 322.323 619.501 323.416 619.601 324.196C619.686 324.972 620.242 325.539 621.269 325.898C622.281 326.252 623.069 326.155 623.634 325.607C624.183 325.053 624.704 324.074 625.195 322.67C625.681 321.28 625.884 320.19 625.805 319.399C625.705 318.619 625.149 318.051 624.137 317.698Z" fill="white"/>
<path d="M639.141 331.113L638.058 334.065C637.411 334.202 636.621 334.219 635.688 334.115C634.754 334.011 633.784 333.775 632.778 333.406C631.171 332.816 630.002 332.029 629.272 331.046C628.527 330.057 628.431 328.811 628.982 327.309C629.417 326.122 630.045 325.27 630.865 324.753C631.665 324.246 632.852 323.983 634.427 323.964C635.951 323.944 637.035 323.847 637.678 323.674C638.3 323.51 638.675 323.256 638.802 322.91L631.457 320.215L632.506 317.354L643.186 321.272L642.26 323.796C641.979 324.562 641.612 325.168 641.158 325.615C640.689 326.057 640.049 326.385 639.238 326.598C638.427 326.812 637.362 326.95 636.044 327.011C635.056 327.058 634.261 327.158 633.659 327.312C633.036 327.476 632.644 327.801 632.483 328.287C632.289 328.863 632.36 329.341 632.698 329.721C633.016 330.11 633.55 330.442 634.301 330.718C635.022 330.982 635.805 331.125 636.65 331.145C637.489 331.18 638.252 331.145 638.938 331.039L639.141 331.113Z" fill="white"/>
<path d="M661.576 328.466L656.07 342.626L645.557 338.538L646.688 335.63L653.622 338.326L654.666 335.642L648.649 333.302L649.779 330.394L655.796 332.734L656.866 329.983L649.932 327.286L651.063 324.378L661.576 328.466Z" fill="white"/>
<path d="M673.939 333.407L668.285 347.507L657.816 343.309L658.977 340.413L665.882 343.182L666.954 340.509L660.962 338.107L662.123 335.211L668.115 337.613L669.214 334.873L662.308 332.105L663.47 329.209L673.939 333.407Z" fill="white"/>
<path d="M674.678 337.252L675.829 334.455C676.6 334.599 677.341 334.774 678.052 334.98C678.763 335.186 679.585 335.481 680.517 335.865C681.716 336.358 682.686 336.878 683.43 337.427C684.158 337.968 684.668 338.602 684.958 339.327C685.227 340.06 685.275 340.954 685.101 342.007C684.927 343.06 684.53 344.341 683.909 345.85C683.312 347.3 682.711 348.446 682.106 349.287C681.5 350.128 680.85 350.699 680.155 351.001C679.438 351.312 678.634 351.396 677.741 351.254C676.827 351.12 675.771 350.807 674.572 350.314C673.64 349.93 672.849 349.561 672.199 349.207C671.542 348.868 670.893 348.471 670.249 348.016L671.437 345.131L671.521 345.114C672.082 345.517 672.639 345.868 673.191 346.164C673.738 346.476 674.433 346.805 675.276 347.152C675.957 347.432 676.541 347.611 677.027 347.69C677.493 347.778 677.909 347.733 678.276 347.556C678.644 347.378 678.992 347.037 679.32 346.532C679.634 346.021 679.98 345.307 680.358 344.389C680.753 343.427 681.029 342.632 681.183 342.004C681.317 341.384 681.319 340.875 681.189 340.475C681.06 340.076 680.801 339.736 680.415 339.456C680.014 339.17 679.473 338.887 678.792 338.607C677.963 338.266 677.251 337.999 676.656 337.806C676.04 337.621 675.405 337.482 674.753 337.386L674.678 337.252Z" fill="white"/>
<path d="M689.127 339.65L692.669 341.132L686.808 355.147L683.265 353.666L689.127 339.65Z" fill="white"/>
<path d="M757.406 381.117C757.726 381.502 758.154 381.881 758.688 382.256C759.208 382.624 759.769 382.939 760.369 383.203C761.483 383.691 762.367 383.826 763.023 383.607C763.678 383.388 764.278 382.777 764.822 381.775L764.8 381.766C764.428 381.777 763.966 381.715 763.415 381.578C762.864 381.44 762.266 381.231 761.621 380.948C760.2 380.324 759.263 379.512 758.812 378.51C758.36 377.508 758.43 376.333 759.021 374.985C759.446 374.018 759.959 373.265 760.563 372.726C761.16 372.202 761.909 371.928 762.81 371.904C763.691 371.888 764.79 372.169 766.109 372.748C767.545 373.378 768.557 374.119 769.144 374.97C769.717 375.816 769.942 376.814 769.821 377.967C769.7 379.119 769.302 380.465 768.627 382.003C767.92 383.615 767.11 384.823 766.198 385.629C765.265 386.442 764.27 386.897 763.215 386.993C762.153 387.104 761.05 386.909 759.907 386.407C758.94 385.983 758.155 385.542 757.552 385.086C756.949 384.629 756.469 384.209 756.113 383.825L757.299 381.122L757.406 381.117ZM764.933 375.429C764.127 375.076 763.527 374.97 763.133 375.111C762.739 375.253 762.41 375.624 762.146 376.225C761.864 376.87 761.832 377.38 762.051 377.756C762.265 378.146 762.737 378.502 763.47 378.824C763.924 379.023 764.379 379.161 764.834 379.239C765.289 379.316 765.662 379.322 765.953 379.258C766.456 378.15 766.626 377.325 766.462 376.782C766.278 376.246 765.768 375.796 764.933 375.429Z" fill="white"/>
<path d="M778.592 389.918L777.334 392.799C776.679 392.897 775.89 392.867 774.964 392.707C774.039 392.547 773.085 392.253 772.102 391.824C770.534 391.139 769.414 390.284 768.745 389.258C768.061 388.226 768.039 386.977 768.679 385.51C769.185 384.352 769.863 383.539 770.713 383.073C771.541 382.614 772.742 382.422 774.315 382.498C775.838 382.57 776.926 382.538 777.578 382.404C778.209 382.278 778.598 382.046 778.745 381.709L771.575 378.578L772.795 375.785L783.22 380.337L782.145 382.801C781.818 383.549 781.415 384.132 780.935 384.551C780.441 384.964 779.782 385.252 778.96 385.417C778.137 385.581 777.066 385.655 775.747 385.637C774.757 385.624 773.958 385.677 773.347 385.794C772.716 385.92 772.306 386.221 772.115 386.697C771.887 387.26 771.93 387.742 772.244 388.141C772.538 388.549 773.051 388.912 773.784 389.232C774.488 389.54 775.261 389.729 776.103 389.8C776.938 389.885 777.702 389.896 778.394 389.831L778.592 389.918Z" fill="white"/>
<path d="M781.57 387.733C782.295 386.059 783.067 384.798 783.888 383.95C784.708 383.103 785.643 382.636 786.692 382.549C787.74 382.463 788.977 382.728 790.401 383.345C791.81 383.955 792.842 384.672 793.497 385.496C794.151 386.32 794.45 387.322 794.393 388.5C794.336 389.678 793.945 391.104 793.22 392.778C792.489 394.467 791.713 395.735 790.893 396.583C790.072 397.43 789.138 397.897 788.089 397.984C787.04 398.07 785.811 397.808 784.402 397.198C782.977 396.581 781.938 395.86 781.284 395.036C780.629 394.212 780.33 393.211 780.387 392.033C780.444 390.855 780.839 389.421 781.57 387.733ZM789.132 386.274C788.134 385.842 787.341 385.882 786.753 386.394C786.144 386.915 785.546 387.851 784.961 389.201C784.37 390.567 784.096 391.643 784.139 392.429C784.168 393.208 784.681 393.814 785.68 394.246C786.663 394.672 787.457 394.632 788.059 394.126C788.648 393.614 789.237 392.675 789.829 391.309C790.414 389.959 790.695 388.886 790.673 388.092C790.63 387.306 790.116 386.7 789.132 386.274Z" fill="white"/>
<path d="M803.259 400.551L802.022 403.442C801.368 403.545 800.578 403.52 799.652 403.367C798.725 403.214 797.769 402.927 796.784 402.505C795.21 401.831 794.084 400.984 793.407 399.963C792.716 398.936 792.685 397.687 793.314 396.216C793.812 395.054 794.484 394.236 795.33 393.763C796.156 393.299 797.355 393.099 798.929 393.163C800.452 393.223 801.539 393.184 802.191 393.045C802.821 392.915 803.208 392.68 803.353 392.342L796.16 389.263L797.36 386.461L807.818 390.938L806.76 393.409C806.439 394.159 806.04 394.745 805.563 395.168C805.072 395.584 804.416 395.877 803.594 396.048C802.773 396.218 801.702 396.3 800.383 396.292C799.393 396.286 798.594 396.344 797.985 396.466C797.355 396.597 796.946 396.9 796.759 397.377C796.535 397.943 796.581 398.424 796.899 398.821C797.195 399.226 797.711 399.586 798.446 399.901C799.152 400.203 799.927 400.387 800.769 400.451C801.605 400.531 802.369 400.536 803.06 400.466L803.259 400.551Z" fill="white"/>
<path d="M825.735 398.598L819.878 412.615L809.47 408.266L810.673 405.387L817.538 408.256L818.648 405.598L812.691 403.109L813.894 400.23L819.851 402.72L820.989 399.996L814.125 397.127L815.328 394.248L825.735 398.598Z" fill="white"/>
<path d="M837.887 403.584L832.13 417.644L821.691 413.369L822.873 410.482L829.759 413.301L830.85 410.636L824.875 408.19L826.058 405.302L832.032 407.749L833.151 405.017L826.266 402.198L827.448 399.31L837.887 403.584Z" fill="white"/>
<path d="M838.483 407.376L839.605 404.568C840.377 404.704 841.12 404.872 841.833 405.071C842.546 405.27 843.371 405.556 844.307 405.93C845.51 406.411 846.487 406.922 847.235 407.462C847.97 407.997 848.485 408.625 848.783 409.347C849.059 410.078 849.116 410.97 848.953 412.025C848.79 413.08 848.406 414.365 847.8 415.881C847.218 417.337 846.629 418.488 846.032 419.335C845.435 420.182 844.791 420.76 844.098 421.07C843.385 421.388 842.582 421.48 841.687 421.347C840.772 421.222 839.713 420.92 838.509 420.439C837.573 420.065 836.779 419.704 836.125 419.357C835.465 419.024 834.811 418.634 834.163 418.185L835.321 415.288L835.406 415.27C835.97 415.668 836.531 416.012 837.086 416.303C837.636 416.609 838.334 416.931 839.181 417.27C839.865 417.543 840.45 417.716 840.937 417.791C841.404 417.874 841.82 417.824 842.185 417.643C842.551 417.462 842.895 417.117 843.219 416.609C843.528 416.095 843.866 415.377 844.234 414.456C844.62 413.49 844.887 412.692 845.036 412.062C845.163 411.441 845.16 410.932 845.026 410.534C844.892 410.136 844.631 409.798 844.241 409.522C843.837 409.24 843.293 408.962 842.61 408.689C841.778 408.357 841.063 408.097 840.466 407.91C839.848 407.732 839.212 407.599 838.558 407.51L838.483 407.376Z" fill="white"/>
<path d="M852.838 409.561L856.414 410.96L850.879 425.108L847.303 423.708L852.838 409.561Z" fill="white"/>
<path d="M923.358 445.882C923.725 446.223 924.197 446.545 924.775 446.848C925.338 447.147 925.934 447.389 926.563 447.574C927.73 447.916 928.624 447.937 929.246 447.636C929.868 447.336 930.385 446.654 930.798 445.591L930.775 445.584C930.407 445.643 929.941 445.639 929.377 445.574C928.812 445.508 928.193 445.376 927.517 445.177C926.028 444.74 924.996 444.053 924.42 443.117C923.845 442.181 923.765 441.007 924.179 439.594C924.477 438.581 924.891 437.769 925.421 437.157C925.946 436.561 926.654 436.194 927.545 436.056C928.417 435.928 929.543 436.067 930.925 436.473C932.429 436.915 933.527 437.521 934.218 438.291C934.893 439.056 935.245 440.018 935.271 441.177C935.298 442.335 935.074 443.72 934.601 445.332C934.105 447.021 933.455 448.323 932.653 449.238C931.831 450.163 930.902 450.741 929.868 450.971C928.828 451.216 927.71 451.162 926.513 450.811C925.499 450.513 924.665 450.176 924.008 449.8C923.351 449.424 922.822 449.068 922.42 448.733L923.252 445.901L923.358 445.882ZM930.099 439.282C929.255 439.034 928.646 439.006 928.274 439.196C927.901 439.387 927.622 439.797 927.437 440.426C927.239 441.102 927.272 441.612 927.538 441.957C927.799 442.317 928.313 442.61 929.081 442.835C929.557 442.975 930.025 443.054 930.487 443.073C930.948 443.092 931.319 443.051 931.599 442.949C931.957 441.787 932.02 440.947 931.789 440.429C931.538 439.922 930.974 439.539 930.099 439.282Z" fill="white"/>
<path d="M945.545 451.73L944.715 454.763C944.082 454.954 943.296 455.038 942.357 455.013C941.418 454.988 940.432 454.834 939.398 454.551C937.747 454.098 936.516 453.413 935.706 452.494C934.88 451.571 934.679 450.338 935.102 448.795C935.436 447.576 935.99 446.674 936.763 446.09C937.518 445.517 938.679 445.155 940.246 445.004C941.763 444.855 942.835 444.668 943.461 444.441C944.068 444.225 944.419 443.94 944.517 443.585L936.971 441.518L937.776 438.579L948.748 441.584L948.038 444.177C947.822 444.964 947.507 445.599 947.092 446.083C946.662 446.562 946.052 446.942 945.262 447.223C944.472 447.505 943.422 447.732 942.114 447.904C941.133 448.034 940.349 448.2 939.763 448.405C939.156 448.62 938.793 448.977 938.673 449.475C938.528 450.065 938.64 450.536 939.008 450.885C939.357 451.246 939.918 451.533 940.689 451.744C941.43 451.947 942.222 452.023 943.065 451.972C943.905 451.936 944.662 451.837 945.337 451.673L945.545 451.73Z" fill="white"/>
<path d="M948.13 449.112C948.576 447.343 949.135 445.974 949.808 445.005C950.48 444.036 951.327 443.424 952.348 443.17C953.369 442.915 954.632 442.977 956.137 443.356C957.627 443.731 958.761 444.272 959.54 444.98C960.319 445.687 960.775 446.627 960.909 447.799C961.043 448.971 960.888 450.442 960.443 452.211C959.993 453.995 959.432 455.372 958.76 456.341C958.087 457.31 957.24 457.922 956.219 458.176C955.198 458.431 953.943 458.371 952.453 457.996C950.948 457.617 949.806 457.074 949.027 456.366C948.248 455.659 947.792 454.719 947.658 453.547C947.524 452.375 947.681 450.896 948.13 449.112ZM955.358 446.452C954.303 446.186 953.527 446.354 953.029 446.954C952.512 447.567 952.074 448.587 951.715 450.014C951.352 451.457 951.255 452.563 951.424 453.331C951.578 454.096 952.183 454.611 953.238 454.877C954.277 455.139 955.054 454.971 955.567 454.374C956.065 453.773 956.495 452.752 956.858 451.309C957.218 449.881 957.322 448.777 957.172 447.997C957.003 447.228 956.398 446.713 955.358 446.452Z" fill="white"/>
<path d="M971.664 458.063L970.964 461.128C970.34 461.347 969.559 461.464 968.62 461.479C967.681 461.495 966.689 461.384 965.643 461.145C963.974 460.765 962.715 460.133 961.866 459.25C961.002 458.363 960.748 457.14 961.103 455.58C961.384 454.348 961.899 453.423 962.647 452.806C963.376 452.201 964.52 451.789 966.08 451.57C967.589 451.357 968.652 451.123 969.267 450.87C969.864 450.628 970.203 450.328 970.285 449.97L962.657 448.23L963.335 445.258L974.426 447.788L973.828 450.409C973.647 451.204 973.359 451.852 972.966 452.354C972.557 452.851 971.964 453.257 971.186 453.572C970.409 453.887 969.37 454.159 968.071 454.388C967.096 454.559 966.32 454.76 965.743 454.989C965.146 455.231 964.799 455.603 964.701 456.105C964.581 456.702 964.713 457.167 965.096 457.5C965.461 457.846 966.033 458.108 966.813 458.286C967.561 458.456 968.356 458.498 969.196 458.411C970.033 458.339 970.786 458.207 971.453 458.015L971.664 458.063Z" fill="white"/>
<path d="M993.252 451.647L990.412 466.571L979.33 464.462L979.914 461.397L987.223 462.788L987.761 459.959L981.419 458.752L982.002 455.687L988.344 456.894L988.896 453.994L981.587 452.603L982.171 449.538L993.252 451.647Z" fill="white"/>
<path d="M1006.04 453.775L1003.58 468.768L992.451 466.945L992.955 463.866L1000.3 465.068L1000.76 462.226L994.392 461.183L994.896 458.104L1001.27 459.147L1001.74 456.234L994.402 455.032L994.906 451.953L1006.04 453.775Z" fill="white"/>
<path d="M1007.36 457.31L1007.77 454.313C1008.55 454.258 1009.31 454.24 1010.05 454.26C1010.79 454.28 1011.66 454.357 1012.66 454.493C1013.95 454.667 1015.02 454.926 1015.88 455.268C1016.72 455.608 1017.37 456.092 1017.83 456.721C1018.28 457.362 1018.55 458.215 1018.65 459.277C1018.75 460.34 1018.69 461.68 1018.47 463.297C1018.26 464.851 1017.96 466.111 1017.59 467.078C1017.22 468.045 1016.73 468.762 1016.14 469.23C1015.52 469.712 1014.77 469.996 1013.87 470.084C1012.95 470.186 1011.85 470.149 1010.56 469.975C1009.56 469.84 1008.7 469.683 1007.99 469.504C1007.27 469.342 1006.54 469.122 1005.8 468.844L1006.22 465.753L1006.3 465.715C1006.94 465.964 1007.57 466.162 1008.18 466.309C1008.78 466.472 1009.54 466.615 1010.44 466.738C1011.17 466.837 1011.78 466.863 1012.27 466.817C1012.75 466.784 1013.14 466.635 1013.45 466.371C1013.76 466.106 1014.01 465.688 1014.2 465.116C1014.38 464.542 1014.53 463.764 1014.66 462.781C1014.8 461.751 1014.87 460.912 1014.86 460.265C1014.83 459.631 1014.7 459.138 1014.48 458.784C1014.25 458.43 1013.92 458.167 1013.47 457.993C1013.01 457.818 1012.42 457.681 1011.69 457.582C1010.8 457.461 1010.04 457.383 1009.42 457.346C1008.77 457.324 1008.13 457.349 1007.47 457.421L1007.36 457.31Z" fill="white"/>
<path d="M1021.7 455.908L1025.51 456.341L1023.8 471.436L1019.98 471.002L1021.7 455.908Z" fill="white"/>
<path d="M1099.74 468.589C1100.21 468.771 1100.76 468.896 1101.41 468.965C1102.05 469.035 1102.69 469.041 1103.34 468.981C1104.55 468.869 1105.39 468.559 1105.86 468.05C1106.33 467.541 1106.56 466.717 1106.55 465.577L1106.52 465.579C1106.2 465.769 1105.77 465.938 1105.22 466.085C1104.67 466.231 1104.05 466.337 1103.35 466.401C1101.8 466.543 1100.59 466.285 1099.71 465.627C1098.83 464.969 1098.32 463.907 1098.19 462.441C1098.09 461.389 1098.17 460.482 1098.44 459.718C1098.71 458.97 1099.23 458.368 1100.01 457.911C1100.77 457.471 1101.87 457.186 1103.31 457.054C1104.87 456.91 1106.11 457.069 1107.04 457.53C1107.95 457.993 1108.63 458.758 1109.08 459.825C1109.53 460.892 1109.83 462.262 1109.99 463.935C1110.15 465.688 1110.03 467.137 1109.62 468.284C1109.19 469.447 1108.54 470.326 1107.67 470.921C1106.79 471.532 1105.73 471.894 1104.49 472.008C1103.44 472.105 1102.54 472.099 1101.79 471.992C1101.04 471.884 1100.41 471.748 1099.92 471.585L1099.65 468.645L1099.74 468.589ZM1103.57 459.97C1102.7 460.05 1102.12 460.248 1101.85 460.562C1101.57 460.877 1101.46 461.361 1101.52 462.014C1101.59 462.715 1101.8 463.177 1102.18 463.4C1102.55 463.638 1103.14 463.721 1103.94 463.648C1104.43 463.602 1104.9 463.503 1105.33 463.351C1105.77 463.198 1106.1 463.024 1106.32 462.826C1106.22 461.614 1105.97 460.81 1105.57 460.413C1105.15 460.034 1104.48 459.886 1103.57 459.97Z" fill="white"/>
<path d="M1122.59 465.647L1122.99 468.766C1122.48 469.186 1121.78 469.565 1120.91 469.902C1120.03 470.24 1119.06 470.476 1118 470.612C1116.3 470.829 1114.9 470.668 1113.8 470.131C1112.68 469.596 1112.02 468.535 1111.82 466.948C1111.66 465.694 1111.83 464.649 1112.32 463.812C1112.79 462.993 1113.73 462.213 1115.11 461.471C1116.46 460.752 1117.38 460.167 1117.87 459.717C1118.34 459.285 1118.56 458.887 1118.51 458.522L1110.75 459.512L1110.37 456.488L1121.65 455.049L1121.99 457.715C1122.09 458.525 1122.05 459.232 1121.85 459.838C1121.64 460.446 1121.22 461.031 1120.6 461.595C1119.98 462.158 1119.09 462.77 1117.95 463.432C1117.1 463.928 1116.44 464.383 1115.97 464.797C1115.5 465.229 1115.3 465.698 1115.38 466.204C1115.47 466.805 1115.76 467.196 1116.23 467.378C1116.69 467.577 1117.32 467.626 1118.11 467.525C1118.87 467.428 1119.63 467.193 1120.39 466.822C1121.16 466.467 1121.82 466.085 1122.38 465.674L1122.59 465.647Z" fill="white"/>
<path d="M1124.03 462.212C1123.73 460.413 1123.7 458.934 1123.93 457.777C1124.16 456.62 1124.69 455.721 1125.52 455.08C1126.36 454.438 1127.54 453.991 1129.07 453.737C1130.59 453.485 1131.84 453.528 1132.84 453.866C1133.84 454.203 1134.63 454.882 1135.22 455.903C1135.81 456.924 1136.26 458.335 1136.55 460.134C1136.86 461.949 1136.89 463.435 1136.66 464.593C1136.43 465.75 1135.9 466.649 1135.07 467.29C1134.23 467.931 1133.06 468.378 1131.54 468.629C1130.01 468.883 1128.75 468.842 1127.75 468.504C1126.75 468.167 1125.96 467.487 1125.37 466.466C1124.78 465.445 1124.33 464.027 1124.03 462.212ZM1129.59 456.886C1128.52 457.064 1127.87 457.528 1127.66 458.277C1127.43 459.045 1127.43 460.155 1127.68 461.607C1127.92 463.075 1128.27 464.128 1128.73 464.764C1129.18 465.404 1129.94 465.635 1131.02 465.457C1132.07 465.281 1132.72 464.817 1132.95 464.065C1133.17 463.316 1133.15 462.207 1132.91 460.739C1132.67 459.287 1132.32 458.233 1131.87 457.578C1131.41 456.941 1130.65 456.71 1129.59 456.886Z" fill="white"/>
<path d="M1149.25 460.821L1149.88 463.901C1149.4 464.358 1148.74 464.788 1147.89 465.191C1147.04 465.593 1146.09 465.902 1145.04 466.118C1143.37 466.462 1141.96 466.407 1140.82 465.955C1139.67 465.505 1138.93 464.497 1138.61 462.93C1138.35 461.691 1138.44 460.637 1138.87 459.765C1139.28 458.913 1140.15 458.065 1141.48 457.22C1142.76 456.401 1143.64 455.749 1144.09 455.264C1144.53 454.797 1144.72 454.384 1144.65 454.023L1136.98 455.595L1136.37 452.609L1147.51 450.324L1148.05 452.957C1148.22 453.756 1148.22 454.465 1148.07 455.084C1147.91 455.706 1147.53 456.322 1146.96 456.93C1146.38 457.539 1145.55 458.216 1144.46 458.962C1143.64 459.521 1143.02 460.024 1142.59 460.472C1142.14 460.939 1141.98 461.421 1142.1 461.919C1142.24 462.512 1142.55 462.881 1143.04 463.026C1143.51 463.19 1144.14 463.191 1144.92 463.031C1145.68 462.876 1146.42 462.586 1147.15 462.159C1147.88 461.747 1148.51 461.316 1149.04 460.864L1149.25 460.821Z" fill="white"/>
<path d="M1166.12 445.758L1170.01 460.444L1159.1 463.33L1158.31 460.314L1165.5 458.41L1164.76 455.626L1158.52 457.278L1157.72 454.262L1163.96 452.61L1163.21 449.757L1156.01 451.66L1155.22 448.644L1166.12 445.758Z" fill="white"/>
<path d="M1178.5 442.036L1182.93 456.569L1172.14 459.856L1171.23 456.872L1178.34 454.704L1177.5 451.949L1171.33 453.83L1170.42 450.845L1176.6 448.964L1175.74 446.14L1168.62 448.308L1167.71 445.324L1178.5 442.036Z" fill="white"/>
<path d="M1181.23 444.621L1180.25 441.762C1180.92 441.361 1181.59 441.002 1182.26 440.686C1182.93 440.37 1183.74 440.048 1184.69 439.719C1185.92 439.296 1186.99 439.045 1187.91 438.964C1188.82 438.889 1189.62 439.027 1190.31 439.379C1191 439.751 1191.63 440.389 1192.19 441.294C1192.76 442.199 1193.31 443.423 1193.84 444.965C1194.35 446.448 1194.66 447.704 1194.76 448.735C1194.86 449.767 1194.76 450.625 1194.43 451.312C1194.1 452.019 1193.55 452.614 1192.79 453.098C1192.02 453.602 1191.02 454.065 1189.79 454.488C1188.84 454.817 1188 455.064 1187.28 455.228C1186.56 455.408 1185.81 455.54 1185.03 455.624L1184.01 452.675L1184.06 452.606C1184.75 452.538 1185.4 452.432 1186.01 452.289C1186.63 452.161 1187.37 451.948 1188.23 451.651C1188.92 451.411 1189.48 451.159 1189.9 450.897C1190.31 450.655 1190.59 450.346 1190.75 449.97C1190.9 449.594 1190.94 449.107 1190.85 448.511C1190.75 447.92 1190.54 447.156 1190.21 446.218C1189.87 445.235 1189.55 444.457 1189.25 443.883C1188.94 443.33 1188.61 442.946 1188.25 442.733C1187.89 442.519 1187.47 442.435 1186.99 442.48C1186.5 442.531 1185.91 442.676 1185.21 442.917C1184.37 443.209 1183.66 443.48 1183.08 443.729C1182.5 443.998 1181.93 444.312 1181.38 444.673L1181.23 444.621Z" fill="white"/>
<path d="M1193.35 436.923L1196.94 435.572L1202.29 449.792L1198.69 451.143L1193.35 436.923Z" fill="white"/>
<path d="M1267.74 412.419C1268.24 412.361 1268.79 412.21 1269.4 411.966C1269.99 411.73 1270.56 411.433 1271.11 411.073C1272.13 410.406 1272.72 409.738 1272.89 409.069C1273.07 408.4 1272.88 407.565 1272.34 406.562L1272.32 406.575C1272.13 406.894 1271.82 407.246 1271.41 407.634C1270.99 408.021 1270.49 408.408 1269.9 408.794C1268.6 409.645 1267.41 409.987 1266.33 409.819C1265.24 409.652 1264.29 408.952 1263.49 407.722C1262.91 406.839 1262.56 405.997 1262.43 405.198C1262.32 404.411 1262.5 403.634 1262.97 402.865C1263.44 402.119 1264.27 401.35 1265.48 400.56C1266.79 399.7 1267.96 399.256 1268.99 399.229C1270.01 399.209 1270.98 399.565 1271.87 400.295C1272.77 401.025 1273.69 402.092 1274.61 403.497C1275.57 404.969 1276.14 406.306 1276.32 407.51C1276.49 408.736 1276.33 409.818 1275.84 410.755C1275.35 411.706 1274.59 412.523 1273.54 413.208C1272.66 413.787 1271.86 414.205 1271.15 414.461C1270.44 414.718 1269.83 414.891 1269.31 414.98L1267.69 412.512L1267.74 412.419ZM1267.08 403.009C1266.35 403.491 1265.93 403.936 1265.83 404.344C1265.74 404.752 1265.87 405.23 1266.23 405.778C1266.62 406.367 1267.03 406.672 1267.46 406.693C1267.9 406.727 1268.46 406.525 1269.13 406.086C1269.54 405.814 1269.91 405.508 1270.22 405.169C1270.53 404.829 1270.74 404.52 1270.85 404.241C1270.19 403.216 1269.59 402.623 1269.05 402.464C1268.5 402.327 1267.84 402.508 1267.08 403.009Z" fill="white"/>
<path d="M1286.89 398.768L1288.72 401.326C1288.47 401.938 1288.03 402.6 1287.42 403.313C1286.81 404.026 1286.07 404.694 1285.2 405.317C1283.81 406.313 1282.5 406.835 1281.27 406.884C1280.04 406.943 1278.95 406.321 1278.02 405.02C1277.29 403.991 1276.94 402.993 1276.97 402.024C1277 401.077 1277.45 399.948 1278.33 398.636C1279.17 397.365 1279.7 396.415 1279.92 395.787C1280.13 395.18 1280.13 394.727 1279.92 394.428L1273.55 398.979L1271.78 396.499L1281.04 389.883L1282.6 392.069C1283.07 392.733 1283.37 393.378 1283.48 394.005C1283.58 394.641 1283.49 395.354 1283.21 396.145C1282.93 396.936 1282.45 397.893 1281.75 399.017C1281.24 399.859 1280.87 400.573 1280.66 401.157C1280.44 401.763 1280.49 402.27 1280.8 402.677C1281.17 403.163 1281.6 403.373 1282.11 403.307C1282.61 403.264 1283.18 403.01 1283.83 402.545C1284.46 402.098 1285.02 401.531 1285.51 400.845C1286.01 400.171 1286.41 399.521 1286.71 398.894L1286.89 398.768Z" fill="white"/>
<path d="M1285.88 395.559C1284.76 394.124 1284.02 392.844 1283.66 391.719C1283.31 390.593 1283.34 389.549 1283.77 388.586C1284.19 387.623 1285.01 386.662 1286.23 385.704C1287.44 384.756 1288.57 384.191 1289.6 384.008C1290.64 383.826 1291.66 384.04 1292.67 384.652C1293.68 385.264 1294.75 386.288 1295.87 387.723C1297.01 389.17 1297.75 390.457 1298.11 391.582C1298.46 392.708 1298.43 393.752 1298 394.715C1297.58 395.678 1296.76 396.633 1295.55 397.582C1294.33 398.539 1293.2 399.11 1292.17 399.292C1291.13 399.475 1290.11 399.26 1289.1 398.648C1288.09 398.037 1287.02 397.007 1285.88 395.559ZM1288.2 388.216C1287.35 388.887 1287.01 389.604 1287.18 390.365C1287.34 391.149 1287.88 392.12 1288.79 393.278C1289.71 394.449 1290.52 395.202 1291.24 395.539C1291.93 395.885 1292.71 395.723 1293.57 395.051C1294.41 394.39 1294.75 393.673 1294.6 392.902C1294.43 392.141 1293.88 391.175 1292.96 390.004C1292.05 388.846 1291.25 388.087 1290.54 387.728C1289.83 387.392 1289.05 387.554 1288.2 388.216Z" fill="white"/>
<path d="M1307.71 381.765L1309.76 384.144C1309.57 384.776 1309.2 385.475 1308.66 386.241C1308.11 387.007 1307.43 387.74 1306.62 388.441C1305.33 389.561 1304.07 390.201 1302.86 390.362C1301.63 390.533 1300.5 390.014 1299.45 388.803C1298.62 387.847 1298.18 386.884 1298.13 385.916C1298.07 384.971 1298.42 383.805 1299.17 382.419C1299.89 381.076 1300.33 380.081 1300.49 379.435C1300.65 378.812 1300.61 378.361 1300.37 378.082L1294.45 383.198L1292.46 380.891L1301.06 373.453L1302.82 375.487C1303.35 376.105 1303.71 376.72 1303.88 377.334C1304.04 377.958 1304.01 378.677 1303.81 379.49C1303.6 380.303 1303.2 381.3 1302.62 382.483C1302.18 383.37 1301.88 384.114 1301.72 384.715C1301.56 385.338 1301.66 385.839 1302 386.216C1302.41 386.665 1302.87 386.834 1303.36 386.723C1303.86 386.634 1304.41 386.328 1305.01 385.805C1305.59 385.303 1306.1 384.688 1306.53 383.959C1306.96 383.242 1307.3 382.558 1307.54 381.906L1307.71 381.765Z" fill="white"/>
<path d="M1314.34 360.666L1325.12 371.372L1317.17 379.375L1314.95 377.177L1320.2 371.898L1318.15 369.868L1313.6 374.449L1311.39 372.25L1315.94 367.67L1313.84 365.589L1308.6 370.868L1306.39 368.67L1314.34 360.666Z" fill="white"/>
<path d="M1322.82 351.247L1334.16 361.353L1326.65 369.775L1324.33 367.7L1329.27 362.144L1327.12 360.229L1322.83 365.049L1320.5 362.974L1324.79 358.153L1322.59 356.19L1317.64 361.745L1315.31 359.669L1322.82 351.247Z" fill="white"/>
<path d="M1326.38 352.156L1324.01 350.278C1324.36 349.577 1324.73 348.913 1325.12 348.286C1325.52 347.66 1326.03 346.951 1326.65 346.161C1327.46 345.145 1328.23 344.355 1328.96 343.792C1329.68 343.241 1330.43 342.926 1331.21 342.847C1331.99 342.791 1332.86 342.991 1333.82 343.448C1334.79 343.906 1335.91 344.641 1337.19 345.654C1338.42 346.628 1339.35 347.521 1339.99 348.335C1340.63 349.149 1341 349.932 1341.1 350.683C1341.2 351.458 1341.06 352.254 1340.68 353.073C1340.3 353.915 1339.71 354.843 1338.9 355.859C1338.28 356.65 1337.7 357.309 1337.19 357.836C1336.68 358.373 1336.12 358.888 1335.5 359.381L1333.06 357.444L1333.06 357.358C1333.61 356.931 1334.1 356.492 1334.53 356.043C1334.98 355.603 1335.49 355.026 1336.06 354.311C1336.51 353.734 1336.85 353.222 1337.06 352.776C1337.27 352.353 1337.34 351.94 1337.27 351.539C1337.2 351.137 1336.97 350.708 1336.58 350.253C1336.17 349.81 1335.58 349.281 1334.8 348.665C1333.99 348.019 1333.3 347.535 1332.74 347.213C1332.18 346.914 1331.69 346.771 1331.27 346.786C1330.85 346.801 1330.45 346.955 1330.08 347.249C1329.69 347.556 1329.27 347.998 1328.81 348.575C1328.26 349.277 1327.8 349.888 1327.45 350.407C1327.11 350.949 1326.8 351.52 1326.53 352.121L1326.38 352.156Z" fill="white"/>
<path d="M1332.52 338.974L1334.76 335.855L1347.1 344.714L1344.87 347.833L1332.52 338.974Z" fill="white"/>
<path d="M1373.72 273.376C1374.01 272.967 1374.27 272.457 1374.49 271.844C1374.72 271.247 1374.88 270.625 1374.98 269.976C1375.17 268.775 1375.07 267.885 1374.69 267.308C1374.31 266.731 1373.57 266.308 1372.46 266.038L1372.46 266.062C1372.56 266.419 1372.62 266.881 1372.63 267.449C1372.64 268.017 1372.59 268.649 1372.48 269.345C1372.24 270.878 1371.69 271.992 1370.84 272.685C1369.99 273.378 1368.84 273.612 1367.38 273.385C1366.34 273.223 1365.48 272.919 1364.8 272.474C1364.14 272.032 1363.69 271.378 1363.43 270.512C1363.19 269.665 1363.18 268.53 1363.4 267.107C1363.64 265.558 1364.1 264.39 1364.77 263.604C1365.44 262.834 1366.35 262.36 1367.5 262.182C1368.64 262.004 1370.04 262.044 1371.7 262.302C1373.44 262.572 1374.82 263.045 1375.83 263.721C1376.86 264.415 1377.55 265.259 1377.91 266.255C1378.29 267.253 1378.39 268.369 1378.2 269.602C1378.03 270.646 1377.81 271.517 1377.52 272.218C1377.23 272.918 1376.95 273.489 1376.67 273.931L1373.76 273.478L1373.72 273.376ZM1366.3 267.557C1366.16 268.427 1366.21 269.034 1366.45 269.379C1366.69 269.723 1367.13 269.946 1367.78 270.047C1368.47 270.155 1368.98 270.055 1369.28 269.746C1369.61 269.44 1369.83 268.892 1369.95 268.102C1370.03 267.611 1370.05 267.136 1370 266.677C1369.96 266.217 1369.87 265.855 1369.74 265.59C1368.54 265.388 1367.69 265.435 1367.21 265.732C1366.74 266.048 1366.44 266.656 1366.3 267.557Z" fill="white"/>
<path d="M1375.87 250.204L1379.01 250.418C1379.32 251.001 1379.56 251.755 1379.72 252.68C1379.88 253.605 1379.92 254.603 1379.85 255.672C1379.73 257.38 1379.3 258.722 1378.56 259.698C1377.82 260.69 1376.65 261.131 1375.06 261.022C1373.8 260.935 1372.8 260.571 1372.08 259.928C1371.37 259.302 1370.78 258.235 1370.32 256.729C1369.88 255.271 1369.48 254.257 1369.14 253.688C1368.81 253.136 1368.46 252.848 1368.09 252.823L1367.55 260.629L1364.51 260.421L1365.29 249.071L1367.97 249.255C1368.79 249.31 1369.47 249.493 1370.03 249.804C1370.58 250.131 1371.08 250.654 1371.51 251.373C1371.94 252.092 1372.37 253.076 1372.8 254.324C1373.12 255.26 1373.44 255.995 1373.75 256.53C1374.08 257.082 1374.51 257.367 1375.02 257.386C1375.63 257.412 1376.06 257.209 1376.33 256.779C1376.62 256.365 1376.79 255.76 1376.84 254.961C1376.9 254.195 1376.81 253.404 1376.6 252.587C1376.4 251.771 1376.15 251.049 1375.86 250.419L1375.87 250.204Z" fill="white"/>
<path d="M1372.74 248.697C1370.92 248.745 1369.45 248.576 1368.33 248.189C1367.22 247.802 1366.4 247.151 1365.88 246.237C1365.36 245.322 1365.08 244.089 1365.04 242.537C1365 241.002 1365.21 239.764 1365.69 238.823C1366.16 237.882 1366.94 237.19 1368.03 236.745C1369.12 236.3 1370.58 236.053 1372.41 236.005C1374.25 235.957 1375.72 236.126 1376.84 236.513C1377.95 236.9 1378.77 237.55 1379.29 238.465C1379.81 239.38 1380.09 240.605 1380.13 242.14C1380.17 243.692 1379.96 244.938 1379.48 245.878C1379.01 246.819 1378.23 247.512 1377.14 247.957C1376.05 248.402 1374.58 248.649 1372.74 248.697ZM1368.23 242.453C1368.26 243.541 1368.63 244.244 1369.34 244.561C1370.07 244.894 1371.17 245.041 1372.64 245.002C1374.13 244.963 1375.22 244.758 1375.92 244.388C1376.61 244.033 1376.94 243.312 1376.92 242.225C1376.89 241.153 1376.52 240.451 1375.8 240.117C1375.09 239.8 1373.99 239.661 1372.5 239.7C1371.03 239.739 1369.94 239.936 1369.23 240.29C1368.54 240.661 1368.2 241.382 1368.23 242.453Z" fill="white"/>
<path d="M1374.13 223.414L1377.25 223.026C1377.67 223.538 1378.05 224.233 1378.38 225.11C1378.72 225.988 1378.95 226.958 1379.08 228.022C1379.29 229.721 1379.13 231.12 1378.59 232.219C1378.05 233.334 1376.99 233.991 1375.4 234.188C1374.15 234.344 1373.1 234.176 1372.27 233.683C1371.45 233.204 1370.67 232.269 1369.93 230.877C1369.22 229.531 1368.64 228.612 1368.19 228.12C1367.76 227.641 1367.36 227.425 1366.99 227.47L1367.96 235.234L1364.93 235.61L1363.53 224.321L1366.2 223.99C1367.01 223.889 1367.72 223.938 1368.32 224.137C1368.93 224.351 1369.51 224.771 1370.07 225.394C1370.63 226.018 1371.24 226.901 1371.9 228.045C1372.4 228.902 1372.85 229.563 1373.26 230.028C1373.69 230.507 1374.16 230.706 1374.67 230.627C1375.27 230.536 1375.66 230.254 1375.84 229.78C1376.04 229.319 1376.09 228.692 1376 227.898C1375.9 227.136 1375.67 226.375 1375.3 225.615C1374.95 224.852 1374.57 224.19 1374.16 223.628L1374.13 223.414Z" fill="white"/>
<path d="M1359.19 206.518L1373.81 202.379L1376.88 213.233L1373.88 214.083L1371.85 206.924L1369.08 207.709L1370.84 213.921L1367.84 214.771L1366.08 208.559L1363.24 209.363L1365.26 216.522L1362.26 217.371L1359.19 206.518Z" fill="white"/>
<path d="M1354.54 194.559L1368.65 188.94L1372.82 199.42L1369.93 200.574L1367.17 193.661L1364.5 194.727L1366.89 200.725L1363.99 201.879L1361.6 195.881L1358.86 196.973L1361.61 203.885L1358.71 205.039L1354.54 194.559Z" fill="white"/>
<path d="M1357.19 192.318L1354.51 193.716C1354.01 193.109 1353.56 192.497 1353.15 191.881C1352.74 191.266 1352.3 190.511 1351.83 189.617C1351.23 188.468 1350.83 187.444 1350.61 186.546C1350.4 185.662 1350.42 184.849 1350.67 184.108C1350.93 183.374 1351.47 182.66 1352.28 181.966C1353.09 181.273 1354.22 180.549 1355.67 179.795C1357.06 179.07 1358.26 178.581 1359.26 178.328C1360.27 178.075 1361.13 178.057 1361.86 178.274C1362.61 178.498 1363.28 178.952 1363.87 179.636C1364.48 180.327 1365.09 181.247 1365.69 182.397C1366.15 183.291 1366.52 184.082 1366.79 184.772C1367.07 185.454 1367.31 186.177 1367.51 186.939L1364.75 188.381L1364.67 188.339C1364.5 187.669 1364.3 187.043 1364.07 186.46C1363.85 185.87 1363.53 185.17 1363.11 184.361C1362.77 183.709 1362.44 183.195 1362.12 182.821C1361.82 182.454 1361.47 182.22 1361.08 182.12C1360.68 182.019 1360.2 182.056 1359.62 182.23C1359.05 182.418 1358.33 182.742 1357.45 183.2C1356.52 183.681 1355.8 184.112 1355.28 184.492C1354.78 184.88 1354.45 185.269 1354.29 185.658C1354.13 186.047 1354.11 186.473 1354.22 186.936C1354.35 187.414 1354.58 187.979 1354.92 188.631C1355.33 189.426 1355.7 190.089 1356.04 190.62C1356.39 191.158 1356.78 191.674 1357.22 192.167L1357.19 192.318Z" fill="white"/>
<path d="M1348.03 181.995L1346.01 178.728L1358.93 170.74L1360.95 174.006L1348.03 181.995Z" fill="white"/>
<path d="M1299.84 121.958C1299.55 121.553 1299.15 121.145 1298.64 120.735C1298.14 120.333 1297.61 119.981 1297.02 119.677C1295.95 119.115 1295.07 118.921 1294.4 119.096C1293.74 119.27 1293.1 119.839 1292.49 120.802L1292.51 120.813C1292.88 120.826 1293.34 120.92 1293.88 121.094C1294.42 121.268 1295 121.518 1295.62 121.843C1297 122.561 1297.88 123.435 1298.26 124.465C1298.65 125.495 1298.5 126.662 1297.82 127.967C1297.33 128.904 1296.76 129.62 1296.13 130.117C1295.5 130.6 1294.73 130.823 1293.83 130.787C1292.95 130.743 1291.87 130.388 1290.59 129.722C1289.2 128.997 1288.24 128.19 1287.72 127.3C1287.2 126.418 1287.04 125.407 1287.24 124.265C1287.44 123.123 1287.93 121.808 1288.7 120.318C1289.52 118.758 1290.41 117.607 1291.37 116.864C1292.36 116.116 1293.38 115.729 1294.44 115.704C1295.51 115.665 1296.59 115.934 1297.7 116.511C1298.64 117 1299.39 117.492 1299.96 117.989C1300.53 118.485 1300.98 118.936 1301.31 119.343L1299.95 121.96L1299.84 121.958ZM1291.95 127.126C1292.73 127.533 1293.32 127.679 1293.72 127.564C1294.13 127.45 1294.48 127.101 1294.78 126.52C1295.11 125.896 1295.17 125.389 1294.98 124.999C1294.79 124.595 1294.35 124.208 1293.64 123.838C1293.2 123.609 1292.75 123.44 1292.3 123.332C1291.85 123.224 1291.48 123.193 1291.19 123.238C1290.61 124.308 1290.39 125.12 1290.51 125.674C1290.66 126.22 1291.14 126.704 1291.95 127.126Z" fill="white"/>
<path d="M1278.59 112.283L1279.84 109.401C1280.5 109.302 1281.29 109.333 1282.21 109.492C1283.14 109.651 1284.09 109.945 1285.07 110.374C1286.64 111.059 1287.76 111.913 1288.43 112.939C1289.12 113.971 1289.14 115.22 1288.5 116.686C1287.99 117.845 1287.32 118.658 1286.47 119.125C1285.64 119.584 1284.44 119.776 1282.86 119.701C1281.34 119.63 1280.25 119.662 1279.6 119.796C1278.97 119.922 1278.58 120.154 1278.44 120.491L1285.61 123.62L1284.39 126.413L1273.96 121.865L1275.04 119.401C1275.36 118.653 1275.76 118.07 1276.24 117.65C1276.74 117.238 1277.4 116.949 1278.22 116.784C1279.04 116.619 1280.11 116.545 1281.43 116.562C1282.42 116.575 1283.22 116.522 1283.83 116.404C1284.46 116.278 1284.87 115.977 1285.06 115.501C1285.29 114.938 1285.25 114.456 1284.93 114.057C1284.64 113.65 1284.13 113.286 1283.39 112.966C1282.69 112.659 1281.92 112.47 1281.07 112.4C1280.24 112.315 1279.48 112.304 1278.78 112.369L1278.59 112.283Z" fill="white"/>
<path d="M1275.94 114.65C1275.33 116.367 1274.64 117.675 1273.87 118.573C1273.11 119.472 1272.2 119.998 1271.16 120.151C1270.12 120.304 1268.87 120.119 1267.41 119.595C1265.97 119.076 1264.89 118.426 1264.18 117.646C1263.48 116.865 1263.12 115.885 1263.1 114.706C1263.08 113.526 1263.38 112.078 1263.99 110.361C1264.62 108.629 1265.31 107.314 1266.07 106.416C1266.84 105.517 1267.74 104.991 1268.78 104.838C1269.82 104.684 1271.07 104.867 1272.51 105.386C1273.97 105.911 1275.06 106.563 1275.76 107.343C1276.47 108.124 1276.83 109.104 1276.85 110.283C1276.87 111.463 1276.56 112.919 1275.94 114.65ZM1268.49 116.59C1269.51 116.958 1270.3 116.867 1270.86 116.318C1271.43 115.759 1271.97 114.787 1272.46 113.402C1272.97 112.001 1273.17 110.91 1273.08 110.129C1273 109.353 1272.45 108.781 1271.42 108.413C1270.42 108.051 1269.63 108.142 1269.06 108.685C1268.5 109.234 1267.97 110.209 1267.47 111.61C1266.97 112.995 1266.76 114.084 1266.84 114.875C1266.93 115.656 1267.48 116.228 1268.49 116.59Z" fill="white"/>
<path d="M1253.48 103.92L1254.36 100.902C1255 100.721 1255.79 100.651 1256.73 100.691C1257.66 100.731 1258.65 100.901 1259.68 101.202C1261.32 101.681 1262.54 102.387 1263.33 103.318C1264.14 104.255 1264.33 105.491 1263.88 107.027C1263.52 108.24 1262.96 109.133 1262.17 109.704C1261.41 110.265 1260.24 110.608 1258.67 110.733C1257.15 110.857 1256.08 111.027 1255.45 111.243C1254.84 111.449 1254.48 111.728 1254.38 112.081L1261.89 114.272L1261.04 117.198L1250.12 114.013L1250.87 111.432C1251.1 110.649 1251.42 110.019 1251.84 109.542C1252.28 109.07 1252.9 108.7 1253.69 108.431C1254.49 108.163 1255.54 107.954 1256.85 107.803C1257.83 107.689 1258.62 107.535 1259.21 107.341C1259.82 107.135 1260.19 106.785 1260.32 106.289C1260.47 105.701 1260.37 105.229 1260.01 104.873C1259.66 104.506 1259.11 104.211 1258.34 103.987C1257.6 103.772 1256.81 103.683 1255.97 103.72C1255.13 103.741 1254.37 103.829 1253.69 103.981L1253.48 103.92Z" fill="white"/>
<path d="M1231.32 109.773L1234.31 94.8782L1245.37 97.0994L1244.75 100.158L1237.46 98.6932L1236.89 101.517L1243.22 102.788L1242.61 105.847L1236.28 104.576L1235.7 107.47L1242.99 108.935L1242.38 111.994L1231.32 109.773Z" fill="white"/>
<path d="M1219.23 107.914L1221.47 92.8875L1232.62 94.5453L1232.17 97.6314L1224.81 96.5379L1224.38 99.3867L1230.77 100.336L1230.31 103.422L1223.92 102.473L1223.49 105.393L1230.85 106.486L1230.39 109.572L1219.23 107.914Z" fill="white"/>
<path d="M1217.09 104.338L1216.79 107.347C1216.01 107.43 1215.25 107.475 1214.51 107.482C1213.77 107.489 1212.9 107.443 1211.89 107.344C1210.6 107.216 1209.52 106.996 1208.65 106.685C1207.8 106.375 1207.13 105.914 1206.64 105.303C1206.18 104.678 1205.87 103.836 1205.74 102.777C1205.6 101.719 1205.61 100.377 1205.78 98.7535C1205.93 97.1931 1206.18 95.9233 1206.52 94.9439C1206.85 93.9645 1207.31 93.2302 1207.89 92.741C1208.49 92.2375 1209.23 91.9257 1210.13 91.8056C1211.04 91.6711 1212.15 91.6679 1213.44 91.7959C1214.44 91.8954 1215.3 92.0213 1216.03 92.1736C1216.75 92.31 1217.49 92.5036 1218.24 92.7546L1217.93 95.8594L1217.85 95.9C1217.2 95.6745 1216.57 95.499 1215.95 95.3737C1215.34 95.2325 1214.58 95.1168 1213.67 95.0268C1212.94 94.9541 1212.33 94.9498 1211.84 95.0139C1211.37 95.0636 1210.98 95.2263 1210.68 95.5019C1210.38 95.7776 1210.14 96.2044 1209.97 96.7825C1209.82 97.3621 1209.69 98.1455 1209.6 99.1326C1209.49 100.168 1209.46 101.008 1209.49 101.655C1209.54 102.287 1209.69 102.775 1209.92 103.121C1210.16 103.466 1210.51 103.717 1210.96 103.874C1211.43 104.033 1212.03 104.149 1212.76 104.222C1213.65 104.31 1214.41 104.361 1215.03 104.375C1215.68 104.375 1216.32 104.326 1216.98 104.23L1217.09 104.338Z" fill="white"/>
<path d="M1203.33 106.308L1199.5 106.063L1200.47 90.9017L1204.3 91.1468L1203.33 106.308Z" fill="white"/>
</svg>
