<svg width="635" height="635" viewBox="0 0 635 635" fill="none" xmlns="http://www.w3.org/2000/svg">
<path d="M428.53 3.40181C442.871 3.37871 457.213 3.37945 471.555 3.38826C475.681 3.39077 479.807 3.39243 483.932 3.39356C484.376 3.39368 484.376 3.39368 484.829 3.39381C486.315 3.39421 487.801 3.39461 489.288 3.39499C501.375 3.39814 513.462 3.40354 525.549 3.41059C525.652 3.61523 525.754 3.81987 525.859 4.03071C526.485 4.38216 526.485 4.38216 527.1 4.65083C527.3 20.8894 527.443 37.128 527.53 53.3676C527.531 53.5832 527.533 53.7989 527.534 54.0211C527.564 59.7325 527.593 65.4439 527.622 71.1553C527.639 74.5651 527.656 77.9749 527.674 81.3847C527.675 81.6313 527.676 81.8779 527.677 82.132C527.683 83.1342 527.688 84.1364 527.693 85.1386C527.741 94.4501 527.788 103.762 527.834 113.073C527.875 121.252 527.917 129.431 527.959 137.61C528.008 146.906 528.055 156.202 528.102 165.499C528.107 166.499 528.112 167.5 528.117 168.501C528.119 168.747 528.12 168.993 528.121 169.247C528.138 172.644 528.156 176.041 528.173 179.438C528.203 185.135 528.232 190.832 528.259 196.529C528.26 196.744 528.261 196.96 528.263 197.182C528.344 214.137 528.364 231.092 528.34 248.047C528.572 248.109 528.804 248.172 529.042 248.236C529.348 248.319 529.653 248.402 529.968 248.487C530.27 248.569 530.572 248.651 530.883 248.735C531.988 249.043 533.063 249.399 534.146 249.775C534.361 249.85 534.576 249.924 534.798 250.001C535.501 250.246 536.203 250.493 536.905 250.74C537.151 250.827 537.396 250.913 537.649 251.002C543.804 253.171 549.878 255.542 555.935 257.969C556.144 258.052 556.353 258.136 556.569 258.222C566.497 262.203 576.287 266.558 585.95 271.142C586.883 271.584 587.817 272.022 588.752 272.459C592.049 274.006 595.288 275.639 598.497 277.361C599.441 277.865 600.389 278.361 601.337 278.856C606.265 281.447 611.048 284.223 615.778 287.159C616.584 287.658 617.392 288.154 618.201 288.648C620.557 290.091 622.855 291.598 625.073 293.246C625.62 293.649 626.175 294.04 626.75 294.402C627.388 294.836 627.748 295.154 628.179 295.796C628.326 296.636 628.326 296.636 628.382 297.627C628.403 297.988 628.424 298.349 628.445 298.722C628.511 300.402 628.542 302.08 628.55 303.762C628.552 304.137 628.555 304.512 628.558 304.899C628.565 305.929 628.572 306.96 628.577 307.99C628.584 309.108 628.592 310.225 628.599 311.343C628.614 313.537 628.628 315.73 628.641 317.924C628.652 319.726 628.663 321.528 628.675 323.331C628.676 323.589 628.678 323.848 628.68 324.115C628.683 324.641 628.686 325.168 628.69 325.694C628.72 330.358 628.749 335.022 628.777 339.687C628.804 344.129 628.832 348.571 628.861 353.013C628.952 366.913 629.034 380.812 629.099 394.712C629.106 396.375 629.115 398.038 629.123 399.7C629.148 404.822 629.168 409.943 629.179 415.065C629.183 416.577 629.188 418.09 629.196 419.603C629.204 421.327 629.208 423.051 629.209 424.776C629.209 425.397 629.212 426.018 629.216 426.639C629.221 427.474 629.221 428.309 629.219 429.144C629.222 429.387 629.225 429.631 629.228 429.881C629.223 430.548 629.223 430.548 629.109 431.601C628.179 432.222 628.179 432.222 627.446 432.193C626.396 431.832 625.82 431.281 625.02 430.516C624.044 429.549 624.044 429.549 622.908 428.811C622.908 428.606 622.908 428.402 622.908 428.191C622.639 428.066 622.639 428.066 622.365 427.939C621.65 427.562 621.041 427.167 620.427 426.641C620.427 426.436 620.427 426.231 620.427 426.02C620.159 425.896 620.159 425.896 619.885 425.768C619.17 425.391 618.56 424.996 617.947 424.47C617.947 424.265 617.947 424.061 617.947 423.85C617.771 423.774 617.595 423.697 617.414 423.619C616.587 423.164 615.997 422.619 615.311 421.97C613.816 420.591 612.243 419.402 610.59 418.222C610.358 418.033 610.125 417.844 609.885 417.649C609.885 417.444 609.885 417.24 609.885 417.029C609.726 416.96 609.566 416.891 609.402 416.82C608.342 416.244 607.411 415.511 606.455 414.781C606.008 414.443 605.561 414.105 605.113 413.767C604.879 413.59 604.645 413.413 604.404 413.231C600.312 410.145 596.155 407.176 591.902 404.316C591.578 404.098 591.578 404.098 591.247 403.875C587.424 401.301 583.537 398.84 579.596 396.449C579.406 396.333 579.216 396.218 579.02 396.099C576.434 394.528 573.833 392.994 571.184 391.534C570.323 391.054 569.485 390.553 568.647 390.034C567.164 389.132 565.621 388.369 564.064 387.603C562.674 386.917 561.308 386.202 559.946 385.461C557.442 384.107 554.873 382.895 552.3 381.677C550.976 381.05 549.656 380.413 548.34 379.768C538.004 374.563 538.004 374.563 527.1 370.83C527.1 456.369 527.1 541.908 527.1 630.039C526.056 630.561 524.876 630.393 523.729 630.39C523.435 630.391 523.14 630.391 522.837 630.391C521.836 630.392 520.834 630.39 519.833 630.388C519.486 630.387 519.14 630.387 518.784 630.387C511.54 630.378 504.297 630.304 497.054 630.223C496.169 630.213 495.283 630.204 494.398 630.195C492.993 630.18 491.589 630.164 490.184 630.147C489.659 630.14 489.135 630.134 488.61 630.129C487.889 630.122 487.169 630.112 486.448 630.103C486.041 630.098 485.634 630.093 485.215 630.088C484.312 630.039 484.311 630.039 484.001 629.729C483.974 628.889 483.968 628.057 483.974 627.217C483.975 626.948 483.975 626.68 483.976 626.403C483.979 625.489 483.985 624.574 483.99 623.66C483.992 622.999 483.995 622.339 483.997 621.678C484.003 620.227 484.009 618.777 484.017 617.326C484.029 614.939 484.038 612.551 484.048 610.164C484.061 606.863 484.075 603.562 484.09 600.262C484.132 590.871 484.167 581.481 484.203 572.091C484.209 570.481 484.215 568.871 484.222 567.261C484.326 540.325 484.394 513.39 484.459 486.454C484.467 483.202 484.475 479.951 484.483 476.699C484.528 458.457 484.571 440.214 484.614 421.971C484.622 418.46 484.631 414.949 484.639 411.439C484.697 386.65 484.756 361.862 484.813 337.074C484.828 330.561 484.843 324.048 484.858 317.535C484.859 317.201 484.86 316.867 484.861 316.523C484.909 295.761 484.96 274.998 485.014 254.236C485.02 252.203 485.025 250.169 485.03 248.136C485.032 247.636 485.033 247.136 485.034 246.636C485.053 239.239 485.072 231.842 485.09 224.446C485.091 224.106 485.091 224.106 485.092 223.76C485.103 219.11 485.114 214.459 485.125 209.808C485.13 207.689 485.135 205.57 485.14 203.451C485.141 203.14 485.141 203.14 485.141 202.824C485.157 196.087 485.176 189.35 485.195 182.614C485.213 176.225 485.229 169.836 485.242 163.447C485.249 160.093 485.258 156.738 485.269 153.384C486.132 124.893 486.132 124.893 481.211 97.0483C481.109 96.7209 481.006 96.3936 480.901 96.0563C480.29 94.1546 479.595 92.3367 478.73 90.5371C478.646 90.3563 478.561 90.1755 478.474 89.9893C477.146 87.1674 475.721 84.6157 473.769 82.1655C473.556 81.8861 473.343 81.6067 473.124 81.3189C468.991 76.0394 463.995 72.5615 457.336 71.3134C452.459 70.7252 447.091 72.3237 443.203 75.3466C442.784 75.7196 442.373 76.1015 441.974 76.496C441.523 76.8945 441.523 76.8945 440.903 76.8945C440.903 77.0991 440.903 77.3037 440.903 77.5146C440.699 77.5146 440.494 77.5146 440.283 77.5146C440.283 77.7192 440.283 77.9239 440.283 78.1347C440.079 78.1347 439.874 78.1347 439.663 78.1347C439.553 78.3901 439.553 78.3901 439.441 78.6507C438.942 79.5591 438.311 80.2612 437.628 81.0415C435.926 83.0439 434.481 85.1713 433.152 87.4365C433.032 87.6403 432.912 87.844 432.789 88.054C427.859 96.5961 424.588 106.35 422.831 116.025C422.668 116.893 422.492 117.754 422.308 118.618C421.298 123.573 421.177 128.462 421.173 133.497C421.171 134.702 421.161 135.907 421.153 137.111C421.139 139.19 421.13 141.269 421.124 143.347C421.115 146.353 421.099 149.358 421.081 152.363C421.053 157.241 421.03 162.119 421.011 166.997C420.992 171.731 420.971 176.464 420.946 181.198C420.945 181.491 420.943 181.783 420.942 182.085C420.934 183.553 420.926 185.021 420.919 186.49C420.854 198.637 420.799 210.785 420.749 222.932C420.949 222.949 421.148 222.965 421.353 222.982C422.273 223.059 423.193 223.137 424.114 223.215C424.427 223.241 424.74 223.267 425.062 223.293C428.189 223.56 431.276 224.005 434.373 224.502C434.666 224.548 434.96 224.595 435.263 224.643C447.776 226.626 460.162 229.188 472.529 231.924C473.031 232.034 473.533 232.145 474.034 232.256C476.324 232.761 478.613 233.269 480.901 233.784C481.377 235.648 481.062 237.384 480.813 239.259C480.766 239.624 480.719 239.99 480.672 240.367C480.542 241.378 480.411 242.388 480.278 243.399C480.137 244.483 479.998 245.569 479.859 246.654C479.619 248.526 479.376 250.399 479.133 252.271C478.779 254.989 478.428 257.707 478.079 260.425C477.521 264.753 476.962 269.08 476.401 273.408C475.72 278.666 475.041 283.924 474.364 289.182C473.471 296.126 472.574 303.07 471.676 310.014C471.009 315.175 470.344 320.335 469.68 325.497C469.417 327.546 469.153 329.595 468.889 331.644C468.646 333.537 468.403 335.43 468.16 337.322C468.014 338.463 467.867 339.603 467.72 340.744C467.653 341.266 467.586 341.789 467.519 342.311C467.429 343.018 467.338 343.725 467.246 344.433C467.196 344.825 467.145 345.218 467.093 345.623C466.741 348.105 466.741 348.105 465.979 348.777C464.857 349.216 464.066 349.024 462.917 348.816C462.649 348.769 462.38 348.722 462.104 348.674C457.13 347.78 452.312 346.54 447.473 345.095C447.196 345.013 446.919 344.93 446.634 344.845C446.081 344.68 445.529 344.515 444.976 344.35C444.709 344.271 444.442 344.191 444.167 344.109C443.905 344.031 443.643 343.953 443.372 343.872C435.948 341.664 428.33 340.129 420.766 338.482C419.781 338.265 418.797 338.044 417.813 337.823C412.353 336.609 406.872 335.66 401.348 334.797C400.64 334.687 399.933 334.575 399.225 334.464C392.049 333.334 384.874 332.247 377.651 331.453C377.319 331.416 376.986 331.379 376.643 331.341C373.918 331.042 371.192 330.751 368.466 330.464C368.094 330.425 367.721 330.385 367.338 330.345C354.725 329.018 342.19 328.608 329.518 328.622C327.874 328.623 326.231 328.622 324.587 328.621C309.657 328.607 294.908 329.325 280.046 330.763C278.444 330.918 276.842 331.07 275.241 331.222C268.434 331.866 261.643 332.557 254.871 333.497C253.734 333.651 252.596 333.791 251.457 333.933C251.458 334.337 251.459 334.74 251.46 335.156C251.497 356.601 251.466 378.045 251.32 399.49C251.318 399.751 251.317 400.013 251.315 400.282C251.268 407.156 251.218 414.031 251.167 420.905C251.137 425.003 251.108 429.101 251.079 433.199C251.077 433.496 251.074 433.793 251.072 434.099C251.062 435.61 251.051 437.122 251.04 438.633C250.965 449.209 250.889 459.785 250.812 470.361C250.738 480.51 250.665 490.66 250.593 500.81C250.591 501.123 250.588 501.436 250.586 501.759C250.568 504.283 250.55 506.806 250.532 509.33C250.454 520.37 250.375 531.41 250.296 542.45C250.283 544.202 250.27 545.954 250.258 547.706C250.236 550.825 250.213 553.945 250.191 557.064C250.183 558.172 250.175 559.28 250.167 560.388C250.127 565.955 250.086 571.522 250.043 577.088C250.027 579.093 250.012 581.097 249.996 583.101C249.992 583.593 249.988 584.084 249.985 584.575C249.933 591.173 249.894 597.771 249.867 604.369C249.856 607.163 249.841 609.958 249.825 612.753C249.812 615.112 249.804 617.472 249.8 619.831C249.797 621.245 249.788 622.659 249.778 624.074C249.775 624.721 249.774 625.368 249.774 626.015C249.775 626.888 249.769 627.761 249.761 628.634C249.763 628.887 249.765 629.14 249.767 629.401C249.749 630.503 249.689 631.153 249.03 632.055C248.055 632.728 247.306 632.681 246.128 632.689C245.905 632.692 245.681 632.695 245.451 632.698C244.707 632.708 243.963 632.708 243.219 632.708C242.693 632.713 242.166 632.718 241.639 632.724C240.229 632.738 238.82 632.744 237.409 632.748C235.958 632.754 234.506 632.767 233.054 632.778C230.199 632.8 227.345 632.813 224.49 632.824C223.067 632.829 221.645 632.836 220.222 632.844C218.025 632.855 215.828 632.864 213.63 632.868C213.146 632.87 213.146 632.87 212.651 632.871C211.763 632.873 210.875 632.872 209.987 632.871C209.732 632.871 209.477 632.872 209.214 632.872C207.501 632.865 207.501 632.865 206.809 632.519C206.763 616.366 206.823 600.214 206.939 584.062C206.94 583.825 206.942 583.589 206.944 583.346C206.987 577.255 207.033 571.165 207.079 565.074C207.11 560.926 207.141 556.777 207.172 552.628C207.175 552.204 207.175 552.204 207.178 551.772C207.189 550.329 207.199 548.887 207.21 547.444C207.286 537.099 207.363 526.754 207.441 516.408C207.517 506.182 207.594 495.956 207.669 485.73C207.672 485.41 207.674 485.091 207.676 484.762C207.7 481.517 207.724 478.271 207.748 475.026C207.799 468.1 207.851 461.174 207.902 454.248C207.904 453.918 207.907 453.588 207.909 453.248C208.028 437.255 208.147 421.263 208.266 405.271C208.308 399.733 208.349 394.194 208.39 388.656C208.393 388.313 208.395 387.969 208.398 387.615C208.517 371.611 208.636 355.606 208.755 339.602C208.763 338.561 208.77 337.521 208.778 336.48C208.892 321.135 209.006 305.791 209.119 290.446C209.132 288.784 209.144 287.121 209.156 285.459C209.161 284.796 209.166 284.134 209.171 283.471C209.181 282.15 209.191 280.829 209.2 279.507C209.225 276.231 209.249 272.956 209.273 269.68C209.387 254.287 209.502 238.895 209.616 223.503C209.626 222.248 209.635 220.994 209.644 219.739C209.647 219.43 209.649 219.121 209.651 218.803C209.685 214.233 209.719 209.663 209.753 205.093C209.756 204.799 209.758 204.505 209.76 204.202C209.782 201.285 209.803 198.368 209.825 195.451C209.836 194.028 209.846 192.604 209.857 191.181C209.859 190.902 209.861 190.624 209.863 190.336C209.896 185.924 209.929 181.511 209.962 177.099C209.994 172.759 210.027 168.418 210.059 164.078C210.078 161.535 210.097 158.993 210.116 156.451C210.13 154.56 210.144 152.67 210.158 150.78C210.163 150.022 210.169 149.264 210.175 148.507C210.201 145.076 210.224 141.646 210.226 138.215C210.226 137.965 210.226 137.715 210.227 137.457C210.226 135.703 210.191 133.954 210.106 132.202C210.094 131.931 210.081 131.659 210.069 131.379C210.043 130.816 210.016 130.252 209.989 129.689C209.948 128.85 209.911 128.011 209.875 127.172C209.168 111.741 206.243 96.7254 197.196 83.8521C196.267 82.53 196.267 82.53 196.267 81.8554C196.062 81.8554 195.858 81.8554 195.647 81.8554C195.123 81.2777 195.123 81.2777 194.542 80.5183C194.35 80.2701 194.158 80.0219 193.96 79.7661C193.477 79.0649 193.477 79.0649 193.166 78.1347C192.962 78.1347 192.757 78.1347 192.546 78.1347C192.546 77.9301 192.546 77.7254 192.546 77.5146C192.373 77.4331 192.2 77.3515 192.022 77.2675C191.233 76.8563 190.515 76.3808 189.775 75.8868C185.194 72.9534 181.035 71.5683 175.584 72.4241C170.665 73.5713 166.59 76.1166 162.944 79.5498C162.513 79.9555 162.073 80.3519 161.633 80.7472C150.241 91.4041 147.722 108.52 145.107 123.093C145.032 123.481 145.032 123.481 144.956 123.876C144.756 125.234 144.687 126.581 144.627 127.952C144.614 128.24 144.601 128.527 144.587 128.823C144.465 131.694 144.436 134.562 144.429 137.435C144.426 138.002 144.423 138.569 144.421 139.135C144.415 140.349 144.41 141.562 144.407 142.775C144.4 144.73 144.392 146.686 144.383 148.641C144.371 151.443 144.36 154.246 144.349 157.048C144.324 163.614 144.295 170.181 144.266 176.747C144.259 178.214 144.253 179.68 144.246 181.146C144.188 194.429 144.108 207.711 144.008 220.993C144.003 221.695 143.998 222.397 143.992 223.099C143.952 228.521 143.91 233.943 143.867 239.365C144.102 239.286 144.338 239.207 144.58 239.126C145.665 238.763 146.75 238.4 147.835 238.038C148.39 237.852 148.39 237.852 148.956 237.662C163.624 232.763 178.868 230.087 194.097 227.583C194.473 227.521 194.849 227.459 195.237 227.395C195.591 227.338 195.945 227.282 196.309 227.223C196.618 227.174 196.926 227.124 197.244 227.073C198.574 226.907 199.89 226.908 201.228 226.963C201.228 226.758 201.228 226.554 201.228 226.343C201.944 226.343 202.66 226.343 203.398 226.343C203.466 228.903 203.262 231.377 202.951 233.917C202.902 234.328 202.854 234.739 202.805 235.15C202.673 236.269 202.538 237.389 202.402 238.508C202.256 239.718 202.113 240.927 201.969 242.137C201.687 244.503 201.403 246.869 201.118 249.235C200.786 252 200.456 254.766 200.125 257.531C199.361 263.929 198.593 270.326 197.824 276.724C197.477 279.616 197.13 282.509 196.782 285.402C195.745 294.048 194.707 302.693 193.666 311.338C193.606 311.833 193.547 312.329 193.487 312.824C193.201 315.196 192.915 317.569 192.629 319.941C192.494 321.056 192.359 322.171 192.225 323.287C192.199 323.502 192.173 323.717 192.146 323.938C191.777 326.998 191.415 330.058 191.057 333.119C190.93 334.203 190.803 335.286 190.675 336.369C190.56 337.352 190.447 338.336 190.335 339.319C190.266 339.902 190.197 340.485 190.129 341.068C190.1 341.327 190.071 341.585 190.041 341.851C189.879 343.204 189.668 344.448 189.136 345.715C188.427 346.07 187.878 346.131 187.091 346.226C186.649 346.281 186.649 346.281 186.199 346.338C185.592 346.411 184.986 346.485 184.379 346.558C178.794 347.255 173.408 348.404 167.955 349.785C167.596 349.875 167.237 349.965 166.867 350.059C161.873 351.318 156.945 352.674 152.048 354.272C150.346 354.821 148.635 355.342 146.924 355.865C127.945 361.462 127.945 361.462 109.437 368.4C108.759 368.69 108.08 368.978 107.402 369.266C96.8949 373.739 86.5786 378.667 76.6026 384.23C74.7066 385.283 72.7767 386.271 70.8484 387.263C68.3032 388.573 65.7762 389.908 63.2713 391.294C60.5314 392.807 57.7444 394.215 54.9392 395.602C52.2287 396.944 49.5597 398.343 46.9136 399.807C44.6547 401.054 42.3691 402.244 40.0751 403.425C37.0471 404.986 34.045 406.58 31.0825 408.263C30.3217 408.693 29.558 409.119 28.7943 409.544C25.3913 411.449 22.116 413.481 18.8989 415.685C18.031 416.278 17.1545 416.856 16.2781 417.436C13.4894 419.284 13.4894 419.284 10.8036 421.276C10.2319 421.68 10.2319 421.68 9.6118 421.68C9.6118 421.884 9.6118 422.089 9.6118 422.3C9.40716 422.3 9.20252 422.3 8.99168 422.3C8.99168 422.504 8.99168 422.709 8.99168 422.92C8.27545 422.92 7.55921 422.92 6.82127 422.92C6.82127 422.613 6.82127 422.306 6.82127 421.99C6.61664 421.99 6.412 421.99 6.20116 421.99C6.15922 397.697 6.2354 373.406 6.45444 344.145C6.48191 340.507 6.5079 336.868 6.53294 333.23C6.5627 328.906 6.59329 324.583 6.62526 320.259C6.62866 319.799 6.63207 319.338 6.63547 318.878C6.63714 318.652 6.63879 318.425 6.64051 318.192C6.65202 316.626 6.66295 315.06 6.67363 313.494C6.68791 311.402 6.70362 309.31 6.72022 307.217C6.72604 306.458 6.73141 305.699 6.7363 304.94C6.75147 302.615 6.77872 300.291 6.82127 297.966C6.82893 297.478 6.82891 297.478 6.83672 296.98C6.85403 296.031 6.87977 295.083 6.90833 294.135C6.91286 293.852 6.91736 293.569 6.92203 293.278C6.96772 292.05 6.9997 291.344 7.68809 290.302C8.39128 289.718 9.03419 289.408 9.8831 289.071C10.4569 288.789 11.0306 288.506 11.6042 288.222C11.8954 288.09 12.1866 287.958 12.4867 287.822C13.5178 287.337 14.477 286.769 15.4498 286.178C23.7313 281.152 32.6166 277.175 41.5478 273.472C41.7534 273.386 41.9589 273.301 42.1707 273.213C46.7829 271.299 51.3994 269.398 56.0431 267.561C58.8578 266.446 61.6401 265.264 64.4147 264.054C76.0483 258.982 87.7132 254.596 100.013 251.438C100.256 251.375 100.5 251.312 100.75 251.246C102.03 250.93 103.176 250.814 104.49 250.837C104.489 250.301 104.489 250.301 104.489 249.754C104.467 222.599 104.465 195.444 104.562 90.0624C104.565 88.3524 104.568 86.6425 104.57 84.9326C104.571 84.5056 104.572 84.0786 104.572 83.6516C104.583 76.8018 104.591 69.952 104.598 63.1022C104.604 55.9327 104.615 48.7632 104.629 41.5937C104.637 37.3955 104.643 33.1973 104.645 28.9991C104.646 26.1716 104.651 23.3441 104.659 20.5166C104.663 18.8948 104.666 17.273 104.665 15.6512C104.664 14.1743 104.667 12.6975 104.674 11.2206C104.675 10.686 104.675 10.1515 104.674 9.61691C104.672 8.89482 104.675 8.17297 104.68 7.4509C104.681 7.04937 104.682 6.64784 104.682 6.23414C104.8 5.27095 104.8 5.27095 105.123 4.67646C106.08 4.14687 107.05 4.21759 108.115 4.23116C108.362 4.23061 108.609 4.23006 108.863 4.22949C109.696 4.22878 110.529 4.23477 111.362 4.24068C111.963 4.24156 112.564 4.24202 113.164 4.24211C114.82 4.24355 116.476 4.25083 118.132 4.25902C119.916 4.26684 121.699 4.26929 123.483 4.27239C126.575 4.27849 129.667 4.28802 132.759 4.29984C137.23 4.31694 141.7 4.32891 146.171 4.33962C153.424 4.35712 160.676 4.37879 167.929 4.40307C174.976 4.42665 182.023 4.44828 189.069 4.46726C189.287 4.46785 189.504 4.46843 189.727 4.46904C191.908 4.47491 194.089 4.48075 196.269 4.48656C200.711 4.4984 205.154 4.5105 209.596 4.52276C210.004 4.52389 210.412 4.52501 210.832 4.52617C224.271 4.56338 237.709 4.6067 251.147 4.65083C251.654 5.66403 251.576 6.78928 251.629 7.90502C251.642 8.1695 251.655 8.43399 251.668 8.70649C251.792 11.3933 251.815 14.0768 251.817 16.766C251.818 17.3042 251.82 17.8424 251.821 18.3806C251.825 19.8435 251.828 21.3065 251.83 22.7694C251.832 24.3575 251.837 25.9455 251.841 27.5336C251.848 30.6554 251.854 33.7773 251.86 36.8991C251.866 40.6028 251.874 44.3066 251.883 48.0103C251.897 54.7024 251.911 61.3945 251.923 68.0866C251.935 74.4181 251.948 80.7497 251.962 87.0813C252.047 125.303 252.094 163.525 252.078 218.591C252.487 218.489 252.896 218.387 253.318 218.281C253.318 218.486 253.318 218.69 253.318 218.901C253.669 218.808 254.021 218.714 254.383 218.618C255.78 218.269 257.177 218.05 258.602 217.857C258.87 217.82 259.138 217.783 259.414 217.745C260.295 217.624 261.176 217.507 262.058 217.39C262.365 217.349 262.672 217.308 262.988 217.266C269.561 216.397 276.144 215.782 282.752 215.257C283.75 215.177 284.748 215.095 285.746 215.013C301.657 213.709 301.657 213.709 308.508 213.63C308.891 213.626 309.274 213.621 309.668 213.616C312.561 213.587 315.453 213.597 318.345 213.624C319.035 213.63 319.725 213.634 320.415 213.637C340.902 213.752 361.638 215.359 381.992 217.661C381.99 217.236 381.99 217.236 381.988 216.802C381.942 206.857 381.899 196.911 381.857 186.965C381.855 186.562 381.853 186.159 381.851 185.744C381.734 157.946 381.645 130.149 381.515 81.1651C381.509 78.8243 381.503 76.4835 381.497 74.1427C381.476 66.1131 381.456 58.0834 381.436 50.0537C381.431 48.2753 381.427 46.497 381.422 44.7187C381.419 43.5788 381.416 42.439 381.414 41.2992C381.412 40.7419 381.411 40.1845 381.409 39.6272C381.402 36.7201 381.395 33.813 381.39 30.9059C381.389 29.9174 381.387 28.929 381.386 27.9405C381.385 27.7017 381.385 27.4629 381.384 27.2169C381.38 24.2498 381.367 21.2829 381.345 18.3159C381.333 16.6942 381.325 15.0725 381.317 13.4507C381.313 12.7139 381.307 11.977 381.299 11.2402C381.288 10.251 381.283 9.26201 381.279 8.27282C381.275 7.98739 381.27 7.70197 381.265 7.4079C381.266 6.29814 381.337 5.38807 381.657 4.32094C382.722 3.33049 383.879 3.50351 385.282 3.5165C385.593 3.51328 385.904 3.51006 386.224 3.50675C387.278 3.49779 388.331 3.50001 389.385 3.50211C390.145 3.49806 390.905 3.49334 391.666 3.48802C393.545 3.47672 395.425 3.47278 397.305 3.47196C399.557 3.47062 401.809 3.46047 404.061 3.45029C409.552 3.42597 415.044 3.41834 420.536 3.41311C423.201 3.4105 425.865 3.40616 428.53 3.40181Z" fill="white"/>
<path d="M384.473 337.964C385.349 338.395 385.349 338.395 386.257 338.949C386.595 339.152 386.933 339.356 387.282 339.566C387.644 339.788 388.006 340.009 388.368 340.231C388.934 340.573 389.5 340.914 390.067 341.255C390.448 341.484 390.828 341.714 391.209 341.944C392.869 342.945 394.548 343.909 396.236 344.863C398.504 346.15 400.75 347.47 402.984 348.817C405.29 350.208 407.603 351.586 409.919 352.96C410.57 353.347 411.222 353.735 411.874 354.122C413.671 355.189 415.468 356.255 417.276 357.303C417.65 357.52 417.65 357.52 418.033 357.742C418.472 357.996 418.912 358.249 419.353 358.501C420.715 359.29 420.715 359.29 421.06 359.978C421.091 360.688 421.101 361.4 421.102 362.111C421.102 362.334 421.103 362.558 421.104 362.788C421.106 363.545 421.106 364.302 421.107 365.059C421.108 365.606 421.109 366.152 421.111 366.699C421.114 368.212 421.116 369.725 421.117 371.237C421.119 372.875 421.123 374.513 421.126 376.15C421.132 379.015 421.136 381.88 421.14 384.745C421.146 388.975 421.154 393.206 421.162 397.436C421.175 404.485 421.187 411.533 421.198 418.582C421.209 425.514 421.22 432.446 421.232 439.377C421.233 439.592 421.233 439.806 421.233 440.027C421.249 448.759 421.264 457.491 421.28 466.223C421.286 469.315 421.291 472.407 421.297 475.499C421.338 498.794 421.392 522.089 421.469 545.384C421.481 548.862 421.492 552.341 421.503 555.82C421.513 558.838 421.522 561.855 421.532 564.873C421.533 565.198 421.534 565.523 421.535 565.858C421.56 573.507 421.586 581.156 421.615 588.805C421.635 593.841 421.652 598.877 421.667 603.914C421.676 606.868 421.687 609.822 421.701 612.776C421.71 614.728 421.716 616.68 421.721 618.632C421.724 619.741 421.727 620.849 421.734 621.958C421.741 623.146 421.743 624.335 421.745 625.523C421.747 625.868 421.75 626.213 421.753 626.569C421.753 627.041 421.753 627.041 421.752 627.524C421.753 627.794 421.754 628.065 421.755 628.344C421.669 629.218 421.448 629.874 421.06 630.659C420.231 631.073 419.599 631.009 418.671 631.009C418.109 631.011 418.109 631.011 417.535 631.012C417.119 631.012 416.703 631.011 416.288 631.01C415.854 631.011 415.421 631.011 414.987 631.012C413.817 631.012 412.648 631.011 411.478 631.009C410.753 631.008 410.027 631.007 409.302 631.007C400.299 631.002 391.302 630.873 382.302 630.659C381.652 629.591 381.604 628.755 381.601 627.516C381.599 627.122 381.596 626.728 381.594 626.322C381.595 625.883 381.595 625.444 381.596 625.005C381.594 624.538 381.592 624.071 381.59 623.604C381.585 622.312 381.584 621.02 381.584 619.729C381.583 618.325 381.578 616.922 381.574 615.518C381.566 612.727 381.561 609.936 381.558 607.145C381.554 603.794 381.546 600.443 381.538 597.091C381.523 590.501 381.511 583.91 381.501 577.32C381.492 571.537 381.482 565.754 381.471 559.971C381.42 534.046 381.382 508.122 381.372 338.584C381.577 338.584 381.781 338.584 381.992 338.584C381.992 338.379 381.992 338.175 381.992 337.964C382.908 337.506 383.487 337.732 384.473 337.964Z" fill="white"/>
<path d="M111.91 378.125C112.237 378.176 112.564 378.226 112.901 378.278C113.975 378.444 115.048 378.613 116.121 378.783C116.87 378.9 117.619 379.016 118.368 379.133C119.935 379.377 121.502 379.623 123.068 379.869C125.075 380.185 127.082 380.498 129.089 380.81C130.635 381.05 132.181 381.292 133.726 381.534C134.466 381.65 135.206 381.766 135.947 381.881C136.981 382.042 138.014 382.205 139.048 382.368C139.353 382.415 139.658 382.462 139.972 382.511C140.255 382.556 140.538 382.601 140.829 382.648C141.073 382.686 141.317 382.724 141.568 382.764C142.465 382.954 143.312 383.24 144.177 383.543C144.212 411.431 144.196 439.319 143.951 518.383C143.95 518.637 143.949 518.892 143.948 519.154C143.941 521.216 143.934 523.278 143.927 525.34C143.898 533.493 143.871 541.645 143.846 549.798C143.816 559.108 143.785 568.419 143.753 577.73C143.75 578.72 143.746 579.71 143.743 580.7C143.742 580.943 143.741 581.187 143.74 581.438C143.728 585.082 143.716 588.725 143.705 592.369C143.692 596.48 143.678 600.59 143.663 604.701C143.655 606.788 143.648 608.876 143.642 610.964C143.637 612.877 143.63 614.789 143.622 616.702C143.619 617.389 143.617 618.077 143.616 618.764C143.606 623.048 143.488 627.312 143.247 631.589C138.458 631.597 133.668 631.602 128.879 631.606C126.655 631.607 124.432 631.609 122.208 631.613C120.27 631.616 118.332 631.618 116.393 631.619C115.367 631.619 114.341 631.62 113.314 631.622C112.169 631.624 111.023 631.625 109.878 631.625C109.537 631.626 109.197 631.627 108.846 631.628C108.534 631.628 108.222 631.627 107.9 631.627C107.629 631.627 107.358 631.627 107.079 631.628C106.371 631.591 105.778 631.515 105.11 631.279C104.64 630.339 104.758 629.364 104.761 628.332C104.76 628.088 104.76 627.843 104.759 627.592C104.758 626.763 104.759 625.935 104.76 625.107C104.76 624.51 104.76 623.912 104.759 623.315C104.758 621.663 104.758 620.011 104.759 618.359C104.76 616.574 104.759 614.788 104.758 613.003C104.757 609.477 104.757 605.951 104.758 602.426C104.759 599.524 104.759 596.622 104.758 593.719C104.758 593.512 104.758 593.304 104.758 593.091C104.758 592.247 104.758 591.403 104.758 590.559C104.756 581.85 104.757 573.142 104.759 564.433C104.76 563.504 104.76 562.576 104.76 561.648C104.76 561.418 104.76 561.188 104.76 560.951C104.761 556.095 104.762 551.24 104.762 546.384C104.763 523.975 104.768 501.566 104.955 413.967C104.956 413.726 104.957 413.486 104.958 413.237C105.003 401.479 105.052 389.72 105.11 377.962C107.005 377.014 109.898 377.805 111.91 378.125Z" fill="white"/>
</svg>
