<svg width="616" height="616" viewBox="0 0 616 616" fill="none" xmlns="http://www.w3.org/2000/svg">
<g clip-path="url(#clip0_551_10947)">
<path d="M230.428 0.491009C230.86 0.490399 231.292 0.489394 231.724 0.488029C232.91 0.485433 234.096 0.488453 235.282 0.492403C236.565 0.49569 237.848 0.49375 239.131 0.492468C241.658 0.490769 244.185 0.493895 246.712 0.49857C249.706 0.503908 252.701 0.504275 255.695 0.50447C261.105 0.50498 266.515 0.509739 271.925 0.516949C277.049 0.523772 282.172 0.52816 287.296 0.529286C287.759 0.529393 287.759 0.529393 288.232 0.529503C289.477 0.529791 290.722 0.530073 291.967 0.530347C305.964 0.533553 319.96 0.554631 333.956 0.588486C337.112 0.596081 340.269 0.603056 343.425 0.608657C350.324 0.62095 357.223 0.636287 364.122 0.662664C367.04 0.673747 369.958 0.68308 372.876 0.687247C375.317 0.690754 377.759 0.698321 380.2 0.711285C381.436 0.717741 382.673 0.722331 383.91 0.721709C385.041 0.721193 386.172 0.72625 387.303 0.735613C387.9 0.739163 388.497 0.736907 389.094 0.734379C393.558 0.784747 397.636 2.375 400.866 5.50804C401.844 6.51935 401.844 6.51935 401.844 7.21873C402.042 7.21873 402.241 7.21873 402.445 7.21873C402.741 7.79446 403.035 8.37114 403.329 8.94822C403.493 9.26926 403.657 9.5903 403.826 9.92106C404.49 11.3416 404.586 12.4366 404.575 14.0078C404.574 14.3016 404.574 14.3016 404.572 14.6013C404.57 15.0265 404.568 15.4517 404.565 15.8768C404.557 17.0347 404.554 18.1926 404.552 19.3504C404.551 19.7112 404.551 19.7112 404.55 20.0792C404.546 22.5901 404.578 25.1002 404.617 27.6108C404.62 27.8323 404.623 28.0538 404.627 28.282C404.65 29.8583 404.676 31.4345 404.701 33.0107C404.73 34.8138 404.759 36.6169 404.786 38.4201C404.789 38.6375 404.792 38.8549 404.796 39.0789C404.862 43.5983 404.868 48.1169 404.852 52.6367C405.174 52.6793 405.497 52.7219 405.829 52.7659C407.103 52.9596 408.242 53.2969 409.457 53.7082C409.692 53.7874 409.926 53.8666 410.168 53.9481C414.027 55.2847 417.693 57.0145 421.25 59.0152C422.307 59.5988 422.867 59.8554 424.102 59.8554C424.666 59.4652 424.666 59.4652 425.19 58.9031C425.402 58.6919 425.613 58.4806 425.83 58.263C426.059 58.0282 426.287 57.7934 426.523 57.5515C426.766 57.3065 427.009 57.0615 427.26 56.809C427.789 56.2751 428.317 55.7399 428.844 55.2034C429.68 54.352 430.52 53.5044 431.361 52.6578C433.3 50.7037 435.234 48.7436 437.167 46.7834C438.933 44.9937 440.699 43.2054 442.471 41.4219C443.437 40.4493 444.398 39.472 445.358 38.4937C449.646 34.1544 453.899 29.9787 460.364 29.9089C463.262 29.9462 465.89 30.5266 468.316 32.1836C468.316 32.3821 468.316 32.5806 468.316 32.7851C468.478 32.8534 468.639 32.9216 468.805 32.9919C469.768 33.5238 470.509 34.1497 471.324 34.8906C471.324 35.0891 471.324 35.2876 471.324 35.4922C471.523 35.4922 471.721 35.4922 471.926 35.4922C471.926 35.6907 471.926 35.8892 471.926 36.0937C472.124 36.0937 472.323 36.0937 472.527 36.0937C472.527 36.2922 472.527 36.4908 472.527 36.6953C472.797 36.8163 472.797 36.8163 473.072 36.9397C473.73 37.2966 474.156 37.6265 474.633 38.1992C474.633 38.3977 474.633 38.5962 474.633 38.8008C474.831 38.8008 475.03 38.8008 475.234 38.8008C475.234 38.9993 475.234 39.1978 475.234 39.4023C475.433 39.4023 475.631 39.4023 475.836 39.4023C475.836 39.6008 475.836 39.7994 475.836 40.0039C476.106 40.1249 476.106 40.1249 476.381 40.2483C477.039 40.6052 477.464 40.9351 477.941 41.5078C477.941 41.7063 477.941 41.9048 477.941 42.1094C478.14 42.1094 478.338 42.1094 478.543 42.1094C478.543 42.3079 478.543 42.5064 478.543 42.7109C478.741 42.7109 478.94 42.7109 479.144 42.7109C479.144 42.9094 479.144 43.1079 479.144 43.3125C479.414 43.4335 479.414 43.4335 479.69 43.5569C480.347 43.9138 480.773 44.2437 481.25 44.8164C481.25 45.0149 481.25 45.2134 481.25 45.4179C481.448 45.4179 481.647 45.4179 481.852 45.4179C481.852 45.6165 481.852 45.815 481.852 46.0195C482.103 46.1219 482.103 46.1219 482.359 46.2263C483.254 46.734 483.873 47.363 484.559 48.125C484.559 48.3235 484.559 48.522 484.559 48.7265C484.757 48.7265 484.956 48.7265 485.16 48.7265C485.16 48.9251 485.16 49.1236 485.16 49.3281C485.411 49.4305 485.411 49.4305 485.668 49.5349C486.562 50.0426 487.181 50.6716 487.867 51.4336C487.867 51.6321 487.867 51.8306 487.867 52.0351C488.066 52.0351 488.264 52.0351 488.469 52.0351C488.469 52.2337 488.469 52.4322 488.469 52.6367C488.72 52.7391 488.72 52.7391 488.976 52.8435C489.871 53.3512 490.49 53.9802 491.176 54.7422C491.176 54.9407 491.176 55.1392 491.176 55.3437C491.374 55.3437 491.573 55.3437 491.777 55.3437C491.777 55.5422 491.777 55.7408 491.777 55.9453C492.029 56.0477 492.029 56.0477 492.285 56.1521C493.179 56.6598 493.799 57.2888 494.484 58.0508C494.484 58.2493 494.484 58.4478 494.484 58.6523C494.66 58.7299 494.835 58.8074 495.015 58.8873C495.742 59.2835 496.234 59.7204 496.815 60.3066C497 60.4896 497.184 60.6726 497.375 60.8612C497.793 61.3594 497.793 61.3594 497.793 61.9609C498.044 62.0633 498.044 62.0633 498.3 62.1677C499.195 62.6754 499.814 63.3044 500.5 64.0664C500.5 64.2649 500.5 64.4634 500.5 64.6679C500.698 64.6679 500.897 64.6679 501.102 64.6679C501.102 64.8665 501.102 65.065 501.102 65.2695C501.353 65.3719 501.353 65.3719 501.609 65.4763C502.504 65.984 503.123 66.613 503.809 67.375C503.809 67.5735 503.809 67.772 503.809 67.9765C504.007 67.9765 504.206 67.9765 504.41 67.9765C504.41 68.1751 504.41 68.3736 504.41 68.5781C504.661 68.6805 504.661 68.6805 504.918 68.7849C505.812 69.2926 506.431 69.9216 507.117 70.6836C507.117 70.8821 507.117 71.0806 507.117 71.2851C507.316 71.2851 507.514 71.2851 507.719 71.2851C507.719 71.4837 507.719 71.6822 507.719 71.8867C507.97 71.9891 507.97 71.9891 508.226 72.0935C509.121 72.6012 509.74 73.2302 510.426 73.9922C510.426 74.1907 510.426 74.3892 510.426 74.5937C510.624 74.5937 510.823 74.5937 511.027 74.5937C511.027 74.7922 511.027 74.9908 511.027 75.1953C511.279 75.2977 511.279 75.2977 511.535 75.4021C512.429 75.9098 513.049 76.5388 513.734 77.3008C513.734 77.4993 513.734 77.6978 513.734 77.9023C513.933 77.9023 514.131 77.9023 514.336 77.9023C514.336 78.1008 514.336 78.2994 514.336 78.5039C514.587 78.6062 514.587 78.6062 514.843 78.7107C515.738 79.2184 516.357 79.8474 517.043 80.6094C517.043 80.8079 517.043 81.0064 517.043 81.2109C517.241 81.2109 517.44 81.2109 517.644 81.2109C517.644 81.4094 517.644 81.6079 517.644 81.8125C517.896 81.9148 517.896 81.9148 518.152 82.0193C519.047 82.527 519.666 83.156 520.352 83.9179C520.352 84.1165 520.352 84.315 520.352 84.5195C520.521 84.5909 520.69 84.6622 520.864 84.7357C521.711 85.2081 522.3 85.7872 522.983 86.4746C523.224 86.7134 523.464 86.9523 523.712 87.1983C524.262 87.8281 524.262 87.8281 524.262 88.4297C524.513 88.532 524.513 88.532 524.769 88.6365C525.664 89.1442 526.283 89.7732 526.969 90.5351C526.969 90.7337 526.969 90.9322 526.969 91.1367C527.144 91.2142 527.319 91.2918 527.5 91.3717C528.226 91.7678 528.718 92.2047 529.3 92.791C529.484 92.974 529.669 93.157 529.859 93.3456C530.277 93.8437 530.277 93.8437 530.277 94.4453C530.453 94.5228 530.628 94.6004 530.808 94.6803C531.535 95.0764 532.027 95.5133 532.608 96.0996C532.793 96.2826 532.977 96.4656 533.168 96.6542C533.586 97.1523 533.586 97.1523 533.586 97.7539C533.761 97.8314 533.936 97.909 534.117 97.9889C534.843 98.385 535.336 98.8219 535.917 99.4082C536.102 99.5912 536.286 99.7742 536.476 99.9627C536.894 100.461 536.894 100.461 536.894 101.062C537.07 101.14 537.245 101.218 537.426 101.297C538.152 101.694 538.644 102.131 539.226 102.717C539.41 102.9 539.595 103.083 539.785 103.271C540.203 103.77 540.203 103.77 540.203 104.371C540.378 104.449 540.554 104.526 540.734 104.606C541.46 105.002 541.953 105.439 542.534 106.025C542.719 106.208 542.903 106.391 543.093 106.58C543.512 107.078 543.512 107.078 543.512 107.68C543.687 107.757 543.862 107.835 544.043 107.915C544.769 108.311 545.261 108.748 545.843 109.334C546.027 109.517 546.212 109.7 546.402 109.889C546.82 110.387 546.82 110.387 546.82 110.988C546.989 111.059 547.157 111.13 547.331 111.203C548.192 111.684 548.782 112.273 549.481 112.971C549.694 113.182 549.694 113.182 549.911 113.399C550.387 113.872 550.861 114.347 551.334 114.823C551.675 115.163 552.016 115.503 552.357 115.843C553.283 116.766 554.208 117.691 555.131 118.617C556.099 119.587 557.069 120.555 558.038 121.523C559.667 123.151 561.295 124.78 562.922 126.41C564.799 128.291 566.679 130.169 568.56 132.047C570.177 133.661 571.792 135.276 573.406 136.892C574.37 137.856 575.334 138.82 576.298 139.783C577.207 140.689 578.114 141.598 579.02 142.507C579.351 142.839 579.683 143.171 580.015 143.502C581.725 145.206 583.326 146.91 584.719 148.887C584.974 149.207 585.231 149.527 585.489 149.845C587.768 153.03 588.298 156.822 588.027 160.617C587.284 164 585.299 166.546 582.764 168.808C582.491 169.051 582.218 169.295 581.936 169.547C581.674 169.777 581.412 170.008 581.142 170.246C580.491 170.791 580.491 170.791 580.207 171.445C580.008 171.445 579.81 171.445 579.605 171.445C579.605 171.644 579.605 171.842 579.605 172.047C579.407 172.047 579.208 172.047 579.004 172.047C579.004 172.245 579.004 172.444 579.004 172.648C578.59 173.137 578.59 173.137 578.102 173.551C577.903 173.551 577.704 173.551 577.5 173.551C577.5 173.749 577.5 173.948 577.5 174.152C577.301 174.152 577.103 174.152 576.898 174.152C576.898 174.351 576.898 174.549 576.898 174.754C576.7 174.754 576.501 174.754 576.297 174.754C576.217 174.931 576.138 175.109 576.055 175.292C575.683 175.98 575.299 176.424 574.744 176.971C574.552 177.163 574.359 177.355 574.16 177.553C573.952 177.757 573.743 177.961 573.529 178.172C573.314 178.385 573.098 178.599 572.877 178.819C572.188 179.502 571.498 180.183 570.808 180.864C570.122 181.541 569.436 182.219 568.751 182.898C568.326 183.32 567.899 183.742 567.472 184.162C566.358 185.264 565.316 186.386 564.337 187.61C564.214 187.735 564.091 187.86 563.965 187.988C563.766 187.988 563.568 187.988 563.363 187.988C563.363 188.187 563.363 188.385 563.363 188.59C563.165 188.59 562.966 188.59 562.762 188.59C562.762 188.788 562.762 188.987 562.762 189.191C562.563 189.191 562.365 189.191 562.16 189.191C562.16 189.39 562.16 189.588 562.16 189.793C561.962 189.793 561.763 189.793 561.559 189.793C561.438 190.063 561.438 190.063 561.314 190.338C560.957 190.996 560.627 191.421 560.055 191.898C559.856 191.898 559.658 191.898 559.453 191.898C559.453 192.097 559.453 192.295 559.453 192.5C559.255 192.5 559.056 192.5 558.852 192.5C558.731 192.77 558.731 192.77 558.607 193.045C558.254 193.695 557.891 194.112 557.348 194.605C557.773 196.01 558.363 197.276 559.04 198.572C559.951 200.365 560.805 202.175 561.596 204.024C561.731 204.332 561.731 204.332 561.869 204.647C562.592 206.363 563.148 208.122 563.703 209.897C563.828 210.295 563.828 210.295 563.955 210.701C564.159 211.351 564.363 212.002 564.566 212.652C564.868 212.653 564.868 212.653 565.176 212.653C570.087 212.657 574.998 212.67 579.909 212.692C582.284 212.702 584.659 212.71 587.034 212.711C589.106 212.712 591.177 212.718 593.248 212.731C594.344 212.737 595.439 212.741 596.535 212.738C597.762 212.736 598.988 212.745 600.215 212.755C600.753 212.751 600.753 212.751 601.301 212.747C605.343 212.802 609.184 214.606 612.146 217.352C614.872 220.232 616.095 223.367 616.079 227.258C616.081 227.685 616.081 227.685 616.083 228.122C616.086 229.08 616.085 230.037 616.084 230.995C616.086 231.688 616.088 232.38 616.09 233.073C616.095 234.978 616.096 236.884 616.096 238.789C616.097 240.632 616.101 242.476 616.105 244.319C616.114 249.257 616.118 254.194 616.121 259.132C616.122 261.468 616.124 263.804 616.127 266.14C616.134 274.139 616.141 282.137 616.143 290.136C616.143 290.638 616.143 291.14 616.143 291.641C616.143 292.145 616.144 292.648 616.144 293.151C616.144 294.16 616.144 295.17 616.144 296.179C616.145 296.429 616.145 296.68 616.145 296.938C616.147 305.053 616.156 313.169 616.17 321.284C616.185 329.867 616.194 338.449 616.194 347.031C616.194 347.973 616.194 348.916 616.195 349.858C616.195 350.09 616.195 350.322 616.195 350.561C616.195 354.293 616.202 358.025 616.211 361.757C616.219 365.509 616.221 369.26 616.217 373.012C616.214 375.044 616.215 377.076 616.223 379.108C616.231 380.969 616.23 382.829 616.223 384.69C616.222 385.363 616.223 386.035 616.229 386.708C616.276 393.166 616.276 393.166 614.195 396.129C613.942 396.497 613.942 396.497 613.683 396.873C613.026 397.798 612.34 398.682 611.488 399.438C611.29 399.438 611.091 399.438 610.887 399.438C610.887 399.636 610.887 399.835 610.887 400.039C608.794 401.134 607.244 401.737 604.871 401.543C604.871 401.742 604.871 401.94 604.871 402.145C591.67 402.145 578.468 402.145 564.867 402.145C564.768 402.839 564.669 403.534 564.566 404.25C564.421 404.793 564.26 405.332 564.085 405.866C563.988 406.16 563.891 406.454 563.792 406.757C563.687 407.065 563.583 407.373 563.476 407.69C563.368 408.011 563.26 408.332 563.148 408.662C561.832 412.501 560.309 416.077 558.15 419.522C557.759 420.149 557.759 420.149 557.348 421.094C557.673 422.006 558.185 422.608 558.864 423.285C559.049 423.47 559.233 423.656 559.424 423.847C559.722 424.142 559.722 424.142 560.026 424.443C560.231 424.648 560.436 424.853 560.647 425.063C561.079 425.495 561.512 425.925 561.945 426.355C562.61 427.014 563.273 427.676 563.935 428.339C564.356 428.758 564.776 429.176 565.196 429.594C565.395 429.793 565.594 429.992 565.799 430.196C565.984 430.379 566.168 430.562 566.359 430.75C566.602 430.992 566.602 430.992 566.851 431.239C567.272 431.654 567.272 431.654 567.875 431.922C567.875 432.12 567.875 432.319 567.875 432.523C568.073 432.523 568.272 432.523 568.477 432.523C568.965 432.937 568.965 432.937 569.379 433.426C569.379 433.624 569.379 433.823 569.379 434.027C569.577 434.027 569.776 434.027 569.98 434.027C569.98 434.226 569.98 434.424 569.98 434.629C570.278 434.728 570.576 434.827 570.883 434.93C570.883 435.128 570.883 435.327 570.883 435.531C571.081 435.531 571.28 435.531 571.484 435.531C571.484 435.73 571.484 435.928 571.484 436.133C571.683 436.133 571.881 436.133 572.086 436.133C572.086 436.331 572.086 436.53 572.086 436.734C572.384 436.834 572.681 436.933 572.988 437.035C572.988 437.234 572.988 437.432 572.988 437.637C573.187 437.637 573.385 437.637 573.59 437.637C573.59 437.835 573.59 438.034 573.59 438.238C573.768 438.319 573.946 438.399 574.129 438.483C574.799 438.843 575.244 439.212 575.784 439.744C576.065 440.018 576.065 440.018 576.35 440.298C576.648 440.595 576.648 440.595 576.952 440.898C577.16 441.104 577.368 441.31 577.582 441.522C578.021 441.958 578.459 442.395 578.897 442.832C579.56 443.494 580.228 444.151 580.897 444.808C583.67 447.559 585.883 450.037 587.069 453.823C587.188 454.197 587.308 454.571 587.432 454.956C588.642 459.175 587.965 462.706 585.922 466.512C585.723 466.512 585.525 466.512 585.32 466.512C585.264 466.76 585.209 467.008 585.151 467.264C583.872 470.377 580.479 472.9 578.128 475.248C577.666 475.711 577.204 476.173 576.743 476.635C575.477 477.903 574.21 479.17 572.944 480.436C571.576 481.803 570.21 483.171 568.844 484.539C566.169 487.216 563.493 489.893 560.817 492.569C558.643 494.743 556.469 496.917 554.296 499.092C553.67 499.718 553.044 500.344 552.418 500.97C552.263 501.126 552.107 501.282 551.947 501.442C547.573 505.818 543.198 510.194 538.823 514.569C538.658 514.734 538.493 514.898 538.323 515.068C537.488 515.904 536.653 516.739 535.817 517.575C535.568 517.823 535.568 517.823 535.314 518.077C534.979 518.413 534.643 518.748 534.308 519.084C529.08 524.311 523.854 529.539 518.629 534.768C512.759 540.643 506.888 546.517 501.016 552.389C500.39 553.014 499.765 553.64 499.139 554.265C498.985 554.419 498.831 554.573 498.673 554.732C496.19 557.215 493.708 559.698 491.227 562.182C488.737 564.675 486.245 567.167 483.753 569.657C482.402 571.008 481.051 572.358 479.701 573.711C478.468 574.946 477.233 576.181 475.997 577.414C475.548 577.862 475.1 578.311 474.652 578.76C474.048 579.367 473.441 579.972 472.834 580.576C472.657 580.755 472.481 580.933 472.298 581.117C471.092 582.313 471.092 582.313 470.422 582.313C470.422 582.511 470.422 582.71 470.422 582.914C466.298 585.352 462.734 587.303 457.733 586.204C455.047 585.417 452.31 583.953 450.269 582.012C450.269 581.813 450.269 581.615 450.269 581.41C450.071 581.41 449.872 581.41 449.668 581.41C449.668 581.212 449.668 581.013 449.668 580.809C449.487 580.729 449.306 580.65 449.119 580.568C448.429 580.187 448.106 579.857 447.615 579.247C446.021 577.364 444.253 575.65 442.507 573.909C441.899 573.303 441.293 572.695 440.687 572.088C440.302 571.702 439.916 571.316 439.529 570.931C439.348 570.749 439.167 570.568 438.981 570.38C438.092 569.468 438.092 569.468 437.035 568.777C437.035 568.579 437.035 568.38 437.035 568.176C436.837 568.176 436.638 568.176 436.434 568.176C436.434 567.977 436.434 567.779 436.434 567.574C436.235 567.574 436.037 567.574 435.832 567.574C435.832 567.376 435.832 567.177 435.832 566.973C435.633 566.973 435.435 566.973 435.23 566.973C435.23 566.774 435.23 566.576 435.23 566.371C435.032 566.371 434.833 566.371 434.629 566.371C434.629 566.173 434.629 565.974 434.629 565.77C434.43 565.77 434.232 565.77 434.027 565.77C434.027 565.571 434.027 565.373 434.027 565.168C433.829 565.168 433.63 565.168 433.426 565.168C433.426 564.969 433.426 564.771 433.426 564.566C433.227 564.566 433.029 564.566 432.824 564.566C432.824 564.368 432.824 564.169 432.824 563.965C432.626 563.965 432.427 563.965 432.223 563.965C432.223 563.766 432.223 563.568 432.223 563.363C432.024 563.363 431.826 563.363 431.621 563.363C431.621 563.165 431.621 562.966 431.621 562.762C431.45 562.69 431.278 562.618 431.102 562.543C430.277 562.081 429.75 561.53 429.103 560.841C428.856 560.583 428.609 560.326 428.354 560.061C427.836 559.517 427.321 558.97 426.808 558.421C426.437 558.037 426.437 558.037 426.058 557.645C425.834 557.408 425.61 557.171 425.379 556.926C424.736 556.363 424.736 556.362 423.931 556.491C422.906 556.849 421.959 557.333 421 557.836C417.294 559.725 413.537 561.303 409.626 562.724C409.139 562.902 409.139 562.902 408.642 563.083C408.334 563.193 408.025 563.304 407.707 563.417C407.432 563.516 407.157 563.614 406.873 563.716C406.003 563.98 405.147 564.123 404.25 564.266C404.25 564.467 404.251 564.668 404.251 564.875C404.254 567.78 404.253 570.685 404.25 573.59C404.25 573.87 404.249 574.15 404.249 574.438C404.245 578.304 404.234 582.169 404.21 586.035C404.2 587.759 404.192 589.483 404.191 591.207C404.19 592.904 404.181 594.602 404.168 596.3C404.164 596.938 404.163 597.576 404.164 598.214C404.174 603.974 403.149 607.807 399.145 612.129C397.162 614.014 394.395 615.434 391.617 615.438C391.26 615.439 391.26 615.439 390.895 615.441C390.635 615.44 390.374 615.44 390.106 615.44C389.827 615.44 389.548 615.441 389.261 615.442C388.32 615.444 387.378 615.445 386.437 615.445C385.758 615.446 385.079 615.447 384.4 615.449C382.529 615.452 380.658 615.454 378.786 615.455C376.977 615.457 375.168 615.46 373.358 615.463C368.51 615.471 363.661 615.475 358.812 615.479C357.206 615.48 355.599 615.482 353.993 615.483C345.45 615.491 336.908 615.497 328.365 615.501C326.385 615.502 324.406 615.503 322.427 615.504C322.181 615.504 321.935 615.504 321.681 615.504C313.712 615.508 305.743 615.517 297.773 615.53C289.578 615.542 281.384 615.55 273.189 615.552C272.031 615.552 270.873 615.553 269.715 615.553C269.487 615.553 269.259 615.553 269.024 615.553C265.361 615.554 261.697 615.56 258.033 615.568C254.347 615.576 250.662 615.578 246.977 615.575C244.981 615.573 242.985 615.574 240.99 615.582C239.161 615.589 237.333 615.588 235.504 615.583C234.844 615.582 234.185 615.583 233.525 615.588C229.007 615.617 224.907 615.34 221.093 612.635C220.799 612.432 220.504 612.229 220.201 612.021C219.889 611.757 219.889 611.757 219.57 611.488C219.57 611.29 219.57 611.091 219.57 610.887C219.394 610.818 219.217 610.75 219.036 610.68C217.104 609.539 216.096 606.851 215.512 604.775C215.061 602.397 215.016 600.053 215.024 597.641C215.024 597.289 215.024 596.936 215.024 596.573C215.024 595.416 215.027 594.259 215.029 593.102C215.03 592.297 215.03 591.491 215.03 590.686C215.031 588.788 215.034 586.889 215.037 584.991C215.04 582.829 215.042 580.666 215.043 578.503C215.047 574.058 215.052 569.613 215.059 565.168C214.814 565.108 214.569 565.048 214.317 564.986C213.994 564.906 213.671 564.826 213.339 564.744C213.02 564.665 212.7 564.586 212.371 564.505C211.154 564.189 209.977 563.802 208.799 563.363C208.561 563.275 208.324 563.187 208.079 563.096C203.337 561.281 198.766 559.065 194.605 556.145C193.546 556.91 193.546 556.91 192.801 557.949C192.602 557.949 192.404 557.949 192.199 557.949C192.199 558.148 192.199 558.346 192.199 558.551C192.001 558.551 191.802 558.551 191.598 558.551C191.598 558.749 191.598 558.948 191.598 559.152C191.399 559.152 191.201 559.152 190.996 559.152C190.922 559.324 190.848 559.497 190.772 559.674C190.331 560.471 189.814 560.999 189.162 561.636C188.921 561.874 188.68 562.112 188.432 562.356C188.18 562.602 187.928 562.847 187.669 563.1C187.169 563.589 186.671 564.079 186.173 564.569C185.952 564.785 185.73 565.001 185.502 565.223C184.959 565.738 184.959 565.738 184.68 566.371C184.481 566.371 184.283 566.371 184.078 566.371C184.078 566.57 184.078 566.768 184.078 566.973C183.88 566.973 183.681 566.973 183.477 566.973C183.477 567.171 183.477 567.37 183.477 567.574C183.278 567.574 183.079 567.574 182.875 567.574C182.794 567.767 182.714 567.959 182.631 568.157C182.273 568.777 182.273 568.777 181.371 569.078C181.371 569.277 181.371 569.475 181.371 569.68C181.173 569.68 180.974 569.68 180.769 569.68C180.696 569.852 180.622 570.024 180.546 570.201C180.104 570.998 179.587 571.527 178.935 572.163C178.694 572.401 178.453 572.639 178.205 572.884C177.953 573.129 177.702 573.375 177.442 573.627C176.943 574.116 176.444 574.606 175.946 575.096C175.725 575.312 175.504 575.528 175.275 575.751C174.733 576.265 174.733 576.265 174.453 576.898C174.255 576.898 174.056 576.898 173.852 576.898C173.852 577.097 173.852 577.295 173.852 577.5C173.653 577.5 173.454 577.5 173.25 577.5C173.25 577.699 173.25 577.897 173.25 578.102C173.051 578.102 172.853 578.102 172.648 578.102C172.586 578.261 172.524 578.42 172.46 578.584C171.871 579.611 171.08 580.374 170.242 581.203C170.067 581.377 169.892 581.551 169.712 581.73C166.723 584.642 163.209 587.069 158.925 587.238C153.983 587.139 150.355 584.493 146.802 581.353C146.032 580.68 145.243 580.03 144.45 579.383C144.074 579.004 144.074 579.004 144.074 578.402C143.876 578.402 143.677 578.402 143.473 578.402C143.473 578.204 143.473 578.005 143.473 577.801C143.274 577.801 143.076 577.801 142.871 577.801C142.373 577.285 142.373 577.285 141.818 576.616C141.1 575.719 141.1 575.719 140.164 575.094C140.164 574.895 140.164 574.697 140.164 574.492C139.965 574.492 139.767 574.492 139.562 574.492C139.562 574.294 139.562 574.095 139.562 573.891C139.364 573.891 139.165 573.891 138.961 573.891C138.961 573.692 138.961 573.494 138.961 573.289C138.762 573.289 138.564 573.289 138.359 573.289C138.359 573.091 138.359 572.892 138.359 572.688C138.161 572.688 137.962 572.688 137.758 572.688C137.758 572.489 137.758 572.29 137.758 572.086C137.559 572.086 137.361 572.086 137.156 572.086C136.667 571.672 136.667 571.672 136.254 571.184C136.254 570.985 136.254 570.787 136.254 570.582C136.055 570.582 135.857 570.582 135.652 570.582C135.652 570.384 135.652 570.185 135.652 569.98C135.454 569.98 135.255 569.98 135.051 569.98C135.051 569.782 135.051 569.583 135.051 569.379C134.852 569.379 134.654 569.379 134.449 569.379C134.449 569.18 134.449 568.982 134.449 568.777C134.251 568.777 134.052 568.777 133.848 568.777C133.848 568.579 133.848 568.38 133.848 568.176C133.649 568.176 133.451 568.176 133.246 568.176C133.246 567.977 133.246 567.779 133.246 567.574C133.054 567.494 132.861 567.413 132.663 567.33C132.043 566.973 132.043 566.973 131.742 566.07C131.544 566.07 131.345 566.07 131.141 566.07C131.141 565.872 131.141 565.673 131.141 565.469C130.942 565.469 130.744 565.469 130.539 565.469C130.539 565.27 130.539 565.072 130.539 564.867C130.34 564.867 130.142 564.867 129.937 564.867C129.937 564.669 129.937 564.47 129.937 564.266C129.739 564.266 129.54 564.266 129.336 564.266C129.336 564.067 129.336 563.869 129.336 563.664C129.137 563.664 128.939 563.664 128.734 563.664C128.734 563.466 128.734 563.267 128.734 563.063C128.554 562.982 128.375 562.901 128.189 562.818C127.532 562.461 127.106 562.131 126.629 561.559C126.629 561.36 126.629 561.162 126.629 560.957C126.43 560.957 126.232 560.957 126.027 560.957C126.027 560.759 126.027 560.56 126.027 560.355C125.829 560.355 125.63 560.355 125.426 560.355C125.426 560.157 125.426 559.958 125.426 559.754C125.227 559.754 125.029 559.754 124.824 559.754C124.824 559.555 124.824 559.357 124.824 559.152C124.649 559.075 124.474 558.997 124.293 558.917C123.567 558.521 123.074 558.084 122.493 557.498C122.216 557.224 122.216 557.224 121.934 556.943C121.516 556.445 121.516 556.445 121.516 555.844C121.317 555.844 121.119 555.844 120.914 555.844C120.914 555.645 120.914 555.447 120.914 555.242C120.715 555.242 120.517 555.242 120.312 555.242C120.312 555.044 120.312 554.845 120.312 554.641C120.143 554.569 119.974 554.498 119.8 554.424C118.953 553.952 118.364 553.373 117.681 552.686C117.44 552.447 117.2 552.208 116.952 551.962C116.402 551.332 116.402 551.332 116.402 550.73C116.204 550.73 116.005 550.73 115.801 550.73C115.801 550.532 115.801 550.333 115.801 550.129C115.639 550.065 115.477 550.001 115.31 549.935C114.336 549.378 113.607 548.616 112.824 547.824C112.648 547.648 112.472 547.472 112.29 547.291C111.699 546.701 111.111 546.108 110.522 545.515C110.099 545.092 109.676 544.669 109.253 544.245C108.342 543.334 107.432 542.421 106.523 541.507C105.087 540.064 103.648 538.623 102.209 537.182C99.9343 534.904 97.661 532.624 95.3883 530.344C91.3156 526.258 87.2411 522.174 83.1651 518.091C81.7337 516.657 80.3032 515.222 78.8733 513.787C77.9855 512.896 77.097 512.005 76.2084 511.115C75.7952 510.701 75.3822 510.286 74.9695 509.871C74.408 509.307 73.8456 508.744 73.283 508.181C73.1182 508.015 72.9535 507.848 72.7837 507.677C71.9628 506.842 71.9628 506.842 70.9843 506.215C70.9843 506.016 70.9843 505.818 70.9843 505.613C70.7858 505.613 70.5873 505.613 70.3828 505.613C69.9057 505.119 69.9057 505.119 69.3676 504.467C68.808 503.79 68.3168 503.236 67.6076 502.715C67.4316 502.579 67.2555 502.444 67.0742 502.305C67.0742 502.106 67.0742 501.908 67.0742 501.703C66.8757 501.703 66.6771 501.703 66.4726 501.703C66.4726 501.505 66.4726 501.306 66.4726 501.102C66.2741 501.102 66.0756 501.102 65.871 501.102C65.871 500.903 65.871 500.705 65.871 500.5C65.6725 500.5 65.474 500.5 65.2695 500.5C64.762 499.904 64.2608 499.302 63.7656 498.695C63.5671 498.596 63.3685 498.497 63.164 498.395C63.164 498.196 63.164 497.998 63.164 497.793C62.9655 497.793 62.767 497.793 62.5625 497.793C62.5625 497.594 62.5625 497.396 62.5625 497.191C62.3639 497.191 62.1654 497.191 61.9609 497.191C61.9609 496.993 61.9609 496.794 61.9609 496.59C61.7624 496.59 61.5639 496.59 61.3593 496.59C61.3593 496.391 61.3593 496.193 61.3593 495.988C61.1608 495.988 60.9623 495.988 60.7578 495.988C60.7578 495.79 60.7578 495.591 60.7578 495.387C60.5593 495.387 60.3607 495.387 60.1562 495.387C60.1562 495.188 60.1562 494.99 60.1562 494.785C59.9577 494.785 59.7592 494.785 59.5546 494.785C59.0659 494.372 59.0659 494.372 58.6523 493.883C58.6523 493.684 58.6523 493.486 58.6523 493.281C58.4538 493.281 58.2553 493.281 58.0507 493.281C58.0507 493.083 58.0507 492.884 58.0507 492.68C57.8522 492.68 57.6537 492.68 57.4492 492.68C57.4492 492.481 57.4492 492.283 57.4492 492.078C57.2507 492.078 57.0521 492.078 56.8476 492.078C56.8476 491.88 56.8476 491.681 56.8476 491.477C56.6491 491.477 56.4506 491.477 56.246 491.477C56.246 491.278 56.246 491.08 56.246 490.875C56.0475 490.875 55.849 490.875 55.6445 490.875C55.6445 490.677 55.6445 490.478 55.6445 490.273C55.356 490.152 55.356 490.152 55.0617 490.029C54.4414 489.672 54.4414 489.672 54.1406 488.77C53.9421 488.77 53.7435 488.77 53.539 488.77C53.539 488.571 53.539 488.373 53.539 488.168C53.3405 488.168 53.142 488.168 52.9375 488.168C52.9375 487.969 52.9375 487.771 52.9375 487.566C52.7389 487.566 52.5404 487.566 52.3359 487.566C52.3359 487.368 52.3359 487.169 52.3359 486.965C52.1374 486.965 51.9389 486.965 51.7343 486.965C51.7343 486.766 51.7343 486.568 51.7343 486.363C51.5668 486.295 51.3993 486.227 51.2268 486.157C50.3322 485.649 49.7131 485.02 49.0273 484.258C49.0273 484.059 49.0273 483.861 49.0273 483.656C48.8288 483.656 48.6303 483.656 48.4257 483.656C48.4257 483.458 48.4257 483.259 48.4257 483.055C48.2272 483.055 48.0287 483.055 47.8242 483.055C47.8242 482.856 47.8242 482.658 47.8242 482.453C47.6489 482.376 47.4737 482.298 47.2931 482.218C46.5668 481.822 46.0744 481.385 45.4931 480.799C45.2163 480.524 45.2163 480.524 44.9339 480.244C44.5156 479.746 44.5156 479.746 44.5156 479.145C44.3171 479.145 44.1185 479.145 43.914 479.145C43.914 478.946 43.914 478.748 43.914 478.543C43.745 478.472 43.5759 478.4 43.4017 478.327C42.5548 477.854 41.9651 477.275 41.2822 476.588C41.0418 476.349 40.8014 476.11 40.5537 475.864C40.0039 475.234 40.0039 475.234 40.0039 474.633C39.8053 474.633 39.6068 474.633 39.4023 474.633C39.4023 474.434 39.4023 474.236 39.4023 474.031C39.2336 473.96 39.065 473.888 38.8912 473.814C34.7126 471.494 32.6338 466.641 31.2812 462.301C30.0685 457.897 31.0179 454.367 33.1881 450.401C33.7729 449.543 34.4401 448.881 35.1914 448.164C35.443 447.912 35.6946 447.661 35.9539 447.402C37.0765 446.279 37.0765 446.279 38.1992 445.156C38.4159 444.927 38.6327 444.698 38.856 444.462C39.4023 443.953 39.4023 443.953 40.0039 443.953C40.1031 443.655 40.2024 443.358 40.3046 443.051C40.8874 442.393 40.8874 442.393 41.5078 441.848C41.7063 441.848 41.9048 441.848 42.1093 441.848C42.3078 441.451 42.5064 441.054 42.7109 440.645C42.9094 440.645 43.1079 440.645 43.3125 440.645C43.511 440.248 43.7095 439.85 43.914 439.441C44.1125 439.441 44.311 439.441 44.5156 439.441C44.6148 439.144 44.7141 438.846 44.8164 438.539C45.0149 438.539 45.2134 438.539 45.4179 438.539C45.6164 438.142 45.815 437.745 46.0195 437.336C46.218 437.336 46.4165 437.336 46.621 437.336C46.7203 437.038 46.8196 436.74 46.9218 436.434C47.1203 436.434 47.3189 436.434 47.5234 436.434C47.7219 436.037 47.9204 435.64 48.125 435.23C48.3235 435.23 48.522 435.23 48.7265 435.23C48.8475 434.961 48.8475 434.961 48.9709 434.685C49.3278 434.028 49.6577 433.602 50.2304 433.125C50.4289 433.125 50.6275 433.125 50.832 433.125C50.9128 432.946 50.9935 432.768 51.0767 432.584C51.4357 431.918 51.7954 431.487 52.3302 430.957C52.5108 430.776 52.6914 430.596 52.8775 430.41C53.0717 430.219 53.266 430.027 53.4662 429.831C53.6656 429.632 53.865 429.433 54.0705 429.229C54.7066 428.596 55.3447 427.966 55.9829 427.335C56.415 426.906 56.847 426.477 57.2788 426.047C58.3366 424.996 59.3963 423.947 60.457 422.898C59.99 421.692 59.4273 420.628 58.7651 419.515C56.7387 416.019 55.1187 412.404 53.727 408.611C53.5764 408.202 53.5764 408.202 53.4227 407.784C52.8279 406.12 52.3838 404.479 52.0351 402.746C51.8383 402.767 51.6415 402.787 51.4387 402.808C49.3257 403.016 47.2266 403.113 45.1044 403.155C44.7587 403.163 44.4129 403.171 44.0567 403.179C42.9231 403.204 41.7895 403.228 40.6559 403.25C40.266 403.258 39.8761 403.266 39.4744 403.274C37.8345 403.307 36.1947 403.339 34.5548 403.369C32.2219 403.412 29.8891 403.46 27.5564 403.513C25.9059 403.551 24.2554 403.583 22.6048 403.612C21.6235 403.629 20.6424 403.649 19.6613 403.673C9.26097 403.924 9.26097 403.924 5.11324 400.039C1.29296 395.765 2.06042 389.178 2.02358 383.826C2.01847 383.226 2.01324 382.627 2.00791 382.027C1.99367 380.39 1.9811 378.752 1.9688 377.114C1.95521 375.343 1.94006 373.572 1.92513 371.802C1.89612 368.334 1.86853 364.865 1.84141 361.397C1.8193 358.571 1.79659 355.745 1.77347 352.919C1.77182 352.717 1.77017 352.516 1.76848 352.309C1.76179 351.491 1.75509 350.673 1.74839 349.855C1.68556 342.184 1.62417 334.512 1.56351 326.841C1.50987 320.059 1.4553 313.278 1.39981 306.497C1.39626 306.063 1.39271 305.629 1.38916 305.195C1.38653 304.873 1.38652 304.873 1.38384 304.545C1.37499 303.464 1.36615 302.384 1.35731 301.304C1.35469 300.984 1.35469 300.984 1.35202 300.657C1.30544 294.962 1.2595 289.267 1.21375 283.572C1.21211 283.369 1.21047 283.165 1.20879 282.956C1.20222 282.138 1.19564 281.32 1.18907 280.502C1.16488 277.489 1.14045 274.476 1.11592 271.463C1.08789 268.019 1.06035 264.575 1.03338 261.132C1.01966 259.382 1.00578 257.633 0.991336 255.883C0.963048 252.441 0.937664 249 0.919317 245.558C0.910326 243.919 0.898708 242.279 0.88339 240.64C0.866884 238.873 0.854885 237.106 0.845756 235.339C0.841506 234.668 0.835685 233.997 0.82815 233.326C0.817954 232.396 0.813555 231.466 0.810453 230.536C0.806132 230.266 0.801815 229.995 0.797363 229.717C0.800315 226.869 1.56692 224.337 2.87618 221.826C3.05647 221.476 3.23676 221.125 3.42252 220.764C3.91011 219.871 3.91011 219.871 4.51167 218.969C4.71019 218.969 4.90871 218.969 5.11324 218.969C5.18729 218.789 5.26135 218.61 5.33765 218.425C6.33523 216.681 8.55848 215.813 10.3969 215.222C12.6716 214.714 14.9399 214.708 17.2596 214.696C17.6267 214.693 17.9938 214.69 18.3719 214.687C19.3717 214.679 20.3714 214.673 21.3711 214.667C22.4185 214.66 23.4658 214.652 24.5131 214.644C26.4933 214.629 28.4735 214.615 30.4537 214.602C32.7094 214.587 34.9651 214.571 37.2208 214.554C41.8581 214.52 46.4954 214.488 51.1328 214.457C51.2006 214.278 51.2684 214.098 51.3382 213.914C51.65 213.09 51.9625 212.266 52.275 211.443C52.3816 211.161 52.4882 210.879 52.5981 210.588C53.4734 208.284 54.4202 206.025 55.4377 203.779C55.5187 203.598 55.5998 203.417 55.6833 203.231C56.9414 200.423 58.3013 197.68 59.8329 195.01C59.964 194.773 60.0951 194.537 60.2302 194.294C60.3471 194.091 60.464 193.888 60.5844 193.68C60.8244 193.085 60.8244 193.085 60.5276 192.444C60.1916 191.855 60.1916 191.855 59.5546 191.598C59.5546 191.399 59.5546 191.201 59.5546 190.996C59.3561 190.996 59.1576 190.996 58.9531 190.996C58.9531 190.798 58.9531 190.599 58.9531 190.395C58.781 190.321 58.6089 190.247 58.4316 190.171C57.6345 189.729 57.106 189.212 56.4693 188.56C56.1128 188.199 56.1128 188.199 55.7491 187.83C55.5036 187.578 55.2582 187.327 55.0053 187.067C54.5164 186.568 54.0269 186.069 53.5367 185.571C53.3207 185.35 53.1046 185.129 52.8821 184.9C52.3674 184.358 52.3674 184.358 51.7343 184.078C51.7343 183.88 51.7343 183.681 51.7343 183.477C51.5358 183.477 51.3373 183.477 51.1328 183.477C51.1328 183.278 51.1328 183.08 51.1328 182.875C50.9607 182.801 50.7886 182.727 50.6112 182.651C49.8142 182.209 49.2857 181.693 48.649 181.041C48.2925 180.679 48.2925 180.679 47.9287 180.311C47.6833 180.059 47.4379 179.807 47.185 179.548C46.6961 179.048 46.2066 178.55 45.7164 178.052C45.5003 177.83 45.2843 177.609 45.0618 177.381C44.5471 176.838 44.5471 176.838 43.914 176.559C43.914 176.36 43.914 176.162 43.914 175.957C43.7155 175.957 43.517 175.957 43.3125 175.957C43.3125 175.758 43.3125 175.56 43.3125 175.355C43.1404 175.282 42.9683 175.208 42.7909 175.132C41.9939 174.69 41.4654 174.173 40.8287 173.521C40.4721 173.16 40.4721 173.16 40.1084 172.791C39.863 172.539 39.6176 172.288 39.3647 172.028C38.8758 171.529 38.3863 171.03 37.896 170.532C37.68 170.311 37.464 170.09 37.2415 169.861C36.7268 169.319 36.7268 169.319 36.0937 169.039C36.0937 168.841 36.0937 168.642 36.0937 168.437C35.8952 168.437 35.6967 168.437 35.4921 168.437C35.2936 167.941 35.0951 167.445 34.8906 166.934C34.6921 166.934 34.4935 166.934 34.289 166.934C31.5714 163.122 30.6941 159.213 31.2812 154.602C31.8976 151.871 33.3048 149.148 35.1914 147.082C35.3899 147.082 35.5884 147.082 35.7929 147.082C35.8692 146.91 35.9454 146.739 36.0239 146.562C37.6898 143.491 41.04 140.892 43.4975 138.441C43.9422 137.996 44.3868 137.552 44.8313 137.107C46.0471 135.891 47.2638 134.676 48.4806 133.461C49.795 132.149 51.1085 130.836 52.4221 129.522C54.6963 127.249 56.9711 124.976 59.2463 122.704C62.5369 119.417 65.8265 116.129 69.1158 112.841C70.6496 111.308 72.1835 109.775 73.7174 108.241C73.8709 108.088 74.0245 107.935 74.1826 107.777C77.8325 104.128 81.4829 100.481 85.1334 96.833C85.3728 96.5938 85.3728 96.5938 85.6171 96.3497C88.046 93.9227 90.4749 91.4958 92.9038 89.0688C95.4971 86.4775 98.0905 83.8862 100.684 81.2949C100.844 81.1352 101.003 80.9755 101.168 80.811C104.816 77.1659 108.464 73.5206 112.111 69.8749C112.265 69.7217 112.418 69.5686 112.576 69.4108C114.105 67.882 115.635 66.3532 117.164 64.8243C120.451 61.5393 123.737 58.2546 127.025 54.9707C129.42 52.5787 131.814 50.1861 134.208 47.793C135.505 46.4961 136.803 45.1995 138.101 43.9036C139.288 42.7184 140.474 41.5326 141.66 40.3462C142.091 39.916 142.521 39.4862 142.952 39.0566C143.535 38.4747 144.118 37.8919 144.7 37.3088C144.869 37.1405 145.038 36.9723 145.212 36.7989C145.858 36.1508 146.463 35.5155 147.005 34.7771C147.13 34.616 147.254 34.455 147.383 34.289C147.581 34.289 147.78 34.289 147.984 34.289C147.984 34.0905 147.984 33.892 147.984 33.6875C148.67 33.1689 149.352 32.6904 150.071 32.2212C150.278 32.0853 150.484 31.9494 150.697 31.8094C154.052 29.6388 157.377 28.3516 161.417 29.0042C164.087 29.6265 166.648 31.0065 168.738 32.7851C168.738 32.9837 168.738 33.1822 168.738 33.3867C168.992 33.4891 168.992 33.4891 169.251 33.5935C170.136 34.0993 170.693 34.7315 171.37 35.4922C171.61 35.7589 171.851 36.0257 172.099 36.3005C172.648 36.9961 172.648 36.9961 172.648 37.5976C172.847 37.5976 173.045 37.5976 173.25 37.5976C173.739 38.0112 173.739 38.0112 174.152 38.5C174.152 38.6985 174.152 38.897 174.152 39.1015C174.45 39.2008 174.748 39.3001 175.055 39.4023C175.055 39.6008 175.055 39.7994 175.055 40.0039C175.216 40.0669 175.377 40.1298 175.543 40.1947C176.535 40.7649 177.272 41.5522 178.065 42.3643C178.32 42.6223 178.32 42.6223 178.581 42.8856C179.124 43.4338 179.665 43.9839 180.206 44.5344C180.748 45.0857 181.292 45.6365 181.836 46.1865C182.174 46.5284 182.512 46.8712 182.848 47.2148C183.681 48.0791 183.681 48.0791 184.68 48.7265C184.68 48.9251 184.68 49.1236 184.68 49.3281C184.977 49.4274 185.275 49.5266 185.582 49.6289C185.582 49.8274 185.582 50.0259 185.582 50.2304C185.781 50.2304 185.979 50.2304 186.184 50.2304C186.184 50.429 186.184 50.6275 186.184 50.832C186.481 50.9313 186.779 51.0305 187.086 51.1328C187.086 51.3313 187.086 51.5298 187.086 51.7344C187.254 51.8043 187.422 51.8743 187.596 51.9464C188.467 52.4356 189.057 53.0419 189.757 53.7552C190.034 54.0356 190.311 54.3159 190.596 54.6047C190.886 54.9011 191.176 55.1975 191.466 55.4941C192.036 56.0747 192.607 56.6541 193.178 57.233C193.43 57.4907 193.682 57.7483 193.942 58.0138C194.608 58.6926 194.608 58.6926 195.508 59.2539C195.789 59.0647 196.07 58.8755 196.36 58.6805C202.051 54.9345 208.303 52.6785 215.059 51.7344C215.058 51.5349 215.058 51.3355 215.058 51.1301C215.051 46.2829 215.046 41.4357 215.043 36.5885C215.041 34.2445 215.039 31.9005 215.036 29.5564C215.033 27.5139 215.031 25.4714 215.03 23.4289C215.03 22.3469 215.029 21.2649 215.027 20.1829C215.024 18.9765 215.024 17.7701 215.024 16.5637C215.023 16.203 215.022 15.8424 215.021 15.4708C215.022 15.1435 215.022 14.8162 215.022 14.4789C215.022 14.1934 215.022 13.9078 215.022 13.6136C215.059 12.9336 215.059 12.9336 215.359 12.332C215.558 12.332 215.756 12.332 215.961 12.332C215.991 12.0734 216.021 11.8148 216.053 11.5483C216.615 8.80323 218.518 5.90619 220.473 3.91014C220.671 3.91014 220.87 3.91014 221.074 3.91014C221.074 3.71162 221.074 3.51311 221.074 3.30857C221.582 2.88678 221.582 2.88678 222.277 2.42503C222.501 2.27343 222.724 2.12183 222.954 1.96563C225.464 0.564475 227.598 0.473243 230.428 0.491009ZM309.842 138.303C308.392 140.478 308.502 142.715 308.477 145.254C308.471 145.631 308.465 146.009 308.459 146.397C308.444 147.4 308.432 148.402 308.421 149.405C308.409 150.405 308.393 151.405 308.378 152.406C307.452 161.99 307.452 161.99 310.406 170.543C311.419 171.448 311.888 171.734 313.245 171.784C315.04 171.217 316.214 170.163 317.117 168.513C318.459 165.346 318.356 161.965 318.415 158.587C318.425 158.044 318.436 157.501 318.447 156.957C318.474 155.551 318.496 154.145 318.515 152.739C318.527 151.905 318.54 151.07 318.553 150.236C318.573 148.92 318.587 147.604 318.597 146.287C318.6 145.793 318.606 145.299 318.613 144.805C318.622 144.115 318.625 143.426 318.626 142.737C318.629 142.348 318.632 141.958 318.635 141.557C318.438 139.559 317.684 138.158 316.121 136.855C313.807 135.64 311.549 136.419 309.842 138.303ZM185.056 187.744C184.329 189.378 184.158 190.917 184.774 192.613C185.246 193.7 185.246 193.7 185.883 194.605C186.081 194.605 186.28 194.605 186.484 194.605C186.484 194.804 186.484 195.002 186.484 195.207C186.683 195.207 186.881 195.207 187.086 195.207C187.167 195.399 187.247 195.592 187.33 195.79C187.653 196.51 187.653 196.51 188.59 196.711C188.59 196.909 188.59 197.108 188.59 197.312C188.788 197.312 188.987 197.312 189.191 197.312C189.191 197.511 189.191 197.71 189.191 197.914C189.39 197.914 189.588 197.914 189.793 197.914C189.793 198.113 189.793 198.311 189.793 198.516C190.389 199.023 190.991 199.524 191.598 200.02C191.697 200.218 191.796 200.417 191.898 200.621C192.097 200.621 192.295 200.621 192.5 200.621C192.5 200.82 192.5 201.018 192.5 201.223C192.987 201.715 192.987 201.715 193.609 202.219C194.923 203.339 196.135 204.481 197.218 205.828C197.563 206.228 197.563 206.228 197.914 206.637C198.113 206.637 198.311 206.637 198.516 206.637C198.516 206.835 198.516 207.034 198.516 207.238C198.714 207.238 198.913 207.238 199.117 207.238C199.117 207.437 199.117 207.635 199.117 207.84C199.316 207.84 199.514 207.84 199.719 207.84C199.799 208.015 199.88 208.19 199.963 208.371C200.325 209.051 200.723 209.586 201.223 210.171C201.378 210.355 201.533 210.54 201.693 210.73C202.097 211.218 202.097 211.218 202.727 211.148C202.727 211.347 202.727 211.545 202.727 211.75C202.925 211.75 203.124 211.75 203.328 211.75C203.409 211.924 203.489 212.097 203.572 212.276C203.938 212.97 204.322 213.561 204.832 214.156C205.031 214.156 205.229 214.156 205.434 214.156C205.555 214.445 205.555 214.445 205.678 214.739C206.001 215.459 206.001 215.459 206.937 215.66C206.937 215.859 206.937 216.057 206.937 216.262C208.094 216.934 208.869 216.924 210.167 216.748C211.286 216.443 211.858 215.893 212.652 215.059C212.652 214.86 212.652 214.662 212.652 214.457C213.049 214.258 213.446 214.06 213.855 213.855C213.998 211.664 213.942 210.255 212.652 208.441C212.454 208.441 212.255 208.441 212.051 208.441C212.051 208.243 212.051 208.044 212.051 207.84C211.852 207.84 211.654 207.84 211.449 207.84C211.449 207.641 211.449 207.443 211.449 207.238C211.251 207.238 211.052 207.238 210.848 207.238C210.848 207.04 210.848 206.841 210.848 206.637C210.649 206.637 210.451 206.637 210.246 206.637C210.246 206.438 210.246 206.24 210.246 206.035C210.048 206.035 209.849 206.035 209.644 206.035C209.644 205.837 209.644 205.638 209.644 205.434C209.446 205.434 209.247 205.434 209.043 205.434C209.043 205.235 209.043 205.037 209.043 204.832C208.844 204.832 208.646 204.832 208.441 204.832C208.441 204.633 208.441 204.435 208.441 204.23C208.243 204.23 208.044 204.23 207.84 204.23C207.84 204.032 207.84 203.833 207.84 203.629C207.641 203.629 207.443 203.629 207.238 203.629C207.173 203.465 207.109 203.302 207.042 203.133C206.497 202.182 205.748 201.485 204.964 200.734C203.364 199.189 203.364 199.189 203.027 198.516C202.829 198.516 202.63 198.516 202.426 198.516C202.426 198.317 202.426 198.119 202.426 197.914C202.227 197.914 202.029 197.914 201.824 197.914C201.752 197.743 201.679 197.572 201.604 197.396C201.148 196.576 200.599 196.029 199.925 195.376C199.684 195.14 199.442 194.903 199.194 194.659C198.97 194.443 198.746 194.227 198.516 194.004C197.793 193.301 197.101 192.622 196.504 191.804C196.374 191.637 196.244 191.469 196.109 191.297C195.911 191.297 195.712 191.297 195.508 191.297C195.441 191.133 195.374 190.969 195.306 190.8C194.78 189.87 194.078 189.167 193.327 188.421C193.117 188.203 193.117 188.203 192.903 187.982C191.615 186.692 190.289 185.755 188.421 185.751C186.784 185.812 186.058 186.491 185.056 187.744ZM263.184 194.605C262.909 194.716 262.634 194.826 262.351 194.94C258.49 196.507 254.797 198.305 251.152 200.32C250.867 200.477 250.582 200.634 250.289 200.796C246.983 202.622 243.709 204.452 240.625 206.637C240.341 206.836 240.057 207.035 239.764 207.239C239.244 207.604 238.725 207.969 238.207 208.337C237.617 208.742 237.617 208.742 237.016 209.043C237.016 209.241 237.016 209.44 237.016 209.645C236.619 209.744 236.222 209.843 235.812 209.945C235.812 210.144 235.812 210.342 235.812 210.547C235.647 210.624 235.481 210.702 235.31 210.782C234.506 211.202 233.777 211.686 233.03 212.201C232.762 212.384 232.494 212.567 232.217 212.756C232.014 212.92 231.811 213.085 231.602 213.254C231.602 213.452 231.602 213.651 231.602 213.855C231 214.156 230.398 214.457 229.797 214.758C229.797 214.956 229.797 215.155 229.797 215.359C229.629 215.434 229.462 215.508 229.289 215.585C228.466 216.03 227.789 216.543 227.09 217.164C227.09 217.363 227.09 217.561 227.09 217.766C226.926 217.832 226.763 217.897 226.594 217.965C225.653 218.5 224.946 219.222 224.19 219.984C224.032 220.142 223.873 220.3 223.71 220.463C223.376 220.795 223.044 221.129 222.712 221.464C222.202 221.977 221.689 222.487 221.175 222.996C220.852 223.32 220.528 223.645 220.205 223.969C219.974 224.199 219.974 224.199 219.738 224.433C218.913 225.172 218.913 225.172 218.668 226.187C218.469 226.187 218.271 226.187 218.066 226.187C216.973 227.234 216.973 227.234 216.562 228.594C216.364 228.594 216.165 228.594 215.961 228.594C215.24 229.387 215.24 229.387 215.059 230.398C214.86 230.398 214.662 230.398 214.457 230.398C213.966 230.978 213.513 231.554 213.066 232.166C212.939 232.333 212.813 232.5 212.683 232.672C211.973 233.547 211.973 233.547 211.75 234.609C211.551 234.609 211.353 234.609 211.148 234.609C211.049 235.006 210.95 235.403 210.848 235.812C210.649 235.812 210.451 235.812 210.246 235.812C209.77 236.456 209.77 236.456 209.287 237.279C208.617 238.366 207.935 239.424 207.182 240.456C196.467 255.639 190.114 274.416 187.894 292.754C187.87 292.956 187.845 293.158 187.82 293.367C187.277 297.925 187.015 302.47 187.011 307.06C187.01 307.277 187.01 307.493 187.01 307.716C187.028 320.34 188.996 333.049 193.102 344.996C193.247 345.424 193.247 345.424 193.396 345.86C196.872 355.979 201.421 365.667 207.539 374.473C207.873 374.959 207.873 374.959 208.215 375.455C208.671 376.118 209.13 376.779 209.59 377.439C210.019 378.056 210.444 378.676 210.864 379.298C211.051 379.573 211.238 379.848 211.43 380.131C211.676 380.497 211.676 380.497 211.927 380.87C212.137 381.128 212.137 381.128 212.352 381.391C212.55 381.391 212.749 381.391 212.953 381.391C213.028 381.552 213.102 381.713 213.179 381.879C213.647 382.769 214.167 383.586 214.758 384.398C214.956 384.398 215.155 384.398 215.359 384.398C215.66 385 215.961 385.602 216.262 386.203C216.46 386.203 216.659 386.203 216.863 386.203C216.983 386.468 216.983 386.468 217.106 386.739C217.473 387.422 217.863 387.898 218.394 388.46C218.579 388.657 218.764 388.853 218.954 389.056C219.25 389.365 219.25 389.365 219.551 389.681C219.753 389.893 219.954 390.105 220.161 390.324C220.764 390.957 221.37 391.589 221.977 392.219C222.15 392.399 222.324 392.58 222.503 392.766C223.859 394.183 223.859 394.183 225.285 395.527C225.484 395.527 225.682 395.527 225.887 395.527C225.887 395.726 225.887 395.924 225.887 396.129C226.085 396.129 226.284 396.129 226.488 396.129C226.488 396.327 226.488 396.526 226.488 396.73C226.935 397.206 226.935 397.206 227.503 397.67C227.692 397.832 227.88 397.995 228.074 398.162C228.568 398.594 228.568 398.594 229.195 398.535C229.195 398.734 229.195 398.932 229.195 399.137C229.849 399.752 229.849 399.752 230.662 400.377C230.934 400.595 231.206 400.813 231.486 401.038C232.139 401.601 232.139 401.601 232.805 401.543C232.805 401.742 232.805 401.94 232.805 402.145C233.274 402.58 233.274 402.58 233.896 403.019C234.131 403.191 234.365 403.364 234.607 403.542C234.862 403.726 235.117 403.91 235.38 404.1C235.641 404.289 235.902 404.479 236.17 404.675C254.71 418.088 276.358 426.634 299.277 428.313C299.495 428.329 299.713 428.346 299.938 428.364C320.713 429.937 341.522 425.668 360.336 416.883C360.596 416.762 360.856 416.641 361.124 416.517C371.297 411.748 380.709 405.202 389.066 397.718C389.492 397.349 389.939 397.004 390.386 396.66C390.698 396.397 390.698 396.397 391.016 396.129C391.016 395.93 391.016 395.732 391.016 395.527C391.191 395.449 391.367 395.371 391.548 395.291C392.266 394.9 392.746 394.477 393.323 393.901C393.623 393.603 393.623 393.603 393.928 393.299C394.133 393.091 394.338 392.884 394.55 392.67C394.76 392.463 394.969 392.255 395.185 392.041C395.384 391.842 395.582 391.644 395.786 391.439C395.967 391.257 396.149 391.075 396.335 390.887C396.795 390.44 396.795 390.44 396.73 389.813C396.929 389.813 397.127 389.813 397.332 389.813C397.866 389.307 397.866 389.307 398.404 388.666C398.683 388.346 398.683 388.346 398.969 388.021C399.493 387.402 399.493 387.402 399.738 386.504C399.937 386.504 400.135 386.504 400.34 386.504C400.883 385.921 400.883 385.921 401.449 385.169C401.661 384.897 401.873 384.624 402.092 384.343C402.416 383.924 402.416 383.924 402.746 383.496C402.953 383.238 403.159 382.98 403.372 382.715C403.563 382.476 403.753 382.238 403.949 381.992C404.123 381.775 404.297 381.558 404.476 381.334C404.908 380.817 404.908 380.817 404.852 380.188C405.05 380.188 405.249 380.188 405.453 380.188C405.86 379.682 405.86 379.682 406.261 379.022C406.898 378.033 407.549 377.064 408.235 376.108C420.606 358.459 427.652 337.821 429.516 316.422C429.548 316.058 429.548 316.058 429.581 315.688C431.294 295.688 427.149 275.398 418.988 257.168C418.84 256.829 418.84 256.829 418.688 256.483C414.652 247.285 408.91 238.889 402.746 231C402.433 230.583 402.433 230.583 402.113 230.158C401.925 229.908 401.737 229.659 401.543 229.402C401.382 229.186 401.22 228.97 401.054 228.748C400.918 228.598 400.781 228.448 400.641 228.293C400.442 228.293 400.244 228.293 400.039 228.293C399.958 228.115 399.877 227.938 399.794 227.755C399.437 227.089 399.067 226.626 398.55 226.078C398.372 225.888 398.193 225.697 398.009 225.501C397.817 225.3 397.624 225.098 397.426 224.89C397.228 224.681 397.03 224.472 396.826 224.257C395.373 222.731 393.906 221.219 392.425 219.721C392.137 219.426 392.137 219.426 391.843 219.126C391.664 218.947 391.485 218.768 391.301 218.583C391.144 218.425 390.987 218.267 390.825 218.103C390.425 217.702 390.425 217.702 389.812 217.766C389.812 217.567 389.812 217.369 389.812 217.164C389.353 216.744 388.872 216.347 388.384 215.961C388.078 215.717 387.773 215.473 387.458 215.222C387.298 215.095 387.139 214.968 386.974 214.837C386.254 214.255 385.554 213.649 384.85 213.047C379.151 208.3 372.964 204.333 366.493 200.734C366.03 200.476 365.568 200.217 365.107 199.956C351.123 192.051 334.481 187.452 318.527 186.184C318.047 186.145 318.047 186.145 317.556 186.105C314.637 185.888 311.734 185.822 308.808 185.826C308.573 185.827 308.338 185.827 308.096 185.827C292.716 185.859 277.448 188.846 263.184 194.605ZM415.231 201.284C414.777 201.824 414.777 201.824 414.267 202.308C413.806 202.704 413.806 202.704 413.875 203.328C413.676 203.328 413.478 203.328 413.273 203.328C413.273 203.527 413.273 203.725 413.273 203.93C413.075 203.93 412.876 203.93 412.672 203.93C411.95 204.723 411.95 204.723 411.769 205.734C411.571 205.734 411.372 205.734 411.168 205.734C410.742 206.11 410.742 206.11 410.266 206.637C410.037 206.864 409.808 207.092 409.572 207.326C405.082 211.5 405.082 211.5 402.934 216.938C402.955 218.237 403.237 219.072 404.065 220.076C404.949 220.799 405.867 220.875 406.957 220.773C408.996 220.371 410.812 219.092 412.371 217.766C412.371 217.567 412.371 217.369 412.371 217.164C412.66 217.043 412.66 217.043 412.954 216.92C413.674 216.597 413.674 216.597 413.875 215.66C414.073 215.66 414.272 215.66 414.477 215.66C414.477 215.462 414.477 215.263 414.477 215.059C414.675 215.059 414.874 215.059 415.078 215.059C415.078 214.86 415.078 214.662 415.078 214.457C415.277 214.457 415.475 214.457 415.68 214.457C416.121 214.032 416.121 214.032 416.582 213.461C417.75 212.081 418.975 210.76 420.209 209.44C420.857 208.817 420.857 208.817 420.793 208.141C420.991 208.141 421.19 208.141 421.394 208.141C421.852 207.637 422.287 207.113 422.71 206.58C422.942 206.291 423.174 206.001 423.413 205.703C423.64 205.415 423.867 205.128 424.102 204.832C424.309 204.578 424.516 204.324 424.729 204.062C425.91 202.556 426.973 201.078 427.316 199.174C427.006 197.735 426.215 197.152 425.06 196.316C421.077 195.064 417.575 198.452 415.231 201.284ZM454.556 300.443C454.26 300.455 453.965 300.466 453.661 300.479C452.808 300.513 451.954 300.552 451.101 300.591C450.723 300.606 450.723 300.606 450.338 300.621C447.324 300.771 444.792 301.18 442.449 303.187C441.494 304.334 440.945 305.288 440.945 306.797C441.608 308.468 442.303 309.146 443.924 309.887C445.388 310.394 446.814 310.454 448.351 310.457C448.578 310.458 448.806 310.459 449.04 310.461C449.794 310.464 450.549 310.464 451.303 310.463C451.564 310.463 451.824 310.462 452.093 310.462C456.552 310.456 461.004 310.34 465.459 310.162C465.748 310.151 466.037 310.141 466.335 310.13C473.063 310.156 473.063 310.156 478.844 307.398C479.612 306.486 479.74 306.057 479.784 304.861C479.248 303.165 478.2 302.437 476.658 301.626C473.526 300.257 470.206 300.078 466.831 300.104C466.269 300.107 466.269 300.107 465.695 300.109C461.98 300.138 458.268 300.287 454.556 300.443ZM149.789 300.781C149.27 300.802 149.27 300.802 148.74 300.823C146.9 300.899 145.062 300.986 143.224 301.093C142.68 301.123 142.136 301.15 141.592 301.173C137.795 301.307 137.795 301.307 134.618 303.245C133.389 304.669 132.604 305.991 132.701 307.906C133.562 309.48 134.834 310.735 136.555 311.309C137.416 311.336 138.269 311.345 139.131 311.339C139.386 311.338 139.641 311.337 139.903 311.336C142.494 311.319 145.081 311.229 147.669 311.122C148.163 311.102 148.657 311.083 149.15 311.063C150.173 311.023 151.196 310.981 152.219 310.94C153.517 310.887 154.815 310.835 156.113 310.784C157.128 310.744 158.143 310.703 159.159 310.662C159.637 310.643 160.115 310.624 160.593 310.605C161.69 310.562 162.787 310.515 163.883 310.462C164.724 310.422 165.563 310.396 166.405 310.378C166.809 310.364 167.214 310.35 167.618 310.336C168.149 310.323 168.149 310.323 168.691 310.31C169.907 310.048 170.358 309.543 171.144 308.602C171.808 307.483 172.109 306.414 171.953 305.114C171.416 303.088 170.572 301.748 168.851 300.518C164.272 298.349 154.894 300.574 149.789 300.781ZM207.84 394.625C207.84 394.824 207.84 395.022 207.84 395.227C207.641 395.227 207.443 395.227 207.238 395.227C207.238 395.425 207.238 395.624 207.238 395.828C207.04 395.828 206.841 395.828 206.637 395.828C206.637 396.027 206.637 396.225 206.637 396.43C206.466 396.502 206.295 396.575 206.119 396.649C205.296 397.108 204.746 397.656 204.087 398.33C203.836 398.584 203.585 398.839 203.326 399.101C202.936 399.5 202.936 399.5 202.539 399.907C202.021 400.435 201.504 400.962 200.985 401.488C200.642 401.839 200.642 401.839 200.293 402.197C199.719 402.746 199.719 402.746 199.117 403.047C199.117 403.245 199.117 403.444 199.117 403.648C198.919 403.648 198.72 403.648 198.516 403.648C198.516 403.847 198.516 404.045 198.516 404.25C198.261 404.359 198.261 404.359 198.002 404.469C196.552 405.273 195.45 406.603 194.286 407.765C194.012 408.032 193.738 408.298 193.456 408.573C191.712 410.31 190.622 411.557 190.225 414.025C190.458 415.474 191.115 416.228 192.199 417.184C193.716 418.078 195.226 417.933 196.891 417.51C198.707 416.798 199.926 415.351 201.258 413.976C201.543 413.688 201.828 413.4 202.113 413.112C202.859 412.359 203.6 411.601 204.34 410.843C205.388 409.771 206.442 408.705 207.495 407.638C208.055 407.071 208.613 406.502 209.17 405.932C209.421 405.676 209.672 405.42 209.931 405.156C210.152 404.93 210.373 404.704 210.601 404.47C211.148 403.949 211.148 403.949 211.75 403.648C211.75 403.45 211.75 403.251 211.75 403.047C211.948 403.047 212.147 403.047 212.352 403.047C212.886 402.542 212.886 402.542 213.423 401.9C213.61 401.687 213.796 401.474 213.988 401.255C215.056 399.855 214.938 398.112 214.758 396.43C214.349 395.446 213.704 394.774 212.953 394.023C211.007 393.55 209.587 393.676 207.84 394.625ZM401.313 399.114C400.738 400.081 400.811 401.062 400.941 402.145C401.207 403.011 401.207 403.011 401.543 403.648C401.741 403.648 401.94 403.648 402.144 403.648C402.144 403.847 402.144 404.045 402.144 404.25C402.343 404.25 402.542 404.25 402.746 404.25C402.746 404.449 402.746 404.647 402.746 404.852C403.21 405.322 403.21 405.322 403.814 405.807C405.046 406.855 406.188 407.963 407.321 409.118C407.725 409.525 408.128 409.932 408.531 410.339C409.154 410.969 409.777 411.6 410.398 412.232C414.257 416.703 414.257 416.703 419.345 418.913C421.265 418.772 422.482 418.294 423.782 416.826C424.391 415.214 424.326 413.834 423.688 412.24C422.682 410.694 421.278 409.362 419.891 408.16C419.692 408.16 419.494 408.16 419.289 408.16C419.289 407.962 419.289 407.763 419.289 407.559C419.091 407.559 418.892 407.559 418.687 407.559C418.687 407.36 418.687 407.162 418.687 406.957C418.251 406.516 418.251 406.516 417.672 406.055C416.119 404.736 414.703 403.294 413.273 401.844C413.018 401.589 412.763 401.334 412.5 401.072C412.058 400.629 411.618 400.183 411.183 399.732C411.011 399.554 410.838 399.376 410.66 399.193C410.485 399.011 410.311 398.829 410.13 398.642C409.692 398.168 409.692 398.168 409.062 398.234C409.062 398.036 409.062 397.837 409.062 397.633C406.521 396.188 403.255 396.996 401.313 399.114ZM311.037 438.651C309.549 438.664 308.06 438.677 306.571 438.689C302.574 438.721 298.577 438.758 294.58 438.807C292.499 438.831 290.418 438.845 288.337 438.85C287.025 438.855 285.712 438.867 284.4 438.881C283.791 438.886 283.181 438.887 282.572 438.886C278.565 438.758 278.565 438.758 275.074 440.473C274.922 440.629 274.77 440.785 274.613 440.945C274.463 441.092 274.312 441.238 274.157 441.388C272.063 443.647 271.855 446.405 271.877 449.338C271.877 449.555 271.878 449.772 271.878 449.996C271.88 450.683 271.884 451.369 271.887 452.055C271.889 452.524 271.89 452.993 271.892 453.461C271.895 454.603 271.9 455.745 271.906 456.887C279.975 456.913 288.043 456.84 296.112 456.765C297.975 456.748 299.837 456.731 301.7 456.715C305.211 456.683 308.721 456.651 312.232 456.619C315.038 456.593 317.843 456.568 320.649 456.542C320.947 456.539 320.947 456.539 321.251 456.537C322.249 456.528 323.246 456.519 324.243 456.51C332.464 456.435 340.685 456.36 348.906 456.285C348.936 454.798 348.958 453.311 348.972 451.824C348.978 451.319 348.986 450.815 348.997 450.31C349.064 447 348.996 444.389 347.102 441.547C346.903 441.547 346.704 441.547 346.5 441.547C346.5 441.348 346.5 441.15 346.5 440.945C346.301 440.945 346.103 440.945 345.898 440.945C345.898 440.747 345.898 440.548 345.898 440.344C345.416 440.099 344.934 439.854 344.451 439.611C344.182 439.475 343.913 439.338 343.637 439.198C342.623 438.712 341.84 438.501 340.728 438.503C340.343 438.502 340.343 438.502 339.949 438.502C339.667 438.503 339.386 438.504 339.095 438.505C338.649 438.505 338.649 438.505 338.193 438.505C337.198 438.506 336.203 438.509 335.208 438.512C334.503 438.513 333.798 438.514 333.093 438.516C325.741 438.53 318.389 438.586 311.037 438.651ZM287.114 470.873C286.912 470.875 286.71 470.877 286.502 470.878C281.436 470.924 276.371 470.972 271.305 471.023C270.936 476.135 270.973 481.242 271.004 486.363C283.722 486.382 296.44 486.342 309.158 486.246C310.702 486.235 312.247 486.224 313.792 486.214C325.499 486.135 337.201 485.986 348.906 485.762C348.807 480.799 348.708 475.836 348.605 470.723C342.602 470.714 336.599 470.707 330.596 470.704C330.258 470.704 330.258 470.704 329.912 470.703C315.646 470.695 301.381 470.746 287.114 470.873ZM271.004 501.102C270.122 504.629 270.267 509.694 271.793 512.982C273.22 514.484 274.836 515.494 276.934 515.568C277.252 515.564 277.569 515.559 277.896 515.555C278.266 515.551 278.635 515.547 279.015 515.543C279.429 515.536 279.843 515.53 280.258 515.524C280.704 515.518 281.15 515.513 281.596 515.507C282.839 515.492 284.083 515.474 285.326 515.456C286.665 515.437 288.003 515.419 289.341 515.401C291.141 515.376 292.941 515.351 294.74 515.325C299.023 515.264 303.305 515.211 307.587 515.163C311.303 515.121 315.018 515.075 318.733 515.027C321.063 514.998 323.393 514.97 325.722 514.945C327.735 514.924 329.747 514.899 331.76 514.871C332.802 514.857 333.844 514.844 334.887 514.834C336.032 514.823 337.177 514.807 338.322 514.79C338.822 514.787 338.822 514.787 339.333 514.784C341.819 514.737 344.154 514.35 346.199 512.832C346.199 512.634 346.199 512.435 346.199 512.23C346.398 512.23 346.596 512.23 346.801 512.23C347.262 511.708 347.262 511.708 347.703 511.027C347.936 510.692 347.936 510.692 348.173 510.351C349.737 507.358 349.207 504.508 349.207 501.102C323.4 501.102 297.593 501.102 271.004 501.102Z" fill="white"/>
</g>
<defs>
<clipPath id="clip0_551_10947">
<rect width="616" height="616" fill="white"/>
</clipPath>
</defs>
</svg>
