<svg width="635" height="635" viewBox="0 0 635 635" fill="none" xmlns="http://www.w3.org/2000/svg">
<path d="M587.389 3.71119C590.099 4.73698 592.048 6.25451 593.278 8.91436C594.032 10.7948 594.167 12.5588 594.295 14.5741C594.348 15.5183 594.348 15.5183 594.692 16.4333C594.765 17.2187 594.822 17.9993 594.868 18.7864C594.883 19.0301 594.899 19.2738 594.914 19.5248C594.966 20.3504 595.015 21.1761 595.065 22.0018C595.102 22.5996 595.139 23.1974 595.176 23.7952C595.278 25.4536 595.379 27.112 595.48 28.7704C595.59 30.5752 595.701 32.3798 595.812 34.1844C596.008 37.3658 596.203 40.5473 596.397 43.7288C596.607 47.1693 596.817 50.6097 597.028 54.0501C597.042 54.2682 597.055 54.4862 597.069 54.7109C597.137 55.8244 597.206 56.9378 597.274 58.0513C597.773 66.1856 598.272 74.3201 598.769 82.4546C599.269 90.6155 599.768 98.7765 600.269 106.937C600.285 107.192 600.3 107.448 600.316 107.71C600.508 110.835 600.7 113.959 600.891 117.083C601.187 121.907 601.483 126.732 601.779 131.556C601.829 132.376 601.88 133.196 601.93 134.016C602.431 142.186 602.932 150.357 603.433 158.528C605.368 190.102 607.305 221.675 610.067 266.604C610.13 267.631 610.193 268.658 610.256 269.684C611.031 282.286 611.805 294.888 612.58 307.49C613.623 324.45 614.665 341.41 615.707 358.369C615.983 362.858 616.259 367.346 616.534 371.834C616.563 372.304 616.563 372.304 616.593 372.784C616.785 375.91 616.977 379.036 617.169 382.162C617.263 383.694 617.357 385.226 617.452 386.758C617.47 387.059 617.489 387.359 617.508 387.669C617.81 392.594 618.113 397.52 618.415 402.445C618.584 405.187 618.752 407.928 618.921 410.67C618.987 411.749 619.054 412.827 619.12 413.906C619.136 414.171 619.152 414.436 619.169 414.71C619.379 418.121 619.588 421.532 619.797 424.943C619.955 427.518 620.113 430.092 620.271 432.666C620.295 433.047 620.295 433.047 620.319 433.435C620.794 441.177 621.277 448.917 621.765 456.657C621.894 458.717 622.024 460.776 622.153 462.835C622.18 463.267 622.18 463.267 622.207 463.707C622.279 464.86 622.352 466.012 622.424 467.165C622.632 470.5 622.842 473.834 623.055 477.169C623.187 479.233 623.316 481.296 623.445 483.36C623.519 484.545 623.593 485.729 623.67 486.913C623.948 491.215 624.197 495.512 624.214 499.824C624.216 500.136 624.218 500.448 624.22 500.77C624.204 503.976 623.704 506.886 621.344 509.246C619.234 510.952 616.867 511.196 614.245 511.475C613.336 511.493 613.336 511.493 612.986 511.907C612.143 511.972 611.306 512.018 610.461 512.051C610.192 512.063 609.923 512.075 609.646 512.087C608.732 512.127 607.819 512.165 606.905 512.203C606.248 512.231 605.591 512.259 604.934 512.288C603.121 512.366 601.307 512.442 599.494 512.518C597.547 512.6 595.6 512.684 593.653 512.767C590.275 512.912 586.898 513.055 583.52 513.198C579.936 513.349 576.352 513.501 572.767 513.654C572.431 513.669 572.431 513.669 572.087 513.683C570.947 513.732 569.807 513.78 568.667 513.829C559.974 514.2 551.28 514.569 542.586 514.937C541.416 514.987 540.246 515.036 539.076 515.086C538.731 515.101 538.731 515.101 538.379 515.115C533.451 515.324 528.522 515.534 523.593 515.743C523.193 515.76 522.793 515.778 522.38 515.795C520.78 515.863 519.18 515.931 517.579 515.999C499.407 516.772 481.234 517.542 463.061 518.311C457.216 518.558 451.371 518.806 445.525 519.053C443.514 519.138 441.502 519.224 439.491 519.309C439.157 519.323 439.157 519.323 438.816 519.337C426.241 519.87 413.665 520.402 401.089 520.934C400.628 520.954 400.166 520.973 399.705 520.993C397.625 521.081 395.545 521.169 393.464 521.257C392.538 521.296 391.611 521.335 390.684 521.374C390.221 521.394 389.757 521.413 389.293 521.433C374.444 522.061 359.596 522.69 344.747 523.319C340.955 523.479 337.164 523.64 333.372 523.801C333.139 523.81 332.905 523.82 332.664 523.831C325.472 524.135 318.28 524.44 311.087 524.744C310.749 524.758 310.749 524.758 310.404 524.773C305.46 524.982 300.516 525.191 295.573 525.4C293.806 525.475 292.039 525.55 290.273 525.625C289.833 525.643 289.394 525.662 288.955 525.68C281.99 525.975 275.025 526.27 268.06 526.565C260.903 526.868 253.745 527.171 246.588 527.474C242.472 527.648 238.355 527.822 234.238 527.997C231.494 528.113 228.75 528.229 226.005 528.345C224.441 528.411 222.877 528.477 221.313 528.544C219.892 528.604 218.471 528.664 217.05 528.724C216.538 528.745 216.027 528.767 215.515 528.789C214.822 528.819 214.128 528.848 213.434 528.877C213.05 528.893 212.666 528.909 212.27 528.926C208.221 529.05 203.651 528.689 200.298 526.17C199.936 525.902 199.936 525.902 199.568 525.628C196.847 523.423 195.675 520.562 195.027 517.178C194.877 515.541 194.815 513.907 194.764 512.264C194.717 510.745 194.653 509.226 194.59 507.708C194.576 507.376 194.563 507.045 194.549 506.703C194.381 502.715 194.132 498.732 193.88 494.748C193.839 494.106 193.799 493.464 193.758 492.822C193.6 490.306 193.44 487.79 193.28 485.274C193.119 482.752 192.959 480.23 192.8 477.708C192.502 473.003 192.204 468.298 191.904 463.593C191.602 458.844 191.301 454.095 191 449.345C190.971 448.894 190.971 448.894 190.942 448.433C190.845 446.897 190.748 445.362 190.65 443.826C189.95 432.773 189.249 421.719 188.547 410.665C187.854 399.751 187.162 388.837 186.47 377.924C186.448 377.584 186.427 377.245 186.405 376.895C186.142 372.761 185.88 368.627 185.618 364.492C185.22 358.209 184.822 351.926 184.424 345.642C184.357 344.587 184.29 343.531 184.223 342.476C183.59 332.497 182.957 322.518 182.325 312.539C180.104 277.526 177.885 242.512 175.03 197.353C174.756 193.025 174.482 188.697 174.209 184.369C173.395 171.508 172.582 158.646 171.769 145.785C171.749 145.475 171.73 145.165 171.709 144.846C171.256 137.669 170.802 130.492 170.348 123.315C170.191 120.827 170.034 118.34 169.876 115.852C169.857 115.546 169.838 115.24 169.818 114.925C169.185 104.915 168.552 94.905 167.919 84.8949C167.831 83.5153 167.744 82.1356 167.657 80.756C167.64 80.4857 167.623 80.2153 167.605 79.9368C167.334 75.6606 167.064 71.3845 166.794 67.1083C166.529 62.9135 166.264 58.7187 165.998 54.524C165.843 52.0675 165.687 49.6111 165.532 47.1546C165.417 45.3328 165.302 43.5111 165.186 41.6893C165.14 40.9569 165.094 40.2244 165.048 39.492C165.005 38.8147 164.962 38.1374 164.919 37.4601C164.88 36.8397 164.841 36.2192 164.802 35.5988C164.723 34.3589 164.641 33.1208 164.526 31.8837C164.493 31.5263 164.46 31.1689 164.426 30.8007C164.396 30.5122 164.366 30.2237 164.335 29.9264C164.321 27.191 166.291 24.5309 168.041 22.5727C170.716 19.9554 173.623 19.5045 177.205 19.2122C177.519 19.1859 177.833 19.1596 178.156 19.1325C181.453 18.8667 184.752 18.7218 188.056 18.5962C188.731 18.5693 189.406 18.5422 190.081 18.515C191.922 18.4412 193.763 18.3695 195.604 18.2982C197.404 18.2281 199.205 18.1564 201.005 18.0847C204.728 17.9366 208.45 17.7901 212.173 17.6445C215.941 17.497 219.71 17.3488 223.478 17.1997C223.717 17.1903 223.955 17.1809 224.201 17.1711C225.419 17.123 226.636 17.0748 227.853 17.0266C236.648 16.6786 245.444 16.3321 254.239 15.9866C262.95 15.6443 271.662 15.3013 280.373 14.9574C280.779 14.9414 280.779 14.9414 281.194 14.925C283.945 14.8164 286.696 14.7078 289.448 14.5991C295.324 14.3671 301.2 14.1352 307.076 13.9034C307.496 13.8868 307.496 13.8868 307.925 13.8699C321.543 13.3325 335.161 12.7964 348.78 12.2604C353.503 12.0745 358.227 11.8886 362.95 11.7027C363.243 11.6911 363.536 11.6796 363.838 11.6677C377.448 11.132 391.059 10.5954 404.669 10.0586C405.552 10.0237 406.436 9.98888 407.319 9.95404C414.046 9.68873 420.772 9.42339 427.499 9.15804C438.296 8.73213 449.093 8.30627 459.89 7.88045C460.724 7.84757 461.558 7.81469 462.391 7.78181C478.423 7.14955 494.454 6.51774 510.485 5.88636C513.067 5.78466 515.65 5.68295 518.232 5.58123C520.241 5.50211 522.249 5.423 524.258 5.34388C524.752 5.32441 525.246 5.30495 525.741 5.28548C531.442 5.0609 537.144 4.83636 542.846 4.61193C546.546 4.4663 550.246 4.32061 553.946 4.17487C556.298 4.08223 558.649 3.98966 561.001 3.89715C562.429 3.841 563.856 3.78477 565.283 3.72852C565.927 3.70315 566.571 3.6778 567.215 3.6525C568.66 3.59571 570.105 3.53848 571.55 3.48016C572.822 3.42899 574.094 3.38166 575.366 3.33553C576.05 3.30963 576.735 3.28371 577.419 3.25776C577.742 3.24665 578.064 3.23553 578.397 3.22408C578.694 3.21253 578.992 3.20098 579.298 3.18908C579.562 3.17948 579.826 3.16989 580.098 3.16001C582.632 2.92622 584.826 2.99055 587.389 3.71119ZM486.407 112.353C486.157 112.366 485.907 112.378 485.649 112.39C485.102 112.417 484.555 112.444 484.009 112.471C483.113 112.515 482.217 112.558 481.321 112.602C480.003 112.666 478.686 112.73 477.369 112.795C473.698 112.974 470.027 113.152 466.357 113.329C465.968 113.347 465.578 113.366 465.178 113.386C456.057 113.826 446.936 114.251 437.815 114.673C437.175 114.703 436.535 114.733 435.896 114.762C430.56 115.009 425.224 115.256 419.889 115.503C416.593 115.655 413.298 115.807 410.003 115.96C409.765 115.971 409.527 115.982 409.281 115.993C408.313 116.038 407.345 116.083 406.377 116.127C397.413 116.542 388.449 116.957 379.485 117.371C371.557 117.737 363.63 118.104 355.702 118.471C355.189 118.494 354.676 118.518 354.164 118.542C353.783 118.56 353.783 118.56 353.395 118.577C352.118 118.637 350.84 118.696 349.563 118.755C349.311 118.766 349.059 118.778 348.799 118.79C342.11 119.1 335.421 119.409 328.732 119.718C328.375 119.735 328.375 119.735 328.011 119.752C327.774 119.763 327.536 119.774 327.292 119.785C327.055 119.796 326.818 119.807 326.574 119.818C326.097 119.84 325.62 119.862 325.143 119.884C321.84 120.037 318.537 120.19 315.234 120.343C310.994 120.539 306.754 120.735 302.514 120.931C300.476 121.025 298.438 121.119 296.399 121.213C294.53 121.3 292.66 121.386 290.791 121.473C290.12 121.504 289.449 121.535 288.778 121.566C288.156 121.595 287.534 121.623 286.912 121.652C286.317 121.679 285.723 121.707 285.128 121.736C283.578 121.81 282.029 121.866 280.477 121.899C279.981 121.912 279.981 121.912 279.475 121.926C278.849 121.942 278.223 121.954 277.596 121.961C273.79 122.071 270.827 123.472 268.209 126.215C265.872 128.989 264.807 132.511 265.1 136.116C265.533 138.906 266.313 141.055 268.556 142.849C271.167 144.669 273.026 145.253 276.179 145.034C276.85 144.997 277.521 144.959 278.192 144.922C278.539 144.901 278.886 144.88 279.244 144.859C280.935 144.76 282.627 144.692 284.32 144.621C285.036 144.589 285.751 144.557 286.467 144.525C287.022 144.5 287.022 144.5 287.588 144.475C288.164 144.449 288.164 144.449 288.751 144.423C289.579 144.386 290.407 144.349 291.236 144.312C293.256 144.222 295.276 144.132 297.296 144.042C298.977 143.967 300.657 143.892 302.337 143.817C302.581 143.806 302.825 143.795 303.076 143.784C303.574 143.762 304.072 143.74 304.57 143.718C311.257 143.419 317.945 143.121 324.633 142.822C324.907 142.81 325.181 142.798 325.463 142.785C336.343 142.299 347.223 141.813 358.103 141.327C360.792 141.207 363.48 141.087 366.168 140.967C366.465 140.953 366.762 140.94 367.068 140.926C376.696 140.496 386.324 140.066 395.952 139.637C405.871 139.195 415.791 138.752 425.71 138.308C427.114 138.246 428.517 138.183 429.921 138.12C430.197 138.108 430.473 138.095 430.758 138.083C435.183 137.885 439.607 137.688 444.032 137.491C448.486 137.292 452.941 137.093 457.395 136.894C460.033 136.775 462.672 136.658 465.31 136.541C467.081 136.462 468.852 136.383 470.622 136.303C471.626 136.258 472.629 136.213 473.633 136.169C476.159 136.058 478.685 135.936 481.211 135.806C481.517 135.79 481.517 135.79 481.83 135.775C483.132 135.709 484.433 135.639 485.735 135.564C486.349 135.529 486.963 135.498 487.577 135.467C490.417 135.295 493.036 134.9 495.512 133.422C495.743 133.287 495.974 133.151 496.212 133.012C496.378 132.911 496.543 132.809 496.714 132.705C496.714 132.501 496.714 132.296 496.714 132.085C496.893 132.016 497.072 131.946 497.257 131.874C499.646 130.473 501.328 126.938 502.062 124.314C502.501 122.289 502.454 120.56 501.365 118.753C498.857 115.26 495.118 113.57 491.133 112.241C489.555 112.199 487.982 112.274 486.407 112.353ZM478.131 200.694C477.307 200.737 476.482 200.78 475.657 200.823C473.868 200.917 472.079 201.011 470.289 201.105C467.628 201.246 464.967 201.386 462.306 201.525C457.552 201.774 452.797 202.024 448.043 202.275C443.881 202.494 439.718 202.714 435.556 202.932C435.279 202.947 435.003 202.961 434.718 202.976C433.596 203.035 432.474 203.094 431.352 203.153C420.829 203.706 410.305 204.261 399.782 204.815C390.444 205.308 381.105 205.799 371.767 206.289C361.267 206.84 350.768 207.392 340.268 207.946C339.147 208.005 338.026 208.064 336.905 208.123C336.629 208.137 336.353 208.152 336.069 208.167C331.912 208.386 327.756 208.604 323.599 208.822C318.868 209.07 314.136 209.319 309.405 209.57C306.761 209.709 304.117 209.849 301.473 209.987C299.702 210.079 297.931 210.173 296.159 210.267C295.154 210.321 294.148 210.374 293.142 210.426C289.393 210.62 285.647 210.836 281.905 211.147C281.614 211.17 281.322 211.194 281.022 211.218C276.553 211.61 273.513 213.478 270.617 216.883C268.83 219.385 267.892 222.417 268.292 225.491C268.735 227.49 269.616 229.176 270.991 230.684C271.196 230.684 271.401 230.684 271.611 230.684C271.611 230.888 271.611 231.093 271.611 231.304C272.358 231.858 272.358 231.858 273.278 232.408C273.587 232.601 273.897 232.793 274.215 232.991C275.37 233.683 275.892 233.816 277.233 233.763C277.565 233.75 277.896 233.737 278.238 233.724C278.599 233.708 278.96 233.693 279.332 233.677C279.708 233.661 280.084 233.646 280.472 233.63C284.505 233.463 288.535 233.248 292.565 233.027C293.392 232.982 294.219 232.937 295.046 232.893C296.827 232.796 298.609 232.699 300.39 232.602C303.039 232.457 305.688 232.313 308.337 232.169C312.797 231.927 317.257 231.684 321.718 231.441C326.133 231.201 330.548 230.96 334.964 230.72C335.239 230.705 335.515 230.69 335.799 230.675C337.199 230.599 338.599 230.523 340 230.447C349.899 229.909 359.798 229.37 369.698 228.831C370.295 228.799 370.892 228.766 371.49 228.734C372.088 228.701 372.686 228.669 373.284 228.636C374.483 228.571 375.681 228.506 376.88 228.44C377.177 228.424 377.473 228.408 377.779 228.392C384.679 228.016 391.579 227.64 398.479 227.265C398.775 227.249 399.071 227.233 399.375 227.216C406.132 226.849 412.889 226.481 419.646 226.114C419.931 226.099 420.215 226.083 420.508 226.067C423.066 225.928 425.625 225.789 428.183 225.65C434.55 225.304 440.917 224.958 447.284 224.611C451.72 224.369 456.155 224.128 460.591 223.887C463.221 223.744 465.851 223.601 468.481 223.457C470.243 223.361 472.005 223.265 473.767 223.169C474.767 223.115 475.768 223.061 476.768 223.006C477.853 222.947 478.939 222.888 480.024 222.829C480.361 222.811 480.698 222.792 481.045 222.773C482.699 222.685 484.353 222.606 486.008 222.545C486.33 222.533 486.652 222.52 486.984 222.508C487.583 222.486 488.182 222.465 488.781 222.447C492.191 222.322 495.886 221.787 498.574 219.522C498.764 219.362 498.953 219.203 499.148 219.038C501.042 217.294 502.401 215.147 502.69 212.562C502.792 209.856 501.91 208.092 500.435 205.879C500.23 205.879 500.025 205.879 499.814 205.879C499.814 205.674 499.814 205.47 499.814 205.259C499.61 205.259 499.405 205.259 499.194 205.259C499.194 205.054 499.194 204.85 499.194 204.639C492.74 199.371 485.905 200.28 478.131 200.694ZM342.619 295.697C341.69 295.751 340.761 295.802 339.833 295.854C339.082 295.896 338.331 295.938 337.58 295.98C329.7 296.422 321.824 296.812 313.934 297.036C306.832 297.239 299.742 297.562 292.647 297.944C291.869 297.985 291.09 298.027 290.312 298.069C289.086 298.134 287.861 298.201 286.636 298.269C286.185 298.294 285.733 298.318 285.282 298.343C280.783 298.315 280.783 298.315 276.611 299.633C276.394 299.763 276.178 299.894 275.955 300.028C274.999 300.67 274.999 300.67 274.092 301.377C274.092 301.582 274.092 301.786 274.092 301.997C273.887 301.997 273.683 301.997 273.472 301.997C273.472 302.202 273.472 302.407 273.472 302.617C273.267 302.617 273.062 302.617 272.852 302.617C270.785 305.542 269.708 308.324 270.061 311.919C270.71 315.161 272.692 317.754 275.332 319.671C279.709 322.444 285.079 321.559 290.009 321.314C290.498 321.291 290.987 321.267 291.476 321.243C292.786 321.18 294.096 321.115 295.406 321.049C296.228 321.007 297.05 320.967 297.872 320.926C306.759 320.482 315.633 319.918 324.507 319.274C325.403 319.209 326.299 319.144 327.195 319.08C327.41 319.064 327.625 319.048 327.847 319.033C331.355 318.78 334.864 318.582 338.379 318.425C348.559 318.248 348.559 318.248 357.188 313.469C357.188 313.265 357.188 313.06 357.188 312.849C357.392 312.849 357.597 312.849 357.808 312.849C359.386 310.355 360.287 307.776 359.978 304.788C359.239 301.636 357.909 299.202 355.308 297.23C351.516 294.897 346.855 295.451 342.619 295.697Z" fill="white"/>
<path d="M56.4309 126.504C59.7692 139.548 63.0465 152.608 66.3101 165.671C66.7784 167.545 67.2471 169.42 67.716 171.294C72.4853 190.358 72.4853 190.358 74.6528 199.159C74.7123 199.401 74.7719 199.642 74.8332 199.892C75.3965 202.179 75.9591 204.467 76.5202 206.755C77.9523 212.594 79.4183 218.424 80.9061 224.25C82.7022 231.289 84.462 238.337 86.1965 245.392C86.3146 245.873 86.4328 246.353 86.551 246.834C86.6094 247.071 86.6678 247.309 86.728 247.553C87.0215 248.747 87.3151 249.941 87.6087 251.134C87.6666 251.369 87.7244 251.605 87.784 251.847C89.0145 256.849 90.2568 261.847 91.5062 266.844C91.557 267.047 91.6077 267.25 91.6599 267.459C93.1192 273.296 94.5963 279.129 96.0823 284.959C96.1584 285.257 96.1584 285.257 96.236 285.562C96.3384 285.964 96.4408 286.365 96.5432 286.767C98.2945 293.638 100.006 300.518 101.699 307.404C101.818 307.884 101.936 308.364 102.054 308.845C102.112 309.082 102.171 309.32 102.231 309.565C102.524 310.758 102.818 311.952 103.112 313.146C103.169 313.381 103.227 313.616 103.287 313.859C104.517 318.86 105.76 323.859 107.009 328.856C107.06 329.058 107.11 329.261 107.163 329.47C108.329 334.134 109.502 338.795 110.689 343.454C110.766 343.756 110.766 343.756 110.844 344.064C111.103 345.08 111.362 346.096 111.621 347.112C111.672 347.313 111.723 347.515 111.776 347.722C111.88 348.128 111.983 348.534 112.087 348.94C113.719 355.345 115.318 361.756 116.892 368.175C116.944 368.384 116.995 368.593 117.048 368.808C117.151 369.231 117.255 369.653 117.358 370.075C117.617 371.13 117.876 372.185 118.135 373.24C118.186 373.449 118.237 373.658 118.29 373.873C119.452 378.605 120.631 383.332 121.814 388.058C121.865 388.26 121.916 388.462 121.968 388.671C122.434 390.532 122.9 392.393 123.367 394.255C124.149 397.379 124.931 400.503 125.712 403.627C125.799 403.975 125.799 403.975 125.888 404.329C126.182 405.506 126.476 406.683 126.77 407.86C127.3 409.981 127.831 412.103 128.361 414.224C128.652 415.388 128.943 416.552 129.234 417.716C129.348 418.174 129.463 418.632 129.577 419.09C133.1 433.182 136.624 447.275 140.147 461.367C140.198 461.572 140.249 461.777 140.302 461.987C140.405 462.401 140.508 462.814 140.612 463.228C140.87 464.261 141.129 465.295 141.387 466.328C141.852 468.189 142.317 470.049 142.782 471.91C143.041 472.944 143.299 473.977 143.557 475.011C143.608 475.216 143.66 475.42 143.712 475.631C144.435 478.522 145.159 481.412 145.883 484.302C148.072 493.038 150.246 501.777 152.394 510.523C154.489 519.054 156.615 527.577 158.75 536.098C159.424 538.785 160.095 541.473 160.766 544.161C161.23 546.025 161.696 547.889 162.161 549.753C162.211 549.956 162.262 550.159 162.314 550.368C163.537 555.268 164.768 560.166 166.012 565.06C166.069 565.283 166.126 565.505 166.184 565.735C166.731 567.887 167.279 570.038 167.828 572.19C170.859 584.057 170.859 584.057 170.998 586.185C171.102 587.637 171.547 588.851 172.393 590.042C172.7 590.246 173.007 590.451 173.323 590.662C173.323 590.866 173.323 591.071 173.323 591.282C177.071 592.872 181.016 592.14 184.943 591.678C185.436 591.621 185.929 591.565 186.423 591.508C187.948 591.333 189.472 591.153 190.996 590.972C191.23 590.944 191.464 590.916 191.705 590.888C194.976 590.498 198.244 590.097 201.513 589.693C202.842 589.528 204.172 589.365 205.501 589.201C207.794 588.919 210.087 588.636 212.38 588.354C215.742 587.939 219.105 587.524 222.467 587.11C224.05 586.916 225.632 586.721 227.215 586.526C227.531 586.487 227.847 586.448 228.173 586.408C230.433 586.13 232.694 585.851 234.954 585.573C243.484 584.521 252.015 583.472 260.545 582.423C260.829 582.388 261.113 582.354 261.405 582.318C264.261 581.967 267.118 581.616 269.974 581.265C275.712 580.56 281.451 579.855 287.189 579.149C288.054 579.043 288.918 578.937 289.783 578.831C297.775 577.848 305.767 576.866 313.759 575.883C319.45 575.183 325.141 574.483 330.833 573.783C331.127 573.747 331.421 573.711 331.723 573.673C347.34 571.753 362.958 569.838 378.577 567.938C388.937 566.678 399.296 565.408 409.654 564.132C410.984 563.968 412.313 563.804 413.643 563.641C419.612 562.906 425.58 562.17 431.549 561.434C434.047 561.125 436.546 560.817 439.044 560.51C440.781 560.296 442.518 560.081 444.255 559.867C445.329 559.734 446.403 559.602 447.477 559.47C447.965 559.41 448.453 559.349 448.941 559.289C450.499 559.096 452.057 558.909 453.616 558.726C453.867 558.696 454.119 558.666 454.377 558.635C455.162 558.542 455.946 558.453 456.731 558.364C456.969 558.335 457.207 558.307 457.452 558.278C460.818 557.908 464.512 558.085 467.259 560.276C468.713 561.768 469.214 563.249 469.274 565.314C469.225 567.843 468.314 569.144 466.568 570.887C465.642 571.74 464.749 572.511 463.665 573.155C462.925 573.549 462.925 573.549 462.528 574.073C461.753 574.741 461.042 574.81 460.041 574.997C459.843 575.036 459.644 575.074 459.44 575.113C458.776 575.24 458.111 575.362 457.446 575.483C456.971 575.573 456.496 575.663 456.021 575.754C454.997 575.948 453.973 576.14 452.949 576.33C451.309 576.635 449.671 576.944 448.032 577.255C447.471 577.361 446.91 577.467 446.349 577.574C446.069 577.627 445.788 577.68 445.5 577.734C444.638 577.897 443.776 578.06 442.914 578.222C439.189 578.924 435.466 579.639 431.746 580.367C431.503 580.414 431.26 580.462 431.01 580.511C429.79 580.75 428.569 580.989 427.349 581.228C418.799 582.904 410.242 584.547 401.681 586.166C393.809 587.655 385.941 589.163 378.078 590.7C368.217 592.628 358.353 594.536 348.487 596.437C348.121 596.507 347.755 596.577 347.378 596.65C338.247 598.409 329.115 600.162 319.98 601.903C314.97 602.858 309.962 603.821 304.956 604.798C304.712 604.846 304.467 604.894 304.215 604.943C302.211 605.334 300.207 605.726 298.203 606.118C289.997 607.722 281.786 609.293 273.571 610.845C266.232 612.232 258.9 613.646 251.574 615.098C245.668 616.268 239.76 617.421 233.843 618.528C227.247 619.762 220.661 621.039 214.076 622.326C203.923 624.312 193.763 626.258 183.599 628.187C182.332 628.428 181.066 628.668 179.799 628.91C179.557 628.956 179.315 629.002 179.066 629.049C178.585 629.141 178.104 629.233 177.623 629.325C176.195 629.596 174.767 629.866 173.338 630.133C172.433 630.302 171.529 630.473 170.625 630.644C170.205 630.724 169.784 630.802 169.364 630.88C168.792 630.986 168.22 631.094 167.649 631.203C167.328 631.263 167.007 631.323 166.677 631.385C165.815 631.56 165.815 631.56 164.951 632.21C160.41 632.84 156.511 632.089 152.73 629.533C152.568 629.393 152.406 629.253 152.239 629.109C152.239 628.904 152.239 628.7 152.239 628.489C152.034 628.489 151.83 628.489 151.619 628.489C149.752 626.03 148.686 623.14 148.208 620.117C148.004 620.015 147.799 619.913 147.588 619.807C147.281 618.954 147.01 618.111 146.755 617.242C146.675 616.976 146.594 616.71 146.512 616.436C146.248 615.558 145.988 614.679 145.728 613.8C145.546 613.192 145.364 612.584 145.182 611.975C143.936 607.804 142.722 603.624 141.546 599.432C140.894 597.116 140.214 594.811 139.508 592.511C137.933 587.369 136.43 582.206 134.915 577.046C134.486 575.583 134.056 574.12 133.626 572.657C133.014 570.574 132.402 568.491 131.79 566.407C130.805 563.055 129.819 559.703 128.833 556.352C128.701 555.901 128.568 555.45 128.435 554.999C128.241 554.338 128.046 553.677 127.851 553.016C125.675 545.618 123.503 538.22 121.336 530.82C119.597 524.883 117.849 518.949 116.096 513.016C114.339 507.067 112.589 501.116 110.846 495.164C108.964 488.735 107.072 482.308 105.174 475.884C103.148 469.026 101.134 462.164 99.1221 455.302C96.4944 446.337 96.4944 446.337 93.8511 437.376C92.0049 431.138 90.1664 424.897 88.3295 418.656C87.9848 417.485 87.64 416.314 87.295 415.143C86.8037 413.475 86.3128 411.808 85.8222 410.14C85.7432 409.871 85.6643 409.603 85.5829 409.326C84.6024 405.99 83.6345 402.652 82.6853 399.307C81.9148 396.593 81.1166 393.889 80.2877 391.192C78.8291 386.431 77.4397 381.65 76.0359 376.872C75.6067 375.411 75.1768 373.951 74.7467 372.49C73.2394 367.369 71.733 362.249 70.2757 357.114C69.5076 354.408 68.7117 351.713 67.8854 349.024C66.4267 344.263 65.0373 339.482 63.6336 334.704C63.2043 333.243 62.7744 331.783 62.3444 330.322C60.8371 325.201 59.3307 320.081 57.8734 314.946C57.1053 312.24 56.3093 309.545 55.483 306.856C54.0244 302.095 52.635 297.314 51.2313 292.536C50.802 291.075 50.3721 289.615 49.942 288.154C48.4347 283.033 46.9283 277.913 45.471 272.778C44.6976 270.053 43.8957 267.339 43.0638 264.632C42.1809 261.751 41.3287 258.86 40.4786 255.969C40.4023 255.71 40.326 255.45 40.2474 255.183C39.7635 253.537 39.2801 251.89 38.7968 250.244C38.3673 248.781 37.9375 247.318 37.5076 245.856C36.8954 243.772 36.2833 241.689 35.6714 239.605C34.6868 236.253 33.7013 232.902 32.715 229.55C32.5824 229.099 32.4498 228.649 32.3172 228.198C32.1226 227.537 31.9281 226.876 31.7336 226.215C30.1161 220.718 28.499 215.222 26.8893 209.723C26.7822 209.357 26.6751 208.992 26.5648 208.615C26.3498 207.88 26.1348 207.146 25.9199 206.412C25.8141 206.05 25.7084 205.689 25.5994 205.317C25.4944 204.958 25.3894 204.6 25.2813 204.23C23.3405 197.602 21.382 190.979 19.4206 184.357C17.4208 177.605 15.431 170.85 13.4681 164.087C13.0874 162.775 12.7051 161.464 12.3213 160.153C12.1626 159.61 12.0044 159.067 11.8467 158.523C11.6005 157.676 11.352 156.829 11.103 155.983C11.0292 155.727 10.9555 155.472 10.8796 155.209C10.47 153.826 9.97965 152.589 9.30196 151.309C8.39252 148.086 8.63933 144.017 10.2321 141.077C12.2346 137.662 17.027 136.364 20.6482 135.408C21.1549 135.281 21.662 135.155 22.1694 135.031C25.3639 134.219 28.539 133.346 31.7125 132.457C32.5612 132.219 33.41 131.982 34.259 131.746C37.0741 130.96 39.8876 130.169 42.6979 129.366C44.0315 128.986 45.3659 128.609 46.7005 128.233C47.3442 128.05 47.9874 127.866 48.6302 127.681C49.5289 127.421 50.4289 127.167 51.3294 126.915C51.5947 126.837 51.8599 126.759 52.1332 126.678C52.3822 126.609 52.6313 126.541 52.8879 126.47C53.1018 126.409 53.3156 126.348 53.5359 126.285C54.5368 126.159 55.4421 126.334 56.4309 126.504Z" fill="white"/>
<path d="M134.255 69.7633C134.283 69.9799 134.311 70.1964 134.339 70.4196C136.452 86.9974 138.651 103.564 140.864 120.128C140.937 120.681 141.011 121.234 141.085 121.787C141.234 122.904 141.384 124.022 141.533 125.139C141.874 127.69 142.214 130.241 142.555 132.792C142.631 133.365 142.708 133.937 142.784 134.51C143.907 142.92 145.027 151.332 146.141 159.743C146.174 159.997 146.208 160.251 146.243 160.513C146.687 163.868 147.131 167.224 147.575 170.579C148.209 175.368 148.843 180.157 149.477 184.946C149.513 185.218 149.549 185.489 149.586 185.769C150.869 195.449 152.158 205.128 153.45 214.807C153.496 215.149 153.542 215.492 153.589 215.845C154.101 219.685 154.614 223.526 155.126 227.366C155.267 228.419 155.407 229.471 155.548 230.524C155.641 231.224 155.735 231.925 155.828 232.625C158.364 251.619 160.888 270.615 163.382 289.614C163.414 289.857 163.445 290.101 163.478 290.351C163.606 291.327 163.735 292.303 163.863 293.279C164.2 295.849 164.537 298.419 164.875 300.988C164.904 301.21 164.933 301.433 164.963 301.662C166.019 309.695 167.088 317.726 168.168 325.755C169.918 338.762 171.645 351.772 173.367 364.783C173.552 366.174 173.736 367.566 173.92 368.958C173.957 369.234 173.993 369.51 174.031 369.795C174.403 372.604 174.775 375.413 175.147 378.222C175.222 378.788 175.297 379.354 175.372 379.919C176.984 392.089 178.6 404.258 180.218 416.426C180.386 417.691 180.554 418.956 180.722 420.22C181.804 428.356 182.886 436.491 183.967 444.626C184.071 445.406 184.175 446.185 184.278 446.965C184.348 447.486 184.417 448.007 184.486 448.527C184.867 451.394 185.249 454.261 185.63 457.128C185.733 457.908 185.837 458.688 185.941 459.468C186.01 459.987 186.079 460.507 186.148 461.026C186.557 464.101 186.966 467.175 187.375 470.25C187.743 473.011 188.11 475.771 188.477 478.532C188.51 478.779 188.543 479.025 188.576 479.279C189.522 486.391 190.46 493.504 191.392 500.618C191.624 502.387 191.856 504.156 192.088 505.925C192.137 506.293 192.137 506.293 192.186 506.667C192.314 507.644 192.443 508.621 192.571 509.598C192.941 512.417 193.31 515.237 193.677 518.057C193.929 519.992 194.183 521.927 194.438 523.862C194.541 524.651 194.644 525.441 194.746 526.231C194.885 527.303 195.026 528.375 195.168 529.447C195.207 529.76 195.247 530.073 195.288 530.395C195.327 530.681 195.365 530.966 195.404 531.26C195.437 531.507 195.469 531.753 195.502 532.006C195.62 532.694 195.62 532.694 195.966 533.316C196.267 533.921 196.267 533.921 196.364 535.103C196.537 536.598 197.049 537.53 198.128 538.572C200.642 540.27 203.534 539.87 206.403 539.693C208.097 539.59 209.792 539.513 211.487 539.43C211.869 539.411 212.251 539.391 212.645 539.372C217.439 539.132 222.236 538.98 227.034 538.822C228.754 538.765 230.475 538.708 232.196 538.65C234.656 538.567 237.116 538.485 239.576 538.403C243.246 538.28 246.915 538.157 250.585 538.034C256.765 537.827 262.945 537.62 269.125 537.413C275.238 537.209 281.351 537.004 287.464 536.799C288.037 536.78 288.037 536.78 288.621 536.761C290.563 536.696 292.504 536.631 294.445 536.565C308.154 536.106 321.862 535.647 335.571 535.188C336.397 535.16 337.224 535.133 338.051 535.105C338.358 535.095 338.358 535.095 338.671 535.084C340.743 535.015 342.814 534.946 344.886 534.876C345.301 534.863 345.716 534.849 346.131 534.835C355.691 534.515 365.252 534.195 374.812 533.875C375.434 533.854 376.055 533.833 376.676 533.812C386.041 533.498 395.407 533.185 404.772 532.871C405.166 532.858 405.56 532.845 405.966 532.831C409.509 532.712 413.052 532.594 416.596 532.475C425.416 532.179 434.236 531.884 443.057 531.589C449.197 531.383 455.337 531.178 461.477 530.972C465.12 530.85 468.762 530.728 472.405 530.607C474.843 530.525 477.28 530.443 479.717 530.362C481.103 530.315 482.488 530.269 483.874 530.223C487.121 530.114 490.367 530.004 493.613 529.89C494.012 529.877 494.411 529.863 494.822 529.849C495.915 529.811 497.009 529.771 498.102 529.73C498.572 529.714 498.572 529.714 499.051 529.698C499.337 529.687 499.623 529.676 499.917 529.665C500.161 529.656 500.406 529.647 500.657 529.638C501.428 529.575 502.158 529.426 502.915 529.27C506.398 529.028 511.001 528.97 513.865 531.259C515.502 532.836 516.138 534.582 516.277 536.841C516.199 538.991 515.521 540.85 514.037 542.419C512.915 543.375 511.655 544.084 510.357 544.773C509.94 545.007 509.94 545.007 509.515 545.245C508.396 545.748 507.502 545.895 506.283 546.017C506.065 546.04 505.848 546.062 505.624 546.086C504.894 546.161 504.164 546.231 503.433 546.301C502.901 546.355 502.37 546.409 501.838 546.463C500.367 546.613 498.895 546.758 497.424 546.902C495.815 547.06 494.207 547.223 492.599 547.385C489.76 547.671 486.921 547.954 484.082 548.235C479.833 548.656 475.584 549.082 471.335 549.509C469.289 549.714 467.244 549.919 465.198 550.124C464.991 550.145 464.784 550.166 464.571 550.187C461.324 550.513 458.078 550.838 454.832 551.162C441.479 552.496 428.128 553.839 414.777 555.188C413.739 555.293 412.7 555.398 411.662 555.503C407.45 555.928 403.238 556.354 399.025 556.779C391.201 557.57 383.377 558.36 375.553 559.149C375.284 559.176 375.014 559.203 374.736 559.231C372.285 559.479 369.834 559.726 367.383 559.973C361.413 560.575 355.443 561.178 349.473 561.78C349.207 561.807 348.94 561.834 348.666 561.861C334.744 563.266 320.821 564.672 306.899 566.078C306.542 566.114 306.542 566.114 306.178 566.151C304.032 566.368 301.885 566.585 299.738 566.802C294.618 567.319 289.497 567.836 284.377 568.353C284.037 568.387 284.037 568.387 283.691 568.422C283.465 568.445 283.239 568.468 283.006 568.491C278.078 568.988 273.15 569.486 268.223 569.983C268.006 570.005 267.789 570.027 267.565 570.05C255.614 571.257 243.664 572.473 231.714 573.7C228.993 573.98 226.271 574.259 223.549 574.538C222.988 574.595 222.988 574.595 222.416 574.654C220.932 574.806 219.449 574.958 217.965 575.109C213.766 575.539 209.566 575.971 205.367 576.407C202.825 576.67 200.283 576.932 197.74 577.191C196.301 577.338 194.861 577.486 193.422 577.637C176.018 579.463 176.018 579.463 172.393 576.593C169.57 572.888 169.047 568.555 168.326 564.071C168.235 563.522 168.145 562.973 168.054 562.424C167.857 561.234 167.662 560.044 167.469 558.854C167.153 556.913 166.833 554.973 166.513 553.033C166.4 552.348 166.287 551.663 166.174 550.978C166.116 550.631 166.059 550.285 166 549.928C165.822 548.847 165.644 547.766 165.466 546.685C164.545 541.091 163.612 535.5 162.673 529.91C162.638 529.7 162.603 529.49 162.566 529.274C162.134 526.702 161.702 524.13 161.269 521.558C160.9 519.364 160.532 517.17 160.163 514.977C159.477 510.896 158.791 506.816 158.105 502.735C157.677 500.189 157.249 497.643 156.821 495.097C156.198 491.392 155.575 487.687 154.952 483.982C154.901 483.681 154.851 483.38 154.798 483.07C153.393 474.717 151.983 466.364 150.572 458.012C149.834 453.649 149.097 449.286 148.36 444.923C148.228 444.14 148.095 443.356 147.963 442.573C145.674 429.026 143.396 415.478 141.144 401.926C139.771 393.66 138.389 385.396 136.989 377.136C136.955 376.932 136.92 376.728 136.884 376.518C136.387 373.581 135.889 370.644 135.391 367.707C132.961 353.385 130.555 339.059 128.171 324.728C128.02 323.826 127.87 322.923 127.72 322.02C127.683 321.797 127.646 321.574 127.608 321.344C127.198 318.884 126.789 316.424 126.379 313.963C126.343 313.744 126.306 313.524 126.269 313.298C124.683 303.774 123.087 294.252 121.485 284.731C121.422 284.355 121.359 283.979 121.293 283.592C120.723 280.201 120.152 276.809 119.581 273.418C118.685 268.095 117.79 262.772 116.896 257.449C116.832 257.068 116.768 256.687 116.702 256.295C116.378 254.368 116.054 252.442 115.731 250.516C115.148 247.047 114.565 243.579 113.982 240.111C113.788 238.956 113.594 237.801 113.4 236.646C112.634 232.09 111.868 227.534 111.102 222.978C110.596 219.963 110.089 216.948 109.582 213.932C109.326 212.41 109.07 210.888 108.814 209.366C107.393 200.911 105.973 192.455 104.554 184C103.93 180.28 103.307 176.561 102.683 172.842C102.609 172.401 102.535 171.96 102.46 171.519C100.594 160.391 98.7223 149.264 96.8426 138.138C96.7994 137.883 96.7562 137.627 96.7116 137.364C95.9069 132.601 95.102 127.838 94.2961 123.075C94.2567 122.842 94.2174 122.61 94.1769 122.371C94.0202 121.444 93.8634 120.518 93.7066 119.592C93.2908 117.135 92.8757 114.678 92.4625 112.221C92.3171 111.357 92.1717 110.493 92.0262 109.628C91.9906 109.416 91.955 109.205 91.9183 108.986C91.4782 106.371 91.0322 103.758 90.578 101.145C90.276 99.4076 89.9767 97.6696 89.6794 95.9312C89.5057 94.9164 89.3298 93.9021 89.1508 92.8882C88.9554 91.7811 88.7658 90.6733 88.5773 89.565C88.5194 89.2455 88.4615 88.926 88.4019 88.5967C87.8482 85.2692 87.9254 81.7657 89.641 78.7756C91.3948 76.3769 94.869 75.3763 97.7113 74.9303C98.5035 74.8335 99.2963 74.7455 100.09 74.6588C103.642 74.2414 107.17 73.7043 110.702 73.1425C110.977 73.0987 111.253 73.0549 111.536 73.0098C113.245 72.7379 114.952 72.4641 116.66 72.1898C118.41 71.9091 120.159 71.6301 121.909 71.3508C123.267 71.1341 124.625 70.9171 125.983 70.6992C126.232 70.6594 126.48 70.6196 126.736 70.5785C127.195 70.505 127.655 70.4313 128.114 70.3574C130.181 70.0266 132.158 69.7205 134.255 69.7633Z" fill="white"/>
</svg>
