<svg width="30" height="28" viewBox="0 0 30 28" fill="none" xmlns="http://www.w3.org/2000/svg">
<path d="M27.0001 16.9997C27.5779 17 28.1335 17.2226 28.5517 17.6213C28.9699 18.0201 29.2186 18.5644 29.2464 19.1416C29.2742 19.7188 29.0788 20.2845 28.7008 20.7215C28.3229 21.1586 27.7912 21.4335 27.2161 21.4892L27.0001 21.4997H8.43161L10.5916 23.6597C11.0008 24.0674 11.2375 24.6168 11.2527 25.1942C11.268 25.7716 11.0606 26.3327 10.6735 26.7614C10.2864 27.1901 9.74934 27.4535 9.17341 27.4972C8.59748 27.5408 8.02682 27.3612 7.57961 26.9957L7.40861 26.8412L1.66511 21.0962C0.204109 19.6352 1.15511 17.1707 3.15161 17.0087L3.36161 16.9997H27.0001ZM19.4101 1.15972C19.8037 0.765815 20.3293 0.531832 20.8854 0.503017C21.4414 0.474202 21.9884 0.652602 22.4206 1.00372L22.5916 1.15822L28.3351 6.90322C29.7961 8.36422 28.8451 10.8287 26.8486 10.9907L26.6386 10.9997H3.00011C2.42228 10.9994 1.86672 10.7769 1.44853 10.3781C1.03034 9.97936 0.781591 9.43501 0.753823 8.85785C0.726054 8.28069 0.921397 7.71497 1.29937 7.27792C1.67735 6.84086 2.20898 6.56598 2.78411 6.51022L3.00011 6.49972H21.5686L19.4086 4.33972C18.9873 3.91784 18.7506 3.34597 18.7506 2.74972C18.7506 2.15347 18.9888 1.5816 19.4101 1.15972Z" fill="white"/>
</svg>
