<svg width="631" height="631" viewBox="0 0 631 631" fill="none" xmlns="http://www.w3.org/2000/svg">
<path d="M260.965 4.62143C261.379 4.80314 261.379 4.80314 261.802 4.98851C263.207 5.76223 264.413 6.74194 265.664 7.741C266.16 8.1338 266.655 8.52618 267.152 8.91806C267.369 9.09128 267.586 9.26449 267.81 9.44295C268.349 9.87715 268.349 9.87715 268.976 10.1673C268.976 10.3707 268.976 10.574 268.976 10.7835C269.158 10.8698 269.34 10.956 269.527 11.0448C270.157 11.3727 270.69 11.7232 271.256 12.1496C271.452 12.2969 271.648 12.4443 271.85 12.5961C272.058 12.7542 272.267 12.9122 272.481 13.0751C272.699 13.2397 272.917 13.4043 273.141 13.5739C275.454 15.3255 277.73 17.1212 280.003 18.9234C280.557 19.3623 281.112 19.8006 281.666 20.2385C281.844 20.3787 282.021 20.5189 282.203 20.6634C283.623 21.7797 285.08 22.831 286.565 23.86C286.759 24.0184 286.954 24.1769 287.154 24.3402C287.154 24.5435 287.154 24.7469 287.154 24.9564C287.334 25.0406 287.513 25.1248 287.698 25.2115C288.374 25.5661 288.946 25.9579 289.553 26.4199C289.767 26.5819 289.982 26.744 290.202 26.9109C290.423 27.0793 290.644 27.2477 290.871 27.4212C291.311 27.7552 291.751 28.089 292.191 28.4226C292.385 28.5703 292.579 28.7181 292.779 28.8703C293.255 29.2242 293.747 29.5569 294.241 29.8861C294.241 30.0894 294.241 30.2928 294.241 30.5023C294.407 30.5766 294.574 30.6508 294.745 30.7274C295.658 31.2179 296.44 31.8181 297.264 32.4472C298.321 33.2533 299.382 34.0465 300.48 34.7965C300.899 35.1111 300.899 35.1111 301.327 35.432C301.327 35.6353 301.327 35.8387 301.327 36.0482C301.494 36.1225 301.66 36.1967 301.832 36.2733C302.745 36.7638 303.527 37.364 304.351 37.9931C305.408 38.7992 306.468 39.5924 307.566 40.3424C307.986 40.657 307.986 40.657 308.414 40.9779C308.414 41.1812 308.414 41.3846 308.414 41.5941C308.82 41.6958 309.227 41.7974 309.646 41.9022C309.646 42.1056 309.646 42.3089 309.646 42.5184C309.828 42.6051 310.011 42.6917 310.198 42.781C310.818 43.1032 311.346 43.4453 311.904 43.8628C312.194 44.0791 312.194 44.0791 312.489 44.2999C312.695 44.4555 312.9 44.6111 313.112 44.7714C313.328 44.934 313.544 45.0966 313.767 45.2641C315.534 46.604 317.257 47.9948 318.971 49.402C320.483 50.64 322.026 51.8194 323.596 52.982C324.649 53.7703 325.671 54.593 326.694 55.4191C328.285 56.6884 329.905 57.9198 331.522 59.1561C332.729 58.0498 333.623 56.7686 334.564 55.4396C334.92 54.9415 335.276 54.4437 335.633 53.946C335.817 53.6886 336.001 53.4312 336.191 53.166C337.307 51.6178 338.446 50.0867 339.582 48.5537C340.709 47.0296 341.804 45.4924 342.849 43.9109C342.975 43.7564 343.1 43.6019 343.23 43.4427C343.433 43.4427 343.636 43.4427 343.846 43.4427C343.92 43.2247 343.994 43.0066 344.071 42.782C344.523 41.7641 345.095 41.0205 345.791 40.1499C347.058 38.5409 348.275 36.9035 349.469 35.2394C351.576 32.3073 353.707 29.394 355.862 26.4969C356.092 26.187 356.092 26.187 356.326 25.8708C356.74 25.3139 357.157 24.7592 357.576 24.2054C357.805 23.9008 358.034 23.5961 358.27 23.2823C359.229 22.1548 360.198 21.1296 361.716 20.951C364.949 20.6974 367.507 22.1409 370.035 24.0321C371.02 24.9028 371.97 25.7899 372.808 26.805C372.808 27.0084 372.808 27.2117 372.808 27.4212C372.987 27.5007 373.167 27.5801 373.352 27.662C374.096 28.0678 374.6 28.5153 375.196 29.1158C375.385 29.3033 375.574 29.4908 375.768 29.6839C376.197 30.1942 376.197 30.1942 376.197 30.8104C376.376 30.8898 376.556 30.9693 376.741 31.0511C377.485 31.4569 377.989 31.9045 378.585 32.505C378.774 32.6924 378.963 32.8799 379.158 33.0731C379.586 33.5834 379.586 33.5834 379.586 34.1996C379.766 34.279 379.945 34.3584 380.13 34.4403C380.874 34.8461 381.378 35.2936 381.974 35.8941C382.163 36.0816 382.352 36.2691 382.547 36.4622C382.975 36.9725 382.975 36.9725 382.975 37.5887C383.179 37.5887 383.382 37.5887 383.591 37.5887C383.591 37.7921 383.591 37.9954 383.591 38.2049C383.771 38.2844 383.95 38.3638 384.135 38.4456C384.879 38.8514 385.384 39.299 385.979 39.8995C386.168 40.087 386.357 40.2744 386.552 40.4676C386.981 40.9779 386.981 40.9779 386.981 41.5941C387.16 41.6735 387.34 41.753 387.525 41.8348C388.269 42.2406 388.773 42.6881 389.368 43.2887C389.557 43.4761 389.747 43.6636 389.941 43.8567C390.37 44.367 390.37 44.367 390.37 44.9833C390.549 45.0627 390.729 45.1421 390.914 45.224C391.658 45.6298 392.162 46.0773 392.758 46.6778C392.947 46.8653 393.136 47.0528 393.33 47.2459C393.759 47.7562 393.759 47.7562 393.759 48.3724C393.938 48.4519 394.118 48.5313 394.303 48.6131C395.047 49.0189 395.551 49.4665 396.147 50.067C396.336 50.2545 396.525 50.4419 396.72 50.6351C397.148 51.1454 397.148 51.1454 397.148 51.7616C397.404 51.8675 397.404 51.8675 397.665 51.9755C398.584 52.492 399.218 53.1385 399.963 53.8843C400.119 54.0399 400.276 54.1956 400.437 54.356C400.964 54.8814 401.488 55.4089 402.013 55.9365C402.395 56.3177 402.776 56.6987 403.158 57.0797C404.213 58.1334 405.266 59.1891 406.319 60.2451C407.463 61.391 408.608 62.5352 409.753 63.6796C411.761 65.6878 413.768 67.6971 415.775 69.7071C418.759 72.696 421.744 75.6831 424.73 78.6699C429.598 83.5394 434.465 88.4101 439.331 93.2817C444.458 98.4147 449.586 103.547 454.715 108.678C454.87 108.833 455.024 108.987 455.183 109.146C456.909 110.873 458.634 112.599 460.36 114.325C463.552 117.518 466.743 120.711 469.935 123.904C470.174 124.143 470.174 124.143 470.418 124.388C478.021 131.994 485.622 139.601 493.223 147.208C493.728 147.713 494.232 148.217 494.737 148.722C499.803 153.792 504.868 158.862 509.934 163.931C515.168 169.17 520.403 174.408 525.637 179.647C526.142 180.152 526.646 180.656 527.15 181.161C534.745 188.762 542.341 196.363 549.937 203.962C550.097 204.122 550.256 204.282 550.421 204.446C553.608 207.635 556.796 210.825 559.984 214.014C561.708 215.738 563.432 217.463 565.155 219.187C565.31 219.341 565.464 219.496 565.623 219.655C570.75 224.784 575.877 229.915 581.002 235.047C585.992 240.043 590.984 245.038 595.976 250.031C598.946 253.002 601.915 255.973 604.882 258.946C606.861 260.928 608.841 262.909 610.822 264.889C611.953 266.02 613.083 267.151 614.212 268.283C615.238 269.311 616.264 270.338 617.292 271.364C617.663 271.734 618.033 272.106 618.403 272.478C618.903 272.979 619.404 273.479 619.905 273.978C620.183 274.256 620.461 274.535 620.747 274.821C621.422 275.505 621.422 275.505 622.373 275.754C622.445 279.482 622.515 283.21 622.563 286.938C622.566 287.162 622.569 287.386 622.572 287.616C622.584 288.544 622.596 289.472 622.607 290.4C622.643 293.313 622.696 296.224 622.775 299.136C622.827 301.057 622.865 302.978 622.894 304.9C622.912 306.051 622.937 307.201 622.978 308.352C623.159 313.569 623.083 317.625 619.472 321.706C618.622 322.702 617.909 323.795 617.174 324.878C616.549 325.76 615.918 326.638 615.287 327.516C615.114 327.757 614.942 327.997 614.764 328.245C612.644 331.192 610.466 334.039 608.068 336.765C607.391 337.551 606.766 338.345 606.159 339.186C605.797 339.662 605.797 339.662 605.427 340.148C605.224 340.148 605.021 340.148 604.811 340.148C604.709 340.393 604.709 340.393 604.604 340.643C604.05 341.642 603.324 342.468 602.577 343.326C602.417 343.511 602.257 343.697 602.093 343.888C600.624 345.578 599.1 347.215 597.558 348.837C597.383 349.022 597.208 349.206 597.028 349.396C596.872 349.559 596.717 349.722 596.557 349.89C596.151 350.318 596.151 350.318 595.876 350.932C595.673 350.932 595.469 350.932 595.26 350.932C595.187 351.106 595.115 351.28 595.04 351.459C594.554 352.325 593.953 352.903 593.238 353.589C592.274 354.479 592.274 354.479 591.563 355.554C591.359 355.554 591.156 355.554 590.946 355.554C590.946 355.757 590.946 355.96 590.946 356.17C590.743 356.17 590.54 356.17 590.33 356.17C590.264 356.336 590.198 356.502 590.13 356.673C589.565 357.664 588.794 358.41 587.991 359.208C587.822 359.377 587.653 359.546 587.48 359.72C587.124 360.076 586.768 360.432 586.41 360.786C585.863 361.331 585.318 361.879 584.774 362.427C584.428 362.773 584.081 363.118 583.735 363.463C583.572 363.628 583.408 363.793 583.24 363.962C582.082 365.105 582.082 365.105 581.395 365.105C581.395 365.308 581.395 365.512 581.395 365.721C581.192 365.721 580.989 365.721 580.779 365.721C580.779 365.924 580.779 366.128 580.779 366.337C580.355 366.838 580.355 366.838 579.855 367.262C579.651 367.262 579.448 367.262 579.238 367.262C579.238 367.465 579.238 367.668 579.238 367.878C578.775 368.334 578.775 368.334 578.141 368.86C577.048 369.784 576.045 370.756 575.062 371.795C574.617 372.191 574.617 372.191 574.001 372.191C574.001 372.395 574.001 372.598 574.001 372.808C573.602 373.21 573.602 373.21 573.019 373.693C572.16 374.419 571.321 375.159 570.502 375.928C570.323 376.096 570.144 376.264 569.96 376.437C569.6 376.776 569.242 377.115 568.884 377.456C567.598 378.662 567.598 378.662 566.914 378.662C566.914 378.865 566.914 379.068 566.914 379.278C565.227 380.818 565.227 380.818 564.449 380.818C564.449 381.022 564.449 381.225 564.449 381.434C563.997 381.845 563.524 382.232 563.044 382.609C561.582 383.777 560.158 384.978 558.749 386.21C557.143 387.61 555.522 388.986 553.864 390.325C553.275 390.802 552.691 391.285 552.11 391.772C551.803 392.027 551.497 392.282 551.182 392.546C550.766 392.894 550.766 392.894 550.343 393.25C549.66 393.759 549.66 393.759 549.044 393.759C549.044 393.962 549.044 394.165 549.044 394.375C547.978 395.299 547.978 395.299 547.195 395.299C547.195 395.503 547.195 395.706 547.195 395.915C546.685 396.372 546.685 396.372 545.98 396.899C545.726 397.091 545.472 397.283 545.211 397.48C544.951 397.676 544.69 397.871 544.423 398.072C543.967 398.427 543.512 398.783 543.058 399.14C540.565 401.088 538.07 403.021 535.487 404.851C535.233 405.032 534.979 405.214 534.717 405.402C533.952 405.945 533.181 406.478 532.406 407.007C532.04 407.263 532.04 407.263 531.666 407.524C529.598 408.91 527.419 409.96 525.154 410.979C524.788 411.146 524.788 411.146 524.415 411.316C524.196 411.414 523.977 411.511 523.752 411.612C523.139 411.914 523.139 411.914 522.671 412.439C522.457 412.648 522.457 412.648 522.239 412.861C521.305 412.834 520.863 412.724 520.209 412.046C519.235 410.481 518.385 408.888 517.578 407.231C515.465 402.963 513.052 398.83 510.698 394.692C508.754 391.273 506.908 387.811 505.112 384.313C504.331 382.805 503.522 381.345 502.607 379.916C501.308 377.816 500.204 375.594 499.074 373.399C497.406 370.16 495.656 366.98 493.828 363.829C492.048 360.747 490.408 357.592 488.782 354.427C487.984 352.883 487.157 351.384 486.219 349.921C485.767 349.209 485.36 348.477 484.958 347.735C484.818 347.479 484.679 347.222 484.535 346.958C484.119 346.164 483.717 345.366 483.319 344.563C482.479 342.877 481.588 341.222 480.683 339.571C480.521 339.273 480.359 338.976 480.192 338.67C479.342 337.117 478.474 335.581 477.564 334.063C476.789 332.759 476.185 331.452 475.661 330.029C475.41 329.372 475.115 328.756 474.791 328.132C474.587 328.132 474.384 328.132 474.174 328.132C474.174 327.929 474.174 327.726 474.174 327.516C472.276 326.746 470.69 326.289 468.629 326.592C467.758 327.267 467.268 327.772 466.78 328.748C466.695 329.476 466.695 329.476 466.684 330.308C466.666 330.723 466.666 330.723 466.649 331.147C466.985 333.687 468.576 335.998 469.803 338.203C470.846 340.094 471.876 341.984 472.827 343.923C473.756 345.818 474.776 347.653 475.81 349.493C476.776 351.219 477.665 352.969 478.536 354.745C479.196 356.065 479.922 357.348 480.645 358.635C481.749 360.6 482.781 362.581 483.774 364.604C484.434 365.924 485.159 367.208 485.882 368.494C486.986 370.458 488.018 372.438 489.01 374.461C489.801 376.042 490.68 377.574 491.545 379.114C492.416 380.669 493.227 382.243 494.01 383.844C494.651 385.101 495.34 386.328 496.031 387.558C496.951 389.197 497.841 390.839 498.669 392.526C499.491 394.201 500.374 395.83 501.288 397.456C502.392 399.421 503.424 401.402 504.417 403.426C505.077 404.746 505.802 406.029 506.526 407.315C507.657 409.331 508.734 411.36 509.747 413.438C510.056 414.064 510.376 414.685 510.708 415.298C510.853 415.568 510.998 415.838 511.147 416.116C511.274 416.345 511.401 416.574 511.532 416.81C511.845 417.721 511.822 418.128 511.455 419.023C510.798 419.571 510.194 420.004 509.472 420.448C509.267 420.58 509.061 420.711 508.85 420.847C508.182 421.272 507.509 421.689 506.834 422.104C506.61 422.242 506.387 422.38 506.156 422.522C505.236 423.086 504.315 423.649 503.391 424.208C501.822 425.158 500.28 426.143 498.746 427.15C485.15 436.019 470.338 442.195 455.159 447.759C450.593 449.434 446.041 451.146 441.496 452.876C440.834 453.128 440.172 453.38 439.509 453.632C436.89 454.628 434.271 455.626 431.662 456.648C405.635 466.81 376.667 473.849 348.776 476.023C348.421 476.052 348.067 476.081 347.702 476.112C343.479 476.413 339.247 476.389 335.015 476.388C333.905 476.388 332.796 476.392 331.686 476.398C330.827 476.401 329.967 476.402 329.107 476.401C328.499 476.402 327.891 476.405 327.283 476.409C326.918 476.408 326.552 476.407 326.176 476.406C325.853 476.406 325.531 476.407 325.199 476.407C324.435 476.331 324.435 476.331 323.819 475.715C323.735 474.825 323.735 474.825 323.726 473.645C323.723 473.426 323.72 473.207 323.718 472.981C323.71 472.227 323.706 471.472 323.702 470.718C323.697 470.159 323.692 469.599 323.687 469.04C323.672 467.45 323.662 465.859 323.652 464.268C323.643 462.869 323.632 461.471 323.621 460.072C323.499 444.761 323.443 429.448 323.372 414.137C323.355 410.6 323.339 407.064 323.322 403.528C323.312 401.419 323.302 399.311 323.292 397.202C323.282 395.117 323.272 393.031 323.263 390.946C323.255 389.243 323.247 387.541 323.239 385.838C323.236 385.341 323.236 385.341 323.234 384.833C323.211 379.963 323.19 375.092 323.171 370.222C323.153 365.912 323.133 361.602 323.109 357.293C323.095 354.823 323.084 352.354 323.076 349.885C323.071 348.054 323.06 346.223 323.048 344.392C323.044 343.66 323.041 342.927 323.04 342.195C323.039 341.211 323.031 340.227 323.023 339.243C323.024 338.961 323.025 338.68 323.026 338.39C323 336.421 322.741 334.62 321.452 333.044C321.273 332.904 321.095 332.763 320.911 332.619C320.734 332.473 320.556 332.328 320.373 332.177C319.763 331.798 319.291 331.625 318.581 331.521C316.895 332.035 316.188 333.059 315.253 334.464C314.563 335.873 314.537 337.356 314.541 338.903C314.541 339.448 314.541 339.448 314.541 340.004C314.542 340.401 314.544 340.798 314.546 341.207C314.546 341.636 314.547 342.065 314.547 342.494C314.548 343.429 314.55 344.365 314.553 345.3C314.557 346.835 314.559 348.371 314.56 349.906C314.563 352.161 314.566 354.416 314.57 356.671C314.581 362.847 314.583 369.023 314.584 375.199C314.584 375.526 314.584 375.853 314.584 376.19C314.588 392.711 314.529 409.232 314.456 425.753C314.444 428.425 314.433 431.096 314.423 433.768C314.408 437.415 314.392 441.062 314.375 444.709C314.368 446.046 314.363 447.383 314.357 448.72C314.32 458.029 314.176 467.333 313.96 476.639C313.241 476.652 312.522 476.652 311.803 476.639C311.701 476.537 311.599 476.436 311.495 476.331C310.894 476.307 310.292 476.305 309.691 476.311C309.301 476.314 308.912 476.317 308.51 476.32C308.193 476.323 308.193 476.323 307.87 476.327C306.733 476.338 305.595 476.344 304.457 476.351C304.216 476.353 303.975 476.354 303.727 476.356C293.957 476.42 284.262 476.256 274.522 475.407C274.218 475.381 273.914 475.354 273.6 475.327C256.316 473.831 239.138 471.183 222.144 467.704C221.79 467.632 221.79 467.632 221.429 467.559C199.425 463.078 177.268 456.962 156.518 448.293C156.151 448.14 155.784 447.987 155.405 447.83C143.836 442.984 131.86 437.736 121.967 429.902C121.193 429.358 120.472 429.296 119.545 429.191C119.195 428.154 119.215 427.706 119.616 426.671C119.813 426.289 120.014 425.909 120.219 425.532C120.384 425.215 120.384 425.215 120.553 424.892C120.799 424.422 121.047 423.953 121.296 423.485C121.723 422.68 122.142 421.87 122.56 421.06C124.234 417.817 125.953 414.602 127.71 411.404C128.815 409.387 129.887 407.355 130.945 405.313C133.028 401.296 135.194 397.326 137.39 393.37C138.812 390.804 140.198 388.233 141.489 385.598C142.088 384.385 142.729 383.213 143.423 382.051C144.226 380.706 144.949 379.336 145.638 377.93C146.613 375.942 147.651 373.996 148.719 372.057C150.098 369.552 151.433 367.029 152.743 364.489C153.974 362.104 155.24 359.755 156.592 357.437C157.366 356.066 158.049 354.653 158.743 353.24C159.389 351.97 160.098 350.743 160.815 349.512C161.826 347.759 162.728 345.959 163.615 344.142C164.009 343.336 164.421 342.544 164.855 341.759C165.943 339.76 166.978 337.852 166.377 335.527C166.078 335.109 165.771 334.697 165.453 334.294C165.453 334.091 165.453 333.888 165.453 333.678C165.262 333.583 165.071 333.487 164.875 333.389C164.451 333.177 164.028 332.966 163.604 332.754C161.931 332.587 160.927 332.913 159.506 333.717C158.983 333.986 158.983 333.986 158.366 333.986C158.366 334.19 158.366 334.393 158.366 334.602C158.08 334.812 157.794 335.022 157.5 335.238C156.679 335.894 156.38 336.36 156.108 337.371C155.554 339.163 154.674 340.729 153.764 342.363C153.5 342.844 153.5 342.844 153.23 343.334C152.864 343.999 152.498 344.663 152.13 345.327C151.613 346.266 151.1 347.206 150.589 348.148C149.271 350.58 147.95 353.007 146.562 355.4C145.803 356.716 145.095 358.042 144.425 359.405C143.061 362.176 141.56 364.871 140.073 367.578C139.233 369.113 138.401 370.652 137.569 372.191C136.154 374.807 134.732 377.418 133.304 380.027C132.247 381.963 131.206 383.907 130.168 385.854C129.971 386.223 129.774 386.592 129.578 386.961C129.481 387.143 129.383 387.326 129.283 387.514C127.769 390.353 126.201 393.159 124.605 395.953C123.69 397.562 122.819 399.18 122.01 400.845C120.917 403.095 119.687 405.255 118.444 407.424C116.668 410.543 114.995 413.715 113.329 416.893C112.738 418.018 112.139 419.138 111.534 420.256C111.389 420.528 111.243 420.801 111.093 421.082C110.573 421.993 110.2 422.62 109.24 423.087C108.173 423.008 107.564 422.655 106.643 422.104C106.461 421.996 106.278 421.888 106.091 421.776C103.656 420.307 101.29 418.724 98.9152 417.161C97.1059 415.973 95.2814 414.809 93.4523 413.651C89.9128 411.405 86.4382 409.078 82.9888 406.697C82.0532 406.052 81.114 405.412 80.1725 404.776C77.5769 403.018 75.0318 401.235 72.5794 399.282C71.9161 398.784 71.3112 398.406 70.5562 398.072C70.5562 397.869 70.5562 397.665 70.5562 397.456C70.3414 397.384 70.1265 397.312 69.9051 397.238C68.8477 396.765 68.0056 396.115 67.1093 395.396C65.6011 394.204 64.0666 393.087 62.4624 392.026C62.2865 391.886 62.1105 391.746 61.9293 391.602C61.9293 391.399 61.9293 391.195 61.9293 390.986C61.7486 390.901 61.5678 390.816 61.3817 390.728C60.7263 390.385 60.1834 390.012 59.5992 389.561C58.2588 388.532 56.881 387.56 55.4976 386.59C55.2815 386.414 55.0654 386.238 54.8428 386.056C54.8428 385.853 54.8428 385.649 54.8428 385.44C54.6792 385.368 54.5156 385.297 54.347 385.223C53.382 384.7 52.5447 384.037 51.6848 383.36C51.329 383.082 50.9732 382.805 50.6172 382.527C50.4449 382.393 50.2726 382.258 50.095 382.12C49.2583 381.476 48.3999 380.861 47.5386 380.25C47.4071 380.133 47.2756 380.015 47.1402 379.894C47.1402 379.691 47.1402 379.487 47.1402 379.278C46.8542 379.135 46.8542 379.135 46.5625 378.989C46.1389 378.777 45.7152 378.565 45.2916 378.353C45.2916 378.15 45.2916 377.947 45.2916 377.737C45.0056 377.594 45.0056 377.594 44.7139 377.448C44.2902 377.237 43.8666 377.025 43.4429 376.813C43.4429 376.61 43.4429 376.406 43.4429 376.197C43.2625 376.116 43.082 376.034 42.8961 375.951C42.1814 375.565 41.6861 375.148 41.1009 374.588C40.8991 374.396 40.6973 374.205 40.4895 374.008C40.1785 373.709 40.1785 373.709 39.8612 373.404C39.447 373.009 39.0322 372.614 38.6168 372.219C38.4342 372.044 38.2517 371.869 38.0636 371.688C37.5976 371.238 37.5976 371.238 36.9727 370.959C36.9727 370.756 36.9727 370.552 36.9727 370.343C36.8075 370.273 36.6423 370.203 36.472 370.131C35.4862 369.586 34.7265 368.945 33.8917 368.186C33.8917 367.983 33.8917 367.779 33.8917 367.57C33.7114 367.491 33.531 367.412 33.3453 367.33C32.6 366.921 32.1256 366.471 31.5424 365.856C30.7967 365.062 30.7967 365.062 29.8863 364.489C29.8863 364.285 29.8863 364.082 29.8863 363.872C29.6829 363.872 29.4796 363.872 29.2701 363.872C29.2701 363.669 29.2701 363.466 29.2701 363.256C29.0915 363.178 28.9128 363.099 28.7288 363.018C27.9667 362.601 27.4535 362.136 26.8389 361.523C26.6205 361.306 26.4021 361.088 26.177 360.864C25.8398 360.523 25.8398 360.523 25.4958 360.175C25.1514 359.834 25.1514 359.834 24.8001 359.487C24.5833 359.269 24.3664 359.051 24.143 358.827C23.9443 358.628 23.7456 358.428 23.5409 358.223C23.108 357.71 23.108 357.71 23.108 357.094C22.9046 357.094 22.7013 357.094 22.4918 357.094C22.4918 356.891 22.4918 356.687 22.4918 356.478C22.2884 356.478 22.0851 356.478 21.8755 356.478C21.8755 356.275 21.8755 356.071 21.8755 355.862C21.6722 355.862 21.4688 355.862 21.2593 355.862C20.8032 355.398 20.8032 355.398 20.2773 354.764C19.5547 353.913 18.8227 353.099 18.0242 352.319C14.9639 349.3 14.9639 349.3 14.481 347.851C14.2777 347.851 14.0743 347.851 13.8648 347.851C13.4195 347.316 12.9994 346.76 12.5939 346.195C12.3707 345.888 12.1475 345.58 11.9175 345.263C11.4 344.462 11.4 344.462 11.4 343.846C11.1966 343.846 10.9933 343.846 10.7838 343.846C9.89055 342.092 9.7325 340.722 9.76443 338.769C9.76583 338.341 9.76583 338.341 9.76725 337.903C9.77146 336.956 9.78233 336.009 9.79324 335.061C9.79763 334.386 9.8016 333.711 9.8052 333.036C9.81585 331.248 9.83214 329.461 9.84954 327.673C9.86553 325.927 9.87602 324.181 9.88696 322.435C9.91245 318.549 9.94759 314.664 9.9843 310.778C9.99751 309.348 10.0096 307.919 10.0218 306.489C10.107 296.551 10.2644 286.615 10.4756 276.679C10.6691 276.592 10.8625 276.505 11.0618 276.416C11.9232 275.945 12.1654 275.375 12.6324 274.522C13.1138 273.809 13.1138 273.809 13.5567 273.289C13.7601 273.289 13.9634 273.289 14.1729 273.289C14.1729 273.086 14.1729 272.883 14.1729 272.673C14.3763 272.673 14.5796 272.673 14.7891 272.673C14.8717 272.495 14.9543 272.317 15.0395 272.134C15.4144 271.424 15.8069 270.818 16.3297 270.208C16.533 270.208 16.7363 270.208 16.9459 270.208C17.0285 270.03 17.1111 269.853 17.1962 269.669C17.5711 268.959 17.9636 268.353 18.4864 267.744C18.6897 267.744 18.8931 267.744 19.1026 267.744C19.1852 267.566 19.2678 267.388 19.3529 267.204C19.7278 266.494 20.1204 265.889 20.6431 265.279C20.8465 265.279 21.0498 265.279 21.2593 265.279C21.3833 265.012 21.3833 265.012 21.5097 264.74C21.8846 264.029 22.2771 263.424 22.7999 262.814C23.0032 262.814 23.2066 262.814 23.4161 262.814C23.5203 262.562 23.5203 262.562 23.6267 262.305C24.1529 261.366 24.8551 260.641 25.5921 259.868C26.6977 258.687 27.7593 257.493 28.7694 256.228C30.0213 254.671 31.3648 253.221 32.7359 251.769C33.9794 250.444 35.1144 249.077 36.2061 247.623C36.3574 247.45 36.5087 247.278 36.6646 247.1C36.868 247.1 37.0713 247.1 37.2808 247.1C37.4047 246.834 37.4047 246.834 37.5312 246.561C37.9061 245.851 38.2986 245.246 38.8214 244.636C39.0247 244.636 39.2281 244.636 39.4376 244.636C39.4376 244.432 39.4376 244.229 39.4376 244.019C39.6409 244.019 39.8443 244.019 40.0538 244.019C40.1777 243.753 40.1777 243.753 40.3041 243.48C40.679 242.77 41.0716 242.164 41.5943 241.555C41.7977 241.555 42.001 241.555 42.2105 241.555C42.3344 241.288 42.3344 241.288 42.4609 241.015C42.8358 240.305 43.2283 239.7 43.751 239.09C43.9544 239.09 44.1577 239.09 44.3673 239.09C44.4912 238.823 44.4912 238.823 44.6176 238.551C44.9925 237.84 45.385 237.235 45.9078 236.625C46.1111 236.625 46.3145 236.625 46.524 236.625C46.6479 236.358 46.6479 236.358 46.7743 236.086C47.1492 235.375 47.5418 234.77 48.0645 234.16C48.2679 234.16 48.4712 234.16 48.6807 234.16C48.785 233.908 48.785 233.908 48.8914 233.651C49.4175 232.713 50.1197 231.987 50.8567 231.214C52.0033 229.99 53.0993 228.748 54.1496 227.439C54.9083 226.497 55.6669 225.603 56.5374 224.763C57.3955 223.934 58.1411 223.056 58.8867 222.125C60.0007 220.739 61.1722 219.432 62.3914 218.139C64.0722 216.353 65.6347 214.508 67.1671 212.593C67.7673 211.853 68.3735 211.141 69.0157 210.436C69.219 210.436 69.4224 210.436 69.6319 210.436C69.7558 210.169 69.7558 210.169 69.8822 209.897C70.2571 209.186 70.6497 208.581 71.1724 207.971C71.3758 207.971 71.5791 207.971 71.7886 207.971C71.8935 207.723 71.8935 207.723 72.0005 207.47C72.5453 206.485 73.1864 205.725 73.9454 204.89C74.1487 204.89 74.3521 204.89 74.5616 204.89C74.6855 204.623 74.6855 204.623 74.8119 204.351C75.1868 203.641 75.5794 203.035 76.1021 202.425C76.3055 202.425 76.5088 202.425 76.7183 202.425C76.8422 202.158 76.8422 202.158 76.9687 201.886C77.3436 201.176 77.7361 200.57 78.2589 199.96C78.4622 199.96 78.6656 199.96 78.8751 199.96C78.999 199.693 78.999 199.693 79.1254 199.421C79.5003 198.711 79.8928 198.105 80.4156 197.495C80.6189 197.495 80.8223 197.495 81.0318 197.495C81.1557 197.229 81.1557 197.229 81.2821 196.956C81.657 196.246 82.0496 195.641 82.5723 195.031C82.7757 195.031 82.979 195.031 83.1885 195.031C83.2573 194.864 83.326 194.697 83.3968 194.525C83.9344 193.567 84.6531 192.819 85.4031 192.027C85.713 191.694 86.0227 191.361 86.3322 191.028C86.4817 190.867 86.6313 190.707 86.7853 190.542C87.6641 189.594 88.5076 188.616 89.3507 187.636C89.4927 187.471 89.6346 187.307 89.7809 187.137C90.2734 186.566 90.7654 185.994 91.2571 185.422C91.4147 185.238 91.5724 185.055 91.7348 184.866C91.9624 184.601 91.9624 184.601 92.1946 184.33C92.3405 184.16 92.4864 183.99 92.6368 183.814C93.0164 183.36 93.3779 182.891 93.7376 182.421C93.9167 182.21 94.0958 181.999 94.2804 181.782C94.4837 181.782 94.6871 181.782 94.8966 181.782C95.0205 181.515 95.0205 181.515 95.1469 181.243C95.5218 180.533 95.9143 179.927 96.4371 179.317C96.6404 179.317 96.8438 179.317 97.0533 179.317C97.1772 179.05 97.1772 179.05 97.3036 178.778C97.6785 178.068 98.0711 177.462 98.5938 176.852C98.7972 176.852 99.0005 176.852 99.21 176.852C99.3095 176.606 99.3095 176.606 99.411 176.354C99.979 175.35 100.751 174.564 101.54 173.733C102.657 172.612 102.657 172.612 103.524 171.307C103.727 171.307 103.93 171.307 104.14 171.307C104.264 171.04 104.264 171.04 104.39 170.767C104.765 170.057 105.158 169.452 105.68 168.842C105.884 168.842 106.087 168.842 106.296 168.842C106.365 168.675 106.434 168.508 106.505 168.336C107.042 167.378 107.761 166.63 108.511 165.838C108.821 165.505 109.131 165.172 109.44 164.839C109.59 164.678 109.739 164.518 109.893 164.353C110.772 163.405 111.615 162.427 112.459 161.447C112.601 161.282 112.743 161.118 112.889 160.948C113.381 160.377 113.873 159.805 114.365 159.233C114.523 159.049 114.68 158.866 114.843 158.677C114.994 158.5 115.146 158.323 115.303 158.141C115.448 157.971 115.594 157.801 115.745 157.625C116.124 157.171 116.486 156.702 116.845 156.232C117.025 156.021 117.204 155.81 117.388 155.593C117.592 155.593 117.795 155.593 118.004 155.593C118.128 155.326 118.128 155.326 118.255 155.054C118.63 154.344 119.022 153.738 119.545 153.128C119.748 153.128 119.952 153.128 120.161 153.128C120.285 152.861 120.285 152.861 120.412 152.589C120.786 151.879 121.179 151.273 121.702 150.663C121.905 150.663 122.108 150.663 122.318 150.663C122.442 150.397 122.442 150.397 122.568 150.124C122.943 149.414 123.336 148.808 123.858 148.199C124.062 148.199 124.265 148.199 124.475 148.199C124.541 148.034 124.607 147.87 124.676 147.7C125.244 146.696 126.015 145.91 126.805 145.079C127.921 143.958 127.921 143.958 128.788 142.653C128.992 142.653 129.195 142.653 129.404 142.653C129.528 142.386 129.528 142.386 129.655 142.114C130.03 141.403 130.422 140.798 130.945 140.188C131.148 140.188 131.352 140.188 131.561 140.188C131.63 140.021 131.699 139.854 131.769 139.682C132.307 138.724 133.026 137.976 133.776 137.184C134.084 136.852 134.393 136.52 134.701 136.189C134.851 136.028 135 135.868 135.154 135.703C136.831 133.895 138.378 131.994 139.905 130.059C140.1 129.843 140.295 129.627 140.496 129.404C140.7 129.404 140.903 129.404 141.112 129.404C141.236 129.137 141.236 129.137 141.363 128.865C141.738 128.155 142.13 127.549 142.653 126.939C142.856 126.939 143.06 126.939 143.269 126.939C143.393 126.672 143.393 126.672 143.519 126.4C143.894 125.69 144.287 125.084 144.81 124.474C145.013 124.474 145.216 124.474 145.426 124.474C145.55 124.208 145.55 124.208 145.676 123.935C146.051 123.225 146.444 122.62 146.966 122.01C147.17 122.01 147.373 122.01 147.583 122.01C147.707 121.743 147.707 121.743 147.833 121.47C148.208 120.76 148.6 120.155 149.123 119.545C149.326 119.545 149.53 119.545 149.739 119.545C149.808 119.378 149.877 119.211 149.948 119.039C150.485 118.081 151.204 117.333 151.954 116.541C152.264 116.208 152.573 115.875 152.883 115.542C153.033 115.381 153.182 115.221 153.336 115.056C154.503 113.797 155.614 112.489 156.725 111.181C158.438 109.167 160.179 107.191 161.989 105.262C163.169 103.995 164.249 102.667 165.291 101.284C165.446 101.108 165.601 100.932 165.761 100.75C165.964 100.75 166.168 100.75 166.377 100.75C166.501 100.483 166.501 100.483 166.627 100.211C167.002 99.5008 167.395 98.8954 167.918 98.2855C168.121 98.2855 168.324 98.2855 168.534 98.2855C168.616 98.1076 168.699 97.9297 168.784 97.7463C169.159 97.036 169.552 96.4305 170.074 95.8207C170.278 95.8207 170.481 95.8207 170.691 95.8207C170.773 95.6427 170.856 95.4648 170.941 95.2815C171.316 94.5711 171.708 93.9657 172.231 93.3558C172.434 93.3558 172.638 93.3558 172.847 93.3558C172.916 93.1882 172.985 93.0206 173.057 92.8479C173.588 91.9019 174.299 91.1698 175.043 90.3903C176.395 88.9506 177.644 87.4664 178.837 85.8891C178.996 85.7096 179.154 85.53 179.317 85.3451C179.521 85.3451 179.724 85.3451 179.934 85.3451C180.016 85.1672 180.099 84.9892 180.184 84.8059C180.559 84.0956 180.951 83.4901 181.474 82.8802C181.678 82.8802 181.881 82.8802 182.09 82.8802C182.159 82.7134 182.228 82.5466 182.299 82.3748C182.836 81.4168 183.555 80.6685 184.305 79.8762C184.615 79.5434 184.925 79.2104 185.234 78.8773C185.384 78.7169 185.533 78.5566 185.687 78.3913C186.854 77.1327 187.965 75.8249 189.076 74.5169C190.636 72.6822 192.211 70.871 193.856 69.1118C195.2 67.6745 196.457 66.1915 197.688 64.6551C198.719 63.4197 199.813 62.2479 200.917 61.0782C201.77 60.1899 201.77 60.1899 202.425 59.1561C202.629 59.1561 202.832 59.1561 203.042 59.1561C203.124 58.9782 203.207 58.8002 203.292 58.6169C203.667 57.9066 204.059 57.3011 204.582 56.6913C204.785 56.6913 204.989 56.6913 205.198 56.6913C205.281 56.5133 205.364 56.3354 205.449 56.1521C205.824 55.4417 206.216 54.8363 206.739 54.2264C206.942 54.2264 207.146 54.2264 207.355 54.2264C207.355 54.0231 207.355 53.8197 207.355 53.6102C207.558 53.6102 207.762 53.6102 207.971 53.6102C208.067 53.4196 208.162 53.2289 208.26 53.0325C208.472 52.6089 208.684 52.1852 208.896 51.7616C209.099 51.7616 209.302 51.7616 209.512 51.7616C209.512 51.5582 209.512 51.3549 209.512 51.1454C209.715 51.1454 209.919 51.1454 210.128 51.1454C210.211 50.9674 210.293 50.7895 210.378 50.6062C210.753 49.8958 211.146 49.2904 211.669 48.6805C211.872 48.6805 212.075 48.6805 212.285 48.6805C212.367 48.5026 212.45 48.3247 212.535 48.1413C212.91 47.431 213.303 46.8256 213.825 46.2157C214.029 46.2157 214.232 46.2157 214.441 46.2157C214.524 46.0377 214.607 45.8598 214.692 45.6765C215.067 44.9662 215.459 44.3607 215.982 43.7508C216.185 43.7508 216.389 43.7508 216.598 43.7508C216.668 43.5828 216.737 43.4148 216.809 43.2417C217.335 42.3033 218.037 41.5777 218.774 40.8046C219.88 39.6239 220.941 38.4301 221.952 37.1651C223.203 35.6075 224.547 34.1575 225.918 32.706C227.162 31.381 228.297 30.0138 229.388 28.5598C229.54 28.3874 229.691 28.215 229.847 28.0375C230.05 28.0375 230.253 28.0375 230.463 28.0375C230.546 27.8595 230.628 27.6816 230.713 27.4983C231.088 26.7879 231.481 26.1825 232.004 25.5726C232.207 25.5726 232.41 25.5726 232.62 25.5726C232.69 25.4074 232.76 25.2422 232.832 25.0719C233.376 24.0861 234.018 23.3264 234.776 22.4916C234.98 22.4916 235.183 22.4916 235.393 22.4916C235.475 22.3136 235.558 22.1357 235.643 21.9524C236.018 21.242 236.41 20.6366 236.933 20.0267C237.137 20.0267 237.34 20.0267 237.549 20.0267C237.632 19.8488 237.715 19.6708 237.8 19.4875C238.175 18.7772 238.567 18.1717 239.09 17.5619C239.293 17.5619 239.497 17.5619 239.706 17.5619C239.789 17.3839 239.871 17.206 239.956 17.0227C240.331 16.3123 240.724 15.7069 241.247 15.097C241.45 15.097 241.653 15.097 241.863 15.097C241.932 14.9302 242 14.7634 242.071 14.5915C242.609 13.6336 243.327 12.8852 244.077 12.093C244.386 11.7626 244.694 11.4321 245.002 11.1013C245.151 10.9412 245.3 10.7812 245.454 10.6163C245.984 10.0414 246.496 9.45157 247.004 8.85789C250.973 4.32395 255.053 1.72822 260.965 4.62143Z" fill="white"/>
<path d="M517.001 427.342C517.1 427.846 517.1 427.846 517.201 428.361C517.642 430.12 518.496 431.646 519.35 433.235C519.516 433.549 519.682 433.862 519.854 434.186C520.94 436.227 522.07 438.237 523.232 440.236C523.783 441.213 524.286 442.203 524.781 443.21C525.685 445.047 526.646 446.845 527.631 448.64C529.063 451.252 530.481 453.87 531.886 456.497C532.081 456.86 532.276 457.224 532.47 457.588C533.372 459.273 534.273 460.96 535.173 462.647C535.675 463.588 536.178 464.529 536.681 465.47C536.779 465.653 536.876 465.835 536.977 466.023C538.197 468.307 539.44 470.574 540.725 472.821C541.613 474.387 542.413 475.99 543.205 477.606C543.879 478.97 544.6 480.294 545.366 481.607C546.154 482.959 546.891 484.323 547.58 485.728C548.485 487.565 549.446 489.364 550.43 491.159C551.863 493.77 553.281 496.389 554.686 499.015C554.783 499.196 554.88 499.377 554.979 499.563C555.474 500.488 555.968 501.412 556.462 502.336C557.618 504.498 558.776 506.658 559.934 508.819C560.839 510.507 561.743 512.196 562.646 513.887C563.073 514.687 563.501 515.487 563.928 516.288C564.133 516.67 564.337 517.053 564.541 517.436C564.823 517.965 565.106 518.495 565.389 519.024C565.55 519.326 565.711 519.628 565.877 519.938C566.307 520.74 566.307 520.74 566.914 521.623C566.938 522.341 566.941 523.061 566.914 523.779C566.641 523.9 566.368 524.021 566.086 524.145C565.017 524.73 564.372 525.376 563.525 526.244C561.826 527.477 561.826 527.477 561.06 527.477C561.06 527.68 561.06 527.883 561.06 528.093C560.319 528.622 559.578 529.112 558.807 529.595C558.57 529.745 558.333 529.896 558.089 530.051C557.586 530.37 557.082 530.688 556.577 531.006C555.87 531.452 555.166 531.902 554.463 532.355C546.966 537.162 539.276 541.817 531.179 545.543C529.88 546.145 528.602 546.787 527.324 547.431C524.698 548.752 522.041 549.996 519.37 551.22C519.125 551.332 518.88 551.445 518.628 551.56C513.299 554.001 507.927 556.333 502.52 558.595C502.262 558.703 502.004 558.812 501.739 558.923C493.352 562.439 484.908 565.739 476.331 568.763C476.087 568.849 475.843 568.935 475.592 569.024C449.803 578.11 423.463 585.995 337.01 595.953C336.725 595.966 336.439 595.978 336.146 595.991C333.062 596.126 329.987 596.222 326.9 596.184C326.9 596.388 326.9 596.591 326.9 596.8C325.985 596.8 325.07 596.8 324.127 596.8C323.684 595.914 323.771 595.146 323.761 594.154C323.758 593.942 323.756 593.73 323.753 593.511C323.745 592.791 323.739 592.071 323.733 591.351C323.727 590.83 323.722 590.31 323.716 589.789C323.701 588.348 323.688 586.906 323.675 585.464C323.663 584.224 323.651 582.984 323.638 581.745C323.596 577.584 323.558 573.424 323.521 569.264C323.511 568.14 323.501 567.016 323.491 565.892C323.395 555.215 323.306 544.537 323.219 533.859C323.193 530.683 323.167 527.506 323.141 524.329C323.106 520.161 323.072 515.994 323.038 511.826C323.025 510.262 323.012 508.697 322.999 507.132C322.984 505.3 322.969 503.468 322.955 501.636C322.949 500.973 322.944 500.311 322.938 499.648C322.923 497.842 322.91 496.037 322.9 494.231C322.896 493.552 322.892 492.872 322.887 492.192C322.881 491.078 322.876 489.965 322.872 488.852C322.87 488.503 322.867 488.154 322.865 487.795C322.864 487.313 322.864 487.313 322.863 486.821C322.861 486.535 322.86 486.249 322.859 485.955C322.895 485.266 322.895 485.266 323.203 484.65C323.424 484.647 323.646 484.643 323.874 484.64C330.902 484.517 337.856 483.948 344.85 483.268C345.969 483.16 347.089 483.056 348.208 482.952C353.955 482.415 359.691 481.817 365.416 481.079C365.656 481.048 365.896 481.017 366.144 480.985C370.667 480.399 375.186 479.758 379.683 478.999C379.922 478.959 380.16 478.919 380.406 478.878C388.838 477.447 397.184 475.689 405.467 473.558C405.839 473.463 405.839 473.463 406.218 473.366C411.348 472.053 416.451 470.648 421.546 469.206C421.748 469.149 421.95 469.092 422.159 469.033C433.447 465.836 444.42 462.024 455.38 457.845C455.602 457.76 455.825 457.675 456.054 457.588C462.419 455.158 468.745 452.63 474.812 449.52C475.898 448.966 476.999 448.451 478.104 447.939C481.431 446.396 484.641 444.668 487.846 442.888C489.494 441.975 491.15 441.077 492.805 440.177C495.906 438.488 498.983 436.768 502.019 434.964C503.101 434.322 504.186 433.688 505.274 433.056C505.593 432.87 505.913 432.684 506.242 432.493C506.889 432.117 507.536 431.742 508.183 431.367C509.512 430.595 510.836 429.822 512.125 428.984C512.397 428.808 512.397 428.808 512.675 428.629C513.125 428.334 513.572 428.032 514.017 427.73C515.056 427.243 515.868 427.272 517.001 427.342Z" fill="white"/>
<path d="M113.999 436.585C114.711 436.585 115.422 436.585 116.156 436.585C116.257 436.89 116.359 437.195 116.464 437.51C117.236 437.928 117.992 438.294 118.794 438.646C120.333 439.335 121.854 440.047 123.358 440.813C126.405 442.362 129.518 443.73 132.659 445.078C133.686 445.52 134.714 445.963 135.741 446.408C135.989 446.515 136.237 446.622 136.492 446.732C138.442 447.579 140.369 448.468 142.291 449.375C143.641 450.009 145.005 450.603 146.374 451.194C147.514 451.688 148.645 452.196 149.773 452.718C151.788 453.636 153.842 454.45 155.901 455.264C156.726 455.592 157.55 455.92 158.375 456.248C158.582 456.33 158.789 456.412 159.002 456.497C160.671 457.162 162.333 457.842 163.995 458.525C171.331 461.54 178.729 464.278 186.265 466.742C187.834 467.256 189.398 467.781 190.962 468.312C197.509 470.531 204.089 472.61 210.744 474.482C210.951 474.541 211.157 474.599 211.37 474.659C218.775 476.739 226.295 478.047 233.882 479.268C234.736 479.406 235.59 479.545 236.443 479.685C244.494 480.997 252.581 482.004 260.681 482.959C261.453 483.05 262.224 483.142 262.996 483.234C274.001 484.54 284.863 485.055 295.94 485.117C297.658 485.127 299.375 485.139 301.092 485.154C301.879 485.16 302.666 485.163 303.452 485.165C305.94 485.181 308.405 485.276 310.881 485.523C311.115 485.544 311.349 485.565 311.59 485.587C313.184 485.766 313.184 485.766 313.866 486.264C314.398 486.983 314.386 487.428 314.391 488.318C314.395 488.632 314.399 488.946 314.403 489.269C314.403 489.615 314.402 489.961 314.402 490.317C314.405 490.684 314.409 491.05 314.412 491.428C314.42 492.449 314.425 493.469 314.427 494.489C314.431 495.589 314.439 496.69 314.448 497.79C314.463 499.951 314.474 502.112 314.483 504.273C314.493 506.804 314.509 509.335 314.525 511.866C314.554 516.4 314.579 520.935 314.601 525.47C314.622 529.836 314.645 534.201 314.671 538.566C314.673 538.833 314.674 539.099 314.676 539.374C314.683 540.447 314.689 541.52 314.696 542.593C314.737 549.502 314.777 556.41 314.814 563.319C314.815 563.555 314.816 563.791 314.817 564.034C314.831 566.553 314.843 569.073 314.851 571.592C314.854 572.246 314.856 572.901 314.858 573.555C314.859 573.984 314.861 574.412 314.862 574.841C314.871 577.554 314.893 580.266 314.929 582.979C314.948 584.527 314.962 586.075 314.975 587.623C314.983 588.338 314.993 589.053 315.006 589.768C315.023 590.736 315.032 591.703 315.038 592.671C315.045 592.954 315.053 593.238 315.061 593.529C315.06 594.243 315.05 594.874 314.884 595.568C313.604 596.656 312.269 596.837 310.634 596.85C310.34 596.853 310.045 596.856 309.741 596.859C309.422 596.86 309.103 596.861 308.773 596.863C308.271 596.866 308.271 596.866 307.759 596.869C306.661 596.875 305.564 596.877 304.466 596.877C304.09 596.878 303.714 596.878 303.327 596.878C294.598 596.87 286.046 596.202 277.383 595.194C277.102 595.161 276.822 595.128 276.533 595.095C270.166 594.352 263.815 593.502 257.465 592.626C255.923 592.414 254.381 592.203 252.838 591.994C246.381 591.115 239.931 590.196 233.491 589.198C233.212 589.154 232.932 589.111 232.644 589.067C226.443 588.107 220.283 586.952 214.133 585.708C213.842 585.65 213.551 585.591 213.251 585.531C196.854 582.22 181 577.646 165.168 572.269C164.36 571.995 163.551 571.723 162.74 571.453C150.483 567.379 138.613 562.259 126.939 556.747C126.634 556.603 126.328 556.459 126.013 556.31C122.76 554.778 119.517 553.226 116.313 551.594C115.731 551.298 115.149 551.003 114.567 550.708C109.866 548.326 105.238 545.87 100.734 543.127C99.8993 542.618 99.0626 542.112 98.2254 541.607C90.4373 536.907 82.7472 532.089 75.2355 526.957C74.9888 526.788 74.7421 526.62 74.4879 526.446C73.384 525.69 72.2874 524.929 71.2073 524.139C70.2996 523.44 70.2996 523.44 69.3238 523.163C69.2104 521.458 69.5253 520.312 70.3263 518.836C70.4306 518.636 70.5349 518.436 70.6424 518.23C70.9754 517.593 71.3146 516.96 71.6538 516.327C71.8734 515.908 72.0927 515.489 72.3115 515.07C73.4694 512.864 74.6824 510.699 75.9497 508.553C76.5382 507.537 77.0554 506.505 77.5656 505.447C78.511 503.514 79.5235 501.627 80.5696 499.747C81.7027 497.71 82.7829 495.659 83.8083 493.566C84.6999 491.761 85.68 490.011 86.6675 488.257C87.4955 486.778 88.2778 485.286 89.0232 483.764C89.9509 481.871 90.9448 480.022 91.9695 478.18C92.98 476.362 93.9625 474.54 94.8773 472.672C95.8143 470.762 96.8157 468.894 97.8428 467.03C99.319 464.35 100.739 461.644 102.137 458.923C103.63 456.017 105.156 453.133 106.735 450.271C108.278 447.463 109.742 444.615 111.203 441.764C112.101 440.016 113.001 438.279 113.999 436.585Z" fill="white"/>
<path d="M64.0859 532.098C65.1689 532.004 65.769 531.996 66.7072 532.575C67.1063 532.911 67.1063 532.911 67.5135 533.254C71.9046 536.757 77.0411 539.27 81.9764 541.902C84.0488 543.009 86.0869 544.167 88.1181 545.347C95.1991 549.45 102.408 553.312 109.685 557.055C109.96 557.196 110.234 557.338 110.517 557.484C114.553 559.56 118.653 561.452 122.81 563.271C124.136 563.852 125.452 564.448 126.765 565.057C128.863 566.03 130.979 566.959 133.101 567.877C133.299 567.962 133.496 568.048 133.7 568.136C140.704 571.162 147.751 574.052 154.904 576.709C155.776 577.035 156.645 577.366 157.514 577.7C161.292 579.136 165.139 580.347 168.996 581.549C169.384 581.671 169.384 581.671 169.78 581.795C177.519 584.217 185.395 586.182 193.257 588.157C194.061 588.358 194.863 588.562 195.665 588.766C207.196 591.705 218.833 593.991 230.572 595.919C231.503 596.072 232.434 596.226 233.365 596.38C243.281 598.022 253.212 599.558 263.156 601.023C264.143 601.169 265.13 601.315 266.117 601.461C280.214 603.543 294.237 605.491 308.507 605.568C309.543 605.575 310.58 605.587 311.616 605.599C311.932 605.6 312.248 605.6 312.573 605.6C312.864 605.604 313.154 605.608 313.454 605.612C313.708 605.614 313.963 605.615 314.226 605.617C315.039 605.764 315.315 606.006 315.808 606.66C315.894 607.419 315.894 607.419 315.853 608.336C315.839 608.683 315.825 609.03 315.811 609.387C315.791 609.764 315.771 610.142 315.75 610.53C315.724 611.114 315.724 611.114 315.697 611.71C315.658 612.554 315.615 613.398 315.57 614.242C315.508 615.41 315.455 616.579 315.404 617.748C315.361 618.703 315.314 619.659 315.265 620.614C315.242 621.079 315.22 621.545 315.2 622.01C315.17 622.664 315.135 623.318 315.098 623.973C315.079 624.348 315.06 624.724 315.04 625.111C314.869 626.159 314.691 626.55 313.959 627.303C313.252 627.459 313.252 627.459 312.402 627.462C311.915 627.468 311.915 627.468 311.42 627.475C311.062 627.473 310.705 627.471 310.337 627.47C309.958 627.473 309.579 627.476 309.188 627.479C308.134 627.486 307.079 627.488 306.025 627.487C304.889 627.487 303.754 627.495 302.618 627.502C300.385 627.514 298.152 627.52 295.919 627.523C293.273 627.528 290.626 627.539 287.98 627.551C282.406 627.575 276.832 627.59 271.257 627.602C270.981 627.602 270.704 627.603 270.419 627.604C270.144 627.604 269.869 627.605 269.585 627.605C266.721 627.612 263.857 627.62 260.993 627.628C248.262 627.666 235.532 627.687 222.802 627.703C218.916 627.707 215.031 627.712 211.146 627.718C210.863 627.718 210.58 627.719 210.288 627.719C209.138 627.721 207.987 627.722 206.837 627.724C196.499 627.739 186.161 627.753 175.823 627.766C166.203 627.778 156.584 627.791 146.965 627.804C146.519 627.805 146.519 627.805 146.065 627.806C144.568 627.808 143.07 627.81 141.573 627.812C141.277 627.812 140.981 627.813 140.676 627.813C140.079 627.814 139.482 627.815 138.885 627.816C129.229 627.829 119.573 627.843 109.917 627.856C107.139 627.859 104.361 627.863 101.583 627.867C98.6476 627.871 95.7127 627.875 92.7778 627.879C91.9922 627.88 91.2067 627.881 90.4212 627.882C84.8652 627.89 79.3093 627.896 73.7534 627.901C72.0533 627.902 70.3533 627.904 68.6532 627.905C67.9325 627.906 67.2119 627.906 66.4912 627.907C60.5819 627.912 54.6727 627.922 48.7634 627.941C44.8211 627.954 40.8788 627.963 36.9364 627.971C34.4031 627.976 31.8697 627.984 29.3364 627.995C27.4422 628.004 25.548 628.007 23.6538 628.009C22.8803 628.011 22.1068 628.014 21.3332 628.019C20.2846 628.025 19.2362 628.026 18.1876 628.025C17.7259 628.03 17.7259 628.03 17.2549 628.035C16.9768 628.033 16.6988 628.032 16.4123 628.031C16.1714 628.031 15.9305 628.032 15.6823 628.033C15.4892 627.995 15.2961 627.958 15.0971 627.919C14.7921 627.462 14.7921 627.462 14.4809 626.995C13.8464 626.772 13.8464 626.772 13.2485 626.687C12.9783 624.661 13.7259 623.445 14.7473 621.732C15.3335 620.742 15.903 619.742 16.4742 618.743C16.794 618.185 17.1151 617.627 17.4377 617.07C18.3409 615.503 19.1817 613.919 19.9805 612.296C20.4677 611.325 21.0019 610.391 21.5481 609.452C23.2437 606.531 24.8299 603.555 26.3815 600.555C28.0676 597.31 29.8086 594.097 31.5675 590.891C32.3919 589.384 33.209 587.874 34.0263 586.363C34.1925 586.056 34.3587 585.749 34.5299 585.433C35.0361 584.498 35.5422 583.563 36.0483 582.628C38.1444 578.754 40.2434 574.882 42.3544 571.016C43.6944 568.561 45.027 566.102 46.3578 563.642C46.8236 562.781 47.2899 561.921 47.7563 561.06C47.9198 560.758 48.0833 560.456 48.2518 560.144C48.4127 559.848 48.5737 559.551 48.7396 559.245C48.8832 558.98 49.0268 558.715 49.1747 558.442C49.6148 557.653 50.0767 556.881 50.5485 556.111C51.142 555.134 51.6842 554.154 52.1853 553.126C52.9818 551.495 53.8826 549.931 54.7934 548.362C56.1517 546.001 57.4255 543.595 58.6754 541.176C62.8309 533.133 62.8309 533.133 64.0859 532.714C64.0859 532.511 64.0859 532.308 64.0859 532.098Z" fill="white"/>
<path d="M572.152 532.098C572.27 532.318 572.387 532.538 572.509 532.765C573.057 533.788 573.605 534.811 574.154 535.834C574.303 536.11 574.303 536.11 574.454 536.393C575.549 538.429 576.65 540.459 577.813 542.458C578.617 543.846 579.359 545.255 580.066 546.695C581.402 549.412 582.852 552.064 584.3 554.722C585.468 556.867 586.619 559.021 587.769 561.176C589.057 563.588 590.357 565.993 591.697 568.378C592.717 570.194 593.671 572.033 594.589 573.903C596.491 577.745 598.609 581.482 600.729 585.208C601.606 586.752 602.43 588.312 603.213 589.906C605.207 593.967 607.427 597.914 609.664 601.845C610.541 603.39 611.365 604.95 612.148 606.544C614.241 610.806 616.583 614.942 618.931 619.068C619.886 620.759 620.758 622.488 621.611 624.234C622.047 625.218 622.047 625.218 622.681 626.07C622.694 626.789 622.694 627.508 622.681 628.227C620.984 629.296 619.546 629.279 617.608 629.262C617.119 629.263 617.119 629.263 616.621 629.264C615.525 629.265 614.429 629.259 613.333 629.253C612.544 629.253 611.755 629.252 610.966 629.252C609.025 629.251 607.084 629.245 605.143 629.238C603.529 629.231 601.916 629.227 600.302 629.224C599.953 629.224 599.953 629.224 599.596 629.223C599.245 629.222 599.245 629.222 598.887 629.222C592.337 629.21 585.788 629.183 579.238 629.151C578.988 629.15 578.739 629.149 578.481 629.148C563.852 629.076 549.224 628.971 534.595 628.86C528.444 628.813 522.294 628.768 516.143 628.724C513.097 628.702 510.051 628.68 507.005 628.658C506.549 628.654 506.549 628.654 506.083 628.651C498.934 628.599 491.785 628.546 484.635 628.493C484.325 628.491 484.014 628.489 483.694 628.486C480.55 628.463 477.406 628.439 474.261 628.416C467.642 628.367 461.023 628.318 454.403 628.269C454.092 628.267 453.781 628.264 453.461 628.262C446.307 628.209 439.153 628.156 432 628.104C431.696 628.102 431.392 628.1 431.079 628.098C428.042 628.076 425.004 628.054 421.966 628.032C415.834 627.987 409.701 627.943 403.568 627.896C397.578 627.851 391.588 627.806 385.598 627.763C384.558 627.756 383.519 627.748 382.48 627.741C371.652 627.662 360.825 627.598 349.997 627.611C349.33 627.612 348.664 627.612 347.997 627.613C343.895 627.618 339.793 627.625 335.691 627.643C334.255 627.649 332.819 627.653 331.383 627.656C330.724 627.658 330.065 627.661 329.406 627.666C328.518 627.672 327.63 627.674 326.742 627.675C326.353 627.68 326.353 627.68 325.956 627.684C324.197 627.681 324.197 627.681 323.511 626.995C323.427 626.192 323.427 626.192 323.417 625.162C323.412 624.778 323.407 624.393 323.402 623.997C323.399 623.575 323.397 623.153 323.394 622.732C323.389 622.3 323.384 621.869 323.378 621.438C323.364 620.3 323.353 619.163 323.343 618.026C323.328 616.208 323.307 614.39 323.285 612.572C323.278 611.937 323.273 611.302 323.269 610.667C323.264 610.281 323.26 609.894 323.256 609.496C323.253 609.156 323.25 608.815 323.247 608.465C323.246 607.606 323.246 607.606 322.968 606.925C322.894 606.352 322.894 606.352 323.381 605.668C324.295 604.996 324.764 604.964 325.89 604.961C326.248 604.957 326.605 604.952 326.974 604.948C327.362 604.95 327.751 604.951 328.151 604.953C328.773 604.948 329.396 604.943 330.018 604.937C330.679 604.933 331.341 604.931 332.003 604.93C334.071 604.926 336.139 604.902 338.207 604.88C338.899 604.872 339.59 604.866 340.281 604.859C368.276 604.579 396.973 601.53 482.493 576.465C482.845 576.323 483.196 576.18 483.559 576.033C492.669 572.332 501.647 568.355 510.531 564.141C510.864 563.983 511.198 563.825 511.542 563.662C517.885 560.656 524.199 557.57 530.397 554.273C531.94 553.453 533.49 552.648 535.044 551.851C535.252 551.744 535.461 551.637 535.675 551.527C537.357 550.663 537.357 550.663 538.194 550.236C540.534 549.041 542.84 547.808 545.114 546.493C546.366 545.77 547.627 545.107 548.928 544.48C551.67 543.138 554.331 541.656 556.998 540.173C557.848 539.702 558.703 539.241 559.558 538.78C561.63 537.645 563.636 536.471 565.56 535.096C565.817 534.914 566.074 534.732 566.339 534.545C566.856 534.177 567.37 533.805 567.88 533.429C569.384 532.362 570.298 531.855 572.152 532.098Z" fill="white"/>
<path d="M621.969 333.794C622.204 333.857 622.439 333.921 622.681 333.986C623.053 335.1 623.033 336.117 623.031 337.277C623.032 337.521 623.033 337.766 623.034 338.018C623.036 338.844 623.036 339.671 623.036 340.497C623.037 341.093 623.039 341.689 623.04 342.284C623.044 343.927 623.045 345.569 623.047 347.212C623.049 348.981 623.052 350.75 623.056 352.52C623.061 355.587 623.066 358.655 623.07 361.722C623.075 366.159 623.083 370.596 623.091 375.033C623.095 377.099 623.099 379.165 623.102 381.231C623.103 381.438 623.103 381.645 623.103 381.858C623.112 386.783 623.12 391.708 623.127 396.633C623.128 396.957 623.128 396.957 623.128 397.287C623.134 400.565 623.139 403.844 623.144 407.123C623.149 410.618 623.154 414.114 623.16 417.609C623.16 417.932 623.16 417.932 623.161 418.261C623.168 423.177 623.176 428.092 623.185 433.007C623.185 433.214 623.186 433.42 623.186 433.633C623.19 435.898 623.194 438.164 623.198 440.429C623.206 444.856 623.213 449.283 623.219 453.71C623.223 456.742 623.228 459.774 623.234 462.807C623.237 464.558 623.24 466.309 623.241 468.06C623.243 469.662 623.245 471.263 623.249 472.865C623.25 473.446 623.251 474.027 623.251 474.607C623.251 475.394 623.253 476.181 623.256 476.968C623.255 477.196 623.255 477.423 623.254 477.658C623.259 478.564 623.295 479.402 623.48 480.29C623.606 480.953 623.606 480.953 623.201 481.665C623.03 481.837 622.858 482.008 622.681 482.185C622.478 482.185 622.275 482.185 622.065 482.185C622.065 482.388 622.065 482.592 622.065 482.801C621.862 482.801 621.658 482.801 621.449 482.801C621.449 483.005 621.449 483.208 621.449 483.417C621.246 483.417 621.042 483.417 620.833 483.417C620.833 483.621 620.833 483.824 620.833 484.034C620.629 484.034 620.426 484.034 620.217 484.034C620.217 484.237 620.217 484.44 620.217 484.65C620.013 484.65 619.81 484.65 619.6 484.65C619.6 484.853 619.6 485.057 619.6 485.266C619.397 485.266 619.194 485.266 618.984 485.266C618.984 485.469 618.984 485.673 618.984 485.882C618.521 486.338 618.521 486.338 617.886 486.864C617.035 487.587 616.221 488.319 615.441 489.117C614.533 490.039 613.583 490.89 612.603 491.734C611.917 492.335 611.247 492.951 610.578 493.571C608.717 495.298 606.797 496.93 604.811 498.515C604.538 498.744 604.264 498.973 603.982 499.209C603.271 499.747 603.271 499.747 602.655 499.747C602.655 499.95 602.655 500.154 602.655 500.363C602.137 500.828 602.137 500.828 601.461 501.326C601.239 501.492 601.017 501.658 600.789 501.829C600.19 502.212 600.19 502.212 599.573 502.212C599.573 502.415 599.573 502.619 599.573 502.828C598.884 503.375 598.196 503.886 597.474 504.388C597.276 504.529 597.079 504.671 596.875 504.817C596.017 505.422 595.341 505.882 594.336 506.217C594.336 506.421 594.336 506.624 594.336 506.833C593.751 507.298 593.751 507.298 592.988 507.796C592.737 507.962 592.487 508.128 592.229 508.299C591.563 508.682 591.563 508.682 590.947 508.682C590.947 508.885 590.947 509.089 590.947 509.298C590.311 509.789 590.311 509.789 589.406 510.377C589.069 510.595 588.732 510.814 588.384 511.04C588.006 511.281 587.628 511.522 587.249 511.763C587.053 511.889 586.857 512.015 586.655 512.145C584.514 513.517 582.354 514.857 580.144 516.115C579.841 516.287 579.539 516.46 579.228 516.637C578.152 517.065 577.305 517.067 576.157 517.001C575.989 516.702 575.821 516.404 575.648 516.096C575.482 515.8 575.482 515.8 575.312 515.499C575.063 515.056 574.815 514.613 574.566 514.17C573.937 513.051 573.307 511.934 572.67 510.82C571.541 508.842 570.455 506.858 569.456 504.811C568.455 502.763 567.353 500.782 566.221 498.803C564.689 496.124 563.23 493.416 561.814 490.673C560.632 488.389 559.413 486.128 558.177 483.873C556.97 481.673 555.778 479.466 554.59 477.255C551.954 472.353 549.304 467.461 546.567 462.614C545.463 460.654 544.372 458.691 543.383 456.67C542.577 455.035 541.664 453.467 540.745 451.894C540.104 450.776 539.539 449.624 538.968 448.469C538.328 447.199 537.638 445.957 536.951 444.712C535.243 441.6 533.575 438.468 531.915 435.331C530.324 432.326 528.717 429.332 527.066 426.36C525.001 422.616 525.001 422.616 525.031 421.238C525.32 420.564 525.32 420.564 525.956 420.159C526.153 420.09 526.349 420.02 526.552 419.948C526.552 419.744 526.552 419.541 526.552 419.331C527.089 418.931 527.645 418.557 528.209 418.195C529.389 417.428 530.563 416.659 531.713 415.846C532.815 415.069 533.924 414.301 535.036 413.539C543.176 407.963 551.085 402.081 558.91 396.075C559.48 395.638 560.05 395.202 560.621 394.767C563.629 392.47 566.547 390.075 569.43 387.622C570.479 386.731 571.541 385.859 572.614 384.997C574.146 383.756 575.586 382.431 577.008 381.067C578.249 379.894 578.249 379.894 578.93 379.894C578.93 379.691 578.93 379.487 578.93 379.278C579.415 378.8 579.415 378.8 580.067 378.257C580.84 377.603 581.583 376.95 582.281 376.216C582.936 375.58 582.936 375.58 583.552 375.58C583.552 375.377 583.552 375.174 583.552 374.964C583.929 374.595 583.929 374.595 584.496 374.136C585.886 372.957 587.174 371.688 588.462 370.4C588.67 370.194 588.878 369.987 589.093 369.774C589.288 369.579 589.483 369.383 589.684 369.181C589.948 368.916 589.948 368.916 590.218 368.646C590.669 368.194 590.669 368.194 590.947 367.57C591.15 367.57 591.353 367.57 591.563 367.57C591.563 367.366 591.563 367.163 591.563 366.954C591.766 366.954 591.969 366.954 592.179 366.954C592.245 366.786 592.312 366.618 592.38 366.446C592.938 365.472 593.706 364.757 594.509 363.988C595.638 362.959 595.638 362.959 596.492 361.716C596.696 361.716 596.899 361.716 597.109 361.716C597.191 361.536 597.274 361.357 597.359 361.172C597.729 360.475 598.137 359.927 598.649 359.328C598.808 359.139 598.967 358.95 599.131 358.755C599.573 358.327 599.573 358.327 600.19 358.327C600.19 358.123 600.19 357.92 600.19 357.71C600.393 357.71 600.596 357.71 600.806 357.71C600.876 357.545 600.946 357.38 601.018 357.21C601.562 356.224 602.204 355.464 602.963 354.629C603.166 354.629 603.369 354.629 603.579 354.629C603.678 354.382 603.678 354.382 603.78 354.13C604.347 353.129 605.119 352.354 605.909 351.529C607.773 349.547 609.598 347.522 611.165 345.291C611.305 345.119 611.445 344.947 611.59 344.77C611.793 344.77 611.996 344.77 612.206 344.77C612.301 344.579 612.396 344.389 612.495 344.192C612.706 343.769 612.918 343.345 613.13 342.921C613.333 342.921 613.537 342.921 613.746 342.921C613.828 342.744 613.909 342.566 613.992 342.383C614.382 341.652 614.824 341.078 615.355 340.444C615.547 340.215 615.738 339.985 615.935 339.749C616.134 339.512 616.333 339.275 616.539 339.031C616.934 338.559 617.329 338.087 617.724 337.614C617.899 337.405 618.074 337.197 618.255 336.982C618.697 336.462 618.697 336.462 618.984 335.835C619.187 335.835 619.391 335.835 619.6 335.835C619.683 335.593 619.766 335.352 619.851 335.103C620.344 334.012 620.751 333.624 621.969 333.794Z" fill="white"/>
<path d="M11.3999 356.786C12.2544 357.536 12.2544 357.536 13.056 358.461C13.4599 358.918 13.4599 358.918 13.872 359.384C14.481 360.175 14.481 360.175 14.481 360.791C14.6843 360.791 14.8877 360.791 15.0972 360.791C16.6377 362.479 16.6377 362.479 16.6377 363.256C16.841 363.256 17.0444 363.256 17.2539 363.256C17.7859 363.774 17.7859 363.774 18.3708 364.45C18.5654 364.672 18.76 364.893 18.9605 365.122C19.4106 365.721 19.4106 365.721 19.4106 366.337C19.614 366.337 19.8173 366.337 20.0269 366.337C20.5263 366.844 20.5263 366.844 21.086 367.512C21.8673 368.44 21.8673 368.44 22.7144 369.306C23.1079 369.726 23.1079 369.726 23.1079 370.343C23.3113 370.343 23.5146 370.343 23.7241 370.343C23.7241 370.546 23.7241 370.749 23.7241 370.959C23.9275 370.959 24.1308 370.959 24.3403 370.959C24.7498 371.374 24.7498 371.374 25.2394 371.971C26.5881 373.557 28.0481 375.021 29.5219 376.489C29.9882 376.953 30.4527 377.419 30.9171 377.886C31.214 378.183 31.5111 378.479 31.8083 378.776C32.2088 379.176 32.2088 379.176 32.6174 379.584C33.2245 380.213 33.2245 380.213 33.8916 380.51C33.8916 380.714 33.8916 380.917 33.8916 381.126C34.095 381.126 34.2983 381.126 34.5078 381.126C34.5078 381.33 34.5078 381.533 34.5078 381.743C34.6818 381.815 34.8557 381.888 35.035 381.963C35.9007 382.449 36.4785 383.049 37.1652 383.765C38.0543 384.728 38.0543 384.728 39.1294 385.44C39.1294 385.643 39.1294 385.847 39.1294 386.056C39.2946 386.126 39.4598 386.196 39.6301 386.268C40.6159 386.813 41.3756 387.454 42.2105 388.213C42.2105 388.416 42.2105 388.619 42.2105 388.829C42.3828 388.902 42.5552 388.976 42.7328 389.052C43.6018 389.533 44.2242 390.128 44.9449 390.812C46.5961 392.34 48.3253 393.727 50.1032 395.103C50.9928 395.792 51.8609 396.503 52.7246 397.225C58.4074 401.898 64.4807 406.144 70.558 410.285C71.6247 411.013 72.6887 411.745 73.7528 412.476C73.9611 412.619 74.1695 412.763 74.3842 412.91C76.3907 414.291 78.3871 415.684 80.3722 417.095C83.0461 418.994 85.7414 420.85 88.4788 422.655C89.0424 423.029 89.603 423.406 90.163 423.786C96.7688 428.554 96.7688 428.554 104.076 431.905C104.756 432.272 104.756 432.272 105.066 433.124C105.063 434.344 104.76 434.873 104.101 435.892C103.231 437.259 102.484 438.641 101.77 440.092C101.117 441.4 100.414 442.679 99.7106 443.961C99.5527 444.249 99.3948 444.538 99.2321 444.836C97.9645 447.15 96.6814 449.455 95.3972 451.76C93.4644 455.228 91.5713 458.716 89.696 462.216C88.3129 464.796 86.9081 467.363 85.48 469.919C84.2294 472.162 83.0028 474.418 81.7827 476.678C80.6825 478.716 79.5768 480.749 78.4321 482.763C76.9918 485.297 75.6177 487.867 74.2409 490.436C73.233 492.316 72.2149 494.189 71.1724 496.05C69.2739 499.448 67.4034 502.859 65.5549 506.285C64.4594 508.311 63.3483 510.327 62.2035 512.326C61.7796 513.07 61.3631 513.806 61.0183 514.59C60.9189 514.814 60.8196 515.037 60.7172 515.268C60.6317 515.474 60.5461 515.679 60.458 515.891C60.0806 516.385 60.0806 516.385 59.3766 516.665C58.271 516.702 57.7759 516.372 56.8431 515.785C56.5165 515.582 56.19 515.38 55.8536 515.171C55.5037 514.946 55.1539 514.722 54.8043 514.498C54.443 514.27 54.0816 514.043 53.72 513.815C50.8748 512.02 48.0855 510.144 45.3299 508.214C44.6944 507.771 44.0557 507.333 43.4152 506.897C37.8073 503.08 32.306 499.125 27.1506 494.71C26.2718 493.959 25.3757 493.231 24.4751 492.506C22.9379 491.256 21.4821 489.935 20.0329 488.585C19.3423 487.944 18.6355 487.325 17.9219 486.709C16.5679 485.529 15.2891 484.282 14.0188 483.013C13.6828 482.683 13.6828 482.683 13.34 482.346C13.0231 482.03 13.0231 482.03 12.6997 481.707C12.5089 481.518 12.318 481.328 12.1214 481.133C11.708 480.644 11.708 480.644 11.708 480.028C11.5047 480.028 11.3013 480.028 11.0918 480.028C11.0918 479.825 11.0918 479.622 11.0918 479.412C10.8885 479.412 10.6851 479.412 10.4756 479.412C9.22461 478.511 8.42177 477.511 8.14237 475.981C8.10265 474.785 8.13043 473.6 8.18052 472.405C8.19143 471.943 8.20114 471.48 8.20974 471.017C8.22918 470.022 8.25385 469.026 8.28176 468.031C8.34388 465.653 8.3381 463.274 8.34077 460.895C8.3433 459.453 8.35082 458.011 8.35796 456.569C8.36082 455.963 8.36368 455.357 8.36653 454.751C8.36799 454.445 8.36945 454.138 8.37095 453.822C8.37707 452.527 8.38303 451.233 8.38899 449.938C8.40668 446.106 8.42489 442.273 8.44328 438.441C8.45195 436.635 8.46053 434.829 8.46909 433.023C8.58958 407.61 8.74263 382.198 8.93506 356.786C9.86773 356.32 10.4065 356.507 11.3999 356.786Z" fill="white"/>
<path d="M582.627 96.1291C584.326 97.6227 585.59 99.3465 586.614 101.354C586.924 101.951 587.268 102.49 587.653 103.042C588.173 103.832 588.173 103.832 588.173 104.448C588.377 104.448 588.58 104.448 588.79 104.448C589.192 105.016 589.192 105.016 589.675 105.834C590.615 107.357 591.633 108.784 592.718 110.206C593.962 111.841 595.165 113.494 596.319 115.193C597.524 116.966 598.757 118.715 600.016 120.45C602.102 123.324 604.149 126.224 606.191 129.129C608.111 131.859 610.048 134.575 612.007 137.277C613.188 138.909 614.338 140.559 615.479 142.22C616.371 143.508 617.294 144.774 618.214 146.042C619.436 147.73 620.657 149.419 621.853 151.126C622.185 151.598 622.185 151.598 622.523 152.079C622.989 152.821 622.989 152.821 622.989 153.437C623.193 153.437 623.396 153.437 623.605 153.437C623.959 154.145 623.953 154.539 623.956 155.327C623.957 155.6 623.958 155.873 623.96 156.155C623.96 156.461 623.959 156.768 623.959 157.084C623.96 157.582 623.96 157.582 623.962 158.089C623.963 159.247 623.962 160.406 623.961 161.564C623.96 161.984 623.96 162.405 623.96 162.825C623.949 177.705 623.717 192.584 623.527 207.463C623.486 210.694 623.446 213.925 623.407 217.156C623.361 220.963 623.315 224.769 623.267 228.576C623.242 230.572 623.217 232.568 623.193 234.564C623.17 236.431 623.147 238.298 623.122 240.165C623.114 240.842 623.105 241.518 623.097 242.195C623.042 246.916 622.892 251.628 622.681 256.344C622.071 256.446 621.461 256.547 620.833 256.652C620.731 256.347 620.629 256.042 620.524 255.728C620.321 255.728 620.118 255.728 619.908 255.728C619.343 254.988 618.814 254.244 618.291 253.475C617.957 252.992 617.622 252.51 617.287 252.028C617.111 251.775 616.936 251.523 616.755 251.262C615.862 249.995 614.939 248.75 614.016 247.505C612.654 245.666 611.304 243.82 609.979 241.955C608.886 240.417 607.783 238.886 606.679 237.357C606.508 237.119 606.336 236.882 606.16 236.637C605.998 236.413 605.836 236.189 605.669 235.958C605.454 235.661 605.454 235.661 605.235 235.357C604.93 234.94 604.616 234.53 604.295 234.125C603.887 233.544 603.887 233.544 603.887 232.928C603.683 232.928 603.48 232.928 603.271 232.928C602.469 231.851 601.869 230.805 601.422 229.539C601.219 229.539 601.015 229.539 600.806 229.539C600.234 228.792 599.698 228.043 599.169 227.267C598.833 226.782 598.497 226.298 598.16 225.814C597.986 225.563 597.813 225.312 597.633 225.053C596.811 223.875 595.969 222.711 595.125 221.547C594.788 221.082 594.451 220.617 594.114 220.151C593.947 219.92 593.78 219.69 593.607 219.452C593.108 218.761 592.609 218.07 592.111 217.378C590.202 214.726 588.275 212.088 586.332 209.46C585.152 207.861 583.991 206.251 582.843 204.629C581.683 202.999 580.482 201.401 579.272 199.808C576.773 196.506 576.773 196.506 576.773 195.647C576.57 195.647 576.367 195.647 576.157 195.647C575.586 194.901 575.05 194.151 574.52 193.375C574.184 192.89 573.848 192.405 573.511 191.921C573.25 191.545 573.25 191.545 572.984 191.16C572.167 189.989 571.333 188.831 570.496 187.675C570.331 187.447 570.166 187.219 569.997 186.985C568.574 185.02 567.133 183.068 565.691 181.117C564.488 179.487 563.304 177.846 562.132 176.194C561.094 174.735 560.022 173.303 558.944 171.874C557.886 170.465 556.854 169.038 555.822 167.61C555.608 167.313 555.608 167.313 555.389 167.01C553.865 164.901 552.341 162.792 550.82 160.68C549.111 158.307 547.392 155.943 545.655 153.591C544.214 151.64 542.781 149.683 541.361 147.718C541.11 147.372 541.11 147.372 540.855 147.019C539.801 145.559 538.774 144.083 537.787 142.576C537.281 141.971 536.827 141.719 536.104 141.421C536.206 139.596 536.739 138.678 538.01 137.435C538.32 137.116 538.629 136.798 538.937 136.478C539.086 136.324 539.235 136.17 539.388 136.011C540.107 135.236 540.707 134.382 541.304 133.511C541.418 133.376 541.532 133.241 541.649 133.102C541.853 133.102 542.056 133.102 542.266 133.102C542.348 132.924 542.431 132.746 542.516 132.563C542.891 131.852 543.283 131.247 543.806 130.637C544.01 130.637 544.213 130.637 544.422 130.637C544.518 130.446 544.613 130.256 544.711 130.059C544.923 129.636 545.135 129.212 545.347 128.788C545.55 128.788 545.753 128.788 545.963 128.788C546.046 128.61 546.128 128.432 546.213 128.249C546.588 127.539 546.981 126.933 547.503 126.323C547.707 126.323 547.91 126.323 548.12 126.323C548.215 126.133 548.31 125.942 548.408 125.746C548.62 125.322 548.832 124.898 549.044 124.475C549.247 124.475 549.451 124.475 549.66 124.475C549.743 124.297 549.825 124.119 549.91 123.936C550.285 123.225 550.678 122.62 551.201 122.01C551.404 122.01 551.607 122.01 551.817 122.01C551.931 121.755 551.931 121.755 552.048 121.495C552.508 120.639 553.061 119.921 553.666 119.16C553.882 118.885 554.098 118.61 554.32 118.327C554.511 118.119 554.702 117.911 554.898 117.697C555.101 117.697 555.305 117.697 555.514 117.697C555.629 117.442 555.629 117.442 555.745 117.181C556.205 116.325 556.758 115.607 557.363 114.847C557.579 114.572 557.795 114.297 558.018 114.014C558.208 113.806 558.399 113.597 558.595 113.383C558.799 113.383 559.002 113.383 559.211 113.383C559.287 113.209 559.363 113.034 559.441 112.855C559.894 112.03 560.437 111.433 561.079 110.745C562.086 109.648 563.052 108.534 563.987 107.375C565.097 106.003 566.257 104.691 567.446 103.388C568.442 102.267 569.381 101.103 570.32 99.9335C571.283 98.7711 571.283 98.7711 571.844 98.2859C572.047 98.2859 572.25 98.2859 572.46 98.2859C572.46 98.0825 572.46 97.8792 572.46 97.6697C575.479 95.4344 579.14 94.193 582.627 96.1291Z" fill="white"/>
<path d="M63.2002 137.762C65.2224 139.08 66.6337 140.332 67.4752 142.653C67.4752 142.856 67.4752 143.059 67.4752 143.269C67.6785 143.269 67.8819 143.269 68.0914 143.269C68.3734 143.67 68.6512 144.075 68.9134 144.489C69.4283 145.278 69.9812 146.033 70.537 146.793C70.7495 147.084 70.962 147.376 71.1809 147.676C71.5493 148.18 71.9188 148.682 72.2905 149.183C73.3292 150.598 73.3292 150.598 73.3292 151.28C73.5325 151.28 73.7359 151.28 73.9454 151.28C74.41 151.865 74.41 151.865 74.9082 152.628C75.0742 152.878 75.2403 153.128 75.4113 153.386C75.794 154.053 75.794 154.053 75.794 154.669C75.9974 154.669 76.2007 154.669 76.4102 154.669C77.4473 155.703 77.9307 156.573 78.0471 158.039C77.9994 158.506 77.9994 158.506 77.9508 158.982C77.7474 158.982 77.5441 158.982 77.3346 158.982C77.2551 159.199 77.1756 159.415 77.0937 159.638C76.6837 160.605 76.1888 161.458 75.6424 162.355C75.5371 162.528 75.4319 162.701 75.3234 162.88C74.9808 163.443 74.6365 164.005 74.292 164.567C74.0518 164.961 73.8117 165.354 73.5716 165.748C72.146 168.083 70.6968 170.401 69.2243 172.707C67.516 175.397 65.8922 178.139 64.2648 180.879C63.0393 182.938 61.7826 184.971 60.4785 186.981C59.3124 188.784 58.2107 190.623 57.1151 192.47C55.8546 194.591 54.5751 196.695 53.2434 198.772C52.3049 200.254 51.4024 201.758 50.4964 203.26C48.8574 205.976 47.2083 208.685 45.5034 211.36C44.1182 213.535 42.7813 215.734 41.4609 217.949C39.5286 221.184 37.532 224.38 35.5414 227.581C33.5502 230.783 31.5812 233.997 29.6495 237.236C28.7968 238.661 27.9246 240.067 27.0171 241.458C25.511 243.771 24.1044 246.142 22.6972 248.516C21.6946 250.201 20.6675 251.865 19.5985 253.508C18.6079 255.033 17.6638 256.578 16.7485 258.149C16.6313 258.349 16.514 258.55 16.3932 258.756C15.9149 259.573 15.4371 260.391 14.9658 261.212C14.614 261.824 14.2568 262.432 13.8985 263.04C13.7416 263.318 13.7416 263.318 13.5814 263.602C13.1019 264.407 12.703 264.928 11.8986 265.419C10.9322 265.62 10.2061 265.46 9.24326 265.279C8.98589 262.088 8.84899 258.904 8.75876 255.705C8.74362 255.192 8.72839 254.678 8.7131 254.165C8.67215 252.783 8.63236 251.401 8.59284 250.018C8.55952 248.856 8.52561 247.695 8.49172 246.533C8.41156 243.785 8.33234 241.037 8.25373 238.29C8.17322 235.476 8.09124 232.663 8.00851 229.849C7.93704 227.417 7.86645 224.985 7.79655 222.552C7.75502 221.107 7.71319 219.662 7.67051 218.217C7.49117 212.13 7.33312 206.051 7.39463 199.96C7.59798 199.96 7.80133 199.96 8.01084 199.96C8.09643 199.78 8.18202 199.6 8.2702 199.415C8.84322 198.312 9.58906 197.342 10.3216 196.34C10.5522 196.018 10.5522 196.018 10.7874 195.689C10.9355 195.486 11.0837 195.283 11.2363 195.074C11.4386 194.795 11.4386 194.795 11.6449 194.511C11.7674 194.378 11.89 194.244 12.0162 194.106C12.2196 194.106 12.4229 194.106 12.6324 194.106C12.7186 193.925 12.8048 193.743 12.8937 193.556C13.2216 192.926 13.5721 192.393 13.9984 191.827C14.1457 191.631 14.293 191.435 14.4448 191.233C14.6029 191.024 14.761 190.816 14.924 190.602C15.0892 190.383 15.2545 190.163 15.4248 189.938C16.5985 188.387 17.7963 186.857 19.008 185.336C19.8581 184.261 20.6783 183.168 21.4844 182.06C21.6803 181.791 21.8761 181.522 22.0779 181.245C22.4648 180.711 22.8499 180.175 23.233 179.639C23.4082 179.397 23.5834 179.155 23.7639 178.906C23.9198 178.688 24.0758 178.47 24.2364 178.246C24.4404 178.014 24.4404 178.014 24.6485 177.777C24.8519 177.777 25.0552 177.777 25.2647 177.777C25.3414 177.607 25.4181 177.438 25.497 177.263C25.9547 176.406 26.504 175.679 27.0941 174.908C27.9326 173.806 28.7622 172.702 29.5686 171.577C29.7207 171.366 29.8729 171.155 30.0296 170.937C30.3294 170.52 30.6277 170.101 30.9243 169.681C31.2823 169.185 31.661 168.704 32.0431 168.226C32.2464 168.226 32.4498 168.226 32.6593 168.226C32.8118 167.615 32.8118 167.615 32.9674 166.993C33.1707 166.993 33.3741 166.993 33.5836 166.993C33.6602 166.824 33.7369 166.654 33.8159 166.479C34.2735 165.623 34.8228 164.895 35.413 164.124C36.2515 163.023 37.0811 161.919 37.8874 160.794C38.0396 160.582 38.1917 160.371 38.3485 160.153C38.6482 159.736 38.9465 159.317 39.2431 158.898C39.6012 158.401 39.9798 157.92 40.3619 157.442C40.5653 157.442 40.7686 157.442 40.9781 157.442C41.0643 157.26 41.1505 157.078 41.2394 156.89C41.5668 156.262 41.9157 155.735 42.3441 155.173C42.4917 154.978 42.6393 154.783 42.7914 154.582C43.0281 154.272 43.0281 154.272 43.2697 153.956C44.2824 152.623 45.2911 151.288 46.2677 149.928C46.421 149.715 46.5743 149.502 46.7323 149.283C47.0261 148.874 47.3183 148.463 47.6089 148.051C47.9514 147.576 48.3142 147.115 48.6808 146.658C48.8841 146.658 49.0875 146.658 49.297 146.658C49.3696 146.495 49.4423 146.331 49.5172 146.162C51.5161 142.444 54.5879 139.171 58.5618 137.675C60.242 137.191 61.5558 137.17 63.2002 137.762Z" fill="white"/>
<path d="M9.94974 489.254C11.2556 489.764 12.0762 490.719 13.0368 491.717C13.2356 491.916 13.4344 492.116 13.6392 492.321C15.0973 493.807 15.0973 493.807 15.0973 494.51C15.3006 494.51 15.504 494.51 15.7135 494.51C15.7135 494.713 15.7135 494.916 15.7135 495.126C15.9168 495.126 16.1202 495.126 16.3297 495.126C16.3297 495.329 16.3297 495.532 16.3297 495.742C16.506 495.821 16.6824 495.901 16.8641 495.983C17.6272 496.393 18.2196 496.867 18.8716 497.437C19.198 497.718 19.198 497.718 19.5311 498.005C20.027 498.515 20.027 498.515 20.027 499.131C20.299 499.256 20.299 499.256 20.5765 499.383C21.2547 499.745 21.7543 500.13 22.3257 500.64C22.5219 500.813 22.7181 500.987 22.9203 501.165C23.122 501.345 23.3238 501.526 23.5317 501.711C25.1677 503.18 25.1677 503.18 26.9521 504.458C27.2087 504.632 27.4652 504.806 27.7296 504.985C27.7296 505.188 27.7296 505.392 27.7296 505.601C27.9089 505.686 28.0882 505.77 28.2729 505.856C28.9496 506.211 29.521 506.603 30.1282 507.065C30.3425 507.227 30.5568 507.389 30.7775 507.556C30.9982 507.724 31.2188 507.893 31.4461 508.066C31.886 508.4 32.3261 508.734 32.7664 509.067C32.9602 509.215 33.1541 509.363 33.3538 509.515C33.8302 509.869 34.3222 510.202 34.816 510.531C34.816 510.734 34.816 510.938 34.816 511.147C34.9966 511.233 35.1772 511.319 35.3632 511.408C36.0049 511.741 36.566 512.102 37.1521 512.524C37.3605 512.673 37.569 512.822 37.7838 512.975C38.0055 513.135 38.2271 513.294 38.4555 513.458C42.1204 516.065 45.8588 518.533 49.6717 520.919C50.3701 521.356 51.0663 521.797 51.7618 522.239C52.0125 522.397 52.2632 522.555 52.5215 522.717C52.7673 522.876 53.013 523.034 53.2662 523.197C53.4875 523.338 53.7088 523.48 53.9368 523.625C54.5925 524.132 55.0189 524.619 55.4591 525.32C55.4731 527.183 54.3735 528.807 53.5142 530.404C53.266 530.872 53.266 530.872 53.0129 531.349C52.4966 532.32 51.9761 533.288 51.4537 534.255C51.2963 534.547 51.1389 534.838 50.9767 535.139C49.7522 537.401 48.5148 539.656 47.2744 541.909C45.6151 544.925 43.9708 547.939 42.4558 551.03C41.8046 552.349 41.1033 553.628 40.3619 554.898C39.3541 556.63 38.4494 558.393 37.5673 560.191C36.9522 561.436 36.299 562.64 35.5863 563.833C34.8067 565.142 34.0993 566.471 33.4295 567.839C32.2209 570.299 30.9296 572.712 29.6305 575.125C28.0572 578.048 26.4981 580.979 24.9483 583.915C23.1535 587.314 21.3447 590.705 19.4924 594.074C18.1816 596.466 16.9279 598.887 15.676 601.311C14.1051 604.345 12.4728 607.343 10.8215 610.333C10.4644 610.971 10.4644 610.971 10.1822 611.658C10.0757 611.839 9.96922 612.02 9.85947 612.206C8.89664 612.437 8.89664 612.437 8.01084 612.514C7.85833 612.056 7.85833 612.056 7.70273 611.59C7.49938 611.59 7.29603 611.59 7.08652 611.59C7.03254 589.15 7.16851 566.713 7.33821 544.274C7.36532 540.686 7.39118 537.099 7.41622 533.512C7.44584 529.267 7.47629 525.022 7.50796 520.778C7.51135 520.324 7.51473 519.871 7.5181 519.417C7.51976 519.195 7.52142 518.972 7.52313 518.742C7.53456 517.201 7.54542 515.66 7.55604 514.119C7.5703 512.05 7.58589 509.98 7.60232 507.911C7.60808 507.161 7.61344 506.411 7.61833 505.662C7.65301 500.399 7.79744 495.147 8.01084 489.888C9.15495 489.274 9.15495 489.274 9.94974 489.254Z" fill="white"/>
<path d="M620.833 494.817C622.566 494.74 622.566 494.74 623.605 495.434C623.734 496.227 623.734 496.227 623.754 497.277C623.761 497.573 623.761 497.573 623.768 497.876C623.784 498.565 623.792 499.253 623.801 499.942C623.81 500.457 623.82 500.971 623.83 501.486C623.859 503.017 623.88 504.549 623.9 506.08C623.914 507.199 623.93 508.319 623.946 509.438C624.034 515.789 624.104 522.141 624.17 528.493C624.178 529.283 624.187 530.073 624.195 530.863C624.247 535.794 624.299 540.725 624.348 545.656C624.36 546.786 624.371 547.915 624.383 549.045C624.385 549.325 624.388 549.606 624.391 549.895C624.437 554.474 624.488 559.053 624.539 563.632C624.593 568.354 624.642 573.076 624.689 577.798C624.715 580.441 624.742 583.085 624.774 585.728C624.801 587.969 624.824 590.21 624.844 592.452C624.854 593.594 624.865 594.737 624.881 595.88C624.898 597.116 624.907 598.352 624.916 599.589C624.922 599.952 624.928 600.315 624.934 600.69C624.936 601.019 624.937 601.349 624.938 601.688C624.943 602.116 624.943 602.116 624.947 602.553C624.838 603.271 624.838 603.271 624.421 603.838C623.914 604.195 623.914 604.195 623.086 604.099C622.733 603.994 622.733 603.994 622.373 603.887C622.278 603.531 622.182 603.175 622.084 602.808C621.519 601.098 620.638 599.605 619.742 598.052C619.063 596.874 618.418 595.696 617.828 594.47C616.913 592.595 615.878 590.794 614.844 588.982C613.537 586.692 612.292 584.398 611.139 582.027C610.5 580.76 609.774 579.552 609.047 578.333C608.266 576.965 607.586 575.551 606.892 574.138C606.218 572.814 605.467 571.547 604.708 570.271C604.223 569.428 603.79 568.578 603.367 567.704C602.494 565.918 601.511 564.205 600.517 562.485C599.294 560.368 598.143 558.247 597.071 556.05C596.203 554.296 595.244 552.589 594.303 550.873C593.07 548.626 591.851 546.372 590.638 544.114C589.29 541.607 587.938 539.103 586.575 536.604C586.427 536.332 586.279 536.06 586.126 535.779C585.358 534.373 584.584 532.97 583.801 531.572C583.643 531.289 583.484 531.005 583.322 530.713C583.02 530.173 582.717 529.634 582.412 529.095C582.278 528.856 582.144 528.616 582.006 528.368C581.829 528.053 581.829 528.053 581.647 527.731C581.395 527.168 581.395 527.168 581.395 526.244C581.192 526.244 580.988 526.244 580.779 526.244C580.548 525.551 580.548 525.551 580.471 524.704C581.366 523.602 582.473 522.99 583.706 522.335C589.266 519.285 594.761 516.001 599.864 512.231C600.561 511.716 601.262 511.206 601.963 510.697C611.494 504.152 611.494 504.152 619.642 496.128C619.832 495.899 620.021 495.67 620.216 495.434C620.42 495.434 620.623 495.434 620.833 495.434C620.833 495.23 620.833 495.027 620.833 494.817Z" fill="white"/>
</svg>
