<svg width="22" height="18" viewBox="0 0 22 18" fill="none" xmlns="http://www.w3.org/2000/svg">
<path d="M19.3029 0.708984H2.85266C1.72171 0.708984 0.806668 1.63431 0.806668 2.76526L0.796387 15.1029C0.796387 16.2339 1.72171 17.1592 2.85266 17.1592H19.3029C20.4338 17.1592 21.3592 16.2339 21.3592 15.1029V2.76526C21.3592 1.63431 20.4338 0.708984 19.3029 0.708984ZM18.8916 5.07857L11.6227 9.62295C11.2937 9.82857 10.8619 9.82857 10.5329 9.62295L3.26392 5.07857C3.00688 4.91407 2.85266 4.63647 2.85266 4.33831C2.85266 3.64946 3.60321 3.23821 4.18924 3.59805L11.0778 7.90595L17.9663 3.59805C18.5523 3.23821 19.3029 3.64946 19.3029 4.33831C19.3029 4.63647 19.1487 4.91407 18.8916 5.07857Z" fill="#121212" fill-opacity="0.6"/>
</svg>
