<svg width="20" height="20" viewBox="0 0 20 20" fill="none" xmlns="http://www.w3.org/2000/svg">
<path fill-rule="evenodd" clip-rule="evenodd" d="M5.9654 4.70337C5.9654 3.61266 6.39869 2.56661 7.16994 1.79536C7.94119 1.02411 8.98724 0.59082 10.078 0.59082C11.1687 0.59082 12.2147 1.02411 12.986 1.79536C13.7572 2.56661 14.1905 3.61266 14.1905 4.70337C14.1905 5.79409 13.7572 6.84014 12.986 7.61139C12.2147 8.38264 11.1687 8.81593 10.078 8.81593C8.98724 8.81593 7.94119 8.38264 7.16994 7.61139C6.39869 6.84014 5.9654 5.79409 5.9654 4.70337ZM5.9654 10.8722C4.602 10.8722 3.29445 11.4138 2.33038 12.3779C1.36631 13.3419 0.824707 14.6495 0.824707 16.0129C0.824707 16.8309 1.14967 17.6155 1.72811 18.1939C2.30655 18.7723 3.09108 19.0973 3.90912 19.0973H16.2468C17.0648 19.0973 17.8494 18.7723 18.4278 18.1939C19.0062 17.6155 19.3312 16.8309 19.3312 16.0129C19.3312 14.6495 18.7896 13.3419 17.8255 12.3779C16.8615 11.4138 15.5539 10.8722 14.1905 10.8722H5.9654Z" fill="#121212" fill-opacity="0.6"/>
</svg>
