<svg width="19" height="20" viewBox="0 0 19 20" fill="none" xmlns="http://www.w3.org/2000/svg">
<path d="M17.1865 13.1953L14.575 12.8971C13.9478 12.8252 13.331 13.0411 12.8889 13.4832L10.9971 15.3749C8.08745 13.8944 5.70217 11.5194 4.22165 8.5995L6.12371 6.69745C6.5658 6.25535 6.78171 5.63846 6.70974 5.0113L6.41158 2.42039C6.28821 1.38197 5.41429 0.600586 4.36559 0.600586H2.58691C1.42511 0.600586 0.458663 1.56704 0.530632 2.72883C1.07555 11.5091 8.09773 18.521 16.8678 19.066C18.0295 19.1379 18.996 18.1715 18.996 17.0097V15.231C19.0063 14.1926 18.2249 13.3187 17.1865 13.1953V13.1953Z" fill="#121212" fill-opacity="0.6"/>
</svg>
