<svg width="26" height="13" viewBox="0 0 26 13" fill="none" xmlns="http://www.w3.org/2000/svg">
<path d="M13.0779 7.25146C14.7538 7.25146 16.2343 7.65243 17.4372 8.17678C18.5476 8.67029 19.2467 9.78068 19.2467 10.9836V11.621C19.2467 12.1865 18.7841 12.6492 18.2186 12.6492H7.9372C7.37173 12.6492 6.90907 12.1865 6.90907 11.621V10.9939C6.90907 9.78068 7.6082 8.67029 8.71859 8.18706C9.92151 7.65243 11.402 7.25146 13.0779 7.25146ZM4.85279 7.50849C5.98374 7.50849 6.90907 6.58317 6.90907 5.45222C6.90907 4.32126 5.98374 3.39594 4.85279 3.39594C3.72184 3.39594 2.79651 4.32126 2.79651 5.45222C2.79651 6.58317 3.72184 7.50849 4.85279 7.50849ZM6.01459 8.63945C5.63417 8.57776 5.25376 8.53663 4.85279 8.53663C3.83493 8.53663 2.86848 8.75254 1.99456 9.13295C1.23374 9.46196 0.740234 10.2022 0.740234 11.035V11.621C0.740234 12.1865 1.2029 12.6492 1.76837 12.6492H5.36686V10.9939C5.36686 10.1405 5.60333 9.33858 6.01459 8.63945ZM21.303 7.50849C22.434 7.50849 23.3593 6.58317 23.3593 5.45222C23.3593 4.32126 22.434 3.39594 21.303 3.39594C20.1721 3.39594 19.2467 4.32126 19.2467 5.45222C19.2467 6.58317 20.1721 7.50849 21.303 7.50849ZM25.4156 11.035C25.4156 10.2022 24.9221 9.46196 24.1612 9.13295C23.2873 8.75254 22.3209 8.53663 21.303 8.53663C20.902 8.53663 20.5216 8.57776 20.1412 8.63945C20.5525 9.33858 20.7889 10.1405 20.7889 10.9939V12.6492H24.3874C24.9529 12.6492 25.4156 12.1865 25.4156 11.621V11.035ZM13.0779 0.311523C14.7846 0.311523 16.1623 1.68923 16.1623 3.39594C16.1623 5.10265 14.7846 6.48035 13.0779 6.48035C11.3712 6.48035 9.99348 5.10265 9.99348 3.39594C9.99348 1.68923 11.3712 0.311523 13.0779 0.311523Z" fill="#6F6F6F"/>
</svg>
