<svg width="23" height="19" viewBox="0 0 23 19" fill="none" xmlns="http://www.w3.org/2000/svg">
<path d="M3.55621 11.1483V14.0374C3.55621 14.7879 3.96746 15.487 4.62547 15.8469L9.76616 18.6537C10.383 18.993 11.1233 18.993 11.7402 18.6537L16.8809 15.8469C17.5389 15.487 17.9501 14.7879 17.9501 14.0374V11.1483L11.7402 14.5412C11.1233 14.8804 10.383 14.8804 9.76616 14.5412L3.55621 11.1483ZM9.76616 1.21648L1.09896 5.94592C0.389541 6.33661 0.389541 7.36475 1.09896 7.75544L9.76616 12.4849C10.383 12.8242 11.1233 12.8242 11.7402 12.4849L20.0064 7.97135V14.0476C20.0064 14.6131 20.4691 15.0758 21.0346 15.0758C21.6 15.0758 22.0627 14.6131 22.0627 14.0476V7.45728C22.0627 7.07687 21.8571 6.73758 21.5281 6.55252L11.7402 1.21648C11.1233 0.887475 10.383 0.887475 9.76616 1.21648V1.21648Z" fill="#121212" fill-opacity="0.6"/>
</svg>
